<?xml version="1.0" encoding="utf-8"?>
<!-- Generator: Adobe Illustrator 22.0.1, SVG Export Plug-In . SVG Version: 6.00 Build 0)  -->
<svg version="1.1" id="Layer_1" xmlns="http://www.w3.org/2000/svg" xmlns:xlink="http://www.w3.org/1999/xlink" x="0px" y="0px"
	 viewBox="0 0 80 80" style="enable-background:new 0 0 80 80;" xml:space="preserve">
<style type="text/css">
	.st0{fill:#282828;}
	.st1{fill:#0038BA;}
</style>
<path class="st0" d="M73,26.1L73,26.1c0-0.1,0-0.1,0-0.1s0,0,0-0.1c0,0,0,0,0-0.1c0,0,0,0,0-0.1c0,0,0,0,0-0.1c0,0,0,0,0-0.1
	c0,0,0,0,0-0.1l0,0c0,0,0,0,0-0.1c0,0,0,0,0-0.1l0,0c0,0,0-0.1-0.1-0.1l0,0l-25-25l0,0c0,0-0.1,0-0.1-0.1l0,0c0,0,0,0-0.1,0l0,0l0,0
	c0,0,0,0-0.1,0c0,0,0,0-0.1,0l0,0c0,0,0,0-0.1,0l0,0c0,0,0,0-0.1,0c0,0,0,0-0.1,0c0,0,0,0-0.1,0H47l0,0H13.6C10.5,0,8,2.5,8,5.6
	v58.7c0,2.9,2.2,5.3,5,5.6c0.3,2.6,2.4,4.7,5,5c0.3,2.8,2.7,5,5.6,5h43.7c3.1,0,5.6-2.5,5.6-5.6V26.2C73,26.2,73,26.1,73,26.1z
	 M57.9,14l11,11h-7.8c-1.8,0-3.3-1.5-3.3-3.3L57.9,14L57.9,14z M10.3,64.4V5.6c0-1.8,1.5-3.3,3.3-3.3h32.6L48.9,5H18.6
	C15.5,5,13,7.5,13,10.6v56.9C11.5,67.3,10.3,66,10.3,64.4z M15.4,69.4V10.6c0-1.8,1.5-3.3,3.3-3.3h32.6L54,10H23.6
	c-3.1,0-5.6,2.5-5.6,5.6v56.9C16.5,72.3,15.4,71,15.4,69.4z M67.4,77.7H23.6c-1.8,0-3.3-1.5-3.3-3.3V15.6c0-1.8,1.5-3.3,3.3-3.3h32
	v9.4c0,3.1,2.5,5.6,5.6,5.6h9.4v47C70.6,76.2,69.2,77.7,67.4,77.7z"/>
<g>
	<path class="st1" d="M42.5,51.7l-0.9-2.6h-6.7l-1,2.6h-3.8l6.1-15.6h4.1l6,15.6C46.2,51.7,42.5,51.7,42.5,51.7z M38.2,39.4
		l-2.4,6.7h4.9L38.2,39.4z"/>
	<path class="st1" d="M54.3,51.7v-3.2h-7.5v-2.6l6.2-9.8h4.5v9.4h2v2.9h-2v3.2C57.6,51.7,54.3,51.7,54.3,51.7z M54.3,39.1l-4.2,6.5
		h4.2V39.1z"/>
</g>
</svg>
