<?xml version="1.0" encoding="utf-8"?>
<!-- Generator: Adobe Illustrator 24.2.3, SVG Export Plug-In . SVG Version: 6.00 Build 0)  -->
<svg version="1.1" id="Layer_1" xmlns="http://www.w3.org/2000/svg" xmlns:xlink="http://www.w3.org/1999/xlink" x="0px" y="0px"
	 viewBox="0 0 100 100" style="enable-background:new 0 0 100 100;" xml:space="preserve">
<style type="text/css">
	.st0{fill:#EFEFEF;}
	.st1{fill:#F3F3F1;}
	.st2{fill:#D6D6D6;}
	.st3{fill:#282828;}
	.st4{fill:#0038BA;}
</style>
<path class="st0" d="M77.1,9.5C57.2,9.9,43.4-0.1,33.8,0S4.2,6.1,5,50.1s28,50,38.5,49.8C92.9,99,112.2,8.9,77.1,9.5z"/>
<path class="st1" d="M20.6,36.4V68c0,1.6,1.3,2.9,2.9,2.9h38.8c3.2,0,5.7-2.6,5.7-5.7V36.4H20.6z"/>
<g>
	<path class="st2" d="M20.5,7.4l4.1-4.1l2,2l-4.1,4.1L20.5,7.4z"/>
	<path class="st2" d="M8.8,19.1l4.1-4.1l2,2l-4.1,4.1L8.8,19.1z"/>
	<path class="st2" d="M8.8,4.9l2-2l4.1,4.1l-2,2L8.8,4.9z"/>
	<path class="st2" d="M82.3,45.5c-2.4,0-4.3-1.9-4.3-4.3c0-2.4,1.9-4.3,4.3-4.3c2.4,0,4.3,1.9,4.3,4.3
		C86.6,43.5,84.7,45.5,82.3,45.5z M82.3,39.7c-0.8,0-1.4,0.6-1.4,1.4s0.6,1.4,1.4,1.4c0.8,0,1.4-0.6,1.4-1.4S83.1,39.7,82.3,39.7z"
		/>
</g>
<path class="st3" d="M42.1,73H23.4c-2.8,0-5-2.3-5-5V36.4c0-1.2,1-2.2,2.2-2.2H68c1.2,0,2.2,1,2.2,2.2v5.7h-4.3v-3.6H22.7V68
	c0,0.4,0.3,0.7,0.7,0.7h18.7V73z"/>
<path class="st3" d="M37.8,42.8h12.9v4.3H37.8V42.8z"/>
<path class="st3" d="M70.8,38.5H17.7c-1.2,0-2.2-1-2.2-2.2V26.3c0-1.2,1-2.2,2.2-2.2h53.1c1.2,0,2.2,1,2.2,2.2v10.1
	C73,37.5,72,38.5,70.8,38.5z M19.8,34.2h48.8v-5.7H19.8V34.2z"/>
<path class="st3" d="M69.2,27.8L62,19.8H26.5l-7.3,7.9l-3.2-2.9l7.9-8.6c0.4-0.4,1-0.7,1.6-0.7h37.3c0.6,0,1.2,0.3,1.6,0.7l7.9,8.6
	L69.2,27.8z"/>
<path class="st4" d="M65.8,84.5c-10.3,0-18.7-8.4-18.7-18.7s8.4-18.7,18.7-18.7s18.7,8.4,18.7,18.7S76.1,84.5,65.8,84.5z M65.8,51.4
	c-7.9,0-14.4,6.4-14.4,14.4s6.4,14.4,14.4,14.4s14.4-6.4,14.4-14.4S73.7,51.4,65.8,51.4z"/>
<path class="st4" d="M63.6,57.9H68v15.8h-4.3V57.9z"/>
<path class="st4" d="M57.9,63.6h15.8V68H57.9V63.6z"/>
</svg>
