<?xml version="1.0" encoding="utf-8"?>
<!-- Generator: Adobe Illustrator 22.0.1, SVG Export Plug-In . SVG Version: 6.00 Build 0)  -->
<svg version="1.1" id="Layer_1" xmlns="http://www.w3.org/2000/svg" xmlns:xlink="http://www.w3.org/1999/xlink" x="0px" y="0px"
	 viewBox="0 0 24 24" style="enable-background:new 0 0 24 24;" xml:space="preserve">
<style type="text/css">
	.st0{fill:#FFFFFF;}
	.st1{fill:none;stroke:#FFFFFF;stroke-width:2;stroke-linecap:round;stroke-linejoin:round;}
</style>
<g>
	<path class="st0" d="M0.2,20.8h1.9c0.1,1.7,1.6,3.1,3.3,3.1c1.8,0,3.2-1.4,3.3-3.1h5.6l0,0h0.1c0.1,1.7,1.6,3.1,3.3,3.1
		c1.8,0,3.2-1.4,3.3-3.1h2.5v-7.5h0.2l-4-4.6h-5.3l-1.5,0v10.4H8.5c-0.5-1.2-1.7-2-3-2c-1.4,0-2.6,0.9-3.1,2.1H1.8v-2H0.2V20.8z
		 M5.5,22.3c-1,0-1.8-0.8-1.8-1.8s0.8-1.8,1.8-1.8s1.8,0.8,1.8,1.8C7.3,21.4,6.5,22.3,5.5,22.3z M17.9,22.3c-1,0-1.8-0.8-1.8-1.8
		s0.8-1.8,1.8-1.8s1.8,0.8,1.8,1.8C19.7,21.4,18.9,22.3,17.9,22.3z M22.2,19.1H21c-0.5-1.2-1.7-2-3.1-2s-2.6,0.9-3.1,2.1h-0.4v-9
		h4.7l3.1,3.7C22.2,13.9,22.2,19.1,22.2,19.1z"/>
</g>
<path class="st1" d="M10.4,6.3H1"/>
<path class="st1" d="M5.7,11.5V1.1"/>
</svg>
