<?xml version="1.0" encoding="utf-8"?>
<!-- Generator: Adobe Illustrator 24.2.3, SVG Export Plug-In . SVG Version: 6.00 Build 0)  -->
<svg version="1.1" id="_x31_" xmlns="http://www.w3.org/2000/svg" xmlns:xlink="http://www.w3.org/1999/xlink" x="0px" y="0px"
	 viewBox="0 0 80 80" style="enable-background:new 0 0 80 80;" xml:space="preserve">
<style type="text/css">
	.st0{fill:#06205E;}
</style>
<path class="st0" d="M70.7,80c-0.3,0-0.7-0.1-0.9-0.3l-11.4-7.8l-11.4,7.8c-0.6,0.4-1.3,0.4-1.9,0c-0.6-0.4-0.8-1.1-0.7-1.8l3.5-14
	l-10.6-9.1c-0.5-0.4-0.7-1.2-0.5-1.8c0.2-0.6,0.8-1.1,1.5-1.1l13.6-0.8l4.9-13.4c0.5-1.3,2.6-1.3,3.1,0l4.9,13.4l13.6,0.8
	c0.7,0,1.3,0.5,1.5,1.1c0.2,0.6,0,1.4-0.5,1.8L68.8,64l3.5,14c0.2,0.7-0.1,1.4-0.7,1.8C71.4,79.9,71,80,70.7,80z M58.3,68.3
	c0.3,0,0.7,0.1,0.9,0.3l8.7,5.9l-2.7-10.7c-0.2-0.6,0.1-1.3,0.5-1.7l8.3-7.1l-10.6-0.6c-0.7,0-1.2-0.5-1.5-1.1l-3.7-10.2l-3.7,10.2
	c-0.2,0.6-0.8,1.1-1.5,1.1L42.6,55l8.3,7.1c0.5,0.4,0.7,1.1,0.5,1.7l-2.7,10.7l8.7-5.9C57.7,68.4,58,68.3,58.3,68.3L58.3,68.3z"/>
<path class="st0" d="M38.3,70h-30C3.7,70,0,66.3,0,61.7V8.3C0,3.7,3.7,0,8.3,0H45c4.6,0,8.3,3.7,8.3,8.3v20c0,0.9-0.7,1.7-1.7,1.7
	c-0.9,0-1.7-0.7-1.7-1.7v-20c0-2.8-2.2-5-5-5H8.3c-2.8,0-5,2.2-5,5v53.3c0,2.8,2.2,5,5,5h30c0.9,0,1.7,0.7,1.7,1.7
	C40,69.3,39.3,70,38.3,70z"/>
<path class="st0" d="M26.7,50C17.5,50,10,42.5,10,33.3s7.5-16.7,16.7-16.7s16.7,7.5,16.7,16.7S35.9,50,26.7,50z M26.7,20
	c-7.4,0-13.3,6-13.3,13.3s6,13.3,13.3,13.3S40,40.7,40,33.3S34,20,26.7,20z"/>
<path class="st0" d="M16.1,45.6c-0.4,0-0.9-0.2-1.2-0.5c-0.7-0.6-0.7-1.7,0-2.4L25,32.6V18.3c0-0.9,0.7-1.7,1.7-1.7s1.7,0.7,1.7,1.7
	v15c0,0.4-0.2,0.9-0.5,1.2L17.2,45.1C16.9,45.4,16.5,45.6,16.1,45.6z"/>
</svg>
