<?xml version="1.0" encoding="utf-8"?>
<!-- Generator: Adobe Illustrator 22.0.1, SVG Export Plug-In . SVG Version: 6.00 Build 0)  -->
<svg version="1.1" id="Layer_1" xmlns="http://www.w3.org/2000/svg" xmlns:xlink="http://www.w3.org/1999/xlink" x="0px" y="0px"
	 viewBox="0 0 24 24" style="enable-background:new 0 0 24 24;" xml:space="preserve">
<style type="text/css">
	.st0{fill:#FFFFFF;stroke:#FFFFFF;stroke-width:0.75;stroke-miterlimit:10;}
</style>
<g>
	<g>
		<g>
			<path class="st0" d="M18.4,18.8c-0.1,0-0.2,0-0.3,0c-5.6-2.4-10.8-1.5-11.8-1.3c-0.1,0-0.2,0-0.2,0c-0.2,0.1-0.5,0-0.6-0.2
				c-2.3-3.4-1.5-6.9-1.5-7.1c0-0.2,0.2-0.3,0.4-0.4c6.2-1.3,9.1-4.3,10.5-5.7C15.2,4,15.4,4,15.6,4c0.2,0,0.3,0.2,0.4,0.4
				c0.2,0.8,0.9,4.2,1.5,7.3c0.6,3,1.2,5.8,1.4,6.5c0,0.2,0,0.4-0.2,0.5C18.6,18.8,18.5,18.8,18.4,18.8z M6.3,16.5
				c1.3-0.2,6.1-0.9,11.3,1c-0.3-1.2-0.7-3.4-1.2-5.6c-0.5-2.5-1.1-5-1.4-6.4c-1.7,1.6-4.6,4-10,5.2C4.9,11.6,4.7,14,6.3,16.5z"/>
			<path class="st0" d="M17.3,23.1"/>
			<path class="st0" d="M5.1,17.7l-1,0.2c-1.4,0.3-2.9-1.2-3.4-3.3s0.3-4.1,1.8-4.3L3.6,10l0.2,1l-1.1,0.2c-0.7,0.1-1.3,1.5-0.9,3.2
				s1.4,2.7,2.1,2.6l1-0.2L5.1,17.7z"/>
		</g>
		<g>
			<path class="st0" d="M19.6,3.7l-0.7,0.8c1.6,1.3,2.8,3.2,3.3,5.5c0.5,2.3,0.1,4.5-0.8,6.3l1,0.5c1.1-2,1.4-4.5,0.9-7
				C22.7,7.3,21.4,5.1,19.6,3.7z"/>
		</g>
	</g>
	<path class="st0" d="M9.8,22.7c-0.8,0.1-1.6-0.4-1.7-1.2l-0.7-4.7l3.1-0.1l0.6,4.3C11.2,21.9,10.6,22.6,9.8,22.7z M8.6,17.8
		l0.5,3.6c0,0.2,0.3,0.4,0.5,0.4c0.3,0,0.4-0.3,0.4-0.5l-0.5-3.5L8.6,17.8z"/>
</g>
</svg>
