<?xml version="1.0" encoding="utf-8"?>
<!-- Generator: Adobe Illustrator 22.0.1, SVG Export Plug-In . SVG Version: 6.00 Build 0)  -->
<svg version="1.1" id="Layer_1" xmlns="http://www.w3.org/2000/svg" xmlns:xlink="http://www.w3.org/1999/xlink" x="0px" y="0px"
	 viewBox="0 0 24 24" style="enable-background:new 0 0 24 24;" xml:space="preserve">
<style type="text/css">
	.st0{fill:#FFFFFF;}
</style>
<g>
	<g>
		<path class="st0" d="M22.2,4.9c-0.2-0.5-0.4-0.8-0.7-1l-2.3-2.3c-0.3-0.3-0.6-0.5-1-0.7c-0.5-0.2-0.8-0.3-1.1-0.3H2.8
			c-0.4,0-0.7,0.1-0.9,0.4S1.5,1.6,1.5,2v20c0,0.4,0.1,0.7,0.4,0.9s0.6,0.4,0.9,0.4h18.4c0.4,0,0.7-0.1,0.9-0.4s0.4-0.6,0.4-0.9V6.1
			C22.5,5.7,22.4,5.3,22.2,4.9z M17.5,2.5c0.3,0.1,0.5,0.2,0.6,0.3L20.3,5c0.1,0.1,0.2,0.3,0.3,0.6h-3.1V2.5z M20.8,21.5H3.2V2.4
			h12.6v3.7c0,0.4,0.1,0.7,0.4,0.9c0.3,0.3,0.6,0.4,0.9,0.4h3.7V21.5z"/>
	</g>
</g>
<g>
	<g>
		<path class="st0" d="M15.3,9.8l-5,5l-1.7-1.7c-0.4-0.4-1-0.4-1.4,0l-0.1,0.1c-0.4,0.4-0.4,1,0,1.4l3.1,3l6.5-6.4
			c0.4-0.4,0.4-1,0-1.4l-0.1-0.1C16.3,9.4,15.7,9.4,15.3,9.8z"/>
	</g>
</g>
</svg>
