<?xml version="1.0" encoding="utf-8"?>
<!-- Generator: Adobe Illustrator 25.2.1, SVG Export Plug-In . SVG Version: 6.00 Build 0)  -->
<svg version="1.1" id="Layer_1" xmlns="http://www.w3.org/2000/svg" xmlns:xlink="http://www.w3.org/1999/xlink" x="0px" y="0px"
	 viewBox="0 0 16 16" style="enable-background:new 0 0 16 16;" xml:space="preserve">
<style type="text/css">
	.st0{fill:#0038BA;}
</style>
<path class="st0" d="M14,0H2C0.9,0,0,0.9,0,2v12c0,1.1,0.9,2,2,2h12c1.1,0,2-0.9,2-2V2C16,0.9,15.1,0,14,0z M1,3.9C1,3.4,1.4,3,2,3
	h12c0.6,0,1,0.4,1,0.9v10.3c0,0.5-0.4,0.9-1,0.9H2c-0.6,0-1-0.4-1-0.9V3.9z"/>
<path class="st0" d="M6.5,7c0.6,0,1-0.4,1-1s-0.4-1-1-1s-1,0.4-1,1S5.9,7,6.5,7z M9.5,7c0.6,0,1-0.4,1-1s-0.4-1-1-1s-1,0.4-1,1
	S8.9,7,9.5,7z M12.5,7c0.6,0,1-0.4,1-1s-0.4-1-1-1s-1,0.4-1,1S11.9,7,12.5,7z M3.5,10c0.6,0,1-0.4,1-1s-0.4-1-1-1s-1,0.4-1,1
	S2.9,10,3.5,10z M6.5,10c0.6,0,1-0.4,1-1s-0.4-1-1-1s-1,0.4-1,1S5.9,10,6.5,10z M9.5,10c0.6,0,1-0.4,1-1s-0.4-1-1-1s-1,0.4-1,1
	S8.9,10,9.5,10z M12.5,10c0.6,0,1-0.4,1-1s-0.4-1-1-1s-1,0.4-1,1S11.9,10,12.5,10z M3.5,13c0.6,0,1-0.4,1-1s-0.4-1-1-1s-1,0.4-1,1
	S2.9,13,3.5,13z M6.5,13c0.6,0,1-0.4,1-1s-0.4-1-1-1s-1,0.4-1,1S5.9,13,6.5,13z M9.5,13c0.6,0,1-0.4,1-1s-0.4-1-1-1s-1,0.4-1,1
	S8.9,13,9.5,13z"/>
</svg>
