<?xml version="1.0" encoding="utf-8"?>
<!-- Generator: Adobe Illustrator 24.2.3, SVG Export Plug-In . SVG Version: 6.00 Build 0)  -->
<svg version="1.1" id="_x31_" xmlns="http://www.w3.org/2000/svg" xmlns:xlink="http://www.w3.org/1999/xlink" x="0px" y="0px"
	 viewBox="0 0 80 80" style="enable-background:new 0 0 80 80;" xml:space="preserve">
<style type="text/css">
	.st0{fill:#0038ba;}
</style>
<g>
	<path class="st0" d="M78.3,80H1.6C0.8,80,0,79.3,0,78.3c0-0.9,0.7-1.7,1.7-1.7h76.7c0.9,0,1.7,0.7,1.7,1.7S79.3,80,78.3,80z"/>
	<path class="st0" d="M21.7,80H5c-0.9,0-1.7-0.7-1.7-1.7V60c0-1.8,1.5-3.3,3.3-3.3H20c1.8,0,3.3,1.5,3.3,3.3v18.3
		C23.3,79.3,22.6,80,21.7,80z M6.7,76.7H20V60H6.7V76.7z"/>
	<path class="st0" d="M48.3,80H31.6c-0.9,0-1.7-0.7-1.7-1.7V35c0-1.8,1.5-3.3,3.3-3.3h13.3c1.8,0,3.3,1.5,3.3,3.3v43.3
		C50,79.3,49.3,80,48.3,80z M33.3,76.7h13.3V35H33.3V76.7z"/>
	<path class="st0" d="M75,80H58.3c-0.9,0-1.7-0.7-1.7-1.7V44c0-1.8,1.5-3.3,3.3-3.3h13.3c1.8,0,3.3,1.5,3.3,3.3v34.3
		C76.7,79.3,75.9,80,75,80z M60,76.7h13.3V44H60V76.7z"/>
	<path class="st0" d="M8.3,33.3c-0.4,0-0.9-0.2-1.2-0.5c-0.6-0.6-0.6-1.7,0-2.4l16.7-16.7c0.4-0.4,1-0.6,1.6-0.4l25.8,6.4L70.5,0.5
		c0.6-0.6,1.7-0.6,2.4,0s0.6,1.7,0,2.4l-20,20c-0.4,0.4-1,0.6-1.6,0.4l-25.8-6.4l-16,16C9.2,33.2,8.8,33.3,8.3,33.3z"/>
	<path class="st0" d="M71.7,16.7C70.8,16.7,70,16,70,15V3.3H58.3c-0.9,0-1.7-0.7-1.7-1.7S57.4,0,58.3,0h13.3c0.9,0,1.7,0.7,1.7,1.7
		V15C73.3,15.9,72.6,16.7,71.7,16.7z"/>
</g>
</svg>
