<?xml version="1.0" encoding="utf-8"?>
<!-- Generator: Adobe Illustrator 24.1.0, SVG Export Plug-In . SVG Version: 6.00 Build 0)  -->
<svg version="1.1" id="Layer_1" xmlns="http://www.w3.org/2000/svg" xmlns:xlink="http://www.w3.org/1999/xlink" x="0px" y="0px"
	 viewBox="0 0 16.1 15" style="enable-background:new 0 0 16.1 15;" xml:space="preserve">
<style type="text/css">
	.st0{fill:#282828;}
</style>
<g>
	<polygon class="st0" points="12.5,7.7 8.7,4 8.2,4.6 10.8,7.2 0,7.2 0,8.1 10.8,8.1 8.2,10.8 8.8,11.4 	"/>
	<path class="st0" d="M8.6,0C5.6,0,2.9,1.8,1.8,4.6H3C4.1,2.4,6.3,1,8.6,1.1c3.5,0,6.3,2.9,6.3,6.4c0,3.5-2.9,6.4-6.4,6.4
		c-2.4,0-4.6-1.3-5.6-3.4H1.8c1.1,2.7,3.8,4.4,6.8,4.5c4.1,0,7.5-3.3,7.5-7.4C16.1,3.5,12.6,0,8.6,0z"/>
</g>
</svg>
