<?xml version="1.0" encoding="utf-8"?>
<!-- Generator: Adobe Illustrator 24.2.3, SVG Export Plug-In . SVG Version: 6.00 Build 0)  -->
<svg version="1.1" id="_x31_" xmlns="http://www.w3.org/2000/svg" xmlns:xlink="http://www.w3.org/1999/xlink" x="0px" y="0px"
	 viewBox="0 0 80 80" style="enable-background:new 0 0 80 80;" xml:space="preserve">
<style type="text/css">
	.st0{fill:#0038ba;}
</style>
<path class="st0" d="M58.7,80C47,80,37.5,70.5,37.5,58.7S47,37.5,58.7,37.5S80,47,80,58.7S70.5,80,58.7,80z M58.7,40.7
	c-9.9,0-18,8.1-18,18s8.1,18,18,18s18-8.1,18-18S68.7,40.7,58.7,40.7z"/>
<path class="st0" d="M76.9,29.5H1.6c-0.9,0-1.6-0.7-1.6-1.6s0.7-1.6,1.6-1.6h75.3c0.9,0,1.6,0.7,1.6,1.6S77.8,29.5,76.9,29.5z"/>
<path class="st0" d="M73.6,29.5H4.9c-0.5,0-0.9-0.2-1.2-0.6c-0.3-0.4-0.5-0.8-0.4-1.3L6.2,4.3C6.5,1.8,8.6,0,11.1,0h56.4
	C70,0,72,1.8,72.4,4.3l2.9,23.3c0.1,0.5-0.1,0.9-0.4,1.3C74.6,29.3,74.1,29.5,73.6,29.5z M6.8,26.2h65L69.1,4.7
	c-0.1-0.8-0.8-1.4-1.6-1.4H11.1c-0.8,0-1.5,0.6-1.6,1.4L6.8,26.2z"/>
<path class="st0" d="M21.3,29.5c-0.1,0-0.1,0-0.2,0c-0.9-0.1-1.5-0.9-1.4-1.8l3.3-26.2C23,0.5,23.9-0.1,24.8,0
	c0.9,0.1,1.5,0.9,1.4,1.8L22.9,28C22.8,28.9,22.1,29.5,21.3,29.5L21.3,29.5z"/>
<path class="st0" d="M39.3,29.5c-0.9,0-1.6-0.7-1.6-1.6V1.6c0-0.9,0.7-1.6,1.6-1.6c0.9,0,1.6,0.7,1.6,1.6v26.2
	C40.9,28.7,40.2,29.5,39.3,29.5z"/>
<path class="st0" d="M57.3,29.5c-0.8,0-1.5-0.6-1.6-1.4L52.4,1.8c-0.1-0.9,0.5-1.7,1.4-1.8c0.9-0.1,1.7,0.5,1.8,1.4l3.3,26.2
	c0.1,0.9-0.5,1.7-1.4,1.8C57.4,29.5,57.3,29.5,57.3,29.5z"/>
<path class="st0" d="M31.1,72H14.7c-4.5,0-8.2-3.7-8.2-8.2v-36c0-0.9,0.7-1.6,1.6-1.6h62.2c0.9,0,1.6,0.7,1.6,1.6v3.3
	c0,0.9-0.7,1.6-1.6,1.6s-1.6-0.7-1.6-1.6v-1.6H9.8v34.4c0,2.7,2.2,4.9,4.9,4.9h16.4c0.9,0,1.6,0.7,1.6,1.6S32,72,31.1,72z"/>
<path class="st0" d="M27.8,58.9h-6.5c-2.7,0-4.9-2.2-4.9-4.9v-9.8c0-2.7,2.2-4.9,4.9-4.9h9.8c2.7,0,4.9,2.2,4.9,4.9
	c0,0.9-0.7,1.6-1.6,1.6s-1.6-0.7-1.6-1.6s-0.7-1.6-1.6-1.6h-9.8c-0.9,0-1.6,0.7-1.6,1.6V54c0,0.9,0.7,1.6,1.6,1.6h6.5
	c0.9,0,1.6,0.7,1.6,1.6S28.7,58.9,27.8,58.9z"/>
<path class="st0" d="M51.8,67.5c-0.4,0-0.9-0.2-1.2-0.5c-0.7-0.7-0.7-1.7,0-2.4l14.2-14.2c0.7-0.7,1.7-0.7,2.4,0
	c0.7,0.7,0.7,1.7,0,2.4L53,67C52.7,67.3,52.3,67.5,51.8,67.5L51.8,67.5z"/>
<path class="st0" d="M66,67.5c-0.4,0-0.9-0.2-1.2-0.5L50.7,52.8c-0.7-0.7-0.7-1.7,0-2.4c0.7-0.7,1.7-0.7,2.4,0l14.2,14.2
	c0.7,0.7,0.7,1.7,0,2.4C66.9,67.3,66.4,67.5,66,67.5L66,67.5z"/>
</svg>
