<?xml version="1.0" encoding="utf-8"?>
<!-- Generator: Adobe Illustrator 22.0.1, SVG Export Plug-In . SVG Version: 6.00 Build 0)  -->
<svg version="1.1" id="Layer_1" xmlns="http://www.w3.org/2000/svg" xmlns:xlink="http://www.w3.org/1999/xlink" x="0px" y="0px"
	 viewBox="0 0 24 24" style="enable-background:new 0 0 24 24;" xml:space="preserve">
<style type="text/css">
	.st0{fill:#FFFFFF;}
</style>
<g>
	<path class="st0" d="M21.2,2.4h-2.5c-0.3-1.3-1.4-2.2-2.7-2.2s-2.5,1-2.7,2.2h-1.5C11.5,1.1,10.4,0.1,9,0.1s-2.5,1-2.7,2.2H2.8
		C2.4,2.4,2.1,2.7,2.1,3v20.1c0,0.4,0.3,0.7,0.7,0.7h18.4c0.4,0,0.7-0.3,0.7-0.7V3C21.9,2.7,21.6,2.4,21.2,2.4z M16,1.5
		c0.6,0,1.1,0.3,1.3,0.8h-2.6C14.9,1.9,15.4,1.5,16,1.5z M9,1.5c0.6,0,1.1,0.3,1.3,0.8H7.7C8,1.9,8.4,1.5,9,1.5z M20.5,22.5h-17V3.7
		h2.8c0.4,1.2,1.5,2,2.7,2c0.4,0,0.7-0.3,0.7-0.7S9.4,4.3,9,4.3c-0.5,0-0.9-0.2-1.1-0.6h5.4c0.4,1.1,1.4,1.9,2.7,1.9
		c0.4,0,0.7-0.3,0.7-0.7S16.4,4.3,16,4.3c-0.5,0-0.9-0.2-1.1-0.6h5.6V22.5z"/>
</g>
<g>
	<g>
		<g>
			<path class="st0" d="M12.9,13.1v-1.7c0-0.5-0.3-0.9-0.9-0.9s-0.9,0.3-0.9,0.9v1.7H9.4c-0.5,0-0.9,0.3-0.9,0.9s0.3,0.9,0.9,0.9
				h1.7v1.7c0,0.5,0.3,0.9,0.9,0.9s0.9-0.3,0.9-0.9v-1.7h1.7c0.5,0,0.9-0.3,0.9-0.9s-0.3-0.9-0.9-0.9H12.9L12.9,13.1z"/>
			<path class="st0" d="M12,7c-3.9,0-7,3.1-7,7s3.1,7,7,7s7-3.1,7-7S15.9,7,12,7z M12,19.5c-3.1,0-5.5-2.4-5.5-5.5S8.9,8.5,12,8.5
				s5.5,2.4,5.5,5.5S15.1,19.5,12,19.5z"/>
		</g>
	</g>
</g>
</svg>
