<?xml version="1.0" encoding="utf-8"?>
<!-- Generator: Adobe Illustrator 25.2.1, SVG Export Plug-In . SVG Version: 6.00 Build 0)  -->
<svg version="1.1" id="Layer_1" xmlns="http://www.w3.org/2000/svg" xmlns:xlink="http://www.w3.org/1999/xlink" x="0px" y="0px"
	 viewBox="0 0 496 496" style="enable-background:new 0 0 496 496;" xml:space="preserve">
<style type="text/css">
	.st0{fill:#282828;}
	.st1{fill:#0038BA;}
</style>
<path class="st0" d="M332.8,331c7.8,0,14.1,6.5,14.1,14.4H361c0-13.4-9-24.6-21.2-27.8v-15.4h-14.1v14.4h-21.2v28.8
	c0,15.9,12.7,28.8,28.3,28.8c7.8,0,14.1,6.5,14.1,14.4V403h-14.1c-7.8,0-14.1-6.5-14.1-14.4h-14.1c0,13.4,9,24.6,21.2,27.8v15.4
	h14.1v-14.4h21.2v-28.8c0-15.9-12.7-28.8-28.3-28.8c-7.8,0-14.1-6.5-14.1-14.4V331H332.8z"/>
<path class="st1" d="M460,90.3l-60.7-61.8H120.9v173.1c-20.8,1.2-39.3,13.4-48.7,32.6l-0.7,1.5v33.5l2.1,2.1
	c16.9,17.2,26.2,40.1,26.2,64.5v38.5h-7.1c-17.1,0-31.3,12.4-34.6,28.8h-0.7C37.8,403,22,419.1,22,439v36h211.9v-28.8H262
	c17.4,17.8,41.4,28.8,68,28.8h5.7c26.5,0,50.6-11,68-28.8H460V90.3z M403.5,53l32.4,33h-32.4V53z M85.6,263.2v-24.1
	c7.7-14.5,22.4-23.4,38.7-23.4h7.5c16.3,0,30.9,8.9,38.7,23.4v24.1c-18.2,19.7-28.3,45.3-28.3,72.5v38.5h-28.3v-38.5
	C113.8,308.5,103.8,282.9,85.6,263.2z M36.1,460.6v-14.4h155.4v-14.4H37.4c2.9-8.4,10.7-14.4,19.9-14.4h28.3V403H72.8
	c2.9-8.4,10.7-14.4,19.9-14.4h70.6c9.2,0,17,6,19.9,14.4H99.7v14.4h98.9c9.2,0,17,6,19.9,14.4h-12.8v14.4h14.1v14.4L36.1,460.6
	L36.1,460.6z M335.7,460.6H330c-45.2,0-81.9-37.5-81.9-83.5c0-14.8,3.9-29.3,11.2-42.1l35.3-61.7h76.7l35.3,61.7
	c7.3,12.8,11.2,27.3,11.2,42.1C417.6,423.1,380.9,460.6,335.7,460.6z M371.4,258.9h-77.2l-37.6-57.4c-1-1.5-1.5-3.3-1.5-5.2
	c0-5.2,4.1-9.4,9.2-9.4h4.9c3.4,0,8.3,10.9,11.2,17.4c5.4,12.1,11.6,25.8,24.1,25.8c12.6,0,17.2-10.8,20.6-18.7
	c3.2-7.6,4.8-10.1,7.6-10.1c2.9,0,4.4,2.5,7.7,10.1c3.4,7.9,8.1,18.7,20.6,18.7s18.7-13.7,24.1-25.8c2.9-6.5,7.8-17.4,11.2-17.4h4.9
	c5.1,0,9.2,4.2,9.2,9.4c0,1.9-0.5,3.7-1.5,5.2L371.4,258.9z M415.3,431.8c10.4-15.6,16.4-34.5,16.4-54.7c0-17.3-4.5-34.4-13.1-49.3
	l-35.1-61.4l37.2-56.9c2.6-3.9,3.9-8.5,3.9-13.2c0-13.1-10.5-23.8-23.3-23.8h-4.9c-12.5,0-18.7,13.7-24.1,25.8
	c-2.9,6.5-7.8,17.4-11.2,17.4c-2.9,0-4.4-2.5-7.7-10.1c-3.4-7.9-8-18.7-20.6-18.7s-17.2,10.8-20.6,18.7c-3.2,7.6-4.8,10.1-7.6,10.1
	c-3.4,0-8.3-10.9-11.2-17.4c-5.4-12.1-11.6-25.8-24.1-25.8h-4.9c-12.9,0-23.3,10.7-23.3,23.8c0,4.7,1.4,9.3,3.9,13.2l37.2,56.9
	L247,327.7c-8.6,15-13.1,32-13.1,49.3c0,20.2,6.1,39.1,16.4,54.7h-17.1c-3.3-16.4-17.5-28.8-34.6-28.8h-0.7
	c-3.3-16.4-17.5-28.8-34.6-28.8h-7.1v-38.5c0-24.4,9.3-47.2,26.2-64.5l2.1-2.1v-33.5l-0.7-1.5c-9.4-19.2-27.9-31.4-48.7-32.6V42.9
	h254.3v57.6h56.5v331.3H415.3z"/>
<path class="st1" d="M276.3,57.3h98.9v14.4h-98.9V57.3z"/>
<path class="st1" d="M276.3,86.1h14.1v14.4h-14.1V86.1z"/>
<path class="st1" d="M304.6,86.1h70.6v14.4h-70.6V86.1z"/>
<path class="st0" d="M170.4,129.3H241c11.7,0,21.2-9.7,21.2-21.6V78.9c0-11.9-9.5-21.6-21.2-21.6h-70.6c-11.7,0-21.2,9.7-21.2,21.6
	v28.8C149.2,119.6,158.7,129.3,170.4,129.3z M163.3,78.9c0-4,3.2-7.2,7.1-7.2H241c3.9,0,7.1,3.2,7.1,7.2v28.8c0,4-3.2,7.2-7.1,7.2
	h-70.6c-3.9,0-7.1-3.2-7.1-7.2L163.3,78.9L163.3,78.9z"/>
<path class="st1" d="M276.3,114.9h155.4v14.4H276.3V114.9z"/>
<path class="st1" d="M149.2,143.7h254.3v14.4H149.2V143.7z"/>
<path class="st1" d="M417.6,143.7h14.1v14.4h-14.1V143.7z"/>
<path class="st1" d="M149.2,172.5h77.7v14.4h-77.7V172.5z"/>
</svg>
