<?xml version="1.0" encoding="utf-8"?>
<!-- Generator: Adobe Illustrator 24.2.3, SVG Export Plug-In . SVG Version: 6.00 Build 0)  -->
<svg version="1.1" id="_x31_" xmlns="http://www.w3.org/2000/svg" xmlns:xlink="http://www.w3.org/1999/xlink" x="0px" y="0px"
	 viewBox="0 0 80 80" style="enable-background:new 0 0 80 80;" xml:space="preserve">
<style type="text/css">
	.st0{fill:#0038ba;}
</style>
<path class="st0" d="M51.7,80c-0.9,0-1.7-0.7-1.7-1.7v-6.7C50,59.7,59.7,50,71.7,50h6.7c0.9,0,1.7,0.7,1.7,1.7
	c0,0.9-0.7,1.7-1.7,1.7h-6.7c-10.1,0-18.3,8.2-18.3,18.3v6.7C53.3,79.3,52.6,80,51.7,80z"/>
<path class="st0" d="M66.7,63.3c-0.5,0-0.9-0.2-1.3-0.6c-0.6-0.7-0.5-1.8,0.2-2.4l10.2-8.7l-10.2-8.7c-0.7-0.6-0.8-1.6-0.2-2.3
	c0.6-0.7,1.7-0.8,2.3-0.2l11.7,10c0.4,0.3,0.6,0.8,0.6,1.3c0,0.5-0.2,0.9-0.6,1.3l-11.7,10C67.4,63.2,67.1,63.3,66.7,63.3L66.7,63.3
	z"/>
<path class="st0" d="M41.7,70H8.3C3.7,70,0,66.3,0,61.7V8.3C0,3.7,3.7,0,8.3,0H45c4.6,0,8.3,3.7,8.3,8.3v40c0,0.9-0.7,1.7-1.7,1.7
	c-0.9,0-1.7-0.7-1.7-1.7v-40c0-2.8-2.2-5-5-5H8.3c-2.8,0-5,2.2-5,5v53.3c0,2.8,2.2,5,5,5h33.3c0.9,0,1.7,0.7,1.7,1.7
	C43.3,69.3,42.6,70,41.7,70z"/>
<path class="st0" d="M41.7,50c-0.9,0-1.7-0.7-1.7-1.7V20h-6.7v28.3c0,0.9-0.7,1.7-1.7,1.7S30,49.3,30,48.3v-30
	c0-0.9,0.7-1.7,1.7-1.7h10c0.9,0,1.7,0.7,1.7,1.7v30C43.3,49.3,42.6,50,41.7,50z"/>
<path class="st0" d="M21.7,50h-10c-0.9,0-1.7-0.7-1.7-1.7V31.7c0-0.9,0.7-1.7,1.7-1.7h10c0.9,0,1.7,0.7,1.7,1.7v16.7
	C23.3,49.3,22.6,50,21.7,50z M13.3,46.7H20V33.3h-6.7V46.7z"/>
<path class="st0" d="M45,50H8.3c-0.9,0-1.7-0.7-1.7-1.7c0-0.9,0.7-1.7,1.7-1.7H45c0.9,0,1.7,0.7,1.7,1.7C46.7,49.3,45.9,50,45,50z"
	/>
</svg>
