<?xml version="1.0" encoding="utf-8"?>
<!-- Generator: Adobe Illustrator 24.2.3, SVG Export Plug-In . SVG Version: 6.00 Build 0)  -->
<svg version="1.1" id="_x31_" xmlns="http://www.w3.org/2000/svg" xmlns:xlink="http://www.w3.org/1999/xlink" x="0px" y="0px"
	 viewBox="0 0 80 80" style="enable-background:new 0 0 80 80;" xml:space="preserve">
<style type="text/css">
	.st0{fill:#0038ba;}
</style>
<path class="st0" d="M28.3,70h-20C3.7,70,0,66.3,0,61.7V8.3C0,3.7,3.7,0,8.3,0H45c4.6,0,8.3,3.7,8.3,8.3v20c0,0.9-0.7,1.7-1.7,1.7
	c-0.9,0-1.7-0.7-1.7-1.7v-20c0-2.8-2.2-5-5-5H8.3c-2.8,0-5,2.2-5,5v53.3c0,2.8,2.2,5,5,5h20c0.9,0,1.7,0.7,1.7,1.7
	C30,69.3,29.3,70,28.3,70z"/>
<path class="st0" d="M31.7,46.3c-0.9,0-1.7-0.7-1.7-1.7V18.3c0-0.9,0.7-1.7,1.7-1.7h10c0.9,0,1.7,0.7,1.7,1.7v15.1
	c0,0.9-0.7,1.7-1.7,1.7c-0.9,0-1.7-0.7-1.7-1.7V20h-6.7v24.6C33.3,45.6,32.6,46.3,31.7,46.3z"/>
<path class="st0" d="M21.7,50h-10c-0.9,0-1.7-0.7-1.7-1.7V31.7c0-0.9,0.7-1.7,1.7-1.7h10c0.9,0,1.7,0.7,1.7,1.7v16.7
	C23.3,49.3,22.6,50,21.7,50z M13.3,46.7H20V33.3h-6.7V46.7z"/>
<path class="st0" d="M30.1,50H8.3c-0.9,0-1.7-0.7-1.7-1.7c0-0.9,0.7-1.7,1.7-1.7h21.7c0.9,0,1.7,0.7,1.7,1.7
	C31.7,49.3,31,50,30.1,50z"/>
<path class="st0" d="M60,80c-0.2,0-0.5-0.1-0.7-0.2L41,71.3c-0.6-0.3-1-0.9-1-1.5V50.2c0-0.6,0.3-1.1,0.8-1.4
	c0.5-0.3,1.1-0.3,1.6-0.1l18.3,8.5c0.6,0.3,1,0.9,1,1.5v19.6c0,0.6-0.3,1.1-0.8,1.4C60.6,79.9,60.3,80,60,80z M43.3,68.8l15,7v-16
	l-15-7V68.8z"/>
<path class="st0" d="M60,80c-0.3,0-0.6-0.1-0.9-0.3c-0.5-0.3-0.8-0.8-0.8-1.4V58.7c0-0.6,0.4-1.2,1-1.5l18.3-8.5
	c0.5-0.2,1.1-0.2,1.6,0.1c0.5,0.3,0.8,0.8,0.8,1.4v19.7c0,0.6-0.4,1.2-1,1.5l-18.3,8.5C60.5,80,60.2,80,60,80L60,80z M61.7,59.8v16
	l15-7v-16L61.7,59.8z M78.3,69.8L78.3,69.8L78.3,69.8z"/>
<path class="st0" d="M78.3,51.8c-0.2,0-0.5-0.1-0.7-0.2L60,43.5l-17.7,8.2c-0.8,0.4-1.8,0-2.2-0.8c-0.4-0.8,0-1.8,0.8-2.2l18.3-8.5
	c0.4-0.2,1-0.2,1.4,0L79,48.7c0.8,0.4,1.2,1.4,0.8,2.2C79.6,51.5,79,51.8,78.3,51.8z"/>
<path class="st0" d="M70,63.3c-0.9,0-1.7-0.7-1.7-1.7v-6.5l-17.2-8.2c-0.8-0.4-1.2-1.4-0.8-2.2c0.4-0.8,1.4-1.2,2.2-0.8l18,8.6
	c0.6,0.3,1.1,0.8,1.1,1.5v7.6C71.7,62.6,70.9,63.3,70,63.3L70,63.3z"/>
</svg>
