<?xml version="1.0" encoding="utf-8"?>
<!-- Generator: Adobe Illustrator 24.2.3, SVG Export Plug-In . SVG Version: 6.00 Build 0)  -->
<svg version="1.1" id="_x31_" xmlns="http://www.w3.org/2000/svg" xmlns:xlink="http://www.w3.org/1999/xlink" x="0px" y="0px"
	 viewBox="0 0 80 80" style="enable-background:new 0 0 80 80;" xml:space="preserve">
<style type="text/css">
	.st0{fill:#0038ba;}
</style>
<path class="st0" d="M71.7,80H8.3C3.7,80,0,76.3,0,71.7V15c0-4.6,3.7-8.3,8.3-8.3h63.3c4.6,0,8.3,3.7,8.3,8.3v56.7
	C80,76.3,76.3,80,71.7,80z M8.3,10c-2.8,0-5,2.2-5,5v56.7c0,2.8,2.2,5,5,5h63.3c2.8,0,5-2.2,5-5V15c0-2.8-2.2-5-5-5H8.3z"/>
<path class="st0" d="M78.3,30H1.7C0.7,30,0,29.3,0,28.3s0.7-1.7,1.7-1.7h76.7c0.9,0,1.7,0.7,1.7,1.7S79.3,30,78.3,30z"/>
<path class="st0" d="M18.3,16.7c-0.9,0-1.7-0.7-1.7-1.7V1.7c0-0.9,0.7-1.7,1.7-1.7S20,0.7,20,1.7V15C20,15.9,19.3,16.7,18.3,16.7z"
	/>
<path class="st0" d="M61.7,16.7c-0.9,0-1.7-0.7-1.7-1.7V1.7C60,0.7,60.7,0,61.7,0c0.9,0,1.7,0.7,1.7,1.7V15
	C63.3,15.9,62.6,16.7,61.7,16.7z"/>
<path class="st0" d="M40,70c-9.2,0-16.7-7.5-16.7-16.7S30.8,36.7,40,36.7s16.7,7.5,16.7,16.7S49.2,70,40,70z M40,40
	c-7.4,0-13.3,6-13.3,13.3c0,7.4,6,13.3,13.3,13.3s13.3-6,13.3-13.3S47.4,40,40,40z"/>
<path class="st0" d="M29.4,65.6c-0.4,0-0.9-0.2-1.2-0.5c-0.6-0.6-0.6-1.7,0-2.4l10.1-10.1V38.3c0-0.9,0.7-1.7,1.7-1.7
	c0.9,0,1.7,0.7,1.7,1.7v15c0,0.4-0.2,0.9-0.5,1.2L30.6,65.1C30.2,65.4,29.8,65.6,29.4,65.6L29.4,65.6z"/>
</svg>
