<?xml version="1.0" encoding="utf-8"?>
<!-- Generator: Adobe Illustrator 24.2.3, SVG Export Plug-In . SVG Version: 6.00 Build 0)  -->
<svg version="1.1" id="_x31_" xmlns="http://www.w3.org/2000/svg" xmlns:xlink="http://www.w3.org/1999/xlink" x="0px" y="0px"
	 viewBox="0 0 80 80" style="enable-background:new 0 0 80 80;" xml:space="preserve">
<style type="text/css">
	.st0{fill:#06205E;}
</style>
<path class="st0" d="M40,49.6c-11,0-20-9-20-20s9-20,20-20s20,9,20,20S51,49.6,40,49.6z M40,12.9c-9.2,0-16.7,7.5-16.7,16.7
	S30.8,46.2,40,46.2s16.7-7.5,16.7-16.7S49.2,12.9,40,12.9z"/>
<path class="st0" d="M27,44.2c-0.4,0-0.9-0.2-1.2-0.5c-0.7-0.7-0.7-1.7,0-2.4l12.5-12.5V11.2c0-0.9,0.8-1.7,1.7-1.7
	c0.9,0,1.7,0.7,1.7,1.7v18.3c0,0.4-0.2,0.9-0.5,1.2l-13,13C27.9,44,27.5,44.2,27,44.2L27,44.2z"/>
<path class="st0" d="M71.7,80H8.3C3.7,80,0,76.3,0,71.7V8.3C0,3.7,3.7,0,8.3,0h63.3C76.3,0,80,3.7,80,8.3v63.3
	C80,76.3,76.3,80,71.7,80z M8.3,3.3c-2.8,0-5,2.2-5,5v63.3c0,2.8,2.2,5,5,5h63.3c2.8,0,5-2.2,5-5V8.3c0-2.8-2.2-5-5-5H8.3z"/>
<path class="st0" d="M68.3,59.6H11.9c-0.9,0-1.7-0.7-1.7-1.7s0.7-1.7,1.7-1.7h56.3c0.9,0,1.7,0.7,1.7,1.7S69.2,59.6,68.3,59.6z"/>
<path class="st0" d="M68.3,70.4H11.9c-0.9,0-1.7-0.7-1.7-1.7s0.7-1.7,1.7-1.7h56.3c0.9,0,1.7,0.7,1.7,1.7S69.2,70.4,68.3,70.4z"/>
</svg>
