<?xml version="1.0" encoding="utf-8"?>
<!-- Generator: Adobe Illustrator 24.2.3, SVG Export Plug-In . SVG Version: 6.00 Build 0)  -->
<svg version="1.1" id="_x31_" xmlns="http://www.w3.org/2000/svg" xmlns:xlink="http://www.w3.org/1999/xlink" x="0px" y="0px"
	 viewBox="0 0 80 80" style="enable-background:new 0 0 80 80;" xml:space="preserve">
<style type="text/css">
	.st0{fill:#0038ba;}
</style>
<g>
	<path class="st0" d="M58.3,71.7c-0.9,0-1.7-0.7-1.7-1.7v-3.3c0-0.9,0.7-1.7,1.7-1.7c0.9,0,1.7,0.7,1.7,1.7V70
		C60,70.9,59.3,71.7,58.3,71.7z"/>
	<path class="st0" d="M59.2,68.3h-5.8c-0.9,0-1.7-0.7-1.7-1.7c0-0.9,0.7-1.7,1.7-1.7h5.8c1.4,0,2.5-1.1,2.5-2.5S60.5,60,59.2,60
		h-1.7c-3.2,0-5.8-2.6-5.8-5.8s2.6-5.8,5.8-5.8h5.8c0.9,0,1.7,0.7,1.7,1.7c0,0.9-0.7,1.7-1.7,1.7h-5.8c-1.4,0-2.5,1.1-2.5,2.5
		c0,1.4,1.1,2.5,2.5,2.5h1.7c3.2,0,5.8,2.6,5.8,5.8S62.4,68.3,59.2,68.3z"/>
	<path class="st0" d="M58.3,51.7c-0.9,0-1.7-0.7-1.7-1.7v-3.3c0-0.9,0.7-1.7,1.7-1.7c0.9,0,1.7,0.7,1.7,1.7V50
		C60,50.9,59.3,51.7,58.3,51.7z"/>
	<path class="st0" d="M58.3,80c-11.9,0-21.7-9.7-21.7-21.7s9.7-21.7,21.7-21.7S80,46.4,80,58.3S70.3,80,58.3,80z M58.3,40
		C48.2,40,40,48.2,40,58.3s8.2,18.3,18.3,18.3s18.3-8.2,18.3-18.3S68.4,40,58.3,40z"/>
	<path class="st0" d="M28.3,70h-20C3.7,70,0,66.3,0,61.7V8.3C0,3.7,3.7,0,8.3,0H45c4.6,0,8.3,3.7,8.3,8.3v20c0,0.9-0.7,1.7-1.7,1.7
		c-0.9,0-1.7-0.7-1.7-1.7v-20c0-2.8-2.2-5-5-5H8.3c-2.8,0-5,2.2-5,5v53.3c0,2.8,2.2,5,5,5h20c0.9,0,1.7,0.7,1.7,1.7
		C30,69.3,29.3,70,28.3,70z"/>
	<path class="st0" d="M11.7,43.3c-0.4,0-0.9-0.2-1.2-0.5c-0.7-0.7-0.7-1.7,0-2.4l8.3-8.3c0.5-0.5,1.3-0.6,1.9-0.3l5.6,2.8l10.8-10.8
		c0.7-0.6,1.7-0.6,2.4,0c0.6,0.7,0.6,1.7,0,2.4L27.8,37.8c-0.5,0.5-1.3,0.6-1.9,0.3l-5.6-2.8l-7.5,7.5
		C12.5,43.2,12.1,43.3,11.7,43.3z"/>
	<path class="st0" d="M38.3,36.7c-0.9,0-1.7-0.7-1.7-1.7v-8.3h-8.3c-0.9,0-1.7-0.7-1.7-1.7s0.7-1.7,1.7-1.7h10
		c0.9,0,1.7,0.7,1.7,1.7v10C40,35.9,39.3,36.7,38.3,36.7z"/>
</g>
</svg>
