<?xml version="1.0" encoding="utf-8"?>
<!-- Generator: Adobe Illustrator 22.0.1, SVG Export Plug-In . SVG Version: 6.00 Build 0)  -->
<svg version="1.1" id="Layer_1" xmlns="http://www.w3.org/2000/svg" xmlns:xlink="http://www.w3.org/1999/xlink" x="0px" y="0px"
	 viewBox="0 0 24 24" style="enable-background:new 0 0 24 24;" xml:space="preserve">
<style type="text/css">
	.st0{fill:#FFFFFF;}
</style>
<g>
	<g>
		<path class="st0" d="M22.4,1.4H1.6C0.8,1.4,0.2,2,0.2,2.8v15.9c0,0.8,0.6,1.4,1.4,1.4h20.7c0.8,0,1.4-0.6,1.4-1.4V2.8
			C23.8,2,23.1,1.4,22.4,1.4z M22.3,18.4H1.6V3.1h20.8V18.4z"/>
		<polygon class="st0" points="9.3,20.8 5.6,23.6 18.4,23.6 14.7,20.8 		"/>
		<path class="st0" d="M5,16c0.7-0.1,1.1-0.8,1-1.5c0-0.1-0.1-0.2-0.1-0.3c1.3-1.6,2.2-3,3.3-4.3C9.4,9.9,9.6,10,9.9,9.9
			c0.2,0,0.4-0.2,0.6-0.3c1,0.5,2.6,1.4,3.8,2.1c0,0.1,0,0.1,0,0.2c0.1,0.7,0.8,1.1,1.5,1c0.7-0.1,1.1-0.8,1-1.5
			c0-0.1-0.1-0.2-0.1-0.3l2.1-3.1C19,8,19.2,8,19.4,7.9c0.7-0.1,1.1-0.8,1-1.5c-0.1-0.7-0.8-1.1-1.5-1c-0.7,0.1-1.1,0.8-1,1.5
			c0,0.2,0.1,0.3,0.2,0.4c-0.7,1-1.4,2.1-2.1,3.1c-0.2-0.1-0.5-0.1-0.7-0.1c-0.3,0.1-0.5,0.2-0.7,0.5c-1-0.5-2.6-1.4-3.7-2
			c0-0.1,0-0.3,0-0.4c-0.1-0.7-0.8-1.1-1.5-1c-0.7,0.1-1.1,0.8-1,1.5c0,0.2,0.1,0.3,0.2,0.4l-3.3,4.2c-0.2-0.1-0.5-0.1-0.7-0.1
			c-0.7,0.1-1.1,0.8-1,1.5C3.7,15.7,4.3,16.2,5,16z"/>
	</g>
</g>
</svg>
