<?xml version="1.0" encoding="utf-8"?>
<!-- Generator: Adobe Illustrator 24.2.3, SVG Export Plug-In . SVG Version: 6.00 Build 0)  -->
<svg version="1.1" id="_x31_" xmlns="http://www.w3.org/2000/svg" xmlns:xlink="http://www.w3.org/1999/xlink" x="0px" y="0px"
	 viewBox="0 0 80 80" style="enable-background:new 0 0 80 80;" xml:space="preserve">
<style type="text/css">
	.st0{fill:#06205E;}
</style>
<path class="st0" d="M71.5,80h-63c-4.6,0-8.3-3.7-8.3-8.3V8.3C0.2,3.7,3.9,0,8.5,0h63c4.6,0,8.3,3.7,8.3,8.3v63.3
	C79.8,76.3,76.1,80,71.5,80z M8.5,3.3c-2.8,0-5,2.2-5,5v63.3c0,2.8,2.2,5,5,5h63c2.8,0,5-2.2,5-5V8.3c0-2.8-2.2-5-5-5H8.5z"/>
<path class="st0" d="M68.2,37H48.5c-0.9,0-1.7-0.7-1.7-1.7c0-0.9,0.7-1.7,1.7-1.7h19.7c0.9,0,1.7,0.7,1.7,1.7
	C69.8,36.3,69.1,37,68.2,37z"/>
<path class="st0" d="M68.2,27H48.5c-0.9,0-1.7-0.7-1.7-1.7s0.7-1.7,1.7-1.7h19.7c0.9,0,1.7,0.7,1.7,1.7S69.1,27,68.2,27z"/>
<path class="st0" d="M68.2,47H48.5c-0.9,0-1.7-0.7-1.7-1.7c0-0.9,0.7-1.7,1.7-1.7h19.7c0.9,0,1.7,0.7,1.7,1.7
	C69.8,46.3,69.1,47,68.2,47z"/>
<path class="st0" d="M68.2,57H48.5c-0.9,0-1.7-0.7-1.7-1.7c0-0.9,0.7-1.7,1.7-1.7h19.7c0.9,0,1.7,0.7,1.7,1.7
	C69.8,56.3,69.1,57,68.2,57z"/>
<path class="st0" d="M68.2,67H11.8c-0.9,0-1.7-0.7-1.7-1.7s0.7-1.7,1.7-1.7h56.3c0.9,0,1.7,0.7,1.7,1.7S69.1,67,68.2,67z"/>
<path class="st0" d="M68.2,17H11.8c-0.9,0-1.7-0.7-1.7-1.7c0-0.9,0.7-1.7,1.7-1.7h56.3c0.9,0,1.7,0.7,1.7,1.7
	C69.8,16.3,69.1,17,68.2,17z"/>
<path class="st0" d="M26.8,57c-9.2,0-16.7-7.5-16.7-16.7s7.5-16.7,16.7-16.7s16.7,7.5,16.7,16.7S36,57,26.8,57z M26.8,27
	c-7.4,0-13.3,6-13.3,13.3s6,13.3,13.3,13.3s13.3-6,13.3-13.3S34.2,27,26.8,27z"/>
<path class="st0" d="M16.2,52.6c-0.4,0-0.9-0.2-1.2-0.5c-0.7-0.7-0.7-1.7,0-2.4l10.1-10.1V25.3c0-0.9,0.7-1.7,1.7-1.7
	s1.7,0.7,1.7,1.7v15c0,0.4-0.2,0.9-0.5,1.2L17.4,52.1C17.1,52.4,16.7,52.6,16.2,52.6z"/>
</svg>
