<svg xmlns="http://www.w3.org/2000/svg" width="31.253" height="32.854" viewBox="0 0 31.253 32.854"><defs><style>.a{fill:#efefef;}.b{fill:#f3f3f1;}.c{fill:#d5dbe1;}.d{fill:#cbcbcb;}.e{fill:#a4afc1;}.f{fill:#0038ba;}.g{fill:#282828;}</style></defs><g transform="translate(0 -0.611)"><path class="a" d="M25.62,3.677C19.2,3.8,14.729.553,11.635.612S2.077,2.57,2.343,16.8,11.389,32.96,14.793,32.9c15.933-.3,22.2-29.432,10.827-29.219Z" transform="translate(-0.167 0)"/><g transform="translate(6.266 6.31)"><path class="b" d="M8.75,12.25H25.925V28.032H8.75Z" transform="translate(-6.893 -7.144)"/><path class="b" d="M6.75,9.75H27.638v2.321H6.75Z" transform="translate(-6.75 -6.965)"/><path class="b" d="M8.75,6.75h2.321V9.535H8.75Z" transform="translate(-6.893 -6.75)"/></g><path class="c" d="M8.75,12.25h2.089V28.032H8.75Z" transform="translate(-0.627 -0.834)"/><path class="c" d="M6.75,9.75H8.839v2.321H6.75Z" transform="translate(-0.484 -0.655)"/><path class="d" d="M18,23.75h2.089v5.106H18Z" transform="translate(-1.29 -1.658)"/><path class="d" d="M14.75,17.75h2.089v5.57H14.75Z" transform="translate(-1.057 -1.228)"/><path class="d" d="M11.25,23.75h2.089v5.106H11.25Z" transform="translate(-0.806 -1.658)"/><g transform="translate(0 13.135)"><path class="e" d="M30.143,16.887a1.393,1.393,0,1,1,1.393-1.393A1.394,1.394,0,0,1,30.143,16.887Zm0-1.857a.464.464,0,1,0,.464.464A.464.464,0,0,0,30.143,15.03Z" transform="translate(-2.06 -14.102)"/><path class="e" d="M3.5,28.25h.928v1.857H3.5Z" transform="translate(-0.251 -15.116)"/><path class="e" d="M3.5,34h.928v1.857H3.5Z" transform="translate(-0.251 -15.528)"/><path class="e" d="M0,31.5H1.857v.928H0Z" transform="translate(0 -15.348)"/><path class="e" d="M5.75,31.5H7.607v.928H5.75Z" transform="translate(-0.412 -15.348)"/></g><path class="f" d="M24.213,29.5H17.946a.7.7,0,0,1-.7-.7V23.7a.7.7,0,0,1,.7-.7h6.266a.7.7,0,0,1,.7.7V28.8A.7.7,0,0,1,24.213,29.5Zm-5.57-1.393h4.874V24.393H18.643Z" transform="translate(-1.236 -1.604)"/><path class="f" d="M20.731,23.963H14.7a.7.7,0,0,1-.7-.7V17.7a.7.7,0,0,1,.7-.7h6.034a.7.7,0,0,1,.7.7v5.57A.7.7,0,0,1,20.731,23.963ZM15.393,22.57h4.642V18.393H15.393Z" transform="translate(-1.003 -1.174)"/><path class="f" d="M17.463,29.5H11.2a.7.7,0,0,1-.7-.7V23.7a.7.7,0,0,1,.7-.7h6.266a.7.7,0,0,1,.7.7V28.8A.7.7,0,0,1,17.463,29.5Zm-5.57-1.393h4.874V24.393H11.893Z" transform="translate(-0.752 -1.604)"/><path class="f" d="M17.25,17h1.393v2.785H17.25Z" transform="translate(-1.236 -1.174)"/><path class="f" d="M14,23h1.393v2.785H14Z" transform="translate(-1.003 -1.604)"/><path class="f" d="M20.5,23h1.393v2.785H20.5Z" transform="translate(-1.469 -1.604)"/><path class="g" d="M25.871,28.675H8.7a.7.7,0,0,1-.7-.7V12.2a.7.7,0,0,1,.7-.7H25.871a.7.7,0,0,1,.7.7V27.978A.7.7,0,0,1,25.871,28.675ZM9.393,27.282H25.175V12.893H9.393Z" transform="translate(-0.573 -0.78)"/><path class="g" d="M27.584,12.713H6.7a.7.7,0,0,1-.7-.7V9.7A.7.7,0,0,1,6.7,9H27.584a.7.7,0,0,1,.7.7v2.321A.7.7,0,0,1,27.584,12.713ZM7.393,11.321h19.5v-.928H7.393Z" transform="translate(-0.43 -0.601)"/><path class="g" d="M11.017,10.178H8.7a.7.7,0,0,1-.7-.7V6.7A.7.7,0,0,1,8.7,6h2.321a.7.7,0,0,1,.7.7V9.481A.7.7,0,0,1,11.017,10.178ZM9.393,8.785h.928V7.393H9.393Z" transform="translate(-0.573 -0.386)"/></g></svg>