<?xml version="1.0" encoding="utf-8"?>
<!-- Generator: Adobe Illustrator 25.2.1, SVG Export Plug-In . SVG Version: 6.00 Build 0)  -->
<svg version="1.1" id="Layer_1" xmlns="http://www.w3.org/2000/svg" xmlns:xlink="http://www.w3.org/1999/xlink" x="0px" y="0px"
	 viewBox="0 0 24 24" style="enable-background:new 0 0 24 24;" xml:space="preserve">
<style type="text/css">
	.st0{fill:#FFFFFF;}
</style>
<g>
	<path class="st0" d="M9.1,6.6l2.7,1.2c0.1,0,0.1,0,0.2,0s0.1,0,0.2,0l2.7-1.2c0.2-0.1,0.3-0.2,0.3-0.4V2.6c0-0.2-0.1-0.4-0.3-0.4
		L12.2,1c-0.1,0-0.3,0-0.4,0L9.1,2.2C9,2.2,8.8,2.4,8.8,2.6v3.5C8.8,6.3,9,6.5,9.1,6.6z M9.8,3.4l1.7,0.8v2.4L9.8,5.8V3.4z
		 M12.5,6.6V4.1l1.7-0.8v2.4L12.5,6.6z M12,1.9l1.5,0.7L12,3.3l-1.5-0.7L12,1.9z"/>
	<path class="st0" d="M23.4,17.4l-2.7-1.2c-0.1,0-0.3,0-0.4,0l-2.7,1.2c-0.2,0.1-0.3,0.2-0.3,0.4v3.5c0,0.2,0.1,0.4,0.3,0.4l2.7,1.2
		c0.1,0,0.1,0,0.2,0s0.1,0,0.2,0l2.7-1.2c0.2-0.1,0.3-0.2,0.3-0.4v-3.5C23.7,17.7,23.6,17.5,23.4,17.4z M20.6,17.2l1.5,0.7l-1.5,0.7
		l-1.5-0.7L20.6,17.2z M18.4,18.6l1.7,0.8v2.4L18.4,21V18.6z M21.1,21.8v-2.4l1.7-0.8V21L21.1,21.8z"/>
	<path class="st0" d="M14.9,17.4l-2.7-1.2c-0.1,0-0.3,0-0.4,0l-2.7,1.2c-0.2,0.1-0.3,0.2-0.3,0.4v3.5c0,0.2,0.1,0.4,0.3,0.4l2.7,1.2
		c0.1,0,0.1,0,0.2,0s0.1,0,0.2,0l2.7-1.2c0.2-0.1,0.3-0.2,0.3-0.4v-3.5C15.2,17.7,15,17.5,14.9,17.4z M12,17.2l1.5,0.7L12,18.6
		l-1.5-0.7L12,17.2z M9.8,18.6l1.7,0.8v2.4L9.8,21V18.6z M12.5,21.8v-2.4l1.7-0.8V21L12.5,21.8z"/>
	<path class="st0" d="M6.3,17.4l-2.7-1.2c-0.1,0-0.3,0-0.4,0l-2.7,1.2c-0.2,0.1-0.3,0.2-0.3,0.4v3.5c0,0.2,0.1,0.4,0.3,0.4L3.2,23
		c0.1,0,0.1,0,0.2,0c0.1,0,0.1,0,0.2,0l2.7-1.2c0.2-0.1,0.3-0.2,0.3-0.4v-3.5C6.6,17.7,6.5,17.5,6.3,17.4z M3.4,17.2l1.5,0.7
		l-1.5,0.7L2,17.9L3.4,17.2z M1.3,18.6L3,19.4v2.4L1.3,21V18.6z M3.9,21.8v-2.4l1.7-0.8V21L3.9,21.8z"/>
	<path class="st0" d="M3.4,15.1c0.3,0,0.5-0.2,0.5-0.5v-1.3c0-0.4,0.4-0.8,0.8-0.8h6.8v2.1c0,0.3,0.2,0.5,0.5,0.5s0.5-0.2,0.5-0.5
		v-2.1h6.8c0.4,0,0.8,0.4,0.8,0.8v1.3c0,0.3,0.2,0.5,0.5,0.5s0.5-0.2,0.5-0.5v-1.3c0-1-0.8-1.8-1.8-1.8h-6.8V9.4
		c0-0.3-0.2-0.5-0.5-0.5s-0.5,0.2-0.5,0.5v2.1H4.7c-1,0-1.8,0.8-1.8,1.8v1.3C2.9,14.9,3.2,15.1,3.4,15.1z"/>
</g>
</svg>
