<?xml version="1.0" encoding="utf-8"?>
<!-- Generator: Adobe Illustrator 24.2.3, SVG Export Plug-In . SVG Version: 6.00 Build 0)  -->
<svg version="1.1" id="_x31_" xmlns="http://www.w3.org/2000/svg" xmlns:xlink="http://www.w3.org/1999/xlink" x="0px" y="0px"
	 viewBox="0 0 80 80" style="enable-background:new 0 0 80 80;" xml:space="preserve">
<style type="text/css">
	.st0{fill:#06205E;}
</style>
<g>
	<path class="st0" d="M31.7,50h-20c-0.9,0-1.7-0.7-1.7-1.7c0-0.9,0.7-1.7,1.7-1.7h20c0.9,0,1.7,0.7,1.7,1.7
		C33.3,49.3,32.6,50,31.7,50z"/>
</g>
<g>
	<path class="st0" d="M28.3,60H11.7c-0.9,0-1.7-0.7-1.7-1.7c0-0.9,0.7-1.7,1.7-1.7h16.7c0.9,0,1.7,0.7,1.7,1.7
		C30,59.3,29.3,60,28.3,60z"/>
</g>
<g>
	<path class="st0" d="M28.3,23.3c-3.7,0-6.7-3-6.7-6.7s3-6.7,6.7-6.7s6.7,3,6.7,6.7S32,23.3,28.3,23.3z M28.3,13.3
		c-1.8,0-3.3,1.5-3.3,3.3c0,1.8,1.5,3.3,3.3,3.3s3.3-1.5,3.3-3.3C31.7,14.8,30.2,13.3,28.3,13.3z"/>
</g>
<g>
	<path class="st0" d="M40,40c-0.9,0-1.7-0.7-1.7-1.7V35c0-2.8-2.2-5-5-5h-10c-2.8,0-5,2.2-5,5v3.3c0,0.9-0.7,1.7-1.7,1.7
		c-0.9,0-1.7-0.7-1.7-1.7V35c0-4.6,3.7-8.3,8.3-8.3h10c4.6,0,8.3,3.7,8.3,8.3v3.3C41.7,39.3,40.9,40,40,40z"/>
</g>
<g>
	<path class="st0" d="M31.7,70H8.3C3.7,70,0,66.3,0,61.7V8.3C0,3.7,3.7,0,8.3,0h40c4.6,0,8.3,3.7,8.3,8.3v20.2
		c0,0.9-0.7,1.7-1.7,1.7s-1.7-0.7-1.7-1.7V8.3c0-2.8-2.2-5-5-5h-40c-2.8,0-5,2.2-5,5v53.3c0,2.8,2.2,5,5,5h23.3
		c0.9,0,1.7,0.7,1.7,1.7C33.3,69.3,32.6,70,31.7,70z"/>
</g>
<g>
	<path class="st0" d="M58.3,80c-11.9,0-21.7-9.7-21.7-21.7s9.7-21.7,21.7-21.7S80,46.4,80,58.3S70.3,80,58.3,80z M58.3,40
		C48.2,40,40,48.2,40,58.3s8.2,18.3,18.3,18.3s18.3-8.2,18.3-18.3S68.4,40,58.3,40z"/>
</g>
<g>
	<path class="st0" d="M55,66.7c-0.4,0-0.9-0.2-1.2-0.5l-6.7-6.7c-0.6-0.6-0.6-1.7,0-2.4c0.7-0.7,1.7-0.7,2.4,0l5.4,5.4l10.5-12
		c0.6-0.7,1.7-0.8,2.4-0.2c0.7,0.6,0.8,1.7,0.2,2.4L56.3,66.1C56,66.4,55.5,66.7,55,66.7C55,66.7,55,66.7,55,66.7z"/>
</g>
</svg>
