<?xml version="1.0" encoding="utf-8"?>
<!-- Generator: Adobe Illustrator 24.2.3, SVG Export Plug-In . SVG Version: 6.00 Build 0)  -->
<svg version="1.1" id="_x31_" xmlns="http://www.w3.org/2000/svg" xmlns:xlink="http://www.w3.org/1999/xlink" x="0px" y="0px"
	 viewBox="0 0 80 80" style="enable-background:new 0 0 80 80;" xml:space="preserve">
<style type="text/css">
	.st0{fill:#06205E;}
</style>
<path class="st0" d="M65,36.7H55c-0.9,0-1.7-0.7-1.7-1.7V11.7c0-0.9,0.7-1.7,1.7-1.7h10c0.9,0,1.7,0.7,1.7,1.7V35
	C66.7,35.9,65.9,36.7,65,36.7z M56.7,33.3h6.7v-20h-6.7V33.3z"/>
<path class="st0" d="M45,36.7H35c-0.9,0-1.7-0.7-1.7-1.7V25c0-0.9,0.7-1.7,1.7-1.7h10c0.9,0,1.7,0.7,1.7,1.7v10
	C46.7,35.9,45.9,36.7,45,36.7z M36.7,33.3h6.7v-6.7h-6.7V33.3z"/>
<path class="st0" d="M68.3,36.7H31.7c-0.9,0-1.7-0.7-1.7-1.7c0-0.9,0.7-1.7,1.7-1.7h36.7c0.9,0,1.7,0.7,1.7,1.7
	C70,35.9,69.3,36.7,68.3,36.7z"/>
<path class="st0" d="M75,0H21.7c-2.8,0-5,2.2-5,5v23.3c0,0.9,0.7,1.7,1.7,1.7c0.9,0,1.7-0.7,1.7-1.7V5c0-0.9,0.8-1.7,1.7-1.7H75
	c0.9,0,1.7,0.7,1.7,1.7v36.7c0,0.9-0.8,1.7-1.7,1.7H41.7H41h-4.3c-0.9,0-1.7,0.7-1.7,1.7s0.7,1.7,1.7,1.7H40h35c2.8,0,5-2.2,5-5V5
	C80,2.2,77.8,0,75,0z"/>
<path class="st0" d="M18.3,58.3c-5.5,0-10-4.5-10-10s4.5-10,10-10s10,4.5,10,10S23.8,58.3,18.3,58.3z M18.3,41.7
	c-3.7,0-6.7,3-6.7,6.7c0,3.7,3,6.7,6.7,6.7s6.7-3,6.7-6.7C25,44.7,22,41.7,18.3,41.7z"/>
<path class="st0" d="M35,80c-0.9,0-1.7-0.7-1.7-1.7v-6.7c0-2.8-2.2-5-5-5h-20c-2.8,0-5,2.2-5,5v6.7c0,0.9-0.7,1.7-1.7,1.7
	S0,79.3,0,78.3v-6.7c0-4.6,3.7-8.3,8.3-8.3h20c4.6,0,8.3,3.7,8.3,8.3v6.7C36.7,79.3,35.9,80,35,80z"/>
</svg>
