<?xml version="1.0" encoding="utf-8"?>
<!-- Generator: Adobe Illustrator 24.2.3, SVG Export Plug-In . SVG Version: 6.00 Build 0)  -->
<svg version="1.1" id="_x31_" xmlns="http://www.w3.org/2000/svg" xmlns:xlink="http://www.w3.org/1999/xlink" x="0px" y="0px"
	 viewBox="0 0 80 80" style="enable-background:new 0 0 80 80;" xml:space="preserve">
<style type="text/css">
	.st0{fill:#0038ba;}
</style>
<g>
	<path class="st0" d="M78.3,30H1.7C0.7,30,0,29.3,0,28.3s0.7-1.7,1.7-1.7h76.7c0.9,0,1.7,0.7,1.7,1.7S79.3,30,78.3,30z"/>
	<path class="st0" d="M75,30H5c-0.5,0-0.9-0.2-1.3-0.6c-0.3-0.4-0.5-0.8-0.4-1.3l3-23.7C6.6,1.9,8.8,0,11.3,0h57.4
		c2.5,0,4.7,1.9,5,4.4l3,23.7c0.1,0.5-0.1,0.9-0.4,1.3C75.9,29.8,75.5,30,75,30z M6.9,26.7h66.2L70.4,4.8c-0.1-0.8-0.8-1.5-1.7-1.5
		H11.3c-0.8,0-1.6,0.6-1.7,1.5L6.9,26.7z"/>
	<path class="st0" d="M21.7,30c-0.1,0-0.1,0-0.2,0c-0.9-0.1-1.6-0.9-1.4-1.9l3.3-26.7c0.1-0.9,0.9-1.6,1.9-1.4
		c0.9,0.1,1.6,0.9,1.4,1.9l-3.3,26.7C23.2,29.4,22.5,30,21.7,30L21.7,30z"/>
	<path class="st0" d="M40,30c-0.9,0-1.7-0.7-1.7-1.7V1.7C38.3,0.7,39.1,0,40,0c0.9,0,1.7,0.7,1.7,1.7v26.7C41.7,29.3,40.9,30,40,30z
		"/>
	<path class="st0" d="M58.3,30c-0.8,0-1.5-0.6-1.7-1.5L53.3,1.9C53.2,1,53.9,0.1,54.8,0c0.9-0.1,1.7,0.5,1.9,1.4L60,28.1
		c0.1,0.9-0.5,1.7-1.4,1.9C58.5,30,58.4,30,58.3,30z"/>
	<path class="st0" d="M31.7,80.3H15c-4.6,0-8.3-3.7-8.3-8.3V28.3c0-0.9,0.7-1.7,1.7-1.7h63.3c0.9,0,1.7,0.7,1.7,1.7v3.3
		c0,0.9-0.7,1.7-1.7,1.7c-0.9,0-1.7-0.7-1.7-1.7V30H10v42c0,2.8,2.2,5,5,5h16.7c0.9,0,1.7,0.7,1.7,1.7S32.6,80.3,31.7,80.3z"/>
	<path class="st0" d="M28.3,60h-6.7c-2.8,0-5-2.2-5-5V45c0-2.8,2.2-5,5-5h10c2.8,0,5,2.2,5,5c0,0.9-0.7,1.7-1.7,1.7
		s-1.7-0.7-1.7-1.7s-0.7-1.7-1.7-1.7h-10c-0.9,0-1.7,0.7-1.7,1.7v10c0,0.9,0.7,1.7,1.7,1.7h6.7c0.9,0,1.7,0.7,1.7,1.7
		C30,59.3,29.3,60,28.3,60z"/>
	<g>
		<path class="st0" d="M59.5,80C48.2,80,39,70.8,39,59.5S48.2,39,59.5,39S80,48.2,80,59.5S70.8,80,59.5,80z M59.5,42.2
			c-9.6,0-17.3,7.8-17.3,17.3s7.8,17.3,17.3,17.3s17.3-7.8,17.3-17.3S69.1,42.2,59.5,42.2z"/>
	</g>
	<g>
		<path class="st0" d="M65.8,67.4c-0.4,0-0.8-0.2-1.1-0.5l-6.3-6.3c-0.3-0.3-0.5-0.7-0.5-1.1V50c0-0.9,0.7-1.6,1.6-1.6
			s1.6,0.7,1.6,1.6v8.8l5.8,5.8c0.6,0.6,0.6,1.6,0,2.2C66.6,67.2,66.2,67.4,65.8,67.4z"/>
	</g>
</g>
</svg>
