<?xml version="1.0" encoding="utf-8"?>
<!-- Generator: Adobe Illustrator 22.0.1, SVG Export Plug-In . SVG Version: 6.00 Build 0)  -->
<svg version="1.1" id="Layer_1" xmlns="http://www.w3.org/2000/svg" xmlns:xlink="http://www.w3.org/1999/xlink" x="0px" y="0px"
	 viewBox="0 0 24 24" style="enable-background:new 0 0 24 24;" xml:space="preserve">
<style type="text/css">
	.st0{fill:#FFFFFF;}
</style>
<g>
	<g>
		<g>
			<path class="st0" d="M15.1,2.9l-1.6-0.3c-0.2-0.6-0.4-1-0.6-1.5l0.9-1.3c0.4-0.6,0.3-1.3-0.2-1.8l-1.4-1.3
				c-0.3-0.3-0.6-0.4-0.9-0.4s-0.6,0.1-0.7,0.3L9.2-2.5C8.7-2.8,8.2-3,7.6-3.1L7.3-4.6C7.2-5.2,6.7-5.7,6-5.7H4.2
				C3.6-5.7,3-5.2,2.9-4.6L2.7-3c-0.6,0.2-1,0.4-1.5,0.6l-1.3-0.9c-0.2-0.2-0.5-0.3-0.7-0.3c-0.4,0-0.7,0.2-0.9,0.5l-1.4,1.3
				C-3.6-1.3-3.7-0.6-3.3,0l0.9,1.3C-2.7,1.8-2.9,2.2-3,2.8L-4.5,3c-0.6,0.1-1.1,0.6-1.1,1.3v1.9c0,0.6,0.5,1.2,1.1,1.3l1.6,0.3
				c0.2,0.6,0.4,1,0.6,1.5l-0.9,1.3c-0.4,0.6-0.3,1.3,0.2,1.8l1.4,1.4c0.3,0.3,0.6,0.4,0.9,0.4s0.6-0.1,0.7-0.3L1.3,13
				c0.5,0.3,0.9,0.5,1.5,0.6l0.3,1.6c0.1,0.6,0.6,1.1,1.3,1.1h1.8c0.6,0,1.2-0.5,1.3-1.1l0.3-1.6c0.6-0.2,1-0.4,1.5-0.6l1.3,0.9
				c0.2,0.2,0.5,0.3,0.7,0.3l0,0c0.4,0,0.7-0.2,0.9-0.4l1.4-1.4c0.5-0.5,0.6-1.2,0.2-1.8l-0.9-1.3c0.3-0.5,0.5-1,0.6-1.5l1.6-0.3
				c0.6-0.1,1.1-0.6,1.1-1.3V4.3C16.2,3.5,15.7,3,15.1,2.9z M15,6.1C15,6.2,15,6.2,15,6.1l-2,0.4c-0.3,0-0.5,0.2-0.5,0.5
				c-0.2,0.6-0.5,1.3-0.8,1.9c-0.1,0.2-0.1,0.5,0,0.6l1.1,1.6c0,0,0,0.1,0,0.2l-1.4,1.4h-0.1h-0.1l-1.6-1.1c-0.2-0.2-0.5-0.2-0.6,0
				c-0.6,0.4-1.2,0.6-1.9,0.8c-0.3,0.1-0.4,0.3-0.5,0.5l-0.3,1.9c0,0.1-0.1,0.1-0.1,0.1H4.3c-0.1,0-0.1,0-0.1-0.1l-0.3-1.9
				c0-0.3-0.2-0.5-0.5-0.5c-0.6-0.2-1.3-0.5-1.9-0.7c-0.1-0.1-0.2-0.1-0.3-0.1s-0.3,0-0.4,0.1l-1.6,1.1c0,0,0,0-0.1,0h0.1l-1.4-1.4
				c0,0,0-0.1,0-0.2l1.1-1.6c0.2-0.2,0.2-0.5,0-0.6c-0.4-0.6-0.6-1.2-0.8-1.9C-2,6.8-2.2,6.7-2.4,6.6l-1.9-0.4
				c-0.1,0-0.1-0.1-0.1-0.1V4.2c0-0.1,0-0.1,0.1-0.1l1.9-0.3c0.3,0,0.5-0.2,0.5-0.5c0.1-0.7,0.4-1.4,0.7-1.9c0.1-0.2,0.1-0.5,0-0.6
				l-1.2-1.7c0,0,0-0.1,0-0.2L-1-2.5h0.2l0,0l1.6,1.1c0.2,0.2,0.5,0.2,0.6,0C2-1.7,2.6-2,3.3-2c0.3-0.1,0.4-0.3,0.5-0.5l0.4-1.9
				c0-0.1,0.1-0.1,0.1-0.1h1.9c0.1,0,0.1,0,0.1,0.1l0.3,1.9C6.6-2.2,6.8-2,7.1-2C7.7-1.8,8.5-1.5,9-1.2c0.2,0.1,0.5,0.1,0.6,0
				l1.6-1.1c0,0,0,0,0.1,0h0.1l1.4,1.4c0,0,0,0.1,0,0.2l-1.1,1.6c-0.2,0.2-0.2,0.5,0,0.6c0.4,0.6,0.6,1.2,0.8,1.9
				c0.1,0.3,0.3,0.4,0.5,0.5l1.9,0.3C15,4.2,15,4.3,15,4.3V6.1L15,6.1z"/>
			<path class="st0" d="M5.3,0.1c-2.8,0-5.1,2.3-5.1,5.1s2.3,5.1,5.1,5.1s5.1-2.3,5.1-5.1S8.1,0.1,5.3,0.1z M5.3,8.3
				c-1.7,0-3.1-1.4-3.1-3.1s1.4-3.1,3.1-3.1s3.1,1.4,3.1,3.1S7,8.3,5.3,8.3z"/>
		</g>
	</g>
</g>
<g id="XMLID_1_">
	<g id="XMLID_2_">
		<g id="XMLID_3_">
			<path id="XMLID_4_" class="st0" d="M8.4,22.6c-0.8,0-0.7,1.4,0,1.4c1.1,0,14.8,0,14.8,0c1.2,0,1-1.4,0-1.4h-0.5V9.9
				c0-0.5-0.4-1-1-1l0,0c-0.5,0-1,0.4-1,1V22c0,0.4-0.3,0.7-0.7,0.7h-2c-0.4,0-0.7-0.3-0.7-0.7v-6.7c0-0.5-0.4-1-1-1l0,0
				c-0.5,0-1,0.4-1,1v6.6c0,0.4-0.3,0.7-0.7,0.7h-2c-0.4,0-0.7-0.3-0.7-0.7v-2.6c0-0.5-0.4-1-1-1l0,0c-0.5,0-1,0.4-1,1v3.2
				C9.9,22.6,8.9,22.6,8.4,22.6z"/>
		</g>
	</g>
</g>
</svg>
