<?xml version="1.0" encoding="utf-8"?>
<!-- Generator: Adobe Illustrator 22.0.1, SVG Export Plug-In . SVG Version: 6.00 Build 0)  -->
<svg version="1.1" id="Layer_1" xmlns="http://www.w3.org/2000/svg" xmlns:xlink="http://www.w3.org/1999/xlink" x="0px" y="0px"
	 viewBox="0 0 24 24" style="enable-background:new 0 0 24 24;" xml:space="preserve">
<style type="text/css">
	.st0{fill:#FFFFFF;stroke:#FFFFFF;stroke-width:0.25;stroke-miterlimit:10;}
</style>
<g>
	<g>
		<path class="st0" d="M12,22.7C6.1,22.7,1.3,17.9,1.3,12S6.1,1.3,12,1.3S22.7,6.1,22.7,12S17.9,22.7,12,22.7z M12,2.4
			c-5.3,0-9.6,4.3-9.6,9.6s4.3,9.6,9.6,9.6s9.6-4.3,9.6-9.6S17.3,2.4,12,2.4z"/>
	</g>
	<g>
		<path class="st0" d="M12,4.5c-0.3,0-0.5-0.2-0.5-0.5v-4.3c0-0.3,0.2-0.5,0.5-0.5s0.5,0.2,0.5,0.5V4C12.5,4.3,12.3,4.5,12,4.5z"/>
	</g>
	<g>
		<path class="st0" d="M12,4.5c-0.3,0-0.5-0.2-0.5-0.5v-4.3c0-0.3,0.2-0.5,0.5-0.5s0.5,0.2,0.5,0.5V4C12.5,4.3,12.3,4.5,12,4.5z"/>
	</g>
	<g>
		<path class="st0" d="M24.3,12.5H20c-0.3,0-0.5-0.2-0.5-0.5s0.2-0.5,0.5-0.5h4.3c0.3,0,0.5,0.2,0.5,0.5S24.6,12.5,24.3,12.5z"/>
	</g>
	<g>
		<path class="st0" d="M12,24.8c-0.3,0-0.5-0.2-0.5-0.5V20c0-0.3,0.2-0.5,0.5-0.5s0.5,0.2,0.5,0.5v4.3C12.5,24.6,12.3,24.8,12,24.8z
			"/>
	</g>
	<g>
		<path class="st0" d="M4,12.5h-4.3c-0.3,0-0.5-0.2-0.5-0.5s0.2-0.5,0.5-0.5H4c0.3,0,0.5,0.2,0.5,0.5S4.3,12.5,4,12.5z"/>
	</g>
</g>
<path class="st0" d="M12,17.1L12,17.1c-0.5,0-0.7-0.3-0.7-0.7V7.5c0-0.4,0.3-0.7,0.7-0.7H12c0.4,0,0.7,0.3,0.7,0.7v8.9
	C12.7,16.8,12.4,17.1,12,17.1z"/>
<path class="st0" d="M6.9,12L6.9,12c0-0.5,0.3-0.7,0.7-0.7h8.9c0.4,0,0.7,0.3,0.7,0.7V12c0,0.4-0.3,0.7-0.7,0.7H7.5
	C7.2,12.7,6.9,12.4,6.9,12z"/>
</svg>
