<?xml version="1.0" encoding="utf-8"?>
<!-- Generator: Adobe Illustrator 22.0.1, SVG Export Plug-In . SVG Version: 6.00 Build 0)  -->
<svg version="1.1" id="Layer_1" xmlns="http://www.w3.org/2000/svg" xmlns:xlink="http://www.w3.org/1999/xlink" x="0px" y="0px"
	 viewBox="0 0 50 50" style="enable-background:new 0 0 50 50;" xml:space="preserve">
<style type="text/css">
	.st0{fill:#0038BA;}
	.st1{fill:#282828;}
</style>
<path class="st0" d="M9.8,44.5H5.6V5h2.7L4.7,0.4L1.1,5h2.7v39.5H0.5v1.7h3.4v3.4h1.7v-3.4h40.5v2.7l3.6-3.6l-0.8-0.8l-2.7-2.7v2.7
	H43C43,44.5,9.8,44.5,9.8,44.5z"/>
<g>
	<g>
		<path class="st1" d="M47.7,22.8c-0.6-0.4-1.3-0.6-2-0.6c-0.7,0-1.4,0.2-2,0.6L41,20.2c0.4-0.6,0.6-1.3,0.6-2c0-2.3-1.8-4-4-4
			c-2.3,0-4,1.8-4,4c0,0.7,0.2,1.4,0.6,2l-4.3,4.4c-0.6-0.4-1.3-0.6-2-0.6s-1.4,0.2-2,0.6l-2.5-2.5c0.4-0.6,0.6-1.3,0.6-2
			c0-2.3-1.8-4-4-4s-4,1.8-4,4c0,0.7,0.2,1.4,0.6,2l-4.5,4.5c-0.6-0.4-1.3-0.6-2-0.6c-2.3,0-4,1.8-4,4s1.8,4,4,4s4-1.8,4-4
			c0-0.7-0.2-1.4-0.6-2l4.5-4.5c0.6,0.4,1.3,0.6,2,0.6c0.7,0,1.4-0.2,2-0.6l2.5,2.5c-0.4,0.6-0.6,1.3-0.6,2c0,2.3,1.8,4,4,4
			s4-1.8,4-4c0-0.7-0.2-1.4-0.6-2l4.3-4.3c0.6,0.4,1.3,0.6,2,0.6c0.7,0,1.4-0.2,2-0.6l2.6,2.5c-0.4,0.6-0.6,1.3-0.6,2
			c0,2.3,1.8,4,4,4c2.3,0,4-1.8,4-4C49.5,23.7,47.7,22.8,47.7,22.8z M9.7,32c-1.1,0-2-0.8-2-2c0-1.1,1-2,2-2s2,0.8,2,2
			C11.7,31.1,10.8,32,9.7,32z M19.7,22c-1.1,0-2-0.8-2-2c0-1.2,1-2,2-2s2,0.8,2,2C21.7,21.1,20.9,22,19.7,22z M27.8,30.1
			c-1.1,0-2-0.8-2-2c0-1.1,1-2,2-2c1.1,0,2,1,2,2C29.8,29.1,28.9,30.1,27.8,30.1z M37.6,20.2c-1.1,0-2-0.8-2-2c0-1.1,1-2,2-2
			c1.1,0,2,0.8,2,2C39.6,19.4,38.6,20.2,37.6,20.2z M45.7,28.3c-1.1,0-2-0.8-2-2c0-1.1,1-2,2-2c1.1,0,2,1,2,2S46.7,28.3,45.7,28.3z"
			/>
	</g>
</g>
</svg>
