<svg xmlns="http://www.w3.org/2000/svg" width="37.147" height="33.076" viewBox="0 0 37.147 33.076"><defs><style>.a{fill:#efefef;}.b{fill:#a4afc1;}.c{fill:none;}.d{fill:#e9e9e9;}.e{fill:#cbcbcb;}.f{fill:#d5dbe1;}.g{fill:#282828;}.h{fill:#0038ba;}</style></defs><g transform="translate(-4.584 -5.069)"><path class="a" d="M4.356,8.7C4.356,15.979.584,20.98.584,24.489S2.6,35.366,18.742,35.366s18.51-9.913,18.51-13.773c0-18.072-32.9-25.791-32.9-12.9Z" transform="translate(4 2.779)"/><path class="b" d="M22.579,4.158a1.579,1.579,0,1,1,1.579-1.579A1.581,1.581,0,0,1,22.579,4.158Zm0-2.105a.526.526,0,1,0,.526.526A.528.528,0,0,0,22.579,2.053Z" transform="translate(17.573 7.397)"/><path class="c" d="M20.816,24.25a7.123,7.123,0,0,0,1.8,3.64H14.75a7.016,7.016,0,0,0,1.8-3.64Z" transform="translate(2.662 5.112)"/><path class="c" d="M7.963,25H32.834a1.214,1.214,0,0,0,1.213-1.213V20.75H6.75v3.033A1.214,1.214,0,0,0,7.963,25Z" transform="translate(0.956 4.366)"/><path class="c" d="M16.546,24.25a7.016,7.016,0,0,1-1.8,3.64h2.73a7.016,7.016,0,0,0,1.8-3.64Z" transform="translate(2.662 5.112)"/><path class="d" d="M20.816,24.25a7.123,7.123,0,0,0,1.8,3.64H14.75a7.016,7.016,0,0,0,1.8-3.64Z" transform="translate(2.663 5.112)"/><path class="d" d="M7.963,25H32.834a1.214,1.214,0,0,0,1.213-1.213V20.75H6.75v3.033A1.214,1.214,0,0,0,7.963,25Z" transform="translate(0.955 4.366)"/><path class="e" d="M16.546,24.25a7.016,7.016,0,0,1-1.8,3.64h2.73a7.016,7.016,0,0,0,1.8-3.64Z" transform="translate(2.663 5.112)"/><path class="e" d="M9.48,23.783V20.75H6.75v3.033A1.214,1.214,0,0,0,7.963,25h2.73A1.214,1.214,0,0,1,9.48,23.783Z" transform="translate(0.955 4.366)"/><path class="c" d="M9.48,23.783V20.75H6.75v3.033A1.214,1.214,0,0,0,7.963,25h2.73A1.214,1.214,0,0,1,9.48,23.783Z" transform="translate(0.956 4.366)"/><path class="f" d="M10.693,8.75H7.963A1.217,1.217,0,0,0,6.75,9.963V23.309H9.48V9.963A1.217,1.217,0,0,1,10.693,8.75Z" transform="translate(0.956 1.807)"/><path class="g" d="M32.994,28.625H8.123A2.125,2.125,0,0,1,6,26.5V10.123A2.125,2.125,0,0,1,8.123,8H32.994a2.125,2.125,0,0,1,2.123,2.123V26.5A2.125,2.125,0,0,1,32.994,28.625ZM8.123,9.82a.3.3,0,0,0-.3.3V26.5a.3.3,0,0,0,.3.3H32.994a.3.3,0,0,0,.3-.3V10.123a.3.3,0,0,0-.3-.3Z" transform="translate(0.796 1.647)"/><path class="g" d="M6.75,20h27.3v1.82H6.75Z" transform="translate(0.956 4.206)"/><path class="g" d="M22.8,28.822H14.91a.909.909,0,0,1-.643-1.553,6.149,6.149,0,0,0,1.538-3.118l1.8.24a8.139,8.139,0,0,1-.9,2.611H20.98a8.392,8.392,0,0,1-.905-2.6l1.8-.254a6.341,6.341,0,0,0,1.439,3.02.91.91,0,0,1-.519,1.657Z" transform="translate(2.502 5.09)"/><path class="h" d="M26.693,19.279H24.267a1.519,1.519,0,0,1-1.517-1.517V13.517A1.519,1.519,0,0,1,24.267,12h2.426v1.82H24.57v3.64h2.123Z" transform="translate(4.367 2.5)"/><path class="h" d="M14.5,12h1.82v7.279H14.5Z" transform="translate(2.608 2.5)"/><path class="h" d="M13.64,19.279H10.91a.91.91,0,0,1-.91-.91V12h1.82v5.46h1.82Z" transform="translate(1.649 2.5)"/><path class="h" d="M19.965,19.265a.91.91,0,0,1-.874-.653l-1.773-6.03,1.745-.513.9,3.06.9-3.06,1.745.513-1.773,6.03A.905.905,0,0,1,19.965,19.265Z" transform="translate(3.209 2.515)"/><path class="h" d="M23.5,14.25h3.033v1.82H23.5Z" transform="translate(4.527 2.98)"/></g></svg>