<?xml version="1.0" encoding="utf-8"?>
<!-- Generator: Adobe Illustrator 22.0.1, SVG Export Plug-In . SVG Version: 6.00 Build 0)  -->
<svg version="1.1" id="Layer_1" xmlns="http://www.w3.org/2000/svg" xmlns:xlink="http://www.w3.org/1999/xlink" x="0px" y="0px"
	 viewBox="0 0 24 24" style="enable-background:new 0 0 24 24;" xml:space="preserve">
<style type="text/css">
	.st0{fill:#FFFFFF;}
</style>
<g>
	<g>
		<path class="st0" d="M11,23.5c0.3,0.3,0.4,0.3,0.9,0.3c0.4,0,0.5-0.1,0.9-0.3c0.7-0.7,3.1-3,5.2-6c1.5-2,3.4-5,3.4-7.9
			c0-5-4.1-9.2-9.3-9.2S2.3,4.6,2.3,9.7c0,2.8,2,6,3.4,7.9C7.9,20.4,10.4,22.8,11,23.5z M11.8,2.3c4.1,0,7.6,3.3,7.6,7.4
			c0,2.4-1.7,5-3,6.8c-1.7,2.4-3.7,4.3-4.7,5.2c-0.9-1-2.8-2.8-4.6-5.3c-1.3-1.7-3-4.2-3-6.7C4.1,5.8,7.5,2.3,11.8,2.3z"/>
	</g>
</g>
<path class="st0" d="M16.3,6.8c-0.5-0.4-1.2-0.3-1.5,0.1l-4.1,5l-2-1.3c-0.4-0.4-1.2-0.3-1.5,0.2c-0.4,0.5-0.3,1.2,0.2,1.5l2.5,2
	c0.2,0.2,0.4,0.2,0.7,0.2c0.3,0,0.7-0.2,0.9-0.4l4.9-5.9C16.7,7.8,16.7,7.2,16.3,6.8z"/>
</svg>
