<?xml version="1.0" encoding="utf-8"?>
<!-- Generator: Adobe Illustrator 22.0.1, SVG Export Plug-In . SVG Version: 6.00 Build 0)  -->
<svg version="1.1" id="Layer_1" xmlns="http://www.w3.org/2000/svg" xmlns:xlink="http://www.w3.org/1999/xlink" x="0px" y="0px"
	 viewBox="0 0 24 24" style="enable-background:new 0 0 24 24;" xml:space="preserve">
<style type="text/css">
	.st0{fill:#FFFFFF;}
</style>
<g>
	<g>
		<path class="st0" d="M11.2,21.5c0.3,0.3,0.4,0.3,0.8,0.3c0.4,0,0.5-0.1,0.8-0.3c0.6-0.6,2.9-2.8,4.8-5.5c1.4-1.8,3.1-4.6,3.1-7.3
			c0-4.6-3.8-8.5-8.6-8.5S3.2,4.1,3.2,8.8c0,2.6,1.8,5.5,3.1,7.3C8.4,18.7,10.7,20.9,11.2,21.5z M12,2c3.8,0,7,3,7,6.8
			c0,2.2-1.6,4.6-2.8,6.3c-1.6,2.2-3.4,4-4.3,4.8C11.1,19,9.3,17.3,7.7,15c-1.2-1.6-2.8-3.9-2.8-6.2C4.9,5.2,8,2,12,2z"/>
	</g>
</g>
<rect x="17.2" y="22.4" class="st0" width="6.8" height="1.6"/>
<rect y="22.4" class="st0" width="6.8" height="1.6"/>
<rect x="17.2" y="18.6" class="st0" width="6.8" height="1.6"/>
<rect y="18.6" class="st0" width="6.8" height="1.6"/>
<path class="st0" d="M16.2,6.1c-0.5-0.4-1.1-0.3-1.4,0.1l-3.8,4.6L9.2,9.6C8.8,9.2,8.1,9.3,7.8,9.8c-0.4,0.5-0.3,1.1,0.2,1.4
	l2.3,1.8c0.2,0.2,0.4,0.2,0.6,0.2c0.3,0,0.6-0.2,0.8-0.4l4.5-5.4C16.5,7.1,16.5,6.5,16.2,6.1z"/>
</svg>
