<?xml version="1.0" encoding="utf-8"?>
<!-- Generator: Adobe Illustrator 24.2.3, SVG Export Plug-In . SVG Version: 6.00 Build 0)  -->
<svg version="1.1" id="_x31_" xmlns="http://www.w3.org/2000/svg" xmlns:xlink="http://www.w3.org/1999/xlink" x="0px" y="0px"
	 viewBox="0 0 80 80" style="enable-background:new 0 0 80 80;" xml:space="preserve">
<style type="text/css">
	.st0{fill:#0038ba;}
</style>
<path class="st0" d="M71.7,80H8.3C3.7,80,0,76.3,0,71.7V8.3C0,3.7,3.7,0,8.3,0h18.3c0.4,0,0.9,0.2,1.2,0.5L34,6.7h37.6
	c4.6,0,8.3,3.7,8.3,8.3v56.7C80,76.3,76.3,80,71.7,80z M8.3,3.3c-2.8,0-5,2.2-5,5v63.3c0,2.8,2.2,5,5,5h63.3c2.8,0,5-2.2,5-5V15
	c0-2.8-2.2-5-5-5H33.3c-0.4,0-0.9-0.2-1.2-0.5L26,3.3H8.3z"/>
<path class="st0" d="M55,60H45c-0.9,0-1.7-0.7-1.7-1.7v-30c0-0.9,0.7-1.7,1.7-1.7h10c0.9,0,1.7,0.7,1.7,1.7v30
	C56.7,59.3,55.9,60,55,60z M46.7,56.7h6.7V30h-6.7V56.7z"/>
<path class="st0" d="M35,60H25c-0.9,0-1.7-0.7-1.7-1.7V41.7c0-0.9,0.7-1.7,1.7-1.7h10c0.9,0,1.7,0.7,1.7,1.7v16.7
	C36.7,59.3,35.9,60,35,60z M26.7,56.7h6.7V43.3h-6.7V56.7z"/>
<path class="st0" d="M58.3,60H21.7c-0.9,0-1.7-0.7-1.7-1.7c0-0.9,0.7-1.7,1.7-1.7h36.7c0.9,0,1.7,0.7,1.7,1.7
	C60,59.3,59.3,60,58.3,60z"/>
</svg>
