<svg xmlns="http://www.w3.org/2000/svg" width="36.791" height="33.076" viewBox="0 0 36.791 33.076"><defs><style>.a{fill:#efefef;}.b{fill:#f3f3f1;}.c{fill:#e9e9e9;}.d{fill:#d5dbe1;}.e{fill:#cbcbcb;}.f{fill:#a4afc1;}.g{fill:#0038ba;}.h{fill:#282828;}</style></defs><g transform="translate(-0.167 -1.967)"><g transform="translate(0.167 1.967)"><path class="a" d="M1.091,15.731C4.862,21.788,4.313,27.9,6.13,30.82s7.312,8,20.739-.354S37.134,12.635,35.136,9.424C25.778-5.61-5.586,5,1.091,15.731Z" transform="translate(-0.167 -1.967)"/></g><g transform="translate(4.064 3.628)"><g transform="translate(2.893 3.273)"><path class="b" d="M29.96,8.813v9.542H26.4a2.062,2.062,0,0,0-1.888,1.217l-2.641,5.911a1.013,1.013,0,0,1-.939.609,1.043,1.043,0,0,1-.99-.732L15.735,11.351a1.036,1.036,0,0,0-1.981,0L12.093,16.89a2.071,2.071,0,0,1-1.981,1.465H6.75V8.813A2.069,2.069,0,0,1,8.813,6.75H27.9A2.069,2.069,0,0,1,29.96,8.813Z" transform="translate(-6.75 -6.75)"/></g><g transform="translate(2.893 7.141)"><path class="c" d="M29.96,18.237v9.542A2.069,2.069,0,0,1,27.9,29.841H8.813A2.069,2.069,0,0,1,6.75,27.778V18.237h3.363a2.071,2.071,0,0,0,1.981-1.465l1.661-5.539a1.036,1.036,0,0,1,1.981,0l4.209,14.008a1.043,1.043,0,0,0,.99.732,1.013,1.013,0,0,0,.939-.609l2.641-5.911A2.062,2.062,0,0,1,26.4,18.237Z" transform="translate(-6.75 -10.5)"/></g><g transform="translate(2.893 3.273)"><path class="d" d="M11.392,6.75H8.813A2.069,2.069,0,0,0,6.75,8.813v9.542H9.329V8.813A2.069,2.069,0,0,1,11.392,6.75Z" transform="translate(-6.75 -6.75)"/></g><g transform="translate(2.893 14.878)"><path class="e" d="M9.329,27.542V18H6.75v9.542A2.069,2.069,0,0,0,8.813,29.6h2.579A2.069,2.069,0,0,1,9.329,27.542Z" transform="translate(-6.75 -18)"/></g><g transform="translate(25.458 25.709)"><g transform="translate(0 2.579)"><path class="f" d="M28.625,31h1.032v2.063H28.625Z" transform="translate(-28.625 -31)"/></g><g transform="translate(2.321)"><path class="f" d="M30.875,28.5h2.063v1.032H30.875Z" transform="translate(-30.875 -28.5)"/></g></g><g transform="translate(0 0)"><path class="f" d="M5.492,6.672A1.547,1.547,0,1,1,7.04,5.124,1.549,1.549,0,0,1,5.492,6.672Zm0-2.063a.516.516,0,1,0,.516.516A.517.517,0,0,0,5.492,4.609Z" transform="translate(-3.945 -3.577)"/></g></g><g transform="translate(6.184 6.127)"><g transform="translate(0.774 3.868)"><path class="g" d="M20.934,26.77A1.809,1.809,0,0,1,19.206,25.5l-4.213-14.02a.263.263,0,0,0-.249-.182.268.268,0,0,0-.253.193l-1.657,5.528a2.838,2.838,0,0,1-2.722,2.017H6.75V17.488h3.363a1.294,1.294,0,0,0,1.241-.92l1.659-5.533a1.81,1.81,0,0,1,3.46-.012l4.213,14.02a.263.263,0,0,0,.249.182.243.243,0,0,0,.229-.14l2.644-5.92A2.838,2.838,0,0,1,26.4,17.487h.98v1.547H26.4a1.291,1.291,0,0,0-1.181.758L22.578,25.7a1.784,1.784,0,0,1-1.644,1.067Z" transform="translate(-6.75 -9.75)"/></g><path class="h" d="M27.92,30.757H8.837A2.839,2.839,0,0,1,6,27.92V8.837A2.839,2.839,0,0,1,8.837,6H27.92a2.839,2.839,0,0,1,2.837,2.837V27.92A2.839,2.839,0,0,1,27.92,30.757ZM8.837,7.547A1.291,1.291,0,0,0,7.547,8.837V27.92A1.291,1.291,0,0,0,8.837,29.21H27.92A1.291,1.291,0,0,0,29.21,27.92V8.837A1.291,1.291,0,0,0,27.92,7.547Z" transform="translate(-6 -6)"/></g></g></svg>