<?xml version="1.0" encoding="utf-8"?>
<!-- Generator: Adobe Illustrator 24.2.3, SVG Export Plug-In . SVG Version: 6.00 Build 0)  -->
<svg version="1.1" id="_x31_" xmlns="http://www.w3.org/2000/svg" xmlns:xlink="http://www.w3.org/1999/xlink" x="0px" y="0px"
	 viewBox="0 0 80 80" style="enable-background:new 0 0 80 80;" xml:space="preserve">
<style type="text/css">
	.st0{fill:#0038ba;}
</style>
<g>
	<g>
		<path class="st0" d="M33.3,80C15,80,0,65,0,46.7s15-33.3,33.3-33.3s33.3,15,33.3,33.3S51.7,80,33.3,80z M33.3,16.7
			c-16.7,0-30,13.3-30,30s13.3,30,30,30s30-13.3,30-30S50,16.7,33.3,16.7z"/>
	</g>
	<g>
		<path class="st0" d="M33.3,68.3c-12,0-21.7-9.7-21.7-21.7S21.3,25,33.3,25S55,34.7,55,46.7S45.3,68.3,33.3,68.3z M33.3,28.3
			c-10,0-18.3,8.3-18.3,18.3S23.3,65,33.3,65s18.3-8.3,18.3-18.3S43.3,28.3,33.3,28.3z"/>
	</g>
	<g>
		<path class="st0" d="M33.3,56.7c-5.7,0-10-4.3-10-10s4.3-10,10-10s10,4.3,10,10S39,56.7,33.3,56.7z M33.3,40c-3.7,0-6.7,3-6.7,6.7
			s3,6.7,6.7,6.7s6.7-3,6.7-6.7S37,40,33.3,40z"/>
	</g>
	<g>
		<path class="st0" d="M33.3,48.3c-0.3,0-1,0-1.3-0.3c-0.7-0.7-0.7-1.7,0-2.3l25-25c0.7-0.7,1.7-0.7,2.3,0c0.7,0.7,0.7,1.7,0,2.3
			l-25,25C34.3,48.3,33.7,48.3,33.3,48.3L33.3,48.3z"/>
	</g>
	<g>
		<path class="st0" d="M66.7,23.3h-8.3c-1,0-1.7-0.7-1.7-1.7v-8.3c0-0.3,0.3-1,0.3-1.3L68.7,0.3C69.3,0,70,0,70.7,0
			c0.7,0.3,1,1,1,1.7v6.7h6.7c0.7,0,1.3,0.3,1.7,1c0,0.7,0,1.3-0.3,2L68,23C67.7,23,67,23.3,66.7,23.3z M60,20h6l8.3-8.3H70
			c-1,0-1.7-0.7-1.7-1.7V5.7L60,14V20z"/>
	</g>
</g>
</svg>
