<?xml version="1.0" encoding="utf-8"?>
<!-- Generator: Adobe Illustrator 24.2.3, SVG Export Plug-In . SVG Version: 6.00 Build 0)  -->
<svg version="1.1" id="_x31_" xmlns="http://www.w3.org/2000/svg" xmlns:xlink="http://www.w3.org/1999/xlink" x="0px" y="0px"
	 viewBox="0 0 80 80" style="enable-background:new 0 0 80 80;" xml:space="preserve">
<style type="text/css">
	.st0{fill:#0038ba;}
</style>
<g>
	<path class="st0" d="M30,70C13.3,70,0,56.6,0,40s13.3-30,30-30c8,0,15.7,3,21.3,8.7c2.7,2.7,4.7,5.7,6.3,9c0.3,1,0,1.7-0.7,2.3
		c-1,0.3-1.7,0-2.3-0.7c-1.3-3-3.3-5.7-5.3-8c-5.7-5.3-12.3-8-19.3-8c-14.7,0-26.6,12-26.6,26.6s12,26.6,26.6,26.6
		c1,0,1.7,0.7,1.7,1.7S31,70,30,70L30,70z"/>
</g>
<g>
	<path class="st0" d="M28.3,58.3c-9.7-1-16.7-8.7-16.7-18.3c0-10,8.3-18.3,18.3-18.3c5,0,9.3,2,13,5.3c1,1,2,2.3,3,4
		c0.3,0.7,0.3,1.7-0.7,2.3c-0.7,0.3-1.7,0.3-2.3-0.7c-0.7-1.3-1.3-2.3-2.3-3.3C37.6,26.6,34,25,30,25c-8.3,0-15,6.7-15,15
		c0,7.7,5.7,14.3,13.7,15c0.7,0,1.3,0.7,1.3,1.7S29.3,58.3,28.3,58.3z"/>
</g>
<g>
	<path class="st0" d="M30,41.6c-0.3,0-1,0-1.3-0.3c-0.7-0.7-0.7-1.7,0-2.3l21.7-21.7c0.7-0.7,1.7-0.7,2.3,0c0.7,0.7,0.7,1.7,0,2.3
		L31,41.3C31,41.6,30.3,41.6,30,41.6z"/>
</g>
<g>
	<path class="st0" d="M60,20h-8.3c-1,0-1.7-0.7-1.7-1.7V10c0-0.3,0.3-1,0.3-1.3l8.3-8.3C59.3,0,60,0,60.6,0c0.7,0.3,1,1,1,1.7v6.7
		h6.7c0.7,0,1.3,0.3,1.7,1c0,0.7,0,1.3-0.3,2l-8.3,8.3C61,19.7,60.3,20,60,20z M53.3,16.7h6l5-5H60c-1,0-1.7-0.7-1.7-1.7V5.7l-5,5
		V16.7z"/>
</g>
<g>
	<path class="st0" d="M58.3,79.9c-12,0-21.7-9.7-21.7-21.7s9.7-21.7,21.7-21.7s21.7,9.7,21.7,21.7S70.3,79.9,58.3,79.9z M58.3,40
		C48.3,40,40,48.3,40,58.3s8.3,18.3,18.3,18.3s18.3-8.3,18.3-18.3S68.3,40,58.3,40z"/>
</g>
<g>
	<path class="st0" d="M55,66.6c-0.3,0-1-0.3-1.3-0.3L47,59.6c-0.7-0.7-0.7-1.7,0-2.3c0.7-0.7,1.7-0.7,2.3,0l5.3,5.3l10.3-12
		c0.7-0.7,1.7-0.7,2.3,0c0.7,0.7,0.7,1.7,0,2.3L55.6,66.3C56,66.3,55.6,66.6,55,66.6L55,66.6z"/>
</g>
<g>
	<path class="st0" d="M30,46.6c-3.7,0-6.7-3-6.7-6.7c0-3.7,3-6.7,6.7-6.7s6.7,3,6.7,6.7C36.6,43.6,33.6,46.6,30,46.6z M30,36.6
		c-2,0-3.3,1.3-3.3,3.3c0,2,1.3,3.3,3.3,3.3s3.3-1.3,3.3-3.3C33.3,38,32,36.6,30,36.6z"/>
</g>
</svg>
