<?xml version="1.0" encoding="utf-8"?>
<!-- Generator: Adobe Illustrator 25.2.1, SVG Export Plug-In . SVG Version: 6.00 Build 0)  -->
<svg version="1.1" id="Layer_1" xmlns="http://www.w3.org/2000/svg" xmlns:xlink="http://www.w3.org/1999/xlink" x="0px" y="0px"
	 viewBox="0 0 512 512" style="enable-background:new 0 0 512 512;" xml:space="preserve">
<style type="text/css">
	.st0{fill:#0038BA;}
	.st1{fill:#282828;}
</style>
<g>
	<path class="st0" d="M452.7,249.1h-59.6v-124c0-3.5-1.3-6.8-3.7-9.2l-66.6-69.1c-2.4-2.4-5.6-3.8-8.9-3.8h-243
		C66,43,62,47.1,62,52.2v407.6c0,5.1,4,9.2,8.9,9.2h313.4c4.9,0,8.9-4.1,8.9-9.2v-32h59.6c11,0,19.9-9.2,19.9-20.6c0,0,0,0,0,0
		V269.7C472.6,258.4,463.7,249.1,452.7,249.1z M320.3,63.6l53,55h-53V63.6z M75.2,455.3V56.7h231.8v68.7c0,3.8,2.9,6.8,6.6,6.8h66.2
		v116.8H240.8c-11,0-19.9,9.2-19.9,20.6v137.4c0,11.4,8.9,20.6,19.9,20.6h139.1l0.1,27.5H75.2z M234.2,284.1v-14.4
		c0-3.8,3-6.9,6.6-6.9h211.9c3.7,0,6.6,3.1,6.6,6.9l0.1,14.4l-0.1,41.2l0.1,81.8c0,3.8-3,6.9-6.6,6.9h-212c-3.7,0-6.6-3.1-6.6-6.9
		v-81.8V284.1z"/>
	<path class="st0" d="M249.1,230.1c0.2,0,0.4,0,0.7,0h114.5c3.6,0.2,6.7-2.7,6.9-6.5c0.2-3.8-2.6-7-6.2-7.2c-0.2,0-0.4,0-0.7,0
		H249.8c-3.6-0.2-6.7,2.7-6.9,6.5C242.7,226.7,245.5,229.9,249.1,230.1z"/>
	<path class="st0" d="M249.8,165h114.5c3.6,0,6.6-3.1,6.6-6.8s-2.9-6.8-6.6-6.8H249.8c-3.6,0-6.6,3.1-6.6,6.8S246.1,165,249.8,165z"
		/>
	<path class="st0" d="M249.8,197.6h114.5c3.6,0,6.6-3.1,6.6-6.8c0-3.8-2.9-6.8-6.6-6.8l0,0H249.8c-3.6,0-6.6,3.1-6.6,6.8
		C243.2,194.5,246.1,197.6,249.8,197.6z"/>
	<path class="st0" d="M205.3,242.3H92.4c-3.6,0-6.6,3.1-6.6,6.8c0,3.8,2.9,6.8,6.6,6.8h0h112.9c3.6,0,6.6-3.1,6.6-6.8
		C211.9,245.3,209,242.3,205.3,242.3z"/>
	<path class="st0" d="M205.3,269.8H92.4c-3.6,0-6.6,3.1-6.6,6.8s2.9,6.8,6.6,6.8h112.9c3.6,0,6.6-3.1,6.6-6.8S209,269.8,205.3,269.8
		z"/>
	<path class="st0" d="M177.8,311c3.6,0,6.6-3.1,6.6-6.8s-2.9-6.8-6.6-6.8H92.4c-3.6,0-6.6,3.1-6.6,6.8s2.9,6.8,6.6,6.8H177.8z"/>
	<path class="st0" d="M177.8,367.2c3.6,0,6.6-3.1,6.6-6.8c0-3.8-2.9-6.8-6.6-6.8H92.4c-3.6,0-6.6,3.1-6.6,6.8c0,3.8,2.9,6.8,6.6,6.8
		H177.8z"/>
	<path class="st0" d="M177.8,396.8c3.6,0,6.6-3.1,6.6-6.8s-2.9-6.8-6.6-6.8H92.4c-3.6,0-6.6,3.1-6.6,6.8s2.9,6.8,6.6,6.8H177.8z"/>
	<path class="st0" d="M177.8,426.4c3.6,0,6.6-3.1,6.6-6.8c0-3.8-2.9-6.8-6.6-6.8H92.4c-3.6,0-6.6,3.1-6.6,6.8c0,3.8,2.9,6.8,6.6,6.8
		H177.8z"/>
	<path class="st1" d="M158.1,219.6c40.1,0,72.7-33.8,72.6-75.4c0-41.6-32.5-75.4-72.7-75.4c-40.1,0-72.6,33.8-72.6,75.4
		C85.5,185.8,118,219.5,158.1,219.6z M158.1,82.5c32.8,0,59.4,27.6,59.4,61.7s-26.6,61.7-59.4,61.7s-59.4-27.6-59.4-61.7
		C98.7,110.1,125.3,82.5,158.1,82.5z"/>
	<path class="st1" d="M145.1,160.6c0-3.8-3-6.8-6.7-6.8s-6.6,3.1-6.6,6.9c0.7,11.3,8.9,20.7,19.7,22.5v6.9c0.2,3.8,3.3,6.7,7,6.5
		c3.4-0.2,6.1-3,6.3-6.5v-6.9c10.8-1.9,19-11.3,19.7-22.7c-0.7-11.4-8.9-20.7-19.8-22.4v-18.4c3.5,1.1,6.1,4.3,6.5,8.1
		c0,3.8,3,6.8,6.7,6.8c3.7,0,6.6-3.1,6.6-6.9c-0.7-11.3-8.8-20.7-19.6-22.5v-6.9c-0.2-3.8-3.3-6.7-7-6.5c-3.4,0.2-6.1,3-6.3,6.5v6.9
		c-10.8,1.9-19,11.3-19.7,22.7c0.7,11.3,8.9,20.7,19.7,22.4v18.4C148,167.5,145.5,164.3,145.1,160.6z M164.6,152.5
		c3.5,1.1,6.1,4.2,6.5,8c-0.4,3.8-3,6.9-6.5,8V152.5z M145.1,127.7c0.4-3.8,3-6.9,6.5-8v16C148.1,134.6,145.6,131.5,145.1,127.7z"/>
	<path class="st1" d="M401.5,276l-18.6,21.9c-10-8.9-23.1-14.5-37.6-14.5c-31.4,0-56.9,25.5-56.9,56.8s25.5,56.8,56.9,56.8
		c31.4,0,56.9-25.5,56.9-56.8c0-11.8-3.6-22.8-9.8-31.9l19.8-23.4c2.5-3,2.1-7.4-0.8-9.9C408.4,272.7,404,273.1,401.5,276z
		 M345.4,383.1c-23.6,0-42.9-19.2-42.9-42.9s19.2-42.8,42.9-42.8c11,0,21,4.3,28.6,11.1l-30.1,35.6L331.7,332
		c-2.7-2.7-7.2-2.7-9.9,0s-2.7,7.2,0,9.9l17.5,17.5c1.3,1.3,3.1,2,4.9,2c0.1,0,0.2,0,0.3,0c1.9-0.1,3.8-1,5.1-2.5l33.2-39.2
		c3.4,6.1,5.5,13,5.5,20.5C388.3,363.9,369,383.1,345.4,383.1z"/>
</g>
</svg>
