<?xml version="1.0" encoding="utf-8"?>
<!-- Generator: Adobe Illustrator 25.2.1, SVG Export Plug-In . SVG Version: 6.00 Build 0)  -->
<svg version="1.1" id="Layer_1" xmlns="http://www.w3.org/2000/svg" xmlns:xlink="http://www.w3.org/1999/xlink" x="0px" y="0px"
	 viewBox="0 0 512 512" style="enable-background:new 0 0 512 512;" xml:space="preserve">
<style type="text/css">
	.st0{fill-rule:evenodd;clip-rule:evenodd;fill:#FFFFFF;stroke:#FFFFFF;stroke-width:3;stroke-miterlimit:10;}
	.st1{fill:#FFFFFF;}
</style>
<g>
	<g>
		<path class="st0" d="M256.1,138.8c86.4,0,156.4,70.1,156.4,156.6s-70.1,156.4-156.6,156.4c-86.4,0-156.4-70.1-156.4-156.6
			c0-22.5,4.9-44.8,14.3-65.2c3.4-7.9-0.5-17.1-8.5-20.4c-7.5-3-16.1,0.2-20,7.3c-43.3,94.3-2,205.8,92.3,249s205.8,2,249-92.3
			s2-205.8-92.3-249c-24.5-11.3-51.3-17.1-78.3-17.1V138.8z"/>
		<path class="st1" d="M275.1,212.4l30.8-172c1.1-6-3-11.7-8.9-12.8c-2.6-0.5-5.3-0.1-7.5,1.3L170.8,96.4c-5.4,3-7.3,9.9-4.2,15.1
			c0.3,0.5,0.7,1.2,1.2,1.8l87.8,104.5c4,4.7,10.9,5.3,15.6,1.3C273.3,217.4,274.6,215,275.1,212.4z"/>
	</g>
</g>
</svg>
