<?xml version="1.0" encoding="utf-8"?>
<!-- Generator: Adobe Illustrator 22.0.1, SVG Export Plug-In . SVG Version: 6.00 Build 0)  -->
<svg version="1.1" id="Layer_1" xmlns="http://www.w3.org/2000/svg" xmlns:xlink="http://www.w3.org/1999/xlink" x="0px" y="0px"
	 viewBox="0 0 163 163" style="enable-background:new 0 0 163 163;" xml:space="preserve">
<style type="text/css">
	.st0{fill:#282828;}
	.st1{fill:#0038BA;}
</style>
<g id="Check_List">
	<path class="st0" d="M108.7,27.4h8c4.4,0,8,3.6,8,8v35.8h5.3V35.3c0-7.3-6-13.3-13.3-13.3h-8c0-1.5-1.2-2.7-2.7-2.7H77.3
		C80.3,16,80,11,76.8,8s-8.3-2.7-11.3,0.5c-2.8,3-2.8,7.7,0,10.7H36.8c-1.5,0-2.7,1.2-2.7,2.7h-8c-7.3,0-13.3,6-13.3,13.3v109.1
		c0,7.3,6,13.3,13.3,13.3h100.5v-5.3H26.2c-4.4,0-8-3.5-8-7.9V35.3c0-4.4,3.6-8,8-8h8V30c0,4.4,3.6,8,8,8h58.5c4.4,0,8-3.6,8-8V27.4
		z M71.4,11.4c1.5,0,2.7,1.2,2.7,2.7s-1.2,2.7-2.7,2.7s-2.7-1.2-2.7-2.7S70,11.4,71.4,11.4z M39.5,24.7h63.9V30
		c0,1.5-1.2,2.7-2.7,2.7H42.2c-1.5,0-2.7-1.2-2.7-2.7V24.7z"/>
	<path class="st1" d="M151.9,85.5H88c-2.9,0-5.3,2.4-5.3,5.3v46.6c0,2.9,2.4,5.3,5.3,5.3h63.9c2.9,0,5.3-2.4,5.3-5.3V90.8
		C157.3,87.9,154.9,85.5,151.9,85.5z M151.9,100.1h-22v-9.3h22V100.1z M124.6,90.8v14.6h-9.3V90.8H124.6z M110,90.8v9.3H88v-9.3H110
		z M88,137.4v-32h22v2.7c0,1.5,1.2,2.7,2.7,2.7h14.6c1.5,0,2.7-1.2,2.7-2.7v-2.7h22v32H88z"/>
	<path class="st1" d="M60.8,67.6h-5.3v5.3h-16v-16h13.3v-5.3h-16c-1.5,0-2.7,1.2-2.7,2.7v21.3c0,1.5,1.2,2.7,2.7,2.7h21.3
		c1.5,0,2.7-1.2,2.7-2.7V67.6z"/>
	<path class="st0" d="M58.1,95.8H36.8c-1.5,0-2.7,1.2-2.7,2.7v21.3c0,1.5,1.2,2.7,2.7,2.7h21.3c1.5,0,2.7-1.2,2.7-2.7V98.5
		C60.8,97,59.6,95.8,58.1,95.8z M55.4,117.1h-16v-16h16V117.1z"/>
	<path class="st1" d="M61.5,52.4L50.1,63.8L44,57.7l-3.8,3.8l8,8c1,1,2.7,1,3.8,0l13.3-13.3L61.5,52.4z"/>
	<rect x="71.4" y="70.2" class="st1" width="21.3" height="5.3"/>
	<rect x="71.4" y="59.6" class="st1" width="21.3" height="5.3"/>
</g>
</svg>
