<?xml version="1.0" encoding="utf-8"?>
<!-- Generator: Adobe Illustrator 24.2.3, SVG Export Plug-In . SVG Version: 6.00 Build 0)  -->
<svg version="1.1" id="_x31_" xmlns="http://www.w3.org/2000/svg" xmlns:xlink="http://www.w3.org/1999/xlink" x="0px" y="0px"
	 viewBox="0 0 80 80" style="enable-background:new 0 0 80 80;" xml:space="preserve">
<style type="text/css">
	.st0{fill:#0038ba;}
</style>
<g>
	<g>
		<path class="st0" d="M40,66.7c-11,0-20-9-20-20s9-20,20-20s20,9,20,20S51,66.7,40,66.7z M40,30c-9.2,0-16.7,7.5-16.7,16.7
			S30.8,63.3,40,63.3s16.7-7.5,16.7-16.7S49.2,30,40,30z"/>
	</g>
	<g>
		<path class="st0" d="M46.7,55c-0.4,0-0.9-0.2-1.2-0.5l-6.7-6.7c-0.3-0.3-0.5-0.7-0.5-1.2v-10c0-0.9,0.7-1.7,1.7-1.7
			s1.7,0.7,1.7,1.7V46l6.2,6.2c0.6,0.6,0.6,1.7,0,2.4C47.5,54.8,47.1,55,46.7,55z"/>
	</g>
	<g>
		<path class="st0" d="M71.7,79.7H8.3c-4.6,0-8.3-3.7-8.3-8.3V8.7c0-4.6,3.7-8.3,8.3-8.3h63.3c4.6,0,8.3,3.7,8.3,8.3v62.7
			C80,75.9,76.3,79.7,71.7,79.7z M8.3,3.7c-2.8,0-5,2.2-5,5v62.7c0,2.8,2.2,5,5,5h63.3c2.8,0,5-2.2,5-5V8.7c0-2.8-2.2-5-5-5H8.3z"/>
	</g>
	<g>
		<path class="st0" d="M78.3,17H1.7C0.7,17,0,16.3,0,15.3c0-0.9,0.7-1.7,1.7-1.7h76.7c0.9,0,1.7,0.7,1.7,1.7
			C80,16.3,79.3,17,78.3,17z"/>
	</g>
</g>
</svg>
