<?xml version="1.0" encoding="utf-8"?>
<!-- Generator: Adobe Illustrator 22.0.1, SVG Export Plug-In . SVG Version: 6.00 Build 0)  -->
<svg version="1.1" id="Layer_1" xmlns="http://www.w3.org/2000/svg" xmlns:xlink="http://www.w3.org/1999/xlink" x="0px" y="0px"
	 viewBox="0 0 50 50" style="enable-background:new 0 0 50 50;" xml:space="preserve">
<style type="text/css">
	.st0{fill:#0038BA;}
	.st1{fill:#FFFFFF;}
</style>
<path class="st0" d="M25,0.5C11.4,0.5,0.5,11.4,0.5,25S11.4,49.5,25,49.5s24.5-11,24.5-24.5l0,0C49.5,11.4,38.5,0.5,25,0.5z"/>
<g>
	<path class="st1" d="M21.3,31.6l4.1-3.9l5,5.5l11.4-11.6l3.4,4.1L30.7,40.5L21.3,31.6z"/>
	<g>
		<polygon class="st1" points="29.5,31.4 30.2,32.1 30.7,31.4 		"/>
		<path class="st1" d="M27.7,40H14.1v-5.2h2.3v-1.1h-3.2V40h-1.4v-7.3h8.4l-0.9-0.9l-0.2-0.2h-3.9V21.4c0.2-0.5,0.5-0.7,0.7-0.9
			c0.7,1.4,2.7,1.8,3.9,0.9c0.2-0.5,0.5-0.7,0.7-0.9c0.9,1.1,2.5,1.6,3.9,0.7c0.2-0.2,0.5-0.5,0.7-0.7c0.9,1.1,2.5,1.6,3.9,0.7
			c0-0.2,0.2-0.5,0.5-0.7c0.9,1.1,2.5,1.6,3.9,0.7c0.2-0.2,0.5-0.5,0.7-0.7c0.2,0.2,0.2,0.5,0.7,0.7v6.2l1.4-1.4v-4.1h1.1V25
			l0.9-0.9v-2.7c0.7-0.5,1.1-1.4,1.1-2.3v-2.3L35.9,9H35V6.8H15.2V9h-0.9l-3.6,7.5v2.3c0,0.9,0.5,1.6,1.1,2.3v10.3h-1.1v8.4H9.5V41
			h19.4L27.7,40z M14.3,31.4h-1.1v-9.6h1.1V31.4z M20,18.6c0,0.9-0.7,1.6-1.6,1.6c-1.1,0.2-1.8-0.5-2.1-1.4V17H20V18.6z M20,16.1
			h-3.4l2.1-5.7h2.3L20,16.1z M24.8,18.6c0,0.9-0.9,1.6-1.8,1.6s-1.4-0.7-1.6-1.4V17H25v1.6H24.8z M21.1,16.1l0.9-5.7h2.3v5.7H21.1z
			 M29.1,18.6c0,0.9-0.7,1.6-1.6,1.6c-1.1,0-1.8-0.7-1.8-1.6V17h3.6v1.6H29.1z M25.7,16.1v-5.7H28l0.9,5.7H25.7z M29.1,10.4h2.3
			l1.8,5.7h-3L29.1,10.4z M33.7,18.6c0,0.9-0.7,1.6-1.6,1.6s-1.6-0.7-1.6-1.6L30.2,17h3.6v1.6H33.7z M38.2,18.6
			c0.2,0.9-0.7,1.8-1.6,1.8c-0.9,0-1.6-0.7-1.6-1.6V17h3.4v1.6H38.2z M35,10.4l2.7,5.7h-3.2l-1.8-5.7C32.7,10.4,35,10.4,35,10.4z
			 M16.3,7.9h17.3V9H16.3V7.9z M15.2,10.4h2.3l-2.1,5.7H12L15.2,10.4z M11.8,17h3.6v1.6c0,0.9-0.7,1.6-1.6,1.6
			c-1.1,0.2-2.1-0.5-2.1-1.4V17z"/>
		<polygon class="st1" points="39.3,33 38.4,34.1 38.4,40 37.3,40 37.3,35.3 36.4,36.2 36.4,40 32.5,40 31.4,41.2 40.5,41.2 
			40.5,40 39.3,40 		"/>
	</g>
</g>
</svg>
