<?xml version="1.0" encoding="utf-8"?>
<!-- Generator: Adobe Illustrator 22.0.1, SVG Export Plug-In . SVG Version: 6.00 Build 0)  -->
<svg version="1.1" id="Capa_1" xmlns="http://www.w3.org/2000/svg" xmlns:xlink="http://www.w3.org/1999/xlink" x="0px" y="0px"
	 viewBox="0 0 50 50" style="enable-background:new 0 0 50 50;" xml:space="preserve">
<style type="text/css">
	.st0{fill:#0038BA;}
	.st1{fill:#A4FCC4;}
</style>
<g>
	<path class="st0" d="M38.3,48.3H7.6v-7.6h29.2v-1.6H6.3v9.2h-2V37.8H37l-1.3-1.3l-0.3-0.3H9.2V21.3c0.3-0.7,0.7-1,1-1.3
		c1,2,3.9,2.6,5.6,1.3c0.3-0.7,0.7-1,1-1.3c1.3,1.6,3.6,2.3,5.6,1c0.3-0.3,0.7-0.7,1-1c1.3,1.6,3.6,2.3,5.6,1c0-0.3,0.3-0.7,0.7-1
		c1.3,1.6,3.6,2.3,5.6,1c0.3-0.3,0.7-0.7,1-1c0.3,0.3,0.3,0.7,1,1v11.8l2-2V22h1.6v7.5l1.3-1.3v-6.8c1-0.7,1.6-2,1.6-3.3v-3.3
		L39.2,3.5h-1.3V0.3H9.2v3.3H7.9L2.7,14.4v3.3C2.7,19,3.3,20,4.3,21v14.8H2.7V48H1v2.6h39L38.3,48.3z M7.9,35.8H6.3V22h1.6V35.8z
		 M16.1,17.4c0,1.3-1,2.3-2.3,2.3c-1.6,0.3-2.6-0.7-3-2v-2.6h5.3V17.4z M16.1,13.7h-4.9l3-8.2h3.3L16.1,13.7z M23.1,17.4
		c0,1.3-1.3,2.3-2.6,2.3c-1.3,0-2-1-2.3-2v-2.6h5.3v2.3H23.1z M17.8,13.7l1.3-8.2h3.3v8.2H17.8z M29.3,17.4c0,1.3-1,2.3-2.3,2.3
		c-1.6,0-2.6-1-2.6-2.3v-2.3h5.3v2.3H29.3z M24.4,13.7V5.5h3.3l1.3,8.2H24.4z M29.3,5.5h3.3l2.6,8.2h-4.3L29.3,5.5z M35.9,17.4
		c0,1.3-1,2.3-2.3,2.3s-2.3-1-2.3-2.3l-0.3-2.3h5.3v2.3H35.9z M42.5,17.4c0.3,1.3-1,2.6-2.3,2.6s-2.3-1-2.3-2.3v-2.6h4.9v2.3H42.5z
		 M37.9,5.5l3.9,8.2h-4.6l-2.6-8.2C34.6,5.5,37.9,5.5,37.9,5.5z M10.9,1.9h25v1.6h-25V1.9z M9.2,5.5h3.3l-3,8.2H4.6L9.2,5.5z
		 M4.3,15.1h5.3v2.3c0,1.3-1,2.3-2.3,2.3c-1.6,0.3-3-0.7-3-2V15.1z"/>
	<polygon class="st0" points="44.1,32.1 42.8,33.8 42.8,48.3 41.1,48.3 41.1,35.4 39.8,36.7 39.8,48.3 34.2,48.3 32.6,51 45.8,51 
		45.8,48.3 44.1,48.3 	"/>
</g>
<g id="Group_1309" transform="translate(8.492 3.978)">
	<g id="Group_1308">
		<ellipse id="Ellipse_162" class="st1" cx="26.2" cy="32.6" rx="13.1" ry="13.1"/>
		<path id="Path_3117" class="st0" d="M24.7,37.9c-0.5,0-1,0-1.5-0.5l-3.3-3.3c-0.7-0.7-0.7-1.8,0-2.8c0.5-0.7,1.8-1,2.6,0l0,0
			l2.1,1.5l5.4-6.4c0.5-0.4,1.6-0.7,2.6,0.1c0.7,0.7,1,1.8,0.2,2.6l-6.9,8.1C25.9,37.6,25.4,37.9,24.7,37.9L24.7,37.9z"/>
	</g>
</g>
</svg>
