<?xml version="1.0" encoding="utf-8"?>
<!-- Generator: Adobe Illustrator 21.1.0, SVG Export Plug-In . SVG Version: 6.00 Build 0)  -->
<svg version="1.1" id="Layer_1" xmlns="http://www.w3.org/2000/svg" xmlns:xlink="http://www.w3.org/1999/xlink" x="0px" y="0px"
	 viewBox="0 0 24 24" style="enable-background:new 0 0 24 24;" xml:space="preserve">
<style type="text/css">
	.st0{fill:#FFFFFF;}
</style>
<g>
	<path class="st0" d="M22.1,3.9l-9.9-3.3c-0.2,0-0.4,0-0.6,0L1.8,3.9C1,4.2,1,4.8,1,4.8v13.9c0,0.4,0.2,0.7,0.6,0.8l10,3.9
		c0.2,0.1,0.6,0,0.7,0l10-3.9c0.4-0.1,0.6-0.5,0.6-0.8V4.8C23,4.5,22.8,4,22.1,3.9z M12,2.4l7.4,2.5L12,7.7L4.6,4.9L12,2.4z
		 M2.9,18.1V6.2l8.2,3.1v11.9L2.9,18.1z M21.1,18.1l-8.2,3.2V9.3l8.2-3.2V18.1z"/>
</g>
</svg>
