<?xml version="1.0" encoding="utf-8"?>
<!-- Generator: Adobe Illustrator 24.2.3, SVG Export Plug-In . SVG Version: 6.00 Build 0)  -->
<svg version="1.1" id="_x31_" xmlns="http://www.w3.org/2000/svg" xmlns:xlink="http://www.w3.org/1999/xlink" x="0px" y="0px"
	 viewBox="0 0 80 80" style="enable-background:new 0 0 80 80;" xml:space="preserve">
<style type="text/css">
	.st0{fill:#06205E;}
</style>
<path class="st0" d="M58.3,80c-11.9,0-21.7-9.7-21.7-21.7s9.7-21.7,21.7-21.7S80,46.4,80,58.3S70.3,80,58.3,80z M58.3,40
	C48.2,40,40,48.2,40,58.3s8.2,18.3,18.3,18.3s18.3-8.2,18.3-18.3S68.4,40,58.3,40z"/>
<path class="st0" d="M31.7,60H4.1C1.9,60,0,58.1,0,55.9V22.7c0-1.3,0.7-2.6,1.8-3.4L29,0.3c0.6-0.4,1.3-0.4,1.9,0l27.3,19
	c1.1,0.8,1.8,2.1,1.8,3.4v9c0,0.9-0.7,1.7-1.7,1.7c-0.9,0-1.7-0.7-1.7-1.7v-9c0-0.3-0.1-0.5-0.4-0.7L30,3.7L3.7,22
	c-0.2,0.2-0.4,0.4-0.4,0.7v33.2c0,0.5,0.4,0.8,0.8,0.8h27.5c0.9,0,1.7,0.7,1.7,1.7C33.3,59.3,32.6,60,31.7,60L31.7,60z"/>
<path class="st0" d="M31.7,60H15c-0.9,0-1.7-0.7-1.7-1.7v-30c0-0.9,0.7-1.7,1.7-1.7h30c0.9,0,1.7,0.7,1.7,1.7V35
	c0,0.9-0.7,1.7-1.7,1.7c-0.9,0-1.7-0.7-1.7-1.7v-5H16.7v26.7h15c0.9,0,1.7,0.7,1.7,1.7C33.3,59.3,32.6,60,31.7,60z"/>
<path class="st0" d="M38.3,40H15c-0.9,0-1.7-0.7-1.7-1.7c0-0.9,0.7-1.7,1.7-1.7h23.3c0.9,0,1.7,0.7,1.7,1.7C40,39.3,39.3,40,38.3,40
	z"/>
<path class="st0" d="M31.7,50H15c-0.9,0-1.7-0.7-1.7-1.7c0-0.9,0.7-1.7,1.7-1.7h16.7c0.9,0,1.7,0.7,1.7,1.7
	C33.3,49.3,32.6,50,31.7,50z"/>
<path class="st0" d="M58.2,71.7c-0.9,0-1.7-0.7-1.7-1.7v-3.3c0-0.9,0.7-1.7,1.7-1.7s1.7,0.7,1.7,1.7V70
	C59.8,70.9,59.1,71.7,58.2,71.7z"/>
<path class="st0" d="M59,68.3h-5.8c-0.9,0-1.7-0.7-1.7-1.7c0-0.9,0.7-1.7,1.7-1.7H59c1.4,0,2.5-1.1,2.5-2.5S60.4,60,59,60h-1.7
	c-3.2,0-5.8-2.6-5.8-5.8s2.6-5.8,5.8-5.8h5.8c0.9,0,1.7,0.7,1.7,1.7c0,0.9-0.7,1.7-1.7,1.7h-5.8c-1.4,0-2.5,1.1-2.5,2.5
	s1.1,2.5,2.5,2.5H59c3.2,0,5.8,2.6,5.8,5.8S62.2,68.3,59,68.3z"/>
<path class="st0" d="M58.2,51.7c-0.9,0-1.7-0.7-1.7-1.7v-3.3c0-0.9,0.7-1.7,1.7-1.7s1.7,0.7,1.7,1.7V50
	C59.8,50.9,59.1,51.7,58.2,51.7z"/>
</svg>
