<?xml version="1.0" encoding="utf-8"?>
<!-- Generator: Adobe Illustrator 22.0.1, SVG Export Plug-In . SVG Version: 6.00 Build 0)  -->
<svg version="1.1" id="Layer_1" xmlns="http://www.w3.org/2000/svg" xmlns:xlink="http://www.w3.org/1999/xlink" x="0px" y="0px"
	 viewBox="0 0 24 24" style="enable-background:new 0 0 24 24;" xml:space="preserve">
<style type="text/css">
	.st0{fill:#FFFFFF;}
</style>
<g>
	<path class="st0" d="M3.8,24.2h16.5c1.1,0,1.9-0.9,1.9-1.9V5c0-1.1-0.9-1.9-1.9-1.9h-2.1v1.4h2.1c0.3,0,0.6,0.3,0.6,0.6l0,0v17.3
		c0,0.3-0.3,0.6-0.6,0.6H3.8c-0.3,0-0.6-0.3-0.6-0.6l0,0V5c0-0.3,0.3-0.6,0.6-0.6l0,0h2.6V3.1H3.8C2.7,3.1,1.8,3.9,1.8,5v17.3
		C1.8,23.3,2.7,24.2,3.8,24.2z"/>
	<path class="st0" d="M7.2,2.5v2.4c0,0.3,0.2,0.5,0.5,0.5l0,0h9c0.3,0,0.5-0.2,0.5-0.5l0,0V2.5C17.2,2.3,17,2,16.8,2l0,0h-2.8
		c0.2-1.1-0.6-2-1.6-2.2s-2,0.6-2.2,1.6c0,0.2,0,0.4,0,0.6H7.7C7.5,2,7.2,2.3,7.2,2.5L7.2,2.5z M12,0.9c0.5,0,0.9,0.4,0.9,0.9
		S12.5,2.6,12,2.6c-0.5,0-0.9-0.4-0.9-0.9l0,0C11.1,1.3,11.5,0.9,12,0.9z"/>
</g>
<g>
	<path class="st0" d="M12,8.3c-1.9,0-3.3,1.4-3.3,3.3h2.2c0-0.7,0.4-1.1,1.1-1.1s1.1,0.4,1.1,1.1c0,0.4-0.2,0.8-0.5,1
		c-1,0.5-1.6,1.6-1.6,2.8V16h2.2v-0.5c0-0.4,0.2-0.8,0.4-0.9c1.1-0.5,1.7-1.6,1.7-2.8C15.3,9.7,13.9,8.3,12,8.3z"/>
	<rect x="10.9" y="17.5" class="st0" width="2.2" height="2.2"/>
</g>
</svg>
