<?xml version="1.0" encoding="utf-8"?>
<!-- Generator: Adobe Illustrator 25.2.1, SVG Export Plug-In . SVG Version: 6.00 Build 0)  -->
<svg version="1.1" id="Layer_1" xmlns="http://www.w3.org/2000/svg" xmlns:xlink="http://www.w3.org/1999/xlink" x="0px" y="0px"
	 viewBox="0 0 512 512" style="enable-background:new 0 0 512 512;" xml:space="preserve">
<style type="text/css">
	.st0{fill:#0038BA;}
	.st1{fill:#282828;}
</style>
<path class="st0" d="M57,374.4c1.1,2,3.1,3.5,5.4,3.9l45.8,9.1l21.4,12.6c-2.1,4.8-2.7,10.2-1.6,15.4c1.7,6.9,6.4,12.7,12.7,16
	l97.7,50c6.1,3.1,13.1,3.5,19.5,1.1c4.1-1.7,7.6-4.5,10.2-8l72.8,27.1c10.8,4.1,23,0.6,30.1-8.6l43.8-56c4.7-5.9,6.8-13.5,5.7-21
	c-0.8-4.3-2.7-8.4-5.4-11.8l80.9-5.8c4.6-0.3,8.1-4.3,8-8.9L496,256c-0.2-2.3-1.3-4.5-3.1-5.9c-1.9-1.4-4.2-2-6.5-1.8L416,258.4V64
	c0-4.4-3.6-8-8-8H256c-4.4,0-8,3.6-8,8v8h-56c-2.2,0-4.3,0.9-5.8,2.6c-1.5,1.6-2.3,3.8-2.2,6.1l1.5,19.1l-75.7,21.5
	c-4.2,1.2-6.7,5.5-5.6,9.8l36.9,137.5L104,257.2c-4.1-1.2-8.4,1-9.8,5L56.5,368C55.8,370.1,56,372.4,57,374.4L57,374.4z M160,423.2
	l-11.3-5.8c-2.3-1.2-3.9-3.3-4.5-5.8c-0.6-2.6-0.1-5.3,1.4-7.4l5.6-8c1.5-2.2,4-3.5,6.6-3.4c1.1,0,2.2,0.2,3.3,0.6l12.6,5.8
	L160,423.2z M174.2,430.5l14.1-24l16,8l-14.3,24L174.2,430.5z M204.3,445.9l14.4-24.6l18.9,9.4L223,455.5L204.3,445.9z M261.9,452.2
	l-4.2,10.6c-0.9,2.3-2.6,4.1-4.9,5c-2.1,0.9-4.5,0.9-6.6,0l-9-4.6l14.6-24.9l5.9,3c3.7,2.2,5.3,6.8,3.8,10.9H261.9z M480.4,265.1
	l7.1,117.8l-41.5,2.9l-7.1-114.6L480.4,265.1z M400,72v15c-8.8,0.2-16.3-6.3-17.4-15H400z M264,72h16.9c-1.1,8.5-8.3,14.9-16.9,15
	V72z M264,104c17.7-0.2,32.2-14.3,32.9-32h69.7c0.1,17.2,14.1,31,31.3,31c0.1,0,0.1,0,0.2,0h2v68.3c-12.6-38.4-53.9-59.3-92.3-46.7
	c-19.4,6.4-35.2,20.6-43.7,39.1V104z M387.3,192.6c-0.3,25-17.1,46.9-41.3,53.4c-5,1.5-10.2,2.2-15.4,2.2
	c-30.9,0.4-56.4-24.3-56.8-55.2c0-0.1,0-0.3,0-0.4c0-5.2,0.7-10.3,2.2-15.2c9.1-30.1,40.9-47,71-37.9
	C370.4,146.6,386.7,168,387.3,192.6z M264,221.4c11.9,26,37.9,42.7,66.6,42.6c6.7,0,13.4-0.9,19.8-2.8c23.6-6.5,42.3-24.6,49.6-48
	v47.1l-27.8,4.1l-93.9,7.6c-5,0.4-9.8,1.8-14.2,4.2L264,221.4z M265.4,296c3.3-4.6,8.4-7.5,14.1-8l93.6-7.4h1.3l48.7-7.1l7,113.3
	l-35.3,2.5L320,343.1l21.8-3.7l-2.6-16l-49,8c-1.8,0.3-3.5,1.2-4.7,2.5l-25.8,26.5c-5.5,6.2-14.6,7.8-21.9,3.8
	c-5.3-3.3-8.4-9-8.4-15.2c0-3.9,1.3-7.7,3.7-10.8L265.4,296z M251.3,288l-31.2,41.1c-4.5,5.9-6.9,13.1-7,20.5c0,11.7,6,22.6,16,28.8
	c13.7,7.9,31,5.2,41.8-6.3l24-24.7h0.9l104,64c2.7,1.7,4.5,4.4,5,7.5c0.6,3.2-0.2,6.5-2.2,9l-5.7,7.2l-102.2-52.6l-7.4,14.2L387,448
	l-11.5,14.8l-90.3-42.3l-6.7,14.6l86.9,40l-6.6,8.5c-2.8,3.6-7.6,5-11.8,3.4l-71.4-26.6l1.1-2.7c4.8-11.9-0.3-25.5-11.8-31.3
	c-26.5-13.4-74.4-37.5-97.5-48c-10.2-4.5-22.1-1.4-28.8,7.4l-17-9.8l35.8-87.9L251.3,288z M230.3,88H248v184h-32.6l-12.2-152
	C219.5,118.5,231.5,104.3,230.3,88L230.3,88z M216,88c0.1,8.1-6,15-14.1,16l-1.3-16H216z M121.8,134.5l13.4-3.8
	c0.3,2.7-0.1,5.5-1.2,8c-1.7,3.8-4.9,6.9-8.8,8.4L121.8,134.5z M128,160c8.5-2.1,15.9-7.5,20.6-14.9c2.6-5.9,3.3-12.5,2.1-18.8
	l36.2-10.2L199.4,272h-40.7L128,160z M106.4,274.7l34.8,10.6l-34.6,85.6l-32-6.4L106.4,274.7z"/>
<path class="st1" d="M72.6,21.3l15.3-4.7l15.3,50.2l-15.3,4.7L72.6,21.3z"/>
<path class="st1" d="M9.6,160.4l48-15.9l5,15.2l-48,15.9L9.6,160.4z"/>
<path class="st1" d="M5.2,88.6l5.4-15l47.6,17.2l-5.4,15L5.2,88.6z"/>
<path class="st1" d="M144.9,55.8l15.4-50.2l15.3,4.7l-15.4,50.2L144.9,55.8z"/>
<path class="st1" d="M353.8,169.5c-9.8-2.8-20.4,1.2-25.8,9.8c-2.6,4.3-4.5,9-5.7,13.8c-2.7,9.4-3.6,10.2-7.2,10.2
	c-4.8-0.7-8.2-4.9-8-9.7c0-2.2,0-9.7,5.2-9.7v-16c-9.6,0-17.8,6.7-19.8,16H280v16h11.9c2.4,11,11.9,18.9,23.1,19.4
	c16,0,20.2-13.6,22.6-21.7c0.8-3.4,2-6.6,3.7-9.6c1.7-2.7,4.9-4,8-3.3c3.2,1.4,5.4,4.5,5.8,8c0.7,3.4,0.2,6.9-1.5,9.9
	c0,0,0,0.4-1.4,0.4v16c5,0.1,9.7-1.9,13.1-5.5c3.2-3.8,5.1-8.6,5.4-13.6H384v-16h-15C366.3,177.2,360.8,171.9,353.8,169.5
	L353.8,169.5z"/>
</svg>
