<?xml version="1.0" encoding="utf-8"?>
<!-- Generator: Adobe Illustrator 22.0.1, SVG Export Plug-In . SVG Version: 6.00 Build 0)  -->
<svg version="1.1" id="Layer_1" xmlns="http://www.w3.org/2000/svg" xmlns:xlink="http://www.w3.org/1999/xlink" x="0px" y="0px"
	 viewBox="0 0 24 24" style="enable-background:new 0 0 24 24;" xml:space="preserve">
<style type="text/css">
	.st0{fill:#FFFFFF;}
	.st1{fill:#FFFFFF;stroke:#FFFFFF;stroke-width:0.5;stroke-miterlimit:10;}
</style>
<g id="XMLID_1_">
	<g id="XMLID_2_">
		<g id="XMLID_3_">
			<path id="XMLID_4_" class="st0" d="M8.7,22.8c-0.8,0-0.7,1.4,0,1.4c1.1,0,14.8,0,14.8,0c1.2,0,1-1.4,0-1.4H23V10.1
				c0-0.5-0.4-1-1-1l0,0c-0.5,0-1,0.4-1,1v12.1c0,0.4-0.3,0.7-0.7,0.7h-2c-0.4,0-0.7-0.3-0.7-0.7v-6.7c0-0.5-0.4-1-1-1l0,0
				c-0.5,0-1,0.4-1,1v6.6c0,0.4-0.3,0.7-0.7,0.7h-2c-0.4,0-0.7-0.3-0.7-0.7v-3.6c0-0.5-0.4-1-1-1l0,0c-0.5,0-1,0.4-1,1v4.2
				C10.2,22.8,9.2,22.8,8.7,22.8z"/>
		</g>
	</g>
</g>
<g>
	<g>
		<g>
			<path class="st1" d="M6.9,1C3.5,1,0.8,3.8,0.8,7.2c0,4.2,5.6,10.4,5.8,10.7s0.6,0.3,0.8,0c0.2-0.3,5.8-6.5,5.8-10.7
				C13.1,3.8,10.4,1,6.9,1z M6.9,16.7C5,14.5,1.8,10.1,1.8,7.3S4,2.2,6.9,2.2S12,4.4,12,7.3S8.8,14.4,6.9,16.7z"/>
		</g>
	</g>
	<g>
		<g>
			<path class="st1" d="M6.9,4.8c-1.3,0-2.5,1.1-2.5,2.5s1.1,2.5,2.5,2.5s2.5-1.1,2.5-2.5S8.3,4.8,6.9,4.8z M6.9,8.8
				C6,8.8,5.3,8.1,5.3,7.3S6,5.7,6.9,5.7s1.6,0.7,1.6,1.6S7.8,8.8,6.9,8.8z"/>
		</g>
	</g>
</g>
</svg>
