<?xml version="1.0" encoding="utf-8"?>
<!-- Generator: Adobe Illustrator 22.0.1, SVG Export Plug-In . SVG Version: 6.00 Build 0)  -->
<svg version="1.1" id="Layer_1" xmlns="http://www.w3.org/2000/svg" xmlns:xlink="http://www.w3.org/1999/xlink" x="0px" y="0px"
	 viewBox="0 0 24 24" style="enable-background:new 0 0 24 24;" xml:space="preserve">
<style type="text/css">
	.st0{fill:#FFFFFF;stroke:#FFFFFF;stroke-width:0.7;stroke-miterlimit:10;}
	.st1{fill:#FFFFFF;}
</style>
<path class="st0" d="M21,4.5c0,0.2,0.2,0.4,0.4,0.4c0.1,0,0.1,0,0.3-0.1c0.1-0.1,0.1-0.1,0.1-0.2s-1-1.6-2.3-3.5
	c-0.1-0.1-0.2-0.2-0.3-0.2H3.1C3,0.9,2.8,1,2.8,1.1L0.5,4.4c0,0.1,0-0.1,0,2.3c0,1.6,1.3,2.9,2.9,2.9C4.5,9.6,5.5,9,6,8.1
	c1.1,2,4,2,5.2,0c1.1,2,4,2,5.2,0C16.9,9,17.9,9.6,19,9.6c1.6,0,2.9-1.3,2.9-2.9c0-0.2-0.2-0.4-0.4-0.4s-0.4,0.2-0.4,0.4
	c0,1.2-1,2.2-2.2,2.2s-2.2-1-2.2-2.2c0-0.2-0.2-0.4-0.4-0.4s-0.4,0.2-0.4,0.4c0,1.2-1,2.2-2.2,2.2s-2.2-1-2.2-2.2
	c0-0.2-0.2-0.4-0.4-0.4s-0.4,0.2-0.4,0.4c0,1.2-1,2.2-2.2,2.2s-2.2-1-2.2-2.2c0-0.2-0.2-0.3-0.4-0.3c-0.2,0-0.3,0.1-0.3,0.3
	c0,1.3-1,2.2-2.2,2.2C2.1,8.9,1.1,8,1.1,6.7V4.6l2.2-3.1h15.5l2,2.6v0.1C20.9,4.4,20.9,4.4,21,4.5L21,4.5z M6.7,22.5H3.4
	c-0.6,0-1.1-0.5-1.1-1.1V10.9c0-0.2-0.2-0.4-0.4-0.4s-0.4,0.2-0.4,0.4v10.5c0,1,0.8,1.8,1.8,1.8l3.4,0.1C6.7,23,6.7,22.5,6.7,22.5z"
	/>
<path class="st1" d="M8.4,12.2h15.1v1.7H8.4V12.2z"/>
<path class="st1" d="M8.4,16.2h15.1v1.7H8.4V16.2z"/>
<path class="st1" d="M8.4,20.1h11.4v1.7H8.4V20.1z"/>
</svg>
