<?xml version="1.0" encoding="utf-8"?>
<!-- Generator: Adobe Illustrator 24.2.3, SVG Export Plug-In . SVG Version: 6.00 Build 0)  -->
<svg version="1.1" id="_x31_" xmlns="http://www.w3.org/2000/svg" xmlns:xlink="http://www.w3.org/1999/xlink" x="0px" y="0px"
	 viewBox="0 0 80 80" style="enable-background:new 0 0 80 80;" xml:space="preserve">
<style type="text/css">
	.st0{fill:#0038ba;stroke:#0038ba;stroke-width:0.5;stroke-miterlimit:10;}
</style>
<g>
	<path class="st0" d="M62.7,59.9c-5.6-4.1-12.2-6.7-19.1-7.6l2.5-6.2c0.2-0.4,0.5-0.7,0.9-0.8c4.3-1.7,8-4.5,10.7-8.3
		c2.7-3.9,4.2-8.5,4.2-13.3c0-6.1-2.4-11.9-6.7-16.3C50.8,3.1,45,0.6,38.9,0.6c-5.7,0-11.2,2-15.4,5.8C23,6.8,22.9,7.5,23.3,8
		c0.4,0.5,1.2,0.5,1.6,0.1c3.9-3.4,8.8-5.3,13.9-5.2c5.5,0,10.7,2.2,14.6,6.1c3.9,3.9,6,9.1,6,14.7c0,4.3-1.3,8.4-3.8,11.9
		c-2.4,3.4-5.7,6-9.6,7.5c-1,0.4-1.8,1.2-2.2,2.1l-3.3,8.1c0,0,0,0,0,0c0,0,0,0,0,0l-1.2,3c-0.2,0.4-0.6,0.5-0.7,0.5
		c-0.2,0-0.6,0-0.7-0.5l-1.4-3.5c0,0,0,0,0,0l-3.1-7.6c-0.4-1-1.2-1.8-2.2-2.1C23.1,40,17.7,32,17.9,23.2c0.1-4.3,1.5-8.4,4.1-11.9
		c0.4-0.5,0.3-1.2-0.2-1.6c-0.5-0.4-1.2-0.3-1.6,0.2c-2.9,3.8-4.4,8.4-4.5,13.2c-0.2,9.8,5.8,18.7,14.9,22.1
		c0.4,0.1,0.7,0.5,0.8,0.8l2.5,6.2c-3.2,0.4-6.4,1.2-9.4,2.3c-0.6,0.2-0.9,0.9-0.7,1.5c0.2,0.5,0.6,0.7,1.1,0.7c0.1,0,0.3,0,0.4-0.1
		c2.1-0.8,4.2-1.4,6.3-1.8c-2.8,2.5-5.3,6.4-7.2,11.4h-4.5c1.4-1.8,2.2-4,2.2-6.3c0-5.7-4.6-10.3-10.3-10.4c0,0-0.1,0-0.1,0
		c-5.6,0-10.2,4.5-10.4,10.1c-0.1,4.4,2.6,8.4,6.6,9.9l1.9,4.7c0.3,0.7,1,1.2,1.8,1.2s1.5-0.5,1.8-1.2l1.9-4.7c0.7-0.3,1.4-0.6,2-1
		h6.1c-0.8,2.6-1.6,5.4-2.1,8.4H3.7c0.7-1.5,1.4-3,2.3-4.4c0.3-0.5,0.2-1.3-0.4-1.6S4.4,71,4,71.5C3,73.3,2,75.1,1.3,77
		c-0.2,0.5-0.2,1.2,0.2,1.7c0.3,0.5,0.9,0.8,1.5,0.8h71.7c0.6,0,1.1-0.3,1.5-0.8c0.3-0.5,0.4-1.1,0.2-1.7
		C73.3,70.2,68.7,64.3,62.7,59.9z M14.6,67.6c-0.6,0.2-1.1,0.7-1.3,1.3l-1.6,3.9l-1.6-3.9c-0.2-0.6-0.7-1-1.3-1.3
		c-3.2-1.2-5.3-4.3-5.2-7.7c0.1-4.4,3.7-7.9,8.1-7.9h0.1c4.4,0,8,3.6,8,8.1C19.8,63.4,17.7,66.4,14.6,67.6z M35.1,55.4l0.8,1.9
		c0.5,1.2,1.6,1.9,2.9,1.9s2.4-0.8,2.9-1.9l0.8-1.9c1.8,1,3.6,2.8,5.2,5.3c0.2,0.3,0.6,0.5,1,0.5c0.2,0,0.4-0.1,0.6-0.2
		c0.5-0.3,0.7-1.1,0.3-1.6c-1.1-1.8-2.4-3.2-3.7-4.3c5.6,1.1,10.9,3.4,15.5,6.7c1.9,1.4,3.6,2.9,5.2,4.6H53c-0.4-1-0.8-1.9-1.2-2.8
		c-0.3-0.6-1-0.8-1.5-0.6c-0.6,0.3-0.8,1-0.6,1.5c0.3,0.6,0.6,1.2,0.8,1.9H26.9C29.1,61,31.9,57.1,35.1,55.4z M23.8,77.1
		c0.6-3,1.3-5.8,2.2-8.4h25.4c0.9,2.6,1.6,5.4,2.2,8.4H23.8z M56,77.1c-0.6-3-1.3-5.8-2.1-8.4h14.7c2.1,2.6,3.8,5.4,5.1,8.4H56z"/>
	<path class="st0" d="M29.2,37.5h19.1c1.2,0,2.2-1,2.2-2.2V22.8c0.9-0.9,1.4-2.2,1.4-3.6V16c0,0,0,0,0,0c0,0,0,0,0,0c0,0,0,0,0,0
		c0,0,0,0,0,0c0-0.2-0.1-0.4-0.2-0.5l-3.1-5.6c-0.5-0.8-1.3-1.3-2.3-1.3h-4.8c0,0,0,0,0,0h-5.7c0,0,0,0,0,0h-4.8
		c-0.9,0-1.8,0.5-2.3,1.3l-3.1,5.6c-0.1,0.2-0.2,0.4-0.2,0.6v0c0,0,0,0,0,0v3.2c0,1.4,0.5,2.6,1.4,3.6v12.5
		C27,36.5,28,37.5,29.2,37.5z M40.6,10.8l0.7,4.1h-5.2l0.7-4.1H40.6z M49.6,19.2c0,1.6-1.3,2.8-2.8,2.8s-2.8-1.3-2.8-2.8v-2.1h5.7
		V19.2z M35.9,17.2h5.7v2.1c0,1.6-1.3,2.8-2.8,2.8s-2.8-1.3-2.8-2.8L35.9,17.2L35.9,17.2z M33.6,17.2v2.1c0,1.6-1.3,2.8-2.8,2.8
		s-2.8-1.3-2.8-2.8v-2.1H33.6z M41.1,35.2h-4.8v-7.3h4.8V35.2z M43.4,35.2V27c0-0.8-0.6-1.4-1.4-1.4h-6.5c-0.8,0-1.4,0.6-1.4,1.4
		v8.1h-4.7v-11c0.5,0.1,0.9,0.2,1.4,0.2c1.6,0,3.1-0.7,4-1.9c0.9,1.2,2.4,1.9,4,1.9s3.1-0.7,4-1.9c0.9,1.2,2.4,1.9,4,1.9
		c0.5,0,1-0.1,1.4-0.2v11H43.4z M46.6,10.9l2.2,3.9h-5.1l-0.7-4.1h3.4C46.5,10.8,46.5,10.8,46.6,10.9z M30.8,10.9
		c0-0.1,0.1-0.1,0.2-0.1h3.4l-0.7,4.1h-5.1L30.8,10.9z"/>
	<path class="st0" d="M68.5,47.8c2.1,0,3.8-1.7,3.8-3.8c0-2.1-1.7-3.8-3.8-3.8s-3.8,1.7-3.8,3.8C64.7,46.1,66.4,47.8,68.5,47.8z
		 M68.5,42.5c0.8,0,1.5,0.7,1.5,1.5s-0.7,1.5-1.5,1.5c-0.8,0-1.5-0.7-1.5-1.5C67,43.2,67.7,42.5,68.5,42.5z"/>
	<path class="st0" d="M62.4,37.1c0.4,0.5,1.1,0.7,1.6,0.3c1.4-0.9,3-1.4,4.6-1.4c4.4,0,8,3.6,8,8.1c0,3.3-2.1,6.3-5.2,7.5
		c-0.6,0.2-1.1,0.7-1.3,1.3l-1.6,3.9l-1.6-3.9c-0.2-0.6-0.7-1-1.3-1.3c-3.2-1.2-5.3-4.3-5.2-7.7c0-1.2,0.3-2.3,0.8-3.3
		c0.3-0.6,0-1.3-0.5-1.5c-0.6-0.3-1.3,0-1.5,0.5c-0.7,1.4-1,2.8-1.1,4.3c-0.1,4.4,2.6,8.4,6.6,9.9l1.9,4.7c0.3,0.7,1,1.2,1.8,1.2
		c0.8,0,1.5-0.5,1.8-1.2l1.9-4.7c4-1.5,6.6-5.4,6.6-9.7c0-5.7-4.6-10.3-10.3-10.4c-2.1,0-4.2,0.6-5.9,1.8
		C62.1,35.8,62,36.6,62.4,37.1z"/>
	<path class="st0" d="M11.7,56.2c-2.1,0-3.8,1.7-3.8,3.8c0,2.1,1.7,3.8,3.8,3.8c2.1,0,3.8-1.7,3.8-3.8C15.5,58,13.8,56.2,11.7,56.2z
		 M11.7,61.6c-0.8,0-1.5-0.7-1.5-1.5s0.7-1.5,1.5-1.5c0.8,0,1.5,0.7,1.5,1.5S12.5,61.6,11.7,61.6z"/>
</g>
</svg>
