<?xml version="1.0" encoding="utf-8"?>
<!-- Generator: Adobe Illustrator 24.2.3, SVG Export Plug-In . SVG Version: 6.00 Build 0)  -->
<svg version="1.1" id="_x31_" xmlns="http://www.w3.org/2000/svg" xmlns:xlink="http://www.w3.org/1999/xlink" x="0px" y="0px"
	 viewBox="0 0 80 80" style="enable-background:new 0 0 80 80;" xml:space="preserve">
<style type="text/css">
	.st0{fill:#06205E;}
</style>
<path class="st0" d="M78.3,76.6H1.7C0.7,76.6,0,75.9,0,75s0.7-1.7,1.7-1.7h76.6c0.9,0,1.7,0.7,1.7,1.7S79.2,76.6,78.3,76.6z"/>
<path class="st0" d="M5,80c-0.9,0-1.7-0.7-1.7-1.7V1.7C3.3,0.7,4.1,0,5,0s1.7,0.7,1.7,1.7v76.6C6.7,79.2,5.9,80,5,80z"/>
<path class="st0" d="M23.3,60c-5.5,0-10-4.5-10-10s4.5-10,10-10s10,4.5,10,10C33.3,55.5,28.8,60,23.3,60z M23.3,43.3
	c-3.7,0-6.7,3-6.7,6.7c0,3.7,3,6.7,6.7,6.7s6.7-3,6.7-6.7S27,43.3,23.3,43.3z"/>
<path class="st0" d="M40,33.3c-5.5,0-10-4.5-10-10s4.5-10,10-10s10,4.5,10,10S45.5,33.3,40,33.3z M40,16.7c-3.7,0-6.7,3-6.7,6.7
	s3,6.7,6.7,6.7s6.7-3,6.7-6.7S43.7,16.7,40,16.7z"/>
<path class="st0" d="M70,26.7c-5.5,0-10-4.5-10-10s4.5-10,10-10c5.5,0,10,4.5,10,10S75.5,26.7,70,26.7z M70,10c-3.7,0-6.7,3-6.7,6.7
	s3,6.7,6.7,6.7s6.7-3,6.7-6.7S73.7,10,70,10z"/>
<path class="st0" d="M27.7,44.6c-0.3,0-0.6-0.1-0.9-0.3c-0.8-0.5-1-1.5-0.5-2.3l7.9-12.5c0.5-0.8,1.5-1,2.3-0.5
	c0.8,0.5,1,1.5,0.5,2.3l-7.9,12.5C28.8,44.3,28.3,44.6,27.7,44.6z"/>
<path class="st0" d="M48.1,23.2c-0.8,0-1.5-0.5-1.6-1.3c-0.2-0.9,0.4-1.8,1.3-2l13.7-3.1c0.9-0.2,1.8,0.4,2,1.3
	c0.2,0.9-0.4,1.8-1.3,2l-13.7,3.1C48.4,23.2,48.2,23.2,48.1,23.2L48.1,23.2z"/>
</svg>
