<svg xmlns="http://www.w3.org/2000/svg" width="30.035" height="33.298" viewBox="0 0 30.035 33.298"><defs><style>.a{fill:#efefef;}.b{fill:#a4afc1;}.c{fill:#f3f3f1;}.d{fill:#e9e9e9;}.e{fill:#d5dbe1;}.f{fill:#cbcbcb;}.g{fill:#0038ba;}.h{fill:#282828;}</style></defs><g transform="translate(-2.29 -0.583)"><path class="a" d="M26.507,30.456c-6.612,0-11.153,3.425-14.339,3.425S2.29,32.049,2.29,17.392,11.292.583,14.8.583C31.207.583,38.217,30.456,26.507,30.456Z" transform="translate(0)"/><g transform="translate(25.821 2.81)"><path class="b" d="M0,0H1.912V.956H0Z" transform="translate(3.546 1.518) rotate(-45)"/><path class="b" d="M0,0H.956V1.912H0Z" transform="translate(3.886 4.565) rotate(-45)"/><path class="b" d="M0,0H.956V1.912H0Z" transform="translate(0 0.676) rotate(-45)"/></g><circle class="c" cx="8.842" cy="8.842" r="8.842" transform="translate(8.465 8.39)"/><path class="d" d="M2.629,0A2.629,2.629,0,1,1,0,2.629,2.629,2.629,0,0,1,2.629,0Z" transform="translate(14.679 14.604)"/><path class="e" d="M10.9,17.592a8.839,8.839,0,0,1,7.767-8.771,8.843,8.843,0,1,0,0,17.541A8.839,8.839,0,0,1,10.9,17.592Z" transform="translate(-0.285 -0.36)"/><path class="f" d="M17.4,17.879a2.625,2.625,0,0,1,1.553-2.394,2.629,2.629,0,1,0,0,4.787A2.625,2.625,0,0,1,17.4,17.879Z" transform="translate(-0.571 -0.646)"/><path class="g" d="M17.846,21.192a3.346,3.346,0,1,1,3.346-3.346A3.349,3.349,0,0,1,17.846,21.192Zm0-5.258a1.912,1.912,0,1,0,1.912,1.912A1.914,1.914,0,0,0,17.846,15.934Z" transform="translate(-0.538 -0.613)"/><path class="h" d="M17.559,27.119a9.559,9.559,0,1,1,9.559-9.559A9.57,9.57,0,0,1,17.559,27.119Zm0-17.685a8.125,8.125,0,1,0,8.125,8.125A8.135,8.135,0,0,0,17.559,9.434Z" transform="translate(-0.252 -0.327)"/><path class="h" d="M17.25,6h1.434v4.24H17.25Z" transform="translate(-0.659 -0.239)"/><path class="h" d="M17.25,25.565h1.434V29.8H17.25Z" transform="translate(-0.659 -1.101)"/><path class="h" d="M25.565,17.25H29.8v1.434h-4.24Z" transform="translate(-1.026 -0.734)"/><path class="h" d="M6,17.25h4.24v1.434H6Z" transform="translate(-0.163 -0.734)"/></g></svg>