<?xml version="1.0" encoding="utf-8"?>
<!-- Generator: Adobe Illustrator 22.0.1, SVG Export Plug-In . SVG Version: 6.00 Build 0)  -->
<svg version="1.1" id="Layer_1" xmlns="http://www.w3.org/2000/svg" xmlns:xlink="http://www.w3.org/1999/xlink" x="0px" y="0px"
	 viewBox="0 0 24 24" style="enable-background:new 0 0 24 24;" xml:space="preserve">
<style type="text/css">
	.st0{fill:none;stroke:#FFFFFF;stroke-width:2;stroke-linecap:round;stroke-linejoin:round;}
	.st1{fill:#FFFFFF;}
</style>
<g>
	<path class="st0" d="M10.9,16.4H5.5c-2.4,0-4.4,2-4.4,4.4v2.2"/>
	<circle class="st0" cx="8.7" cy="6.5" r="4.4"/>
</g>
<g>
	<path class="st1" d="M23.2,13.7h-9.4c-0.4,0-0.8,0.3-0.8,0.8v8.7c0,0.4,0.3,0.8,0.8,0.8h9.4c0.4,0,0.8-0.3,0.8-0.8v-8.7
		C24,14.1,23.7,13.7,23.2,13.7z M22.4,22.4h-7.8v-7.1h7.8V22.4z"/>
</g>
<g>
	<path class="st1" d="M21,9.5h-4.9c-0.2,0-0.3,0.1-0.3,0.3V15c0,0.2,0.1,0.3,0.3,0.3h4.8c0.2,0,0.5-0.1,0.5-0.3V9.9
		C21.3,9.7,21.2,9.5,21,9.5z M20.1,14.6l-3.1,0v-3.5l3.1,0V14.6z"/>
</g>
</svg>
