<?xml version="1.0" encoding="utf-8"?>
<!-- Generator: Adobe Illustrator 22.0.1, SVG Export Plug-In . SVG Version: 6.00 Build 0)  -->
<svg version="1.1" id="Layer_1" xmlns="http://www.w3.org/2000/svg" xmlns:xlink="http://www.w3.org/1999/xlink" x="0px" y="0px"
	 viewBox="0 0 24 24" style="enable-background:new 0 0 24 24;" xml:space="preserve">
<style type="text/css">
	.st0{fill:none;stroke:#FFFFFF;stroke-width:2;stroke-linecap:round;stroke-linejoin:round;}
	.st1{fill:#FFFFFF;}
</style>
<path class="st0" d="M16.3,12H7.7"/>
<path class="st0" d="M12,16.3V7.7"/>
<path class="st1" d="M24,12c0-1.1-0.8-2-1.8-2.2c-0.3-1.2-0.7-2.4-1.4-3.4c0.6-0.9,0.5-2.1-0.3-2.9c-0.8-0.8-2-0.9-2.9-0.3
	c-1-0.6-2.2-1.1-3.4-1.4C14,0.8,13.1,0,12,0s-2,0.8-2.2,1.8C8.5,2.1,7.4,2.6,6.4,3.2C5.5,2.6,4.3,2.7,3.5,3.5
	c-0.8,0.8-0.9,2-0.3,2.9c-0.6,1-1.1,2.2-1.4,3.4C0.8,10,0,10.9,0,12s0.8,2,1.8,2.2c0.3,1.2,0.7,2.4,1.4,3.4
	c-0.6,0.9-0.5,2.1,0.3,2.9c0.8,0.8,2,0.9,2.9,0.3c1,0.6,2.2,1.1,3.4,1.4c0.2,1,1.1,1.8,2.2,1.8s2-0.8,2.2-1.8
	c1.2-0.3,2.4-0.7,3.4-1.4c0.9,0.6,2.1,0.5,2.9-0.3c0.8-0.8,0.9-2,0.3-2.9c0.6-1,1.1-2.2,1.4-3.4C23.2,14,24,13.1,24,12z M20.5,13.9
	c-0.2,1-0.6,1.9-1.1,2.7c-0.7-0.2-1.6,0-2.2,0.6c-0.6,0.6-0.8,1.4-0.6,2.2c-0.8,0.5-1.7,0.9-2.7,1.1c-0.4-0.6-1.1-1.1-1.9-1.1
	s-1.5,0.4-1.9,1.1c-1-0.2-1.9-0.6-2.7-1.1c0.2-0.7,0-1.6-0.6-2.2c-0.6-0.6-1.4-0.8-2.2-0.6c-0.5-0.8-0.9-1.7-1.1-2.7
	c0.6-0.4,1.1-1.1,1.1-1.9s-0.4-1.5-1.1-1.9c0.2-1,0.6-1.9,1.1-2.7c0.7,0.2,1.6,0,2.2-0.6s0.8-1.4,0.6-2.2c0.8-0.5,1.7-0.9,2.7-1.1
	c0.4,0.6,1.1,1.1,1.9,1.1s1.5-0.4,1.9-1.1c1,0.2,1.9,0.6,2.7,1.1c-0.2,0.7,0,1.6,0.6,2.2c0.6,0.6,1.4,0.8,2.2,0.6
	c0.5,0.8,0.9,1.7,1.1,2.7c-0.6,0.4-1.1,1.1-1.1,1.9S19.9,13.5,20.5,13.9z"/>
</svg>
