<?xml version="1.0" encoding="utf-8"?>
<!-- Generator: Adobe Illustrator 22.0.1, SVG Export Plug-In . SVG Version: 6.00 Build 0)  -->
<svg version="1.1" id="Layer_1" xmlns="http://www.w3.org/2000/svg" xmlns:xlink="http://www.w3.org/1999/xlink" x="0px" y="0px"
	 viewBox="0 0 100 100" style="enable-background:new 0 0 100 100;" xml:space="preserve">
<style type="text/css">
	.st0{fill:none;}
	.st1{fill:#858585;}
	.st2{fill:#0038BA;}
</style>
<g>
	<polygon class="st0" points="3.8,90.7 3.8,96.9 96.1,96.9 96.1,90.7 89.9,90.7 10.1,90.7 	"/>
	<path class="st0" d="M80.3,34.5c0,0.2,0,0.2,0,0.3c0.8,3.6,4.1,6,7.8,6c4.1,0,7.2-2.7,7.8-6.3h-7.7H80.3z"/>
	<path class="st0" d="M38,34.5H22.8c0.6,3.8,3.8,6.6,7.7,6.6C34.4,41.2,37.5,38.3,38,34.5z"/>
	<path class="st0" d="M19.3,34.5h-7.7H4c0.6,3.8,3.8,6.6,7.7,6.6S18.7,38.3,19.3,34.5z"/>
	<path class="st0" d="M68.8,41.2c4.1,0,7.7-3,8.5-6.6H60.4C61.2,38.2,64.8,41.2,68.8,41.2z"/>
	<path class="st0" d="M56.9,34.5H41.5c0.6,3.8,3.8,6.6,7.7,6.6C53.2,41.2,56.3,38.3,56.9,34.5z"/>
	<path class="st1" d="M10.1,44v43.4H0.6v12.5h98.7V87.6h-9.4V43.8c4.9-0.6,8.6-4.4,9.2-9.2h0.8L87.1,0.1H12.8L0.1,34.5h0.8
		C1.5,39.3,5.1,43.3,10.1,44z M4,34.5h7.7h7.7c-0.6,3.8-3.8,6.6-7.7,6.6S4.5,38.3,4,34.5z M13.1,44c3.3-0.5,6.1-2.5,7.8-5.3
		c1.9,3.3,5.5,5.5,9.4,5.5c3.1,0,5.8-1.3,7.8-3.3v46.7h-25C13.2,87.7,13.2,44,13.1,44z M22.8,34.5h15.4c-0.6,3.8-3.8,6.6-7.7,6.6
		S23.4,38.3,22.8,34.5z M96.1,90.7V97H3.8v-6.3h6.3h79.9H96.1z M41.4,87.6V40.8c2,2,4.7,3.3,7.8,3.3c4.1,0,7.7-2.2,9.6-5.6
		c2,3.3,6,5.6,10,5.6c4.1,0,7.8-2.2,10-5.5c1.7,2.8,4.5,4.7,8,5v43.9H41.4z M41.5,34.5H57c-0.6,3.8-3.8,6.6-7.7,6.6
		C45.3,41.2,42.2,38.3,41.5,34.5z M60.4,34.5h16.9c-0.8,3.6-4.4,6.6-8.5,6.6C64.8,41.2,61.2,38.2,60.4,34.5z M88.3,40.8
		c-3.8,0-6.9-2.5-7.8-6c0,0,0-0.2,0-0.3h8h7.7C95.4,38.2,92.3,40.8,88.3,40.8z M15.1,3.3h70l10.5,28.2h-7.2H11.6H4.3L15.1,3.3z"/>
	<path class="st2" d="M25.7,55.8v15.7h7.8V55.8H25.7z M30.4,68.3h-1.6v-9.4h1.6V68.3z"/>
	<rect x="16.3" y="9.4" class="st2" width="65.8" height="3.1"/>
	<rect x="16.3" y="21.4" class="st2" width="13.7" height="3.1"/>
	<rect x="68.3" y="21.4" class="st2" width="13.7" height="3.1"/>
	<rect x="33.3" y="21.4" class="st2" width="31.7" height="3.1"/>
	<rect x="53" y="56.9" transform="matrix(0.7071 -0.7071 0.7071 0.7071 -24.2024 58.5257)" class="st2" width="11" height="3.1"/>
	<rect x="65.5" y="68" transform="matrix(0.7071 -0.7071 0.7071 0.7071 -28.3495 70.5987)" class="st2" width="11" height="3.1"/>
	
		<rect x="53.9" y="62.5" transform="matrix(0.7071 -0.7071 0.7071 0.7071 -26.3222 64.6087)" class="st2" width="21.9" height="3.1"/>
</g>
</svg>
