<?xml version="1.0" encoding="utf-8"?>
<!-- Generator: Adobe Illustrator 24.2.3, SVG Export Plug-In . SVG Version: 6.00 Build 0)  -->
<svg version="1.1" id="Layer_1" xmlns="http://www.w3.org/2000/svg" xmlns:xlink="http://www.w3.org/1999/xlink" x="0px" y="0px"
	 viewBox="0 0 70 70" style="enable-background:new 0 0 70 70;" xml:space="preserve">
<style type="text/css">
	.st0{fill:#EFEFEF;}
	.st1{fill:#F3F3F1;}
	.st2{fill:#E6E6E6;}
	.st3{fill:#CCCCCC;}
	.st4{fill:#666666;stroke:#EFEFEF;stroke-width:0.75;stroke-miterlimit:10;}
</style>
<g>
	<path class="st0" d="M15.9,62.8c13.9,0,23.4,7.2,30.1,7.2s20.8-3.9,20.8-34.7S47.9,0,40.5,0C6,0-8.7,62.8,15.9,62.8L15.9,62.8z"/>
	<path class="st1" d="M31.2,30.5L31.2,30.5l-18.6-9v10.3V40l18.6,10.3L49.8,40V21.4L31.2,30.5z"/>
	<path class="st0" d="M12.6,21.4l18.6-9l18.6,9l-18.6,9L12.6,21.4z"/>
	<circle class="st0" cx="46.3" cy="46.1" r="11.6"/>
	<path class="st2" d="M35.7,30.5L35.7,30.5l14.1-6.8v-2.2l-16.3,7.9L35.7,30.5z"/>
	<path class="st3" d="M39.3,46.1c0-5.6,4-10.3,9.3-11.3c-0.7-0.1-1.5-0.2-2.3-0.2c-6.4,0-11.6,5.2-11.6,11.6s5.2,11.6,11.6,11.6
		c0.8,0,1.5-0.1,2.3-0.2C43.3,56.3,39.3,51.7,39.3,46.1z"/>
	<g>
		<path class="st3" d="M11.3,13.6l2.8-2.8l1.4,1.4L12.8,15L11.3,13.6z"/>
		<path class="st3" d="M3.2,21.7L6,18.9l1.4,1.4l-2.8,2.8L3.2,21.7z"/>
		<path class="st3" d="M3.2,11.8l1.4-1.4l2.8,2.8L6,14.6L3.2,11.8z"/>
		<path class="st3" d="M57.9,31.7c-1.7,0-3-1.4-3-3c0-1.7,1.4-3,3-3c1.7,0,3,1.4,3,3C60.9,30.3,59.5,31.7,57.9,31.7z M57.9,27.7
			c-0.6,0-1,0.5-1,1c0,0.6,0.5,1,1,1c0.6,0,1-0.5,1-1C58.9,28.1,58.4,27.7,57.9,27.7z"/>
	</g>
	<path class="st4" d="M50.6,20.2c0,0-0.1,0-0.1-0.1l0,0l-18.6-9c-0.4-0.2-0.9-0.2-1.3,0l-18.6,9l0,0c0,0-0.1,0-0.1,0.1
		c-0.4,0.3-0.7,0.8-0.7,1.3V40c0,0.5,0.3,1,0.8,1.3L29,50.9l1.5-2.6l-16.3-9.1V23.8l6,2.9v6.7h3v-5.2l7.4,3.6c0.4,0.2,0.9,0.2,1.3,0
		l16.4-8v5.6h3v-8C51.3,20.9,51.1,20.4,50.6,20.2z M31.2,14.1l5.3,2.6l-14.9,7.5l-5.6-2.7L31.2,14.1z M31.2,28.8l-6.2-3L40,18.3
		l6.4,3.1L31.2,28.8z"/>
	<path class="st4" d="M46.3,59.1c-7.2,0-13.1-5.9-13.1-13.1S39.1,33,46.3,33s13.1,5.9,13.1,13.1S53.5,59.1,46.3,59.1z M46.3,36
		c-5.5,0-10,4.5-10,10s4.5,10,10,10s10-4.5,10-10S51.8,36,46.3,36z"/>
	<polygon class="st4" points="51.8,44.5 47.8,44.5 47.8,40.5 44.8,40.5 44.8,44.5 40.8,44.5 40.8,47.6 44.8,47.6 44.8,51.6 
		47.8,51.6 47.8,47.6 51.8,47.6 	"/>
</g>
</svg>
