<?xml version="1.0" encoding="utf-8"?>
<!-- Generator: Adobe Illustrator 22.0.1, SVG Export Plug-In . SVG Version: 6.00 Build 0)  -->
<svg version="1.1" id="Layer_1" xmlns="http://www.w3.org/2000/svg" xmlns:xlink="http://www.w3.org/1999/xlink" x="0px" y="0px"
	 viewBox="0 0 80 80" style="enable-background:new 0 0 80 80;" xml:space="preserve">
<style type="text/css">
	.st0{fill:#777777;}
</style>
<g>
	<path class="st0" d="M63.9,13.1H16.1c-3.8,0-6.9,3.3-6.9,7.2v39.3c0,3.9,3.2,7.2,6.9,7.2h47.9c3.8,0,6.9-3.3,6.9-7.2V20.3
		C70.9,16.3,67.7,13.1,63.9,13.1z M66.6,59.7c0,1.5-1.1,2.7-2.6,2.7H16.1c-1.4,0-2.6-1.2-2.6-2.7V20.3c0-1.5,1.1-2.7,2.6-2.7h47.9
		c1.4,0,2.6,1.2,2.6,2.7V59.7z"/>
	<path class="st0" d="M60.3,26H46c-1,0-1.8,0.8-1.8,1.8c0,1,0.8,1.8,1.8,1.8h14.3c1,0,1.8-0.8,1.8-1.8C62,26.8,61.3,26,60.3,26z"/>
	<path class="st0" d="M60.3,50.5H48.7c-1,0-1.8,0.8-1.8,1.8c0,1,0.8,1.8,1.8,1.8h11.5c1,0,1.8-0.8,1.8-1.8
		C62,51.2,61.3,50.5,60.3,50.5z"/>
	<path class="st0" d="M60.3,36.4h-7.4c-1,0-1.8,0.8-1.8,1.8s0.8,1.8,1.8,1.8h7.4c1,0,1.8-0.8,1.8-1.8C62,37.2,61.3,36.4,60.3,36.4z"
		/>
	<path class="st0" d="M60.3,43.4h-7.4c-1,0-1.8,0.8-1.8,1.8c0,1,0.8,1.8,1.8,1.8h7.4c1,0,1.8-0.8,1.8-1.8
		C62,44.2,61.3,43.4,60.3,43.4z"/>
	<path class="st0" d="M30,40.9c4.9,0,8.9-4.1,8.9-9.2s-4-9.3-8.9-9.3s-8.9,4.1-8.9,9.2C21,36.7,25.1,40.9,30,40.9z M30,26.8
		c2.5,0,4.6,2.1,4.6,4.7s-2,4.7-4.6,4.7s-4.6-2.1-4.6-4.7C25.3,28.9,27.4,26.8,30,26.8z"/>
	<path class="st0" d="M33.4,42.5h-6.9c-4.8,0-8.7,4-8.7,9v3.9c0,1.2,1,2.3,2.2,2.3s2.2-1,2.2-2.3v-3.9c0-2.5,1.9-4.6,4.4-4.6h6.9
		c2.4,0,4.4,2,4.4,4.6v3.9c0,1.2,1,2.3,2.2,2.3c1.2,0,2.2-1,2.2-2.3v-3.9C42.1,46.5,38.2,42.5,33.4,42.5z"/>
</g>
</svg>
