<?xml version="1.0" encoding="utf-8"?>
<!-- Generator: Adobe Illustrator 22.0.1, SVG Export Plug-In . SVG Version: 6.00 Build 0)  -->
<svg version="1.1" id="Layer_1" xmlns="http://www.w3.org/2000/svg" xmlns:xlink="http://www.w3.org/1999/xlink" x="0px" y="0px"
	 viewBox="0 0 80 80" style="enable-background:new 0 0 80 80;" xml:space="preserve">
<style type="text/css">
	.st0{fill:#777777;}
</style>
<g>
	<g>
		<path class="st0" d="M40,4C26,4,14.6,15.4,14.6,29.4c0,17.3,22.7,42.8,23.7,43.9c0.9,1,2.5,1,3.4,0c1-1.1,23.7-26.5,23.7-43.9
			C65.4,15.4,54,4,40,4z M40,68.2c-7.6-9.1-20.8-27-20.8-38.9c0-11.5,9.3-20.8,20.8-20.8s20.8,9.3,20.8,20.8
			C60.8,41.3,47.6,59.1,40,68.2z"/>
	</g>
</g>
<g>
	<g>
		<path class="st0" d="M40,16.6c-7,0-12.8,5.7-12.8,12.8S33,42.1,40,42.1c7,0,12.8-5.7,12.8-12.8S47,16.6,40,16.6z M40,37.5
			c-4.5,0-8.2-3.7-8.2-8.2s3.7-8.2,8.2-8.2s8.2,3.7,8.2,8.2S44.5,37.5,40,37.5z"/>
	</g>
</g>
</svg>
