<svg xmlns="http://www.w3.org/2000/svg" width="28" height="28" viewBox="0 0 28 28">
  <g id="shop" transform="translate(-15567.335 -6405.88)">
    <circle id="shop-2" data-name="shop" cx="14" cy="14" r="14" transform="translate(15567.335 6405.88)" fill="#169dfb" opacity="0.1"/>
    <g id="shop_2_" data-name="shop (2)" transform="translate(15572 6364.142)">
      <g id="Group_2772" data-name="Group 2772" transform="translate(0 48.096)">
        <g id="Group_2771" data-name="Group 2771" transform="translate(0 0)">
          <path id="Path_8497" data-name="Path 8497" d="M17.623,62.556h-.308V54.529a2.512,2.512,0,0,0,1.157-2.113.271.271,0,0,0-.036-.134l-2.147-3.757a.851.851,0,0,0-.737-.428H2.92a.851.851,0,0,0-.737.428L.036,52.281A.271.271,0,0,0,0,52.416a2.512,2.512,0,0,0,1.157,2.113v8.028H.849a.271.271,0,1,0,0,.541H17.623a.271.271,0,1,0,0-.541ZM.56,52.686h.867a.271.271,0,1,0,0-.541H.737l1.916-3.353a.309.309,0,0,1,.267-.155H15.552a.308.308,0,0,1,.267.155l1.916,3.353h-.691a.271.271,0,1,0,0,.541h.868a1.971,1.971,0,0,1-3.9,0h1.88a.271.271,0,1,0,0-.541H2.584a.271.271,0,1,0,0,.541H4.464a1.971,1.971,0,0,1-3.9,0Zm12.869,0a1.97,1.97,0,0,1-3.9,0Zm-4.483,0a1.97,1.97,0,0,1-3.9,0Zm6.382,9.87H12.4v-.9h2.929Zm0-1.446H12.4V56.157h2.929Zm1.446,1.446h-.9v-6.67a.271.271,0,0,0-.271-.271h-3.47a.271.271,0,0,0-.271.271v6.67H1.7V54.791a2.509,2.509,0,0,0,3.055-1.242,2.511,2.511,0,0,0,4.483,0,2.511,2.511,0,0,0,4.483,0,2.51,2.51,0,0,0,3.055,1.242Z" transform="translate(0 -48.096)" fill="#0038ba"/>
          <path id="Path_8499" data-name="Path 8499" d="M14.29,52.686a2.176,2.176,0,0,1-2.152,1.875,2.438,2.438,0,0,1-2.394-1.875Zm-4.625,0a2.526,2.526,0,0,1-2.47,1.875,2.176,2.176,0,0,1-2.152-1.875Z" transform="translate(-0.43 -48.183)" fill="#0038ba"/>
        </g>
      </g>
      <g id="Group_2774" data-name="Group 2774" transform="translate(2.603 55.615)">
        <g id="Group_2773" data-name="Group 2773" transform="translate(0 0)">
          <path id="Path_8498" data-name="Path 8498" d="M80.224,256.516H72.416a.271.271,0,0,0-.271.271v5.5a.271.271,0,0,0,.271.271h7.809a.271.271,0,0,0,.271-.271v-5.5A.271.271,0,0,0,80.224,256.516Zm-.271,5.495H72.686v-4.954h7.267Z" transform="translate(-72.145 -256.516)" fill="#282828"/>
        </g>
      </g>
    </g>
  </g>
</svg>
