<?xml version="1.0" encoding="utf-8"?>
<!-- Generator: Adobe Illustrator 22.0.1, SVG Export Plug-In . SVG Version: 6.00 Build 0)  -->
<svg version="1.1" id="Layer_1" xmlns="http://www.w3.org/2000/svg" xmlns:xlink="http://www.w3.org/1999/xlink" x="0px" y="0px"
	 viewBox="0 0 80 80" style="enable-background:new 0 0 80 80;" xml:space="preserve">
<style type="text/css">
	.st0{fill:#777777;}
</style>
<path class="st0" d="M72.9,25l-2.8-9.5c-1-3.6-4.8-6.4-8.4-6.4H18.3c-3.8,0-7.4,2.8-8.4,6.4L7.1,25C7,25.1,7,25.3,7,25.5v6.2
	c0,3.5,2.1,6.4,5.1,7.6v24.5c0,3.9,3.2,7.2,10.3,7.2h38.8c4.2,0,6.5-3.2,6.5-7.2V39.3c3-1.2,5.1-4.1,5.1-7.6v-6.2
	C73,25.3,73,25.1,72.9,25z M13.5,16.5c0.6-1.9,2.8-3.6,4.8-3.6h43.5c2,0,4.2,1.7,4.8,3.6l2,7.1H11.5L13.5,16.5z M23.3,27.4h8.5v4.3
	c0,2.4-1.9,4.3-4.3,4.3s-4.3-1.9-4.3-4.3L23.3,27.4L23.3,27.4z M35.7,27.4h8.5v4.3c0,2.4-1.9,4.3-4.3,4.3c-2.4,0-4.3-1.9-4.3-4.3
	L35.7,27.4L35.7,27.4z M48.2,27.4h8.5v4.3c0,2.4-1.9,4.3-4.3,4.3s-4.3-1.9-4.3-4.3L48.2,27.4L48.2,27.4z M10.8,31.7v-4.3h8.5v4.3
	c0,2.4-1.9,4.3-4.3,4.3C12.8,36,10.8,34,10.8,31.7z M26.4,67.1V55.4h13.9v11.6H26.4z M60.7,67.1H44.2V53.5c0-1.1-0.8-1.9-1.9-1.9
	H24.5c-1.1,0-1.9,0.8-1.9,1.9v13.6h-3.2c-1.8,0-3.2-1.5-3.2-3.2v-24c2.1-0.3,4-1.3,5.3-2.8c1.5,1.7,3.8,2.8,6.2,2.8s4.7-1.1,6.2-2.8
	c1.5,1.7,3.8,2.8,6.2,2.8s4.7-1.1,6.2-2.8c1.5,1.7,3.8,2.8,6.2,2.8s4.7-1.1,6.2-2.8c1.3,1.6,3.2,2.6,5.3,2.8v24
	C64,65.6,62.5,67.1,60.7,67.1z M64.9,36c-2.4,0-4.3-1.9-4.3-4.3v-4.3h8.5v4.4C69.2,34,67.3,36,64.9,36z"/>
</svg>
