<?xml version="1.0" encoding="utf-8"?>
<!-- Generator: Adobe Illustrator 24.2.3, SVG Export Plug-In . SVG Version: 6.00 Build 0)  -->
<svg version="1.1" id="_x31_" xmlns="http://www.w3.org/2000/svg" xmlns:xlink="http://www.w3.org/1999/xlink" x="0px" y="0px"
	 viewBox="0 0 80 80" style="enable-background:new 0 0 80 80;" xml:space="preserve">
<style type="text/css">
	.st0{fill:#0038ba;}
</style>
<path class="st0" d="M78.3,76.7H1.7C0.7,76.7,0,75.9,0,75s0.7-1.7,1.7-1.7h76.7c0.9,0,1.7,0.7,1.7,1.7S79.3,76.7,78.3,76.7z"/>
<path class="st0" d="M5,80c-0.9,0-1.7-0.7-1.7-1.7V1.7C3.3,0.7,4.1,0,5,0s1.7,0.7,1.7,1.7v76.7C6.7,79.3,5.9,80,5,80z"/>
<path class="st0" d="M65,20H15c-0.9,0-1.7-0.7-1.7-1.7V5c0-0.9,0.7-1.7,1.7-1.7h50c0.9,0,1.7,0.7,1.7,1.7v13.3
	C66.7,19.3,65.9,20,65,20z M16.7,16.7h46.7v-10H16.7V16.7z"/>
<path class="st0" d="M78.3,43.3H15c-0.9,0-1.7-0.7-1.7-1.7V28.3c0-0.9,0.7-1.7,1.7-1.7h63.3c0.9,0,1.7,0.7,1.7,1.7v13.3
	C80,42.6,79.3,43.3,78.3,43.3z M16.7,40h60V30h-60V40z"/>
<path class="st0" d="M68.3,66.7H15c-0.9,0-1.7-0.7-1.7-1.7V51.7c0-0.9,0.7-1.7,1.7-1.7h53.3c0.9,0,1.7,0.7,1.7,1.7V65
	C70,65.9,69.3,66.7,68.3,66.7z M16.7,63.3h50v-10h-50V63.3z"/>
</svg>
