<?xml version="1.0" encoding="utf-8"?>
<!-- Generator: Adobe Illustrator 22.0.1, SVG Export Plug-In . SVG Version: 6.00 Build 0)  -->
<svg version="1.1" id="Layer_1" xmlns="http://www.w3.org/2000/svg" xmlns:xlink="http://www.w3.org/1999/xlink" x="0px" y="0px"
	 viewBox="0 0 28 28" style="enable-background:new 0 0 28 28;" xml:space="preserve">
<style type="text/css">
	.st0{fill:#FFFFFF;}
	.st1{fill:#282828;}
	.st2{fill:#0038BA;}
</style>
<rect x="2" y="2" class="st0" width="23.9" height="23.9"/>
<g>
	<g>
		<g>
			<path class="st1" d="M17.7,13c-0.1-0.2-0.3-0.3-0.5-0.2c-0.2,0.1-0.3,0.3-0.2,0.5c0.2,0.5,0.3,1,0.3,1.5c0,2.3-1.9,4.1-4.1,4.1
				C10.9,19,9,17.1,9,14.8s1.9-4.1,4.1-4.1c0.5,0,1.1,0.1,1.5,0.3c0.2,0.1,0.4,0,0.5-0.2c0.1-0.2,0-0.4-0.2-0.5
				c-0.6-0.2-1.2-0.3-1.8-0.3c-2.7,0-4.9,2.2-4.9,4.9s2.2,4.9,4.9,4.9s4.9-2.2,4.9-4.9C18.1,14.2,17.9,13.6,17.7,13z"/>
		</g>
	</g>
	<g>
		<g>
			<path class="st1" d="M20,12.8c-0.1-0.2-0.3-0.3-0.5-0.3s-0.3,0.3-0.3,0.5c0.2,0.6,0.3,1.2,0.3,1.8c0,3.6-2.9,6.4-6.4,6.4
				c-3.6,0-6.4-2.9-6.4-6.4s2.9-6.4,6.4-6.4c0.6,0,1.2,0.1,1.8,0.3c0.2,0.1,0.4-0.1,0.5-0.3c0.1-0.2-0.1-0.4-0.3-0.5
				c-0.7-0.2-1.3-0.3-2-0.3c-4,0-7.2,3.2-7.2,7.2S9.2,22,13.2,22s7.2-3.2,7.2-7.2C20.3,14.1,20.2,13.5,20,12.8z"/>
		</g>
	</g>
	<g>
		<g>
			<path class="st1" d="M15.8,14.6c0-0.2-0.2-0.4-0.4-0.3c-0.2,0-0.4,0.2-0.3,0.4c0,0.1,0,0.1,0,0.2c0,1.1-0.9,1.9-1.9,1.9
				c-1.1,0-1.9-0.9-1.9-1.9c0-1.1,0.9-1.9,1.9-1.9c0.1,0,0.1,0,0.2,0c0.2,0,0.4-0.1,0.4-0.3c0-0.2-0.1-0.4-0.3-0.4
				c-0.1,0-0.2,0-0.2,0c-1.4,0-2.6,1.2-2.6,2.6s1.2,2.6,2.6,2.6s2.6-1.2,2.6-2.6C15.8,14.7,15.8,14.7,15.8,14.6z"/>
		</g>
	</g>
	<g>
		<g>
			<path class="st2" d="M22,8.5c-0.1-0.3-0.4-0.5-0.7-0.5h-1.3V6.7c0-0.3-0.2-0.6-0.5-0.7c-0.3-0.1-0.6-0.1-0.8,0.2l-2.2,2.2
				c-0.2,0.2-0.3,0.5-0.3,0.8v2.2L13,14.4c-0.1,0.1-0.1,0.4,0,0.5c0.1,0.1,0.2,0.1,0.3,0.1c0.1,0,0.2,0,0.3-0.1l3.1-3.1h2.1
				c0.3,0,0.6-0.1,0.8-0.3l2.2-2.2C22,9.1,22.1,8.8,22,8.5z M16.8,9.2c0-0.1,0-0.2,0.1-0.3l2.2-2.2v1.5l-2.3,2.3V9.2L16.8,9.2z
				 M19.1,11c-0.1,0.1-0.2,0.1-0.3,0.1h-1.4l2.3-2.3h1.5L19.1,11z"/>
		</g>
	</g>
</g>
</svg>
