<?xml version="1.0" encoding="utf-8"?>
<!-- Generator: Adobe Illustrator 22.0.1, SVG Export Plug-In . SVG Version: 6.00 Build 0)  -->
<svg version="1.1" id="Capa_1" xmlns="http://www.w3.org/2000/svg" xmlns:xlink="http://www.w3.org/1999/xlink" x="0px" y="0px"
	 viewBox="0 0 224 190.3" style="enable-background:new 0 0 224 190.3;" xml:space="preserve">
<style type="text/css">
	.st0{fill:#0038BA;}
	.st1{fill:#282828;}
</style>
<g>
	<g>
		<g>
			<path class="st0" d="M149.7,86.7l-18.8-8.3c-1.3-0.6-2.2-1.9-2.2-3.4v-5.2c6.3-5,10.4-12.8,10.4-21.4v-7.3
				c2.1-1.1,3.5-3.4,3.5-5.9v-0.7c0-15.1-12.3-27.4-27.4-27.4h-6.9c-15.1,0-27.4,12.3-27.4,27.4V41c0,2.2,0.9,4.2,2.6,5.4
				c0.3,0.2,0.6,0.4,0.9,0.6v1.4c0,8.7,4.1,16.4,10.4,21.4V75c0,1.5-0.9,2.8-2.2,3.4l-18.8,8.3c-6.1,2.7-10.1,8.8-10.1,15.6V121
				c0,1.8,1.4,3.2,3.2,3.2s3.2-1.4,3.2-3.2v-18.7c0-0.4,0-0.7,0.1-1.1l8.7,8.7c1.3,1.3,2.1,3.1,2.1,5v6.1c0,1.8,1.4,3.2,3.2,3.2
				s3.2-1.4,3.2-3.2v-6.1c0-3.6-1.4-7-4-9.6L73,94.9c0.9-1,2-1.8,3.3-2.3l18.5-8.2l13.7,13.7v3.9c0,1.8,1.4,3.2,3.2,3.2
				c1.8,0,3.2-1.4,3.2-3.2v-3.9l13.7-13.7l18.5,8.2c1.3,0.6,2.4,1.4,3.3,2.3l-10.3,10.3c-2.6,2.6-4,6-4,9.6v6.1
				c0,1.8,1.4,3.2,3.2,3.2s3.2-1.4,3.2-3.2v-6.1c0-1.9,0.7-3.7,2.1-5l8.7-8.7c0,0.4,0.1,0.7,0.1,1.1V121c0,1.8,1.4,3.2,3.2,3.2
				s3.2-1.4,3.2-3.2v-18.7C159.8,95.6,155.9,89.4,149.7,86.7z M111.7,92.2l-12-12c0.9-1.5,1.4-3.3,1.4-5.2v-1.3
				c3.3,1.4,6.8,2.1,10.6,2.1s7.3-0.8,10.6-2.1V75c0,1.9,0.5,3.6,1.4,5.2L111.7,92.2z M111.7,69.3c-11.5,0-20.9-9.4-20.9-20.9V47
				c2-0.8,4-2.1,5.9-3.8c1.3-1.2,1.4-3.3,0.2-4.6c-1.2-1.3-3.3-1.4-4.6-0.2c-1.6,1.5-3.2,2.5-4.8,2.9h-0.1c0,0-0.1-0.1-0.1-0.3v-6.4
				c0-11.5,9.4-20.9,20.9-20.9h6.9c11.5,0,20.9,9.4,20.9,20.9v0.7c0,0.1-0.1,0.2-0.1,0.2c-19.3,3.8-29.1-3.4-32.3-6.7
				c-1.3-1.3-3.3-1.3-4.6,0c-1.3,1.3-1.3,3.3,0,4.6c10,10,24.7,10.2,33.6,9.1v5.8C132.7,60,123.3,69.3,111.7,69.3z"/>
		</g>
	</g>
	<g>
		<g>
			<path class="st1" d="M214.5,97.9l-18.1-9c-1.3-0.6-2-1.9-2-3.3V81c4.2-3.8,6.9-9.2,6.9-15.3V62c0.1,0,0.1,0,0.2,0
				c1.8,0,3.2-1.4,3.2-3.2v-6.9c0-11.3-9.2-20.5-20.5-20.5h-6.9c-11.3,0-20.5,9.2-20.5,20.5v6.9c0,1.8,1.4,3.2,3.2,3.2
				c0,0,0.1,0,0.2,0v3.7c0,6.1,2.7,11.6,6.9,15.3v4.6c0,1.4-0.8,2.7-2,3.3c-1.6,0.8-2.2,2.7-1.4,4.3c0.6,1.1,1.7,1.8,2.9,1.8
				c0.5,0,1-0.1,1.4-0.3c0.6-0.3,1.1-0.6,1.6-1l7.9,7.9v0.5c0,1.8,1.4,3.2,3.2,3.2s3.2-1.4,3.2-3.2v-0.5l7.9-7.9
				c0.5,0.4,1,0.7,1.6,1l17.5,8.7l-5.3,5.3c-2.6,2.6-4,6-4,9.6v26.8c0,1.8,1.4,3.2,3.2,3.2s3.2-1.4,3.2-3.2v-26.8
				c0-1.9,0.7-3.7,2.1-5l5-5c0.2,0.6,0.2,1.2,0.2,1.8v35c0,1.8,1.4,3.2,3.2,3.2s3.2-1.4,3.2-3.2v-35
				C222,104.9,219.1,100.2,214.5,97.9z M163.3,54.9v-3l0,0c0-7.7,6.3-14,14-14h6.9c7.7,0,14,6.3,14,14v3.6
				c-14-0.8-22.5-6.2-22.6-6.3c-0.5-0.4-1.2-0.5-1.8-0.5c-0.8,0-1.7,0.3-2.3,0.9C168.5,52.7,165.5,54.2,163.3,54.9z M180.8,95.6
				l-7.5-7.5c0.2-0.8,0.3-1.7,0.3-2.6v-0.7c2.2,0.8,4.6,1.3,7.1,1.3s4.9-0.5,7.1-1.3v0.7c0,0.9,0.1,1.8,0.3,2.6L180.8,95.6z
				 M180.8,79.7c-7.7,0-14-6.3-14-14v-5.2l0,0c2.3-0.9,4.9-2.3,7.6-4.6c3.4,1.8,10.5,4.8,20.5,5.8v4
				C194.8,73.4,188.5,79.7,180.8,79.7z"/>
		</g>
	</g>
	<g>
		<g>
			<path class="st1" d="M9.9,97.9l17.8-9c1.2-0.6,2-1.9,2-3.3V81c-4.2-3.8-6.8-9.2-6.8-15.3V62c-0.1,0-0.1,0-0.2,0
				c-1.8,0-3.2-1.4-3.2-3.2v-6.9c0-11.3,9-20.5,20.1-20.5h6.8c11.1,0,20.1,9.2,20.1,20.5v6.9c0,1.8-1.4,3.2-3.2,3.2c0,0-0.1,0-0.2,0
				v3.7c0,6.1-2.6,11.6-6.8,15.3v4.6c0,1.4,0.8,2.7,2,3.3c1.6,0.8,2.2,2.7,1.4,4.3C59.2,94.3,58,95,56.9,95c-0.5,0-1-0.1-1.4-0.3
				c-0.6-0.3-1.1-0.6-1.6-1l-7.8,7.9v0.5c0,1.8-1.4,3.2-3.2,3.2s-3.2-1.4-3.2-3.2v-0.5l-7.7-8c-0.5,0.4-1,0.7-1.6,1l-17.2,8.7
				l5.2,5.3c2.5,2.6,3.9,6,3.9,9.6V145c0,1.8-1.4,3.2-3.2,3.2s-3.2-1.4-3.2-3.2v-26.8c0-1.9-0.7-3.7-2.1-5l-4.9-5
				c-0.1,0.6-0.2,1.2-0.2,1.8v35c0,1.8-1.4,3.2-3.2,3.2s-3.2-1.4-3.2-3.2v-35C2.5,104.9,5.3,100.2,9.9,97.9z M60.1,54.9v-3l0,0
				c0-7.7-6.2-14-13.8-14h-6.8c-7.6,0-13.8,6.3-13.8,14v3.6c13.8-0.8,22.1-6.2,22.2-6.3c0.5-0.4,1.1-0.5,1.8-0.5
				c0.8,0,1.6,0.3,2.2,0.9C55,52.7,58,54.2,60.1,54.9z M43,95.6l7.3-7.5c-0.2-0.8-0.3-1.7-0.3-2.6v-0.7c-2.2,0.8-4.5,1.3-7,1.3
				s-4.8-0.5-7-1.3v0.7c0,0.9-0.1,1.8-0.3,2.6L43,95.6z M43,79.7c7.6,0,13.8-6.3,13.8-14v-5.2l0,0c-2.2-0.9-4.8-2.3-7.4-4.6
				C46,57.6,39,60.7,29.2,61.7v4C29.2,73.4,35.4,79.7,43,79.7z"/>
		</g>
	</g>
	<g>
		<path class="st1" d="M114.7,153.4v26.8c0,1.8-1.4,3.2-3.2,3.2s-3.2-1.4-3.2-3.2v-26.8"/>
		<path class="st1" d="M108.4,157.3v-26.8c0-1.8,1.4-3.2,3.2-3.2s3.2,1.4,3.2,3.2v26.8"/>
		<path class="st1" d="M113.6,158.5H86.8c-1.8,0-3.2-1.4-3.2-3.2s1.4-3.2,3.2-3.2h26.8"/>
		<path class="st1" d="M109.8,152.2h26.8c1.8,0,3.2,1.4,3.2,3.2s-1.4,3.2-3.2,3.2h-26.8"/>
	</g>
</g>
</svg>
