<?xml version="1.0" encoding="utf-8"?>
<!-- Generator: Adobe Illustrator 22.0.1, SVG Export Plug-In . SVG Version: 6.00 Build 0)  -->
<svg version="1.1" id="Layer_1" xmlns="http://www.w3.org/2000/svg" xmlns:xlink="http://www.w3.org/1999/xlink" x="0px" y="0px"
	 viewBox="0 0 28 28" style="enable-background:new 0 0 28 28;" xml:space="preserve">
<style type="text/css">
	.st0{fill:#FFFFFF;}
	.st1{fill:#0038BA;}
	.st2{fill:#A4FCC4;}
</style>
<rect x="2.1" y="2.1" class="st0" width="23.9" height="23.9"/>
<g id="Group_1348" transform="translate(-246.335 -1037.88)">
	<g id="box_3_" transform="translate(253.191 1046.435)">
		<g id="Group_1310">
			<g id="Group_1307">
				<path id="Path_3114" class="st1" d="M5.8,7.3C5.8,7.1,5.6,7,5.5,7l0,0H3.1C3,7,2.8,7.2,2.8,7.3c0,0.2,0.1,0.3,0.3,0.3h2.3
					C5.6,7.6,5.8,7.5,5.8,7.3z"/>
				<path id="Path_3115" class="st1" d="M3.1,8.6c-0.2,0-0.3,0.1-0.3,0.3s0.1,0.3,0.3,0.3h1.6C4.9,9.2,5,9.1,5,8.9S4.9,8.6,4.7,8.6
					H3.1z"/>
				<path id="Path_3116" class="st1" d="M12.3,9.6c-0.1,0-0.2,0-0.3,0v1.2c0,0.2-0.2,0.3-0.3,0.3H1.4c-0.2,0-0.3-0.2-0.3-0.3V2.5
					h3.6v1.8c0,0.2,0.1,0.3,0.3,0.3c0.1,0,0.1,0,0.1,0l1.5-0.5L8,4.6c0.2,0.1,0.3,0,0.4-0.2c0-0.1,0-0.1,0-0.1V2.5H12v1.3
					c0.1,0,0.2,0,0.3,0s0.2,0,0.3,0V2.5h0.1c0.2,0,0.3-0.1,0.3-0.3l0,0v-2.7c0-0.2-0.1-0.3-0.3-0.3l0,0H0.3c-0.1,0-0.2,0.2-0.2,0.3
					l0,0v2.7c0,0.2,0.1,0.3,0.3,0.3l0,0h0.1v8.2c0,0.5,0.4,1,1,1l0,0h10.2c0.5,0,1-0.4,1-1l0,0V9.5C12.5,9.6,12.4,9.6,12.3,9.6z
					 M8.4-0.2h4v2.1h-4V-0.2z M5.3-0.2h2.5v4.1L6.6,3.5c-0.1,0-0.1,0-0.2,0L5.3,3.9V-0.2z M0.6,1.9v-2.1h4v2.1H0.6z"/>
			</g>
			<g id="Group_1309" transform="translate(8.492 3.978)">
				<g id="Group_1308">
					<ellipse id="Ellipse_162" class="st2" cx="3.8" cy="2.7" rx="3.2" ry="3.2"/>
					<path id="Path_3117" class="st1" d="M3.4,4C3.3,4,3.2,4,3.1,3.9L2.3,3.1c-0.2-0.2-0.2-0.5,0-0.7c0.1-0.2,0.5-0.2,0.6,0l0,0
						l0.5,0.5l1.3-1.6C4.9,1.1,5.2,1,5.4,1.2c0.2,0.2,0.2,0.5,0.1,0.6l-1.7,2C3.7,3.9,3.6,4,3.4,4L3.4,4z"/>
				</g>
			</g>
		</g>
	</g>
</g>
</svg>
