<?xml version="1.0" encoding="utf-8"?>
<!-- Generator: Adobe Illustrator 22.0.1, SVG Export Plug-In . SVG Version: 6.00 Build 0)  -->
<svg version="1.1" id="Layer_1" xmlns="http://www.w3.org/2000/svg" xmlns:xlink="http://www.w3.org/1999/xlink" x="0px" y="0px"
	 viewBox="0 0 50 50" style="enable-background:new 0 0 50 50;" xml:space="preserve">
<style type="text/css">
	.st0{fill:#0038BA;}
	.st1{fill:#FFFFFF;}
</style>
<path class="st0" d="M25,0.5C11.4,0.5,0.5,11.4,0.5,25S11.4,49.5,25,49.5s24.5-11,24.5-24.5l0,0C49.5,11.4,38.5,0.5,25,0.5z"/>
<g>
	<g>
		<polygon class="st1" points="38.7,37 37.5,38.8 37.5,40.9 36.2,40.9 35.9,40.9 35,42.2 39.8,42.2 39.8,41.1 38.7,41.1 		"/>
		<path class="st1" d="M31.2,40.9H13.5v-5H16v-1.1h-3.6v6.1H11v-7.5h14.7c-0.2-0.5-0.5-0.7-0.5-1.1H14.6V21.8c0.2,0,0.5-0.2,0.5-0.5
			c0.7,0.7,1.6,1.1,2.5,1.1c0.9,0,1.6-0.5,2-1.1c1.1,1.1,2.9,1.4,4.1,0.5c0.2-0.2,0.7-0.5,0.7-0.5c0.9,1.1,2.5,1.4,3.9,0.7
			c0.5-0.5,1.1-0.9,1.8-1.1c-0.5-0.2-0.7-0.7-0.7-0.9c0,0,0,0,0-0.2V18h0.2H33v1.6v0.2c0.2,0,0.5,0,0.7,0s0.5,0,0.5,0v-0.2
			c0,0,0,0,0-0.2V18h3.6v1.6c0,0.5-0.2,0.7-0.5,0.9c0.2,0.2,0.7,0.2,0.9,0.5c0.2-0.5,0.5-1.1,0.5-1.6v-2L35,10h-0.9V7.8H14.6v2.5
			h-0.9l-3.6,7v2.5c0,0.9,0.5,1.6,1.1,2.5v10.2H9.9v8.6H9v1.1h23.1L31.2,40.9z M13.5,32.5h-1.1v-10h1.1V32.5z M19.2,19.8
			c0,0.9-0.7,1.6-1.6,1.6c0,0,0,0-0.2,0c-0.7,0.2-1.4-0.7-1.6-1.6V18h3.6v1.8H19.2z M19.2,16.8H16l1.8-5.7l2.5,0.2L19.2,16.8z
			 M23.7,19.8c0,0.9-0.7,1.6-1.6,1.6c0,0,0,0-0.2,0c-0.7,0.2-1.6-0.7-1.6-1.6V18h3.6v1.8H23.7z M23.7,16.8h-3.2l0.9-5.7h2.5v5.7
			H23.7z M28.7,19.8c0,0.9-0.7,1.6-1.6,1.8c-1.1,0-1.8-0.7-1.8-1.6c0,0,0,0,0-0.2V18h3.6v1.8H28.7z M25.1,17.1v-5.7h2l0.9,5.7H25.1z
			 M29.4,17.1l-1.1-5.7h2.5l1.8,5.7H29.4z M34.3,11.4l2.9,5.4h-3.2l-2-5.4C32.1,11.4,34.3,11.4,34.3,11.4z M15.8,8.9H33V10H15.8V8.9
			z M14.2,11.4h2.5l-2,5.4h-2.9L14.2,11.4z M11,19.8V18h3.6v1.6c0,1.1-0.7,1.8-1.6,1.8c0,0,0,0-0.2,0C11.9,21.6,11,20.7,11,19.8z"/>
	</g>
	<path class="st1" d="M38.9,23.4c-1.4-1.4-3.4-2-5.2-2c-2,0-3.9,0.9-5.2,2.3c-2.7,2.7-2.9,7-0.7,10.2l5.9,8.2l5.9-8.4
		C41.8,30.4,41.4,26.1,38.9,23.4z M33.2,31.3c-1.6-0.2-2.7-1.4-2.7-2.9s1.1-3.2,2.9-3.2c1.6,0,2.9,1.4,2.9,3.2
		C36.2,30.2,35,31.3,33.2,31.3z"/>
</g>
</svg>
