<?xml version="1.0" encoding="utf-8"?>
<!-- Generator: Adobe Illustrator 22.0.1, SVG Export Plug-In . SVG Version: 6.00 Build 0)  -->
<svg version="1.1" id="Capa_1" xmlns="http://www.w3.org/2000/svg" xmlns:xlink="http://www.w3.org/1999/xlink" x="0px" y="0px"
	 viewBox="0 0 50 50" style="enable-background:new 0 0 50 50;" xml:space="preserve">
<style type="text/css">
	.st0{fill:#A4FCC4;}
	.st1{fill:#0038BA;}
	.st2{fill:#0038BA;stroke:#FFFFFF;stroke-miterlimit:10;}
</style>
<g id="Group_1309" transform="translate(8.492 3.978)">
	<g id="Group_1308">
		<ellipse id="Ellipse_162" class="st0" cx="15.9" cy="12.3" rx="11" ry="11"/>
		<path id="Path_3117" class="st1" d="M14.7,16.7c-0.4,0-0.8,0-1.2-0.4l-2.8-2.8c-0.6-0.6-0.6-1.6,0-2.4c0.4-0.6,1.6-0.8,2.2,0l0,0
			l1.6,1.6l4.6-5.4c0.6-0.6,1.6-0.8,2.4-0.2c0.6,0.6,0.8,1.6,0.2,2.2l-5.8,6.8C15.7,16.5,15.3,16.7,14.7,16.7L14.7,16.7z"/>
	</g>
</g>
<g>
	<path class="st2" d="M23,40.6c0.4,0.4,0.9,0.7,1.4,0.7s1.1-0.2,1.4-0.7c1.2-1.2,5.6-5.3,9.3-10.7c2.5-3.5,6-8.8,6-13.8
		c0-8.9-7.4-16.3-16.6-16.3S7.8,7.3,7.8,16.2c0,5.1,3.5,10.5,6,13.8C17.6,35.3,21.8,39.5,23,40.6z M24.6,2.9c7.4,0,13.5,6,13.5,13.3
		c0,4.4-3.2,8.9-5.3,12.3c-3.2,4.4-6.5,7.7-8.2,9.5c-1.6-1.6-5.1-5.1-8.2-9.5c-2.3-3.3-5.3-8.1-5.3-12.3C11.1,8.8,16.9,2.9,24.6,2.9
		z"/>
</g>
<path id="Path_8485_2_" class="st1" d="M41.9,49.9c-0.1,0-0.3-0.1-0.4-0.1c-0.2-0.2-5.9-5-5.9-9.9c-0.1-3.5,2.7-6.3,6.2-6.4
	c3.5-0.1,6.3,2.7,6.4,6.2c0,0.1,0,0.1,0,0.2c0,4.9-5.6,9.7-5.9,9.9C42.2,49.9,42.1,49.9,41.9,49.9z M41.9,34.9c-2.8,0-5,2.3-5,5
	c0,3.6,3.8,7.4,5,8.6c1.3-1.2,5-5,5-8.6C47,37.1,44.7,34.9,41.9,34.9z"/>
<path id="Path_8486_2_" class="st1" d="M41.9,42.4c-1.4,0-2.5-1.1-2.5-2.5s1.1-2.5,2.5-2.5c1.4,0,2.5,1.1,2.5,2.5l0,0
	C44.5,41.3,43.3,42.4,41.9,42.4z"/>
<path id="Path_8485_1_" class="st1" d="M7.6,49.6c-0.2,0-0.3-0.1-0.5-0.2c-0.3-0.2-6.5-5.6-6.5-11c-0.1-3.9,3-7,6.9-7.1
	c3.9-0.1,7,3,7.1,6.9c0,0.1,0,0.2,0,0.2c0,5.4-6.3,10.8-6.5,11C7.9,49.5,7.8,49.6,7.6,49.6z M7.6,32.8c-3.1,0-5.6,2.5-5.6,5.6
	c0,4,4.2,8.2,5.6,9.5c1.4-1.3,5.6-5.5,5.6-9.5C13.2,35.3,10.7,32.8,7.6,32.8z"/>
<path id="Path_8486_1_" class="st1" d="M7.6,41.2c-1.5,0-2.8-1.3-2.8-2.8c0-1.5,1.3-2.8,2.8-2.8c1.5,0,2.8,1.3,2.8,2.8l0,0
	C10.4,40,9.1,41.2,7.6,41.2z"/>
</svg>
