<?xml version="1.0" encoding="utf-8"?>
<!-- Generator: Adobe Illustrator 22.0.1, SVG Export Plug-In . SVG Version: 6.00 Build 0)  -->
<svg version="1.1" id="Layer_1" xmlns="http://www.w3.org/2000/svg" xmlns:xlink="http://www.w3.org/1999/xlink" x="0px" y="0px"
	 viewBox="0 0 24 24" style="enable-background:new 0 0 24 24;" xml:space="preserve">
<style type="text/css">
	.st0{fill:#FFFFFF;}
</style>
<rect x="18.9" y="17.8" class="st0" width="5.1" height="1.6"/>
<rect x="-0.1" y="22.4" class="st0" width="7.6" height="1.6"/>
<g>
	<path class="st0" d="M11.2,23.5c0.2,0.2,0.5,0.4,0.8,0.4s0.6-0.1,0.8-0.4c0.7-0.7,3.2-3,5.3-6.1c1.4-2,3.4-5,3.4-7.9
		c0-5.1-4.2-9.3-9.5-9.3S2.5,4.5,2.5,9.6c0,2.9,2,6,3.4,7.9C8.1,20.5,10.5,22.9,11.2,23.5z M12.1,2c4.2,0,7.7,3.4,7.7,7.6
		c0,2.5-1.8,5.1-3,7C15,19.1,13.1,21,12.1,22c-0.9-0.9-2.9-2.9-4.7-5.4c-1.3-1.9-3-4.6-3-7C4.4,5.4,7.7,2,12.1,2z"/>
</g>
<g>
	<path class="st0" d="M15,11.3c-0.5,0.6-1.2,1-2,1.2v2h-2v-3.9h1c0.6,0,1.2-0.2,1.6-0.7s0.6-1,0.6-1.6c-0.1-1-1-2-2-2
		c-0.6,0-1.2,0.2-1.6,0.6c-0.4,0.4-0.7,1-0.7,1.6V9h-2V8.5c0-1.1,0.5-2.2,1.3-3c0.8-0.8,1.9-1.2,3.1-1.1c2,0.1,3.8,1.9,3.9,3.9
		C16.2,9.4,15.8,10.5,15,11.3z M10.9,17.4c0-0.6,0.5-1.2,1.2-1.2s1.2,0.5,1.2,1.2c0,0.6-0.5,1.2-1.2,1.2S10.9,18.1,10.9,17.4z"/>
</g>
</svg>
