<?xml version="1.0" encoding="utf-8"?>
<!-- Generator: Adobe Illustrator 22.0.1, SVG Export Plug-In . SVG Version: 6.00 Build 0)  -->
<svg version="1.1" id="Capa_1" xmlns="http://www.w3.org/2000/svg" xmlns:xlink="http://www.w3.org/1999/xlink" x="0px" y="0px"
	 viewBox="0 0 50 50" style="enable-background:new 0 0 50 50;" xml:space="preserve">
<style type="text/css">
	.st0{fill:#0038BA;stroke:#FFFFFF;stroke-miterlimit:10;}
	.st1{fill:#A4FCC4;}
	.st2{fill:#0038BA;}
</style>
<g>
	<g>
		<path class="st0" d="M20.4,0.4C10.2,0.4,1.8,8.7,1.8,19c0,12.9,16.8,29.9,17.5,30.6c0.3,0.3,0.7,0.5,1.1,0.5s0.8-0.2,1.1-0.5
			c0,0,1.4-1.4,3.3-3.6c0.6-0.6,0.5-1.6-0.1-2.2c-0.6-0.6-1.6-0.5-2.2,0.1c-0.8,0.9-1.5,1.7-2.1,2.3C16.7,42.2,4.9,28.8,4.9,19
			c0-8.6,7-15.5,15.5-15.5s15.5,7,15.5,15.5c0,0.4,0,0.9-0.1,1.4c-0.1,0.8,0.4,1.6,1.3,1.8c0.8,0.1,1.6-0.4,1.8-1.3
			C39,20.2,39,19.6,39,19C39,8.7,30.7,0.4,20.4,0.4z"/>
	</g>
</g>
<g>
	<g>
		<path class="st0" d="M20.4,9.7c-5.1,0-9.3,4.2-9.3,9.3s4.2,9.3,9.3,9.3s9.3-4.2,9.3-9.3S25.6,9.7,20.4,9.7z M20.4,25.2
			c-3.4,0-6.2-2.8-6.2-6.2s2.8-6.2,6.2-6.2s6.2,2.8,6.2,6.2S23.9,25.2,20.4,25.2z"/>
	</g>
</g>
<g id="Group_1309" transform="translate(8.492 3.978)">
	<g id="Group_1308">
		<ellipse id="Ellipse_162" class="st1" cx="27.9" cy="32.2" rx="10.6" ry="10.6"/>
		<path id="Path_3117" class="st2" d="M26.7,36.5c-0.4,0-0.8,0-1.2-0.4l-2.7-2.7c-0.6-0.6-0.6-1.5,0-2.3c0.4-0.6,1.5-0.8,2.1,0l0,0
			l1.5,1.5l4.4-5.2c0.6-0.6,1.5-0.8,2.3-0.2c0.6,0.6,0.8,1.5,0.2,2.1l-5.6,6.6C27.7,36.3,27.3,36.5,26.7,36.5L26.7,36.5z"/>
	</g>
</g>
</svg>
