<?xml version="1.0" encoding="utf-8"?>
<!-- Generator: Adobe Illustrator 22.0.1, SVG Export Plug-In . SVG Version: 6.00 Build 0)  -->
<svg version="1.1" id="Layer_1" xmlns="http://www.w3.org/2000/svg" xmlns:xlink="http://www.w3.org/1999/xlink" x="0px" y="0px"
	 viewBox="0 0 80 80" style="enable-background:new 0 0 80 80;" xml:space="preserve">
<style type="text/css">
	.st0{fill:#282828;}
	.st1{fill:#0038BA;}
</style>
<path class="st0" d="M54.3,72.4L54.3,72.4c0.1,0,0.1,0,0.1,0s0,0,0.1,0c0,0,0,0,0.1,0c0,0,0,0,0.1,0c0,0,0,0,0.1,0c0,0,0,0,0.1,0
	c0,0,0,0,0.1,0l0,0c0,0,0,0,0.1,0c0,0,0,0,0.1,0l0,0c0,0,0.1,0,0.1-0.1l0,0l25-25l0,0c0,0,0-0.1,0.1-0.1l0,0c0,0,0,0,0-0.1l0,0l0,0
	c0,0,0,0,0-0.1c0,0,0,0,0-0.1l0,0c0,0,0,0,0-0.1l0,0c0,0,0,0,0-0.1c0,0,0,0,0-0.1c0,0,0,0,0-0.1v-0.1l0,0V13c0-3.1-2.5-5.6-5.6-5.6
	H16.1c-2.9,0-5.3,2.2-5.6,5c-2.6,0.3-4.7,2.4-5,5c-2.8,0.3-5,2.7-5,5.6v43.7c0,3.1,2.5,5.6,5.6,5.6L54.3,72.4
	C54.3,72.4,54.3,72.4,54.3,72.4z M66.4,57.4l-11,11v-7.8c0-1.8,1.5-3.3,3.3-3.3L66.4,57.4L66.4,57.4z M16,9.7h58.8
	c1.8,0,3.3,1.5,3.3,3.3v32.6l-2.7,2.7V18c0-3.1-2.5-5.6-5.6-5.6H12.9C13.1,10.9,14.4,9.7,16,9.7z M11,14.8h58.8
	c1.8,0,3.3,1.5,3.3,3.3v32.6l-2.7,2.7V23c0-3.1-2.5-5.6-5.6-5.6H7.9C8.1,15.9,9.4,14.8,11,14.8z M2.8,66.8V23c0-1.8,1.5-3.3,3.3-3.3
	h58.8c1.8,0,3.3,1.5,3.3,3.3v32h-9.4c-3.1,0-5.6,2.5-5.6,5.6V70h-47C4.3,70,2.8,68.6,2.8,66.8z"/>
<g>
	<path class="st1" d="M33.1,52.7l-0.9-2.7h-6.9l-1,2.7h-3.9l6.2-15.9h4.2l6.1,15.9C36.9,52.7,33.1,52.7,33.1,52.7z M28.7,40.2
		l-2.5,6.9h5L28.7,40.2z"/>
	<path class="st1" d="M38.1,50.7l1.9-2.4c1.1,1.1,2.6,1.7,4.2,1.7c1.9,0,2.9-1.1,2.9-2.4c0-1.4-1-2.4-2.8-2.4
		c-1.3,0-2.4,0.3-3.4,1.3l-2.4-0.6v-9h10.9v3h-7.6v3.9c0.8-0.8,2.1-1.4,3.5-1.4c2.7,0,5.2,2,5.2,5.2c0,3.4-2.5,5.5-6.4,5.5
		C41.4,53,39.5,52.1,38.1,50.7z"/>
</g>
</svg>
