<?xml version="1.0" encoding="utf-8"?>
<!-- Generator: Adobe Illustrator 22.0.1, SVG Export Plug-In . SVG Version: 6.00 Build 0)  -->
<svg version="1.1" id="Layer_1" xmlns="http://www.w3.org/2000/svg" xmlns:xlink="http://www.w3.org/1999/xlink" x="0px" y="0px"
	 viewBox="0 0 28 28" style="enable-background:new 0 0 28 28;" xml:space="preserve">
<style type="text/css">
	.st0{fill:#FFFFFF;}
	.st1{fill:#0038BA;stroke:#0038BA;stroke-width:0.1;}
	.st2{fill:#FFBDBC;}
	.st3{fill:#0038BA;}
</style>
<g id="Group_1347" transform="translate(-144.335 -1037.88)">
	<rect x="146.4" y="1039.9" class="st0" width="23.9" height="23.9"/>
	<path id="Path_3128" class="st1" d="M155.8,1054.6c1.9-0.7,2.9-2.9,2.1-4.8s-2.9-2.9-4.8-2.1c-1.9,0.7-2.9,2.9-2.1,4.8
		c0.4,1,1.2,1.8,2.1,2.1c-1.6,0.5-2.8,2-3.1,3.7c-0.1,0.4,0.2,0.7,0.6,0.8h0.1h7.4c0.4,0,0.7-0.3,0.7-0.7v-0.1
		C158.6,1056.6,157.4,1055.1,155.8,1054.6z M151.1,1051.1c0-1.8,1.5-3.3,3.3-3.3s3.3,1.5,3.3,3.3s-1.5,3.3-3.3,3.3l0,0
		C152.6,1054.4,151.1,1052.9,151.1,1051.1z M158.1,1058.6h-1.2l-0.2-1.7c0-0.1-0.1-0.2-0.3-0.2c-0.1,0-0.2,0.1-0.2,0.3l0.2,1.6h-4.1
		l0.2-1.6c0-0.1-0.1-0.3-0.2-0.3c-0.1,0-0.3,0.1-0.3,0.2l0,0l-0.2,1.7h-1.2c-0.1,0-0.2-0.1-0.2-0.2l0,0c0.3-2.2,2.3-3.7,4.5-3.4
		c1.8,0.2,3.2,1.6,3.4,3.4C158.4,1058.5,158.3,1058.6,158.1,1058.6L158.1,1058.6L158.1,1058.6z"/>
	<g id="Group_1322" transform="translate(159.198 1044.168)">
		<g id="Group_1308">
			<ellipse id="Ellipse_162" class="st2" cx="3.8" cy="3.9" rx="3.8" ry="3.9"/>
			<path id="Path_3129" class="st3" d="M5.2,4.4L4.6,3.8l0.6-0.6c0.2-0.2,0.2-0.6,0-0.8C5,2.2,4.6,2.2,4.4,2.4L3.8,3L3.2,2.4
				C3,2.1,2.6,2.1,2.4,2.4C2.2,2.6,2.1,3,2.4,3.2l0,0L3,3.8L2.4,4.4C2.2,4.6,2.2,5,2.4,5.2c0.2,0.2,0.6,0.2,0.8,0l0.6-0.6l0.6,0.6
				c0.2,0.2,0.6,0.3,0.8,0C5.5,5.1,5.5,4.7,5.2,4.4C5.3,4.5,5.3,4.5,5.2,4.4z"/>
		</g>
	</g>
</g>
</svg>
