<?xml version="1.0" encoding="utf-8"?>
<!-- Generator: Adobe Illustrator 22.0.1, SVG Export Plug-In . SVG Version: 6.00 Build 0)  -->
<svg version="1.1" id="Layer_1" xmlns="http://www.w3.org/2000/svg" xmlns:xlink="http://www.w3.org/1999/xlink" x="0px" y="0px"
	 viewBox="0 0 28 28" style="enable-background:new 0 0 28 28;" xml:space="preserve">
<style type="text/css">
	.st0{fill:#FFFFFF;}
	.st1{fill:#0038BA;stroke:#0038BA;stroke-width:0.1;}
	.st2{fill:#A4FCC4;}
	.st3{fill:#0038BA;}
</style>
<rect x="2.1" y="2.1" class="st0" width="23.9" height="23.9"/>
<g id="Group_1346" transform="translate(-41.335 -1037.88)">
	<path id="Path_3127" class="st1" d="M52.8,1054.9c1.9-0.8,2.9-2.9,2.2-4.9c-0.8-1.9-2.9-2.9-4.9-2.2c-1.9,0.8-2.9,2.9-2.2,4.9
		c0.4,1,1.2,1.8,2.2,2.2c-1.7,0.5-2.9,2-3.1,3.7c-0.1,0.4,0.2,0.7,0.6,0.8h0.1h7.5c0.4,0,0.7-0.3,0.7-0.7v-0.1
		C55.6,1056.8,54.4,1055.4,52.8,1054.9z M48.1,1051.3c0-1.8,1.5-3.3,3.3-3.3s3.3,1.5,3.3,3.3s-1.5,3.3-3.3,3.3
		C49.6,1054.6,48.1,1053.2,48.1,1051.3L48.1,1051.3z M55.2,1058.9H54l-0.2-1.7c0-0.1-0.1-0.2-0.3-0.2s-0.2,0.1-0.2,0.3l0.2,1.6h-4.2
		l0.2-1.6c0-0.1-0.1-0.2-0.2-0.3c-0.1,0-0.2,0.1-0.3,0.2l-0.2,1.7h-1.2c-0.1,0-0.2-0.1-0.2-0.2l0,0c0.3-2.2,2.3-3.7,4.5-3.5
		c1.8,0.2,3.2,1.7,3.5,3.5C55.4,1058.7,55.3,1058.9,55.2,1058.9L55.2,1058.9L55.2,1058.9z"/>
	<g id="Group_1321" transform="translate(56.426 1044.241)">
		<g id="Group_1308">
			<ellipse id="Ellipse_162" class="st2" cx="3.8" cy="3.8" rx="3.8" ry="3.8"/>
			<path id="Path_3117" class="st3" d="M3.4,5.2C3.2,5.2,3.1,5.1,3,5L2.2,4.2C2,4,2,3.7,2.2,3.5s0.5-0.2,0.7,0L3.3,4l1.4-1.6
				c0.2-0.2,0.5-0.2,0.7-0.1c0.2,0.1,0.2,0.5,0,0.7l0,0L3.7,5C3.7,5.1,3.5,5.2,3.4,5.2L3.4,5.2z"/>
		</g>
	</g>
</g>
</svg>
