<?xml version="1.0" encoding="utf-8"?>
<!-- Generator: Adobe Illustrator 22.0.1, SVG Export Plug-In . SVG Version: 6.00 Build 0)  -->
<svg version="1.1" id="Layer_1" xmlns="http://www.w3.org/2000/svg" xmlns:xlink="http://www.w3.org/1999/xlink" x="0px" y="0px"
	 viewBox="0 0 24 24" style="enable-background:new 0 0 24 24;" xml:space="preserve">
<style type="text/css">
	.st0{fill:#FFFFFF;stroke:#FFFFFF;stroke-width:0.7;stroke-miterlimit:10;}
	.st1{fill:none;stroke:#FFFFFF;stroke-width:2;stroke-linecap:round;stroke-linejoin:round;}
</style>
<path class="st0" d="M21.2,4.4c0,0.2,0.2,0.4,0.4,0.4c0.1,0,0.1,0,0.3-0.1C22,4.6,22,4.6,22,4.5S21,2.9,19.7,1
	c-0.1-0.1-0.2-0.2-0.3-0.2H3.3C3.2,0.8,3,0.9,3,1L0.7,4.3c0,0.1,0-0.1,0,2.3c0,1.6,1.3,2.9,2.9,2.9c1.1,0,2.1-0.6,2.6-1.5
	c1.1,2,4,2,5.2,0c1.1,2,4,2,5.2,0c0.5,0.9,1.5,1.5,2.6,1.5c1.6,0,2.9-1.3,2.9-2.9c0-0.2-0.2-0.4-0.4-0.4s-0.4,0.2-0.4,0.4
	c0,1.2-1,2.2-2.2,2.2s-2.2-1-2.2-2.2c0-0.2-0.2-0.4-0.4-0.4s-0.4,0.2-0.4,0.4c0,1.2-1,2.2-2.2,2.2s-2.2-1-2.2-2.2
	c0-0.2-0.2-0.4-0.4-0.4s-0.4,0.2-0.4,0.4c0,1.2-1,2.2-2.2,2.2s-2.2-1-2.2-2.2c0-0.2-0.2-0.3-0.4-0.3c-0.2,0-0.3,0.1-0.3,0.3
	c0,1.3-1,2.2-2.2,2.2c-1.3,0-2.3-0.9-2.3-2.2V4.5l2.2-3.1H19L21,4v0.1C21.1,4.3,21.1,4.3,21.2,4.4L21.2,4.4z M6.9,22.4H3.6
	c-0.6,0-1.1-0.5-1.1-1.1V10.8c0-0.2-0.2-0.4-0.4-0.4s-0.4,0.2-0.4,0.4v10.5c0,1,0.8,1.8,1.8,1.8l3.4,0.1C6.9,22.9,6.9,22.4,6.9,22.4
	z"/>
<path class="st1" d="M23,18.2h-9.4"/>
<path class="st1" d="M18.2,22.9v-9.4"/>
</svg>
