<?xml version="1.0" encoding="utf-8"?>
<!-- Generator: Adobe Illustrator 24.2.3, SVG Export Plug-In . SVG Version: 6.00 Build 0)  -->
<svg version="1.1" id="Layer_1" xmlns="http://www.w3.org/2000/svg" xmlns:xlink="http://www.w3.org/1999/xlink" x="0px" y="0px"
	 viewBox="0 0 100 100" style="enable-background:new 0 0 100 100;" xml:space="preserve">
<style type="text/css">
	.st0{fill:#EFEFEF;}
	.st1{fill:#0038BA;}
	.st2{fill:#282828;}
	.st3{fill:#D6D6D6;}
</style>
<g>
	<path class="st0" d="M22.4,89.6c19.8,0,33.4,10.3,43,10.3S95,94.4,95,50.5S68,0.1,57.5,0.1C8.4,0.1-12.7,89.6,22.4,89.6L22.4,89.6z
		"/>
</g>
<g>
	<path class="st1" d="M65.8,84.4c-10.3,0-18.6-8.4-18.6-18.6s8.4-18.6,18.6-18.6s18.6,8.4,18.6,18.6S76,84.4,65.8,84.4z M65.8,51.4
		c-7.9,0-14.3,6.4-14.3,14.3s6.4,14.3,14.3,14.3s14.3-6.4,14.3-14.3S73.7,51.4,65.8,51.4z"/>
</g>
<g>
	<path class="st1" d="M63.6,57.9h4.3v15.8h-4.3V57.9z"/>
</g>
<g>
	<path class="st1" d="M57.9,63.6h15.8v4.3H57.9V63.6z"/>
</g>
<g>
	<path class="st2" d="M42,75.8H23.5c-4.3,0-7.9-3.5-7.9-7.9V32.1c0-4.3,3.5-7.9,7.9-7.9h5.4v4.3h-5.4c-2,0-3.6,1.6-3.6,3.6v35.8
		c0,2,1.6,3.6,3.6,3.6H42L42,75.8z"/>
</g>
<g>
	<path class="st2" d="M64.3,40.9H60v-8.9c0-2-1.6-3.6-3.6-3.6h-5.4v-4.3h5.4c4.3,0,7.9,3.5,7.9,7.9V40.9z"/>
</g>
<g>
	<path class="st2" d="M47.9,34.2H32.1c-2.8,0-5-2.2-5-5v-5.7c0-1.2,1-2.1,2.1-2.1h3.2c0.9-3.3,4-5.7,7.6-5.7c3.6,0,6.6,2.4,7.6,5.7
		h3.2c1.2,0,2.1,1,2.1,2.1v5.7C52.9,32,50.6,34.2,47.9,34.2z M31.4,25.7v3.6c0,0.4,0.3,0.7,0.7,0.7h15.8c0.4,0,0.7-0.3,0.7-0.7v-3.6
		h-2.9c-1.2,0-2.1-1-2.1-2.1c0-2-1.6-3.6-3.6-3.6c-2,0-3.6,1.6-3.6,3.6c0,1.2-1,2.1-2.1,2.1H31.4z"/>
</g>
<g>
	<path class="st2" d="M26.4,38.5h27.2v4.3H26.4V38.5z"/>
</g>
<g>
	<path class="st2" d="M26.4,47.1h20.5v4.3H26.4V47.1z"/>
</g>
<g>
	<path class="st2" d="M26.4,55.7H42V60H26.4V55.7z"/>
</g>
<g>
	<path class="st3" d="M20.6,17.8c-2.4,0-4.3-1.9-4.3-4.3s1.9-4.3,4.3-4.3s4.3,1.9,4.3,4.3S23,17.8,20.6,17.8z M20.6,12
		c-0.8,0-1.4,0.6-1.4,1.4s0.6,1.4,1.4,1.4c0.8,0,1.4-0.6,1.4-1.4S21.4,12,20.6,12z"/>
</g>
<g>
	<path class="st3" d="M75.8,89.1l4.1-4.1l2,2l-4.1,4.1L75.8,89.1z"/>
</g>
<g>
	<path class="st3" d="M87.5,77.4l4.1-4.1l2,2l-4.1,4.1L87.5,77.4z"/>
</g>
<g>
	<path class="st3" d="M87,87l2-2l4.1,4.1l-2,2L87,87z"/>
</g>
</svg>
