<?xml version="1.0" encoding="utf-8"?>
<!-- Generator: Adobe Illustrator 22.0.1, SVG Export Plug-In . SVG Version: 6.00 Build 0)  -->
<svg version="1.1" id="Layer_1" xmlns="http://www.w3.org/2000/svg" xmlns:xlink="http://www.w3.org/1999/xlink" x="0px" y="0px"
	 viewBox="0 0 24 24" style="enable-background:new 0 0 24 24;" xml:space="preserve">
<style type="text/css">
	.st0{fill:#FFFFFF;}
</style>
<g>
	<path class="st0" d="M4.5,11.4l-1.4,1.4c-2,2-2.3,5.1-0.7,7.4l-2.7,2.6c-0.4,0.3-0.4,0.9,0,1.3s0.9,0.4,1.3,0l2.7-2.6
		C5.9,23.1,9,23,11,21l1.4-1.4c0.4-0.3,0.4-0.9,0-1.3l-6.7-6.9C5.4,11.1,4.9,11.1,4.5,11.4z M10.6,19l-0.8,0.8
		c-1.6,1.5-4,1.5-5.5-0.1c-1.5-1.6-1.5-4,0.1-5.5l0.8-0.8L10.6,19z"/>
	<path class="st0" d="M22.4,0.8l-2.7,2.6c-2.2-1.7-5.4-1.5-7.4,0.4l-1.4,1.4c-0.4,0.3-0.4,0.9,0,1.3l1,1.1L10.4,9
		c-0.4,0.3-0.4,0.9,0,1.3c0.3,0.4,0.9,0.4,1.3,0l1.5-1.5l2.2,2.2l-1.5,1.5c-0.4,0.3-0.4,0.9,0,1.3c0.3,0.4,0.9,0.4,1.3,0l1.5-1.5
		l1,1.1c0.3,0.4,0.9,0.4,1.3,0l1.4-1.4c2-2,2.3-5.1,0.7-7.4l2.7-2.6c0.4-0.3,0.4-0.9,0-1.3C23.4,0.5,22.8,0.4,22.4,0.8z M19,10.8
		l-0.8,0.8l-5.4-5.6l0.8-0.8c1.6-1.5,4-1.5,5.5,0.1C20.6,6.8,20.5,9.3,19,10.8z"/>
</g>
</svg>
