<?xml version="1.0" encoding="utf-8"?>
<!-- Generator: Adobe Illustrator 22.0.1, SVG Export Plug-In . SVG Version: 6.00 Build 0)  -->
<svg version="1.1" id="Layer_1" xmlns="http://www.w3.org/2000/svg" xmlns:xlink="http://www.w3.org/1999/xlink" x="0px" y="0px"
	 viewBox="0 0 24 24" style="enable-background:new 0 0 24 24;" xml:space="preserve">
<style type="text/css">
	.st0{fill:#FFFFFF;}
</style>
<path class="st0" d="M23,1.3H1c-0.5,0-0.9,0.4-0.9,0.9v19.6c0,0.5,0.4,0.9,0.9,0.9h22c0.5,0,0.9-0.4,0.9-0.9V2.2
	C23.9,1.7,23.5,1.3,23,1.3z M22.1,20.9H1.9V3.1h20.2V20.9L22.1,20.9z"/>
<g>
	<path class="st0" d="M16.9,17.2H7.1c-0.4,0-0.8,0.3-0.8,0.8c0,0.4,0.3,0.8,0.8,0.8h9.7c0.4,0,0.8-0.3,0.8-0.8
		C17.6,17.6,17.3,17.2,16.9,17.2z"/>
	<path class="st0" d="M8,11.4l3.2-3.4v6.4c0,0.4,0.3,0.8,0.8,0.8c0.4,0,0.8-0.3,0.8-0.8V7.9l3.2,3.4c0.2,0.2,0.4,0.2,0.6,0.2
		c0.2,0,0.4-0.1,0.5-0.2c0.3-0.3,0.3-0.8,0-1.1l-4.5-4.9c-0.1-0.2-0.3-0.2-0.6-0.2c-0.2,0-0.4,0.1-0.6,0.2l-4.5,4.9
		c-0.3,0.3-0.3,0.8,0,1.1C7.3,11.7,7.8,11.7,8,11.4z"/>
</g>
</svg>
