<?xml version="1.0" encoding="utf-8"?>
<!-- Generator: Adobe Illustrator 22.0.1, SVG Export Plug-In . SVG Version: 6.00 Build 0)  -->
<svg version="1.1" id="Layer_1" xmlns="http://www.w3.org/2000/svg" xmlns:xlink="http://www.w3.org/1999/xlink" x="0px" y="0px"
	 viewBox="0 0 24 24" style="enable-background:new 0 0 24 24;" xml:space="preserve">
<style type="text/css">
	.st0{fill:#777777;}
</style>
<path class="st0" d="M9.3,2.4H3.1C2.8,2.4,2.5,2.7,2.5,3v6.4c0,0.3,0.2,0.6,0.6,0.6h6.2c0.3,0,0.6-0.3,0.6-0.6V3
	C9.9,2.7,9.7,2.4,9.3,2.4z M8.7,8.8h-5V3.7h5C8.7,3.7,8.7,8.8,8.7,8.8z"/>
<path class="st0" d="M21.1,2.3h-6.2c-0.3,0-0.6,0.3-0.6,0.6v6.4c0,0.3,0.2,0.6,0.6,0.6h6.2c0.3,0,0.6-0.3,0.6-0.6V2.9
	C21.7,2.6,21.5,2.3,21.1,2.3z M20.5,8.7h-5V3.6h5V8.7z"/>
<path class="st0" d="M14.8,6.9H9.3V5.5h5.5C14.8,5.5,14.8,6.9,14.8,6.9z"/>
<path class="st0" d="M9.3,14.1H3.1c-0.3,0-0.6,0.3-0.6,0.6v6.4c0,0.2,0.2,0.6,0.6,0.6h6.2c0.3,0,0.6-0.3,0.6-0.6v-6.4
	C9.9,14.3,9.7,14.1,9.3,14.1z M8.7,20.4h-5v-5.1h5C8.7,15.3,8.7,20.4,8.7,20.4z"/>
<path class="st0" d="M21.1,13.9h-6.2c-0.3,0-0.6,0.3-0.6,0.6V21c0,0.3,0.2,0.6,0.6,0.6h6.2c0.3,0,0.6-0.3,0.6-0.6v-6.4
	C21.7,14.3,21.5,13.9,21.1,13.9z M20.5,20.3h-5v-5.1h5V20.3z"/>
<path class="st0" d="M6.9,9.2v5.5H5.5V9.2H6.9z"/>
</svg>
