<?xml version="1.0" encoding="utf-8"?>
<!-- Generator: Adobe Illustrator 22.0.1, SVG Export Plug-In . SVG Version: 6.00 Build 0)  -->
<svg version="1.1" id="Layer_1" xmlns="http://www.w3.org/2000/svg" xmlns:xlink="http://www.w3.org/1999/xlink" x="0px" y="0px"
	 viewBox="0 0 100 100" style="enable-background:new 0 0 100 100;" xml:space="preserve">
<style type="text/css">
	.st0{fill:#858585;stroke:#858585;stroke-width:1.5;stroke-miterlimit:10;}
	.st1{fill:#0038BA;stroke:#0038BA;stroke-width:1.5;stroke-miterlimit:10;}
	.st2{fill:#0038BA;stroke:#0038BA;stroke-miterlimit:10;}
</style>
<path class="st0" d="M1.8,91.7h2.9h90.6h2.9c0.4,0,0.8-0.3,0.8-0.8c0-0.4-0.3-0.8-0.8-0.8h-2.1v-4.9c0-0.4-0.3-0.8-0.8-0.8h-2.8
	V42.6c0.9-0.4,1.7-1,2.3-1.8c1.1-1.4,1.5-3.2,1-4.9L92.5,23v-3.3c0-1.3-1-2.3-2.3-2.3h-7.6v-4.1H87c2.4,0,4.3-1.9,4.3-4.3V5.3
	C91.3,3,89.3,1,87,1H13c-2.3,0-4.3,2-4.3,4.3v3.8c0,2.4,1.9,4.3,4.3,4.3h4.3v4.1H9.8c-1.3,0-2.3,1-2.3,2.3v3.3L4.1,36
	c-0.4,1.7-0.1,3.5,1,4.9c0.6,0.8,1.4,1.4,2.3,1.8v41.8H4.7c-0.4,0-0.8,0.3-0.8,0.8v4.9H1.8C1.4,90.2,1,90.5,1,91
	C1,91.3,1.3,91.7,1.8,91.7z M60.8,84.4H39.2V51.6h21.6C60.8,51.6,60.8,84.4,60.8,84.4z M93.7,39.9c-0.6,0.7-1.4,1.2-2.2,1.5
	c-0.2,0-0.4,0.1-0.6,0.1c-0.1,0-0.3,0-0.4,0c-0.3,0-0.6,0-0.9-0.1c-0.1,0-0.1,0-0.2,0c-0.2-0.1-0.5-0.1-0.7-0.2
	c-0.1,0-0.2-0.1-0.2-0.1c-0.3-0.1-0.5-0.3-0.8-0.5c0,0,0,0-0.1-0.1c-0.3-0.3-0.6-0.6-0.8-0.9c0,0,0-0.1-0.1-0.1
	c0-0.1-0.1-0.1-0.1-0.2c-0.1-0.2-0.2-0.3-0.2-0.5c-0.1-0.2-0.1-0.4-0.2-0.6l-0.4-1.9l0,0L83.3,24h7.8l3.2,12.4
	C94.7,37.6,94.5,38.9,93.7,39.9z M84.4,38.5c0,0.2-0.1,0.3-0.2,0.5c0,0.1-0.1,0.2-0.1,0.3c-0.1,0.2-0.2,0.4-0.4,0.6
	c0,0.1-0.1,0.1-0.1,0.2c-0.2,0.2-0.4,0.4-0.6,0.6l-0.1,0.1c-0.2,0.2-0.5,0.3-0.7,0.4c0,0,0,0-0.1,0c-0.3,0.1-0.5,0.2-0.8,0.3l0,0
	c-0.3,0.1-0.6,0.1-1,0.1c-2.1,0-3.8-1.5-4.1-3.6l-1.1-7.3l-1-6.7h7.8l2.6,12.6c0,0.2,0,0.4,0,0.5c0,0.2,0,0.3,0,0.5s0,0.3-0.1,0.5
	C84.4,38.2,84.4,38.3,84.4,38.5z M66.1,38.4C66,38.2,66,38,66,37.8v-0.3v-0.4l0,0v-0.2l0,0l-1.1-13h7.8l1.1,7.4l0.8,5.5l0,0l0,0l0,0
	c0.1,0.6,0,1.2-0.1,1.8c0,0.1-0.1,0.2-0.1,0.3c-0.1,0.2-0.1,0.3-0.2,0.5c-0.1,0.3-0.3,0.5-0.5,0.7c-0.8,0.9-1.9,1.4-3.1,1.4h-0.2
	c-0.3,0-0.5,0-0.8-0.1C67.8,41.2,66.5,40,66.1,38.4z M64.3,37.9c0,0.2-0.1,0.5-0.2,0.7c0,0.1,0,0.1,0,0.2c-0.1,0.2-0.2,0.4-0.3,0.6
	c0,0.1-0.1,0.1-0.1,0.2c-0.1,0.2-0.2,0.3-0.4,0.5c-0.1,0.1-0.1,0.1-0.2,0.2c-0.1,0.1-0.3,0.2-0.4,0.3c-0.1,0.1-0.2,0.2-0.3,0.2
	c-0.1,0.1-0.2,0.1-0.4,0.2c-0.1,0.1-0.2,0.1-0.4,0.2c-0.2,0.1-0.3,0.1-0.5,0.2c-0.1,0-0.2,0.1-0.3,0.1c-0.3,0.1-0.6,0.1-0.9,0.1H60
	c-2.3,0-4.1-1.8-4.2-4v-0.3l0,0L55.4,24h7.8l0.9,10.2l0.3,2.9C64.4,37.3,64.4,37.6,64.3,37.9C64.3,37.8,64.3,37.9,64.3,37.9z
	 M54.2,38.2c0,0.1-0.1,0.2-0.1,0.3S54,38.8,54,38.9c-0.1,0.1-0.1,0.2-0.2,0.3c-0.1,0.1-0.1,0.2-0.2,0.3c-0.1,0.2-0.2,0.3-0.3,0.4
	c-0.1,0.1-0.1,0.1-0.2,0.2c-0.2,0.2-0.3,0.3-0.5,0.4l-0.1,0.1c-0.2,0.1-0.5,0.3-0.7,0.4l0,0c-0.5,0.2-1.1,0.3-1.6,0.3h-0.3
	c-0.8,0-1.5-0.2-2.1-0.6c-0.1,0-0.2-0.1-0.2-0.1c-0.1-0.1-0.2-0.2-0.3-0.2c-0.1-0.1-0.2-0.2-0.3-0.3s-0.2-0.2-0.3-0.4
	c-0.1-0.1-0.2-0.2-0.2-0.3s-0.1-0.2-0.1-0.2c-0.4-0.6-0.6-1.4-0.5-2.1l0,0l0.4-13.3h7.8l0.4,13.3c0,0.2,0,0.4,0,0.5
	C54.2,38,54.2,38.1,54.2,38.2z M44.2,37.5c0,0.6-0.1,1.1-0.4,1.6c-0.6,1.5-2.1,2.4-3.8,2.4h-0.2c-0.6,0-1.2-0.1-1.7-0.3
	s-1-0.6-1.4-1c-0.8-0.9-1.2-2-1.1-3.2l0,0l0.3-2.9l0.9-10.2h7.8l-0.4,13.3l0,0L44.2,37.5L44.2,37.5z M29.9,41.5h-0.2
	c-0.6,0-1.2-0.1-1.7-0.4c-0.5-0.2-1-0.6-1.4-1s-0.7-0.9-0.8-1.5c0,0,0,0,0-0.1c0-0.2-0.1-0.3-0.1-0.5c0-0.1-0.1-0.3-0.1-0.4
	c0-0.1,0-0.1,0-0.2c0-0.2,0-0.5,0-0.7l1.9-12.9h7.8l-1.1,13L34,37.7c-0.2,1.9-1.6,3.4-3.4,3.7C30.4,41.5,30.1,41.5,29.9,41.5z
	 M24.1,36.6L23.9,38c-0.2,1.5-1.2,2.7-2.6,3.3c-0.5,0.2-1,0.3-1.6,0.3c-0.9,0-1.8-0.3-2.6-0.9c-0.2-0.2-0.5-0.4-0.7-0.6
	c-0.8-1-1.1-2.2-0.9-3.5l0,0L18,24h7.8L24.1,36.6L24.1,36.6L24.1,36.6L24.1,36.6z M10.3,9.1V5.3c0-1.5,1.2-2.8,2.8-2.8H87
	c1.5,0,2.8,1.2,2.8,2.8v3.8c0,1.5-1.2,2.8-2.8,2.8h-5.1H18.1H13C11.5,11.9,10.3,10.6,10.3,9.1z M18.9,13.4h62.2v4.1H18.9V13.4z
	 M9,19.8C9,19.4,9.3,19,9.8,19h8.4H82h8.4c0.4,0,0.8,0.3,0.8,0.8v2.6h-8.5h-9.3h-9.3h-9.3h-9.3h-9.3h-9.3h-9.3H9V19.8z M6.3,39.9
	c-0.8-1-1.1-2.3-0.7-3.6l3.2-12.4h7.8l-0.4,2.2l-2.1,10.2l0,0L14,36.6l-0.3,1.6c-0.2,0.9-0.6,1.6-1.3,2.2c-0.7,0.7-1.7,1.1-2.8,1.1
	c-0.3,0-0.6,0-0.9-0.1c-0.1,0-0.1,0-0.2,0C7.7,41.2,6.9,40.7,6.3,39.9z M9.6,43.1h0.1c0.2,0,0.4,0,0.6-0.1c0.1,0,0.2,0,0.3,0
	c0.3-0.1,0.5-0.1,0.8-0.2c0.1,0,0.2-0.1,0.4-0.1c0.2-0.1,0.4-0.2,0.5-0.2c0.1-0.1,0.2-0.1,0.3-0.2c0.1-0.1,0.3-0.2,0.4-0.3
	c0.1-0.1,0.2-0.2,0.3-0.3s0.2-0.2,0.4-0.3c0.1-0.1,0.2-0.2,0.3-0.3s0.2-0.3,0.3-0.4c0.1-0.1,0.1-0.2,0.2-0.3l0.1-0.1
	c0.2,0.3,0.4,0.6,0.6,0.8c0,0,0,0.1,0.1,0.1l0,0l0,0c0,0.1,0.1,0.1,0.1,0.1c0.2,0.3,0.5,0.5,0.8,0.7c1,0.8,2.2,1.2,3.6,1.2
	c0.3,0,0.6,0,0.9-0.1c0.1,0,0.2,0,0.2-0.1c0.2,0,0.4-0.1,0.7-0.2c0.1,0,0.2-0.1,0.3-0.1c0.3-0.1,0.5-0.2,0.7-0.4
	c0.1,0,0.1-0.1,0.1-0.1c0.2-0.1,0.4-0.3,0.6-0.4c0.1-0.1,0.2-0.2,0.3-0.2c0.1-0.1,0.3-0.2,0.4-0.4c0.1-0.1,0.2-0.2,0.3-0.3
	c0.1-0.2,0.2-0.3,0.3-0.5c0-0.1,0.1-0.1,0.1-0.2c0.2,0.3,0.4,0.7,0.7,1c0.3,0.3,0.6,0.6,0.9,0.8c0,0,0.1,0,0.1,0.1
	c0.3,0.2,0.6,0.4,0.9,0.6c0.7,0.3,1.5,0.5,2.3,0.5h0.2c0.3,0,0.6,0,1-0.1c0.1,0,0.2,0,0.3-0.1c0.2,0,0.3-0.1,0.5-0.1
	c0.6-0.2,1.2-0.5,1.7-0.9l0,0c0.6-0.4,1-1,1.4-1.6c0,0,0-0.1,0.1-0.1l0,0c0.2,0.4,0.4,0.7,0.7,1c0.5,0.6,1.2,1,1.9,1.4
	c0.7,0.3,1.5,0.5,2.3,0.5H40c0.4,0,0.7,0,1-0.1c0.1,0,0.1,0,0.2,0c0.3-0.1,0.6-0.2,0.9-0.3l0,0c0.3-0.1,0.6-0.3,0.9-0.5
	c0.1,0,0.1-0.1,0.2-0.1c0.2-0.2,0.5-0.4,0.7-0.6c0,0,0,0,0.1-0.1c0.2-0.2,0.4-0.5,0.6-0.7l0.1-0.1c0.1-0.1,0.1-0.2,0.2-0.3
	c0,0,0,0.1,0.1,0.1c0.2,0.3,0.5,0.7,0.7,1l0,0l0,0l0,0c0.1,0.1,0.3,0.3,0.5,0.4c0.1,0.1,0.3,0.2,0.4,0.3c0,0,0.1,0,0.1,0.1
	c0.9,0.6,2,0.9,3.1,0.9h0.3c0.4,0,0.7,0,1-0.1c0.1,0,0.1,0,0.2,0c0.7-0.2,1.3-0.4,1.9-0.8c0,0,0.1,0,0.1-0.1
	c0.6-0.4,1.1-0.9,1.5-1.5c0-0.1,0.1-0.1,0.1-0.2l0.1-0.1c0.1,0.1,0.2,0.2,0.2,0.3c0,0,0,0.1,0.1,0.1c0.2,0.3,0.4,0.5,0.7,0.8l0,0
	c0.2,0.2,0.5,0.4,0.7,0.6c0.1,0,0.1,0.1,0.2,0.1c0.3,0.2,0.6,0.3,0.9,0.5l0,0c0.3,0.1,0.6,0.2,0.9,0.3c0.1,0,0.1,0,0.2,0
	c0.3,0.1,0.7,0.1,1,0.1h0.2c1.2,0,2.3-0.4,3.3-1c0.1-0.1,0.2-0.2,0.3-0.2c0.2-0.2,0.4-0.3,0.6-0.5l0,0l0,0c0.3-0.3,0.5-0.6,0.7-1
	c0,0,0,0,0-0.1l0,0c0.7,1.2,1.8,2.1,3.1,2.5c0.2,0.1,0.3,0.1,0.5,0.2c0.1,0,0.2,0,0.3,0.1c0.3,0.1,0.6,0.1,1,0.1h0.2
	c1.6,0,3.2-0.7,4.3-2l0,0l0,0l0.1-0.1c0.2-0.3,0.4-0.5,0.6-0.8c0.1,0.3,0.3,0.5,0.5,0.7c0.1,0.1,0.1,0.1,0.2,0.2
	c0.1,0.2,0.3,0.3,0.5,0.5c0.1,0.1,0.1,0.1,0.2,0.2c0.5,0.4,1,0.7,1.6,0.9c0.1,0,0.2,0.1,0.2,0.1c0.2,0.1,0.5,0.1,0.7,0.2
	c0.1,0,0.2,0,0.2,0c0.3,0.1,0.6,0.1,1,0.1s0.8,0,1.3-0.1l0,0c0.4-0.1,0.8-0.2,1.1-0.4c0.1,0,0.1-0.1,0.2-0.1
	c0.3-0.2,0.6-0.3,0.9-0.5c0.1-0.1,0.1-0.1,0.2-0.2c0.2-0.2,0.5-0.4,0.7-0.6c0,0,0,0,0-0.1l0,0c0.1-0.1,0.1-0.2,0.2-0.3
	c0.2-0.2,0.3-0.4,0.4-0.7l0.1,0.1c0.1,0.2,0.2,0.4,0.4,0.6c0.1,0.1,0.1,0.2,0.2,0.3c0.4,0.5,1,1,1.6,1.3c0.1,0.1,0.3,0.1,0.4,0.2
	c0.2,0.1,0.3,0.2,0.5,0.2c0.2,0.1,0.3,0.1,0.5,0.1s0.3,0.1,0.5,0.1s0.3,0,0.5,0c0.1,0,0.2,0,0.3,0c0.1,0,0.2,0,0.3,0
	c0.1,0,0.2,0,0.4,0v41.4H62.3V50.8c0-0.4-0.3-0.8-0.8-0.8H38.4c-0.4,0-0.8,0.3-0.8,0.8v33.6H9V43c0.2,0,0.3,0,0.5,0
	C9.5,43.1,9.6,43.1,9.6,43.1z M5.4,86h89.1v4.2H5.4V86z"/>
<path class="st1" d="M23.9,98c0.4,0,0.8-0.3,0.8-0.8s-0.3-0.8-0.8-0.8H9.1c-0.4,0-0.8,0.3-0.8,0.8S8.7,98,9.1,98H23.9z"/>
<path class="st1" d="M58.9,98c0.4,0,0.8-0.3,0.8-0.8s-0.3-0.8-0.8-0.8H31.5c-0.4,0-0.8,0.3-0.8,0.8S31,98,31.5,98H58.9z"/>
<path class="st1" d="M90.9,98c0.4,0,0.8-0.3,0.8-0.8s-0.3-0.8-0.8-0.8H67.5c-0.4,0-0.8,0.3-0.8,0.8S67,98,67.5,98H90.9z"/>
<path class="st2" d="M43,63.4h14c0.4,0,0.8-0.3,0.8-0.8v-7.2c0-0.4-0.3-0.8-0.8-0.8H43c-0.4,0-0.8,0.3-0.8,0.8v7.2
	C42.3,63.1,42.6,63.4,43,63.4z M43.8,56.2h12.4v5.7H43.8V56.2z"/>
<path class="st2" d="M69,72.2h15.3c0.4,0,0.8-0.3,0.8-0.8V56.1c0-0.4-0.3-0.8-0.8-0.8H69c-0.4,0-0.8,0.3-0.8,0.8v15.3
	C68.2,71.9,68.6,72.2,69,72.2z M69.8,64.6h6.1v6.1h-6.1V64.6z M77.4,70.7v-6.1h6.1v6.1H77.4z M83.5,63h-6.1v-6.1h6.1V63z M75.9,56.9
	V63h-6.1v-6.1H75.9z"/>
<path class="st2" d="M15.7,72.2H31c0.4,0,0.8-0.3,0.8-0.8V56.1c0-0.4-0.3-0.8-0.8-0.8H15.7c-0.4,0-0.8,0.3-0.8,0.8v15.3
	C14.9,71.9,15.3,72.2,15.7,72.2z M16.4,64.6h6.1v6.1h-6.1V64.6z M24.1,70.7v-6.1h6.1v6.1H24.1z M30.2,63h-6.1v-6.1h6.1V63z
	 M22.6,56.9V63h-6.1v-6.1H22.6z"/>
</svg>
