<?xml version="1.0" encoding="utf-8"?>
<!-- Generator: Adobe Illustrator 24.1.0, SVG Export Plug-In . SVG Version: 6.00 Build 0)  -->
<svg version="1.1" id="Layer_1" xmlns="http://www.w3.org/2000/svg" xmlns:xlink="http://www.w3.org/1999/xlink" x="0px" y="0px"
	 viewBox="0 0 14.7 15.2" style="enable-background:new 0 0 14.7 15.2;" xml:space="preserve">
<style type="text/css">
	.st0{fill:#282828;}
</style>
<g>
	<path class="st0" d="M7,15.2c4.2,0,7.7-3.4,7.7-7.6C14.7,3.4,11.2,0,7,0C3.9,0,1.2,1.8,0,4.6h1.2C2.3,2.4,4.5,1.1,7,1.1
		c3.7,0,6.6,2.9,6.6,6.5c0,3.7-2.9,6.6-6.6,6.6c-2.5,0-4.7-1.4-5.8-3.6H0C1.2,13.4,4,15.2,7,15.2z"/>
	<polygon class="st0" points="6.3,11.2 3.5,8.4 12,8.4 12,7.4 3.5,7.4 6.2,4.8 5.6,4.2 1.8,7.9 5.6,11.8 	"/>
</g>
</svg>
