<?xml version="1.0" encoding="utf-8"?>
<!-- Generator: Adobe Illustrator 22.0.1, SVG Export Plug-In . SVG Version: 6.00 Build 0)  -->
<svg version="1.1" id="Layer_1" xmlns="http://www.w3.org/2000/svg" xmlns:xlink="http://www.w3.org/1999/xlink" x="0px" y="0px"
	 viewBox="0 0 35 35" style="enable-background:new 0 0 35 35;" xml:space="preserve">
<style type="text/css">
	.st0{fill:#70CC2B;}
	.st1{fill:#FFFFFF;}
</style>
<path class="st0" d="M34.5,17.8C34.5,8.5,27,1,17.8,1C8.5,1,1,8.5,1,17.8C1,27,8.5,34.5,17.8,34.5C27,34.5,34.5,27,34.5,17.8"/>
<path class="st1" d="M26,13.8l-10,10c-0.3,0.3-0.7,0.5-1.1,0.5c-0.4,0-0.8-0.2-1.1-0.5l-4.4-4.4c-0.6-0.6-0.6-1.6,0-2.2
	c0.6-0.6,1.6-0.6,2.2,0l3.3,3.3l8.9-8.9c0.6-0.6,1.6-0.6,2.2,0C26.7,12.2,26.7,13.2,26,13.8z"/>
</svg>
