<?xml version="1.0" encoding="utf-8"?>
<!-- Generator: Adobe Illustrator 22.0.1, SVG Export Plug-In . SVG Version: 6.00 Build 0)  -->
<svg version="1.1" id="Layer_1" xmlns="http://www.w3.org/2000/svg" xmlns:xlink="http://www.w3.org/1999/xlink" x="0px" y="0px"
	 viewBox="0 0 50 50" style="enable-background:new 0 0 50 50;" xml:space="preserve">
<style type="text/css">
	.st0{fill:#F12300;}
	.st1{fill:#FFFFFF;}
</style>
<path class="st0" d="M25,0.5C11.4,0.5,0.5,11.4,0.5,25S11.4,49.5,25,49.5s24.5-11,24.5-24.5l0,0C49.5,11.4,38.5,0.5,25,0.5z"/>
<g>
	<path class="st1" d="M25,4.3C13.6,4.3,4.3,13.6,4.3,25S13.6,45.7,25,45.7S45.7,36.4,45.7,25l0,0C45.7,13.6,36.4,4.3,25,4.3z
		 M38.8,37.3L38,36.5c-0.4-0.4-1.2-0.4-1.6,0c-0.4,0.4-0.4,1.2,0,1.6l0.8,0.8c-3,2.7-6.9,4.4-11,4.5v-1.1c0-0.7-0.5-1.2-1.2-1.2
		s-1.2,0.5-1.2,1.2v1.1c-4.1-0.3-8-1.9-11-4.5l0.8-0.8c0.4-0.4,0.4-1.2,0-1.6c-0.4-0.4-1.2-0.4-1.6,0l-0.8,0.8
		c-2.7-3-4.4-6.9-4.5-11h1.1c0.7,0,1.2-0.5,1.2-1.2s-0.5-1.2-1.2-1.2H6.6c0.3-4.1,1.9-8,4.5-11l0.8,0.8c0.4,0.4,1.2,0.4,1.6,0
		s0.4-1.2,0-1.6l-0.8-0.8c3-2.7,6.9-4.4,11-4.5v1.1c0,0.7,0.5,1.2,1.2,1.2s1.2-0.5,1.2-1.2l0,0V6.7c4.1,0.3,8,1.9,11,4.5L36.3,12
		c-0.4,0.4-0.4,1.2,0,1.6c0.4,0.4,1.2,0.4,1.6,0l0.8-0.8c2.7,3,4.4,6.9,4.5,11h-0.9c-0.7,0-1.2,0.5-1.2,1.2s0.5,1.2,1.2,1.2h1.1
		C43.2,30.3,41.4,34.3,38.8,37.3L38.8,37.3z"/>
	<path class="st1" d="M32.4,31.2c0.5-0.5,0.6-1.1,0.1-1.5L25.8,23c-0.4-0.4-1.1-0.3-1.5,0.2l-7.4,7.4c-0.5,0.5-0.6,1.1-0.1,1.5
		c0.4,0.4,1.1,0.3,1.5-0.2l6.6-6.6l6,6C31.3,31.7,31.9,31.6,32.4,31.2L32.4,31.2z"/>
</g>
</svg>
