<?xml version="1.0" encoding="utf-8"?>
<!-- Generator: Adobe Illustrator 22.0.1, SVG Export Plug-In . SVG Version: 6.00 Build 0)  -->
<svg version="1.1" id="Layer_1" xmlns="http://www.w3.org/2000/svg" xmlns:xlink="http://www.w3.org/1999/xlink" x="0px" y="0px"
	 viewBox="0 0 53 48.7" style="enable-background:new 0 0 53 48.7;" xml:space="preserve">
<style type="text/css">
	.st0{fill:#EEEEEE;}
	.st1{fill:#282828;}
	.st2{fill:#0038BA;}
</style>
<g transform="translate(-1 -1)">
	<g transform="translate(14.917 15.771)">
		<path class="st0" d="M23.1,23.3c-1.9,2.1-5.2,2.3-7.4,0.4c-0.2-0.2-0.4-0.4-0.6-0.7l-6.5-8.7c-1.2-1.6-0.9-3.8,0.6-5
			c0,0,0,0,0.1,0c1.6-1.1,3.7-0.7,4.8,0.9c0,0,0,0,0,0l4.5,6c0.3,0.4,0.8,0.5,1.2,0.2c0,0,0.1-0.1,0.1-0.1l8.2-9.4
			c0.3-0.3,0.3-0.8,0-1.2c-6.4-6.4-16.9-6.5-23.3,0s-6.5,16.9,0,23.3s16.9,6.5,23.3,0c2.2-2.2,3.7-4.9,4.4-7.9
			c0.5-2.2,0.6-4.5,0.2-6.8c-0.1-0.5-0.6-0.8-1-0.7c-0.2,0-0.4,0.1-0.5,0.3L23.1,23.3z"/>
		<path class="st0" d="M19.1,23.3c-1,0-2-0.5-2.6-1.4l-6.5-8.7c-0.6-0.8-0.4-1.9,0.4-2.4c0.8-0.5,1.8-0.4,2.4,0.3l6.5,8.7L36,0.6
			c0.6-0.7,1.7-0.8,2.4-0.2c0.7,0.6,0.8,1.7,0.2,2.4c0,0,0,0,0,0.1L21.8,22.1C21.1,22.9,20.1,23.3,19.1,23.3L19.1,23.3z"/>
	</g>
	<path class="st1" d="M21,1C9.9,1,1,9.9,1,21s8.9,20,20,20S41,32,41,21l0,0C41,9.9,32,1,21,1z M21,39.2C10.9,39.2,2.7,31.1,2.7,21
		S10.9,2.7,21,2.7S39.2,10.9,39.2,21l0,0C39.2,31.1,31.1,39.2,21,39.2z"/>
	<path class="st2" d="M21,5.3c-8.6,0-15.6,7-15.6,15.6s7,15.6,15.6,15.6s15.6-7,15.6-15.6l0,0C36.6,12.3,29.6,5.3,21,5.3z
		 M31.4,30.2l-0.6-0.6c-0.3-0.3-0.9-0.3-1.2,0c-0.3,0.3-0.3,0.9,0,1.2l0.6,0.6c-2.3,2-5.2,3.3-8.3,3.4V34c0-0.5-0.4-0.9-0.9-0.9
		c-0.5,0-0.9,0.4-0.9,0.9v0.8c-3.1-0.2-6-1.4-8.3-3.4l0.6-0.6c0.3-0.3,0.3-0.9,0-1.2c-0.3-0.3-0.9-0.3-1.2,0l-0.6,0.6
		c-2-2.3-3.3-5.2-3.4-8.3h0.8c0.5,0,0.9-0.4,0.9-0.9c0-0.5-0.4-0.9-0.9-0.9H7.1c0.2-3.1,1.4-6,3.4-8.3l0.6,0.6
		c0.3,0.3,0.9,0.3,1.2,0c0.3-0.3,0.3-0.9,0-1.2l-0.6-0.6c2.3-2,5.2-3.3,8.3-3.4V8c0,0.5,0.4,0.9,0.9,0.9c0.5,0,0.9-0.4,0.9-0.9l0,0
		V7.1c3.1,0.2,6,1.4,8.3,3.4l-0.6,0.6c-0.3,0.3-0.3,0.9,0,1.2c0.3,0.3,0.9,0.3,1.2,0l0.6-0.6c2,2.3,3.3,5.2,3.4,8.3H34
		c-0.5,0-0.9,0.4-0.9,0.9c0,0.5,0.4,0.9,0.9,0.9h0.8C34.7,24.9,33.4,27.9,31.4,30.2L31.4,30.2z"/>
	<path class="st2" d="M21,11.4c-0.5,0-0.9,0.4-0.9,0.9v7.8h-7c-0.5,0-0.9,0.4-0.9,0.9c0,0.5,0.4,0.9,0.9,0.9H21
		c0.5,0,0.9-0.4,0.9-0.9v-8.7C21.9,11.8,21.5,11.4,21,11.4L21,11.4z"/>
</g>
</svg>
