<?xml version="1.0" encoding="utf-8"?>
<!-- Generator: Adobe Illustrator 24.2.3, SVG Export Plug-In . SVG Version: 6.00 Build 0)  -->
<svg version="1.1" id="Capa_1" xmlns="http://www.w3.org/2000/svg" xmlns:xlink="http://www.w3.org/1999/xlink" x="0px" y="0px"
	 viewBox="0 0 20 20" style="enable-background:new 0 0 20 20;" xml:space="preserve">
<style type="text/css">
	.st0{fill:#282828;}
</style>
<g>
	<path class="st0" d="M3.7,11.6c-0.3,0.2-0.6,0.6-0.6,1c0,0.6,0.5,1.2,1.2,1.2c0.5,0,0.9-0.3,1.1-0.8h3c0.6,0,1.2,0.5,1.2,1.2
		s-0.5,1.2-1.2,1.2H3.8c-1.1,0-2,0.9-2,2s0.9,2,2,2h3.9C7.9,19.2,8,19,8,18.8s-0.2-0.4-0.4-0.4H3.8c-0.6,0-1.2-0.5-1.2-1.2
		s0.5-1.2,1.2-1.2h4.7c1.1,0,2-0.9,2-2s-0.9-2-2-2h-3c-0.1-0.3-0.3-0.5-0.5-0.6l3-4.9C8.3,6,8.6,5.1,8.6,4.3C8.6,1.9,6.7,0,4.3,0
		S0,1.9,0,4.3C0,5.1,0.2,6,0.7,6.7L3.7,11.6z M4.3,13c-0.2,0-0.4-0.2-0.4-0.4c0-0.2,0.2-0.4,0.4-0.4s0.4,0.2,0.4,0.4
		C4.7,12.8,4.5,13,4.3,13z M4.3,0.8c1.9,0,3.5,1.6,3.5,3.5c0,0.7-0.2,1.4-0.6,2c0,0,0,0,0,0L4.3,11c0,0-2.9-4.8-2.9-4.8
		C1,5.7,0.8,5,0.8,4.3C0.8,2.4,2.4,0.8,4.3,0.8z"/>
	<path class="st0" d="M4.3,6.2c1.1,0,2-0.9,2-2s-0.9-2-2-2s-2,0.9-2,2S3.2,6.2,4.3,6.2z M4.3,3.1c0.6,0,1.2,0.5,1.2,1.2
		S4.9,5.5,4.3,5.5S3.1,4.9,3.1,4.3S3.7,3.1,4.3,3.1z"/>
	<path class="st0" d="M15.7,6.5c-2.4,0-4.3,1.9-4.3,4.3c0,0.9,0.2,1.7,0.7,2.4l3,4.7c-0.2,0.1-0.4,0.4-0.5,0.6h-3.4
		c-0.2,0-0.4,0.2-0.4,0.4s0.2,0.4,0.4,0.4h3.4c0.2,0.5,0.6,0.8,1.1,0.8c0.6,0,1.2-0.5,1.2-1.2c0-0.4-0.2-0.8-0.6-1l3-4.7
		c0.5-0.7,0.7-1.5,0.7-2.4C20,8.4,18.1,6.5,15.7,6.5L15.7,6.5z M15.7,19.2c-0.2,0-0.4-0.2-0.4-0.4s0.2-0.4,0.4-0.4s0.4,0.2,0.4,0.4
		S15.9,19.2,15.7,19.2z M18.6,12.7c0,0-2.9,4.6-2.9,4.6s-2.9-4.6-2.9-4.6c-0.4-0.6-0.6-1.3-0.6-2c0-1.9,1.6-3.5,3.5-3.5
		s3.5,1.6,3.5,3.5C19.2,11.5,19,12.2,18.6,12.7z"/>
	<path class="st0" d="M15.7,8.8c-1.1,0-2,0.9-2,2s0.9,2,2,2s2-0.9,2-2S16.8,8.8,15.7,8.8z M15.7,12c-0.6,0-1.2-0.5-1.2-1.2
		s0.5-1.2,1.2-1.2s1.2,0.5,1.2,1.2S16.3,12,15.7,12z"/>
	<circle class="st0" cx="9.4" cy="18.8" r="0.4"/>
</g>
</svg>
