<?xml version="1.0" encoding="utf-8"?>
<!-- Generator: Adobe Illustrator 24.2.3, SVG Export Plug-In . SVG Version: 6.00 Build 0)  -->
<svg version="1.1" id="_x31_" xmlns="http://www.w3.org/2000/svg" xmlns:xlink="http://www.w3.org/1999/xlink" x="0px" y="0px"
	 viewBox="0 0 80 80" style="enable-background:new 0 0 80 80;" xml:space="preserve">
<style type="text/css">
	.st0{fill:#06205E;}
</style>
<path class="st0" d="M58.3,71.7c-0.9,0-1.7-0.7-1.7-1.7v-3.3c0-0.9,0.7-1.7,1.7-1.7c0.9,0,1.7,0.7,1.7,1.7V70
	C60,70.9,59.3,71.7,58.3,71.7z"/>
<path class="st0" d="M59.2,68.3h-5.8c-0.9,0-1.7-0.7-1.7-1.7c0-0.9,0.7-1.7,1.7-1.7h5.8c1.4,0,2.5-1.1,2.5-2.5S60.5,60,59.2,60h-1.7
	c-3.2,0-5.8-2.6-5.8-5.8s2.6-5.8,5.8-5.8h5.8c0.9,0,1.7,0.7,1.7,1.7s-0.7,1.7-1.7,1.7h-5.8c-1.4,0-2.5,1.1-2.5,2.5s1.1,2.5,2.5,2.5
	h1.7c3.2,0,5.8,2.6,5.8,5.8S62.4,68.3,59.2,68.3z"/>
<path class="st0" d="M58.3,51.7c-0.9,0-1.7-0.7-1.7-1.7v-3.3c0-0.9,0.7-1.7,1.7-1.7c0.9,0,1.7,0.7,1.7,1.7V50
	C60,50.9,59.3,51.7,58.3,51.7z"/>
<path class="st0" d="M58.3,80c-11.9,0-21.7-9.7-21.7-21.7s9.7-21.7,21.7-21.7S80,46.4,80,58.3S70.3,80,58.3,80z M58.3,40
	C48.2,40,40,48.2,40,58.3s8.2,18.3,18.3,18.3s18.3-8.2,18.3-18.3S68.4,40,58.3,40z"/>
<path class="st0" d="M28.3,70h-20C3.7,70,0,66.3,0,61.7V8.3C0,3.7,3.7,0,8.3,0H45c4.6,0,8.3,3.7,8.3,8.3v20c0,0.9-0.7,1.7-1.7,1.7
	c-0.9,0-1.7-0.7-1.7-1.7v-20c0-2.8-2.2-5-5-5H8.3c-2.8,0-5,2.2-5,5v53.3c0,2.8,2.2,5,5,5h20c0.9,0,1.7,0.7,1.7,1.7
	C30,69.3,29.3,70,28.3,70z"/>
<path class="st0" d="M31.7,46.3c-0.9,0-1.7-0.7-1.7-1.7V18.3c0-0.9,0.7-1.7,1.7-1.7h10c0.9,0,1.7,0.7,1.7,1.7v15.1
	c0,0.9-0.7,1.7-1.7,1.7c-0.9,0-1.7-0.7-1.7-1.7V20h-6.7v24.6C33.3,45.6,32.6,46.3,31.7,46.3z"/>
<path class="st0" d="M21.7,50h-10c-0.9,0-1.7-0.7-1.7-1.7V31.7c0-0.9,0.7-1.7,1.7-1.7h10c0.9,0,1.7,0.7,1.7,1.7v16.7
	C23.3,49.3,22.6,50,21.7,50z M13.3,46.7H20V33.3h-6.7V46.7z"/>
<path class="st0" d="M30.1,50H8.3c-0.9,0-1.7-0.7-1.7-1.7c0-0.9,0.7-1.7,1.7-1.7h21.7c0.9,0,1.7,0.7,1.7,1.7
	C31.7,49.3,31,50,30.1,50z"/>
</svg>
