<?xml version="1.0" encoding="utf-8"?>
<!-- Generator: Adobe Illustrator 24.2.3, SVG Export Plug-In . SVG Version: 6.00 Build 0)  -->
<svg version="1.1" id="_x31_" xmlns="http://www.w3.org/2000/svg" xmlns:xlink="http://www.w3.org/1999/xlink" x="0px" y="0px"
	 viewBox="0 0 80 80" style="enable-background:new 0 0 80 80;" xml:space="preserve">
<style type="text/css">
	.st0{fill:#06205E;}
</style>
<path class="st0" d="M71.7,80H8.3C3.7,80,0,76.3,0,71.7V8.3C0,3.7,3.7,0,8.3,0h63.3C76.3,0,80,3.7,80,8.3v63.3
	C80,76.3,76.3,80,71.7,80z M8.3,3.3c-2.8,0-5,2.2-5,5v63.3c0,2.8,2.2,5,5,5h63.3c2.8,0,5-2.2,5-5V8.3c0-2.8-2.2-5-5-5H8.3z"/>
<g>
	<path class="st0" d="M63.1,63.3H16.9c-0.9,0-1.7-0.7-1.7-1.7V18.3c0-0.9,0.7-1.7,1.7-1.7s1.7,0.7,1.7,1.7V60h44.5
		c0.9,0,1.7,0.7,1.7,1.7C64.8,62.6,64,63.3,63.1,63.3z"/>
	<path class="st0" d="M23.6,53.3c-0.4,0-0.9-0.2-1.2-0.5c-0.6-0.6-0.6-1.7,0-2.4l11.7-11.7c0.5-0.5,1.3-0.6,1.9-0.3l5.6,2.8
		l10.8-10.8c0.7-0.7,1.7-0.7,2.4,0s0.6,1.7,0,2.4L43.1,44.5c-0.5,0.5-1.3,0.6-1.9,0.3L35.6,42L24.7,52.8
		C24.4,53.2,24,53.3,23.6,53.3L23.6,53.3z"/>
	<path class="st0" d="M53.6,43.3c-0.9,0-1.7-0.7-1.7-1.7v-8.3h-8.3c-0.9,0-1.7-0.7-1.7-1.7s0.7-1.7,1.7-1.7h10
		c0.9,0,1.7,0.7,1.7,1.7v10C55.2,42.6,54.5,43.3,53.6,43.3z"/>
</g>
</svg>
