<svg xmlns="http://www.w3.org/2000/svg" width="36.791" height="33.076" viewBox="0 0 36.791 33.076"><defs><style>.a{fill:#efefef;}.b{fill:#a4afc1;}.c{fill:#282828;}.d{fill:#0038ba;}</style></defs><g transform="translate(-108.347 -396.535)"><g transform="translate(108.347 396.535)"><path class="a" d="M1.091,15.731C4.862,21.788,4.313,27.9,6.13,30.82s7.312,8,20.739-.354S37.134,12.635,35.136,9.424C25.778-5.61-5.586,5,1.091,15.731Z" transform="translate(-0.167 -1.967)"/></g><g transform="translate(112.245 398.195)"><g transform="translate(25.458 25.709)"><g transform="translate(0 2.579)"><path class="b" d="M28.625,31h1.032v2.063H28.625Z" transform="translate(-28.625 -31)"/></g><g transform="translate(2.321)"><path class="b" d="M30.875,28.5h2.063v1.032H30.875Z" transform="translate(-30.875 -28.5)"/></g></g><g transform="translate(0 0)"><path class="b" d="M5.492,6.672A1.547,1.547,0,1,1,7.04,5.124,1.549,1.549,0,0,1,5.492,6.672Zm0-2.063a.516.516,0,1,0,.516.516A.517.517,0,0,0,5.492,4.609Z" transform="translate(-3.945 -3.577)"/></g></g><g transform="translate(116.2 386.434)"><path class="c" d="M21.163,433.46H.73a.73.73,0,1,1,0-1.46H21.163a.73.73,0,1,1,0,1.46Z" transform="translate(0 -397.026)"/><path class="c" d="M355.649,189.136a.73.73,0,0,1-.73-.73V177.46h-1.46v10.947a.73.73,0,1,1-1.46,0V176.73a.73.73,0,0,1,.73-.73h2.919a.73.73,0,0,1,.73.73v11.676A.73.73,0,0,1,355.649,189.136Z" transform="translate(-335.945 -152.702)"/><path class="c" d="M195.649,280.757a.73.73,0,0,1-.73-.73V273.46h-1.46v6.568a.73.73,0,1,1-1.46,0v-7.3a.73.73,0,0,1,.73-.73h2.919a.73.73,0,0,1,.73.73v7.3A.73.73,0,0,1,195.649,280.757Z" transform="translate(-183.243 -244.324)"/><path class="c" d="M35.649,189.136a.73.73,0,0,1-.73-.73V177.46H33.46v10.947a.73.73,0,0,1-1.46,0V176.73a.73.73,0,0,1,.73-.73h2.919a.73.73,0,0,1,.73.73v11.676A.73.73,0,0,1,35.649,189.136Z" transform="translate(-30.54 -152.702)"/><path class="d" d="M34.189,20.379a2.189,2.189,0,1,1,2.189-2.189A2.189,2.189,0,0,1,34.189,20.379Zm0-2.919a.73.73,0,1,0,.73.73A.73.73,0,0,0,34.189,17.46Z" transform="translate(-30.54)"/><path class="d" d="M194.189,116.379a2.189,2.189,0,1,1,2.189-2.189A2.189,2.189,0,0,1,194.189,116.379Zm0-2.919a.73.73,0,1,0,.73.73A.73.73,0,0,0,194.189,113.46Z" transform="translate(-183.243 -91.621)"/><path class="d" d="M354.189,20.379a2.189,2.189,0,1,1,2.189-2.189A2.189,2.189,0,0,1,354.189,20.379Zm0-2.919a.73.73,0,1,0,.73.73A.73.73,0,0,0,354.189,17.46Z" transform="translate(-335.945)"/><path class="d" d="M96.119,68.269a.73.73,0,0,1-.374-.1l-4.816-2.891a.73.73,0,0,1,.688-1.287c.021.011.041.023.061.037l4.816,2.891a.73.73,0,0,1-.375,1.354Z" transform="translate(-86.413 -45.715)"/><path class="d" d="M251.976,68.27a.73.73,0,0,1-.375-1.354l4.816-2.891a.73.73,0,0,1,.81,1.214c-.02.013-.04.025-.061.037l-4.816,2.891A.73.73,0,0,1,251.976,68.27Z" transform="translate(-239.788 -45.716)"/></g></g></svg>