<svg xmlns="http://www.w3.org/2000/svg" width="35.687" height="32.173" viewBox="0 0 35.687 32.173"><defs><style>.a{fill:#efefef;}.b{fill:#f3f3f1;}.c{fill:#d5dbe1;}.d{fill:#cbcbcb;}.e{fill:#a4afc1;}.f{fill:#0038ba;}.g{fill:#282828;}</style></defs><g transform="translate(-0.156 -1.876)"><path class="a" d="M34.928,20.591c-3.693-5.848-3.2-11.778-4.979-14.6s-7.138-7.714-20.1.473-9.84,17.35-7.882,20.45c9.166,14.515,39.5,4.031,32.964-6.327Z"/><path class="b" d="M7.75,13.25v11a1,1,0,0,0,1,1h13.5a2,2,0,0,0,2-2v-10Z"/><path class="c" d="M10,24.25v-11H7.75v11a1,1,0,0,0,1,1H11A1,1,0,0,1,10,24.25Z"/><path class="d" d="M6.75,9.75H9v3.5H6.75Z"/><path class="d" d="M9.5,6.75l-2.75,3H9l2.75-3Z"/><path class="d" d="M20,23.5a5.75,5.75,0,0,1,4.625-5.638A5.75,5.75,0,1,0,23.5,29.25a5.715,5.715,0,0,0,1.125-.112A5.75,5.75,0,0,1,20,23.5Z"/><path class="e" d="M7.783,2.876h2v1h-2Z" transform="translate(0.185 7.199) rotate(-45)"/><path class="e" d="M3.717,6.941h2v1h-2Z" transform="translate(-3.88 5.515) rotate(-45)"/><path class="e" d="M4.217,2.2h1v2h-1Z" transform="translate(-0.88 4.273) rotate(-45)"/><path class="e" d="M25.75,4.876a1.5,1.5,0,1,1,1.5-1.5A1.5,1.5,0,0,1,25.75,4.876Zm0-2a.5.5,0,1,0,.5.5A.5.5,0,0,0,25.75,2.876Z"/><path class="f" d="M22.5,26.25a.747.747,0,0,1-.53-.22l-1.75-1.75,1.061-1.061L22.462,24.4l2.722-3.142,1.134.982-3.25,3.75a.755.755,0,0,1-.54.259Z"/><path class="f" d="M23.5,30A6.5,6.5,0,1,1,30,23.5,6.508,6.508,0,0,1,23.5,30Zm0-11.5a5,5,0,1,0,5,5A5.006,5.006,0,0,0,23.5,18.5Z"/><path class="g" d="M15.25,26H8.75A1.752,1.752,0,0,1,7,24.25v-11a.75.75,0,0,1,.75-.75h16.5a.75.75,0,0,1,.75.75v2H23.5V14H8.5V24.25a.253.253,0,0,0,.25.25h6.5Z"/><path class="g" d="M13.75,15.5h4.5V17h-4.5Z"/><path class="g" d="M25.25,14H6.75A.75.75,0,0,1,6,13.25V9.75A.75.75,0,0,1,6.75,9h18.5a.75.75,0,0,1,.75.75v3.5A.75.75,0,0,1,25.25,14ZM7.5,12.5h17v-2H7.5Z"/><path class="g" d="M24.7,10.257,22.17,7.5H9.83L7.3,10.257,6.2,9.243l2.75-3A.75.75,0,0,1,9.5,6h13a.75.75,0,0,1,.553.243l2.75,3Z"/></g></svg>