<?xml version="1.0" encoding="utf-8"?>
<!-- Generator: Adobe Illustrator 22.0.1, SVG Export Plug-In . SVG Version: 6.00 Build 0)  -->
<svg version="1.1" id="Layer_1" xmlns="http://www.w3.org/2000/svg" xmlns:xlink="http://www.w3.org/1999/xlink" x="0px" y="0px"
	 viewBox="0 0 24 24" style="enable-background:new 0 0 24 24;" xml:space="preserve">
<style type="text/css">
	.st0{fill:#FFFFFF;}
</style>
<g>
	<g>
		<path class="st0" d="M22.6,9.5l-1.7-0.3c-0.2-0.6-0.4-1.1-0.7-1.6l1-1.4c0.4-0.6,0.3-1.4-0.2-1.9l-1.5-1.5c-0.3-0.3-0.6-0.4-1-0.4
			c-0.3,0-0.6,0.1-0.8,0.3l-1.4,1c-0.5-0.3-1.1-0.5-1.7-0.7l-0.3-1.6c-0.1-0.7-0.7-1.2-1.4-1.2h-2.1c-0.7,0-1.3,0.5-1.4,1.2L9.2,3.1
			C8.6,3.3,8.1,3.5,7.6,3.8l-1.4-1C6,2.6,5.7,2.5,5.4,2.5C5,2.5,4.6,2.7,4.4,3L2.9,4.4C2.4,4.9,2.3,5.7,2.7,6.3l1,1.4
			c-0.3,0.5-0.5,1-0.6,1.6L1.4,9.6C0.7,9.7,0.2,10.3,0.2,11v2.1c0,0.7,0.5,1.3,1.2,1.4l1.7,0.3c0.2,0.6,0.4,1.1,0.7,1.6l-1,1.4
			c-0.4,0.6-0.3,1.4,0.2,1.9l1.5,1.5c0.3,0.3,0.6,0.4,1,0.4c0.3,0,0.6-0.1,0.8-0.3l1.4-1c0.5,0.3,1,0.5,1.6,0.6l0.3,1.7
			c0.1,0.7,0.7,1.2,1.4,1.2h2c0.7,0,1.3-0.5,1.4-1.2l0.3-1.7c0.6-0.2,1.1-0.4,1.6-0.7l1.4,1c0.2,0.2,0.5,0.3,0.8,0.3l0,0
			c0.4,0,0.8-0.2,1-0.4l1.5-1.5c0.5-0.5,0.6-1.3,0.2-1.9l-1-1.4c0.3-0.5,0.5-1.1,0.7-1.6l1.7-0.3c0.7-0.1,1.2-0.7,1.2-1.4v-2
			C23.8,10.2,23.3,9.6,22.6,9.5z M22.5,13c0,0.1,0,0.1-0.1,0.1l-2.1,0.3c-0.3,0-0.5,0.2-0.5,0.5c-0.2,0.7-0.5,1.4-0.9,2.1
			c-0.1,0.2-0.1,0.5,0,0.7l1.2,1.7c0,0,0,0.1,0,0.2l-1.5,1.5h-0.1h-0.1l-1.7-1.2c-0.2-0.2-0.5-0.2-0.7,0c-0.6,0.4-1.3,0.7-2.1,0.9
			c-0.3,0.1-0.4,0.3-0.5,0.5l-0.3,2.1c0,0.1-0.1,0.1-0.1,0.1h-2c-0.1,0-0.1,0-0.1-0.1l-0.3-2.1c0-0.3-0.2-0.5-0.5-0.5
			c-0.7-0.2-1.4-0.5-2-0.8c-0.1-0.1-0.2-0.1-0.3-0.1c-0.1,0-0.3,0-0.4,0.1l-1.7,1.2c0,0,0,0-0.1,0H5.5L4,18.7c0,0,0-0.1,0-0.2
			l1.2-1.7c0.2-0.2,0.2-0.5,0-0.7c-0.4-0.6-0.7-1.3-0.9-2.1c-0.1-0.3-0.3-0.4-0.5-0.5l-2.1-0.4c-0.1,0-0.1-0.1-0.1-0.1v-2
			c0-0.1,0-0.1,0.1-0.1l2.1-0.3c0.3,0,0.5-0.2,0.5-0.5C4.4,9.3,4.7,8.6,5.1,8c0.1-0.2,0.1-0.5,0-0.7L3.8,5.5c0,0,0-0.1,0-0.2
			l1.5-1.5h0.1h0.1L7.2,5c0.2,0.2,0.5,0.2,0.7,0C8.5,4.7,9.2,4.4,10,4.3c0.3-0.1,0.4-0.3,0.5-0.5l0.4-2.1c0-0.1,0.1-0.1,0.1-0.1h2
			c0.1,0,0.1,0,0.1,0.1l0.3,2.1c0,0.3,0.2,0.5,0.5,0.5c0.7,0.2,1.5,0.5,2.1,0.9c0.2,0.1,0.5,0.1,0.7,0L18.4,4c0,0,0,0,0.1,0h0.1
			l1.5,1.5c0,0,0,0.1,0,0.2l-1.2,1.7c-0.2,0.2-0.2,0.5,0,0.7c0.4,0.6,0.7,1.3,0.9,2.1c0.1,0.3,0.3,0.4,0.5,0.5l2.1,0.3
			c0.1,0,0.1,0.1,0.1,0.1V13L22.5,13z"/>
	</g>
</g>
<g>
	<path class="st0" d="M10.2,8.2c0.3,0.3,0.5,0.8,0.5,1.4s-0.2,1-0.5,1.4s-0.8,0.5-1.3,0.5c-0.6,0-1-0.2-1.3-0.5S7,10.1,7,9.6
		s0.2-1,0.5-1.4s0.8-0.5,1.3-0.5C9.4,7.7,9.9,7.9,10.2,8.2z M15,8l-4.3,7.8H8.9L13.1,8H15z M8.4,10.1c0.1,0.1,0.2,0.2,0.4,0.2
		c0.2,0,0.3-0.1,0.4-0.2C9.4,10,9.5,9.8,9.5,9.6S9.4,9.1,9.3,9C9.2,8.9,9,8.8,8.9,8.8C8.7,8.8,8.5,8.9,8.4,9
		C8.3,9.1,8.3,9.3,8.3,9.6S8.3,10,8.4,10.1z M16.5,13.1c0.3,0.3,0.5,0.8,0.5,1.4c0,0.6-0.2,1-0.5,1.4s-0.8,0.5-1.3,0.5
		c-0.5,0-1-0.2-1.3-0.5s-0.5-0.8-0.5-1.4c0-0.6,0.2-1,0.5-1.4s0.8-0.5,1.3-0.5C15.7,12.6,16.1,12.7,16.5,13.1z M14.7,15
		c0.1,0.1,0.2,0.2,0.4,0.2c0.2,0,0.3-0.1,0.4-0.2c0.1-0.1,0.2-0.3,0.2-0.5c0-0.2-0.1-0.4-0.2-0.5c-0.1-0.1-0.2-0.2-0.4-0.2
		c-0.2,0-0.3,0.1-0.4,0.2c-0.1,0.1-0.2,0.3-0.2,0.5C14.6,14.7,14.6,14.9,14.7,15z"/>
</g>
</svg>
