<?xml version="1.0" encoding="utf-8"?>
<!-- Generator: Adobe Illustrator 24.2.3, SVG Export Plug-In . SVG Version: 6.00 Build 0)  -->
<svg version="1.1" id="Layer_1" xmlns="http://www.w3.org/2000/svg" xmlns:xlink="http://www.w3.org/1999/xlink" x="0px" y="0px"
	 viewBox="0 0 100 100" style="enable-background:new 0 0 100 100;" xml:space="preserve">
<style type="text/css">
	.st0{fill:#EFEFEF;}
	.st1{fill:#D6D6D6;}
	.st2{fill:#282828;}
	.st3{fill:#0038BA;}
</style>
<path class="st0" d="M77.6,89.7c-19.9,0-33.5,10.3-43.1,10.3S4.9,94.5,4.9,50.5S31.9,0,42.5,0C91.7,0,112.8,89.7,77.6,89.7z"/>
<path class="st1" d="M77.6,7.7h2.9v5.7h-2.9V7.7z"/>
<path class="st1" d="M84.1,16.3h5.7v2.9h-5.7V16.3z"/>
<path class="st2" d="M36.4,52.9h-10c-1.2,0-2.2-1-2.2-2.2v-10c0-1.2,1-2.2,2.2-2.2h10c1.2,0,2.2,1,2.2,2.2v10
	C38.5,51.9,37.6,52.9,36.4,52.9z M28.5,48.6h5.7v-5.7h-5.7V48.6z"/>
<path class="st2" d="M36.4,75.8h-10c-1.2,0-2.2-1-2.2-2.2v-10c0-1.2,1-2.2,2.2-2.2h10c1.2,0,2.2,1,2.2,2.2v10
	C38.5,74.9,37.6,75.8,36.4,75.8z M28.5,71.5h5.7v-5.7h-5.7V71.5z"/>
<path class="st2" d="M43.5,40h15.8v4.3H43.5V40z"/>
<path class="st3" d="M65.8,84.5c-10.3,0-18.7-8.4-18.7-18.7s8.4-18.7,18.7-18.7s18.7,8.4,18.7,18.7S76.1,84.5,65.8,84.5z M65.8,51.4
	c-7.9,0-14.4,6.4-14.4,14.4s6.4,14.4,14.4,14.4s14.4-6.4,14.4-14.4S73.7,51.4,65.8,51.4z"/>
<path class="st3" d="M62.9,73.7c-0.6,0-1.1-0.2-1.5-0.6l-5.7-5.7l3-3l4.1,4.1l8.5-9.7l3.2,2.8l-10,11.5
	C64.2,73.4,63.6,73.7,62.9,73.7C63,73.7,62.9,73.7,62.9,73.7z"/>
<path class="st2" d="M67.2,40.7h-4.3v-8.6c0-2-1.6-3.6-3.6-3.6h-5.4v-4.3h5.4c4.4,0,7.9,3.5,7.9,7.9V40.7z"/>
<path class="st2" d="M46.9,84.5H23.4c-4.4,0-7.9-3.5-7.9-7.9V32.1c0-4.4,3.5-7.9,7.9-7.9h5.4v4.3h-5.4c-2,0-3.6,1.6-3.6,3.6v44.5
	c0,2,1.6,3.6,3.6,3.6h23.4V84.5z"/>
<path class="st2" d="M50.7,34.2H32.1c-2.8,0-5-2.3-5-5v-5.7c0-1.2,1-2.2,2.2-2.2h4.6c0.9-3.3,4-5.7,7.6-5.7c3.6,0,6.7,2.4,7.6,5.7
	h4.6c1.2,0,2.2,1,2.2,2.2v5.7C55.7,32,53.5,34.2,50.7,34.2z M31.3,25.6v3.6c0,0.4,0.3,0.7,0.7,0.7h18.7c0.4,0,0.7-0.3,0.7-0.7v-3.6
	h-4.3c-1.2,0-2.2-1-2.2-2.2c0-2-1.6-3.6-3.6-3.6c-2,0-3.6,1.6-3.6,3.6c0,1.2-1,2.2-2.2,2.2H31.3z"/>
</svg>
