<?xml version="1.0" encoding="utf-8"?>
<!-- Generator: Adobe Illustrator 22.0.1, SVG Export Plug-In . SVG Version: 6.00 Build 0)  -->
<svg version="1.1" id="Layer_1" xmlns="http://www.w3.org/2000/svg" xmlns:xlink="http://www.w3.org/1999/xlink" x="0px" y="0px"
	 viewBox="0 0 24 24" style="enable-background:new 0 0 24 24;" xml:space="preserve">
<style type="text/css">
	.st0{fill:#FFFFFF;}
</style>
<g>
	<path class="st0" d="M10.4,0.3H1.2c-0.5,0-0.9,0.4-0.9,0.9v9.2c0,0.5,0.4,0.9,0.9,0.9h9.2c0.5,0,0.9-0.4,0.9-0.9V1.2
		C11.3,0.7,10.9,0.3,10.4,0.3z M9.4,9.4H2.1V2.1h7.3V9.4z"/>
	<path class="st0" d="M22.8,0.3h-9.2c-0.5,0-0.9,0.4-0.9,0.9v9.2c0,0.5,0.4,0.9,0.9,0.9h9.2c0.5,0,0.9-0.4,0.9-0.9V1.2
		C23.7,0.7,23.3,0.3,22.8,0.3z M21.9,9.4h-7.3V2.1h7.3V9.4z"/>
	<path class="st0" d="M18.3,21.9L18.3,21.9c-2,0-3.7-1.6-3.7-3.6v0c0-2,1.6-3.6,3.6-3.6h0c2,0,3.6,1.6,3.6,3.6v0
		C21.9,20.3,20.3,21.9,18.3,21.9z"/>
	<path class="st0" d="M10.4,12.7H1.2c-0.5,0-0.9,0.4-0.9,0.9v9.2c0,0.5,0.4,0.9,0.9,0.9h9.2c0.5,0,0.9-0.4,0.9-0.9v-9.2
		C11.3,13.1,10.9,12.7,10.4,12.7z M9.4,21.9H2.1v-7.3h7.3V21.9z"/>
</g>
</svg>
