<?xml version="1.0" encoding="utf-8"?>
<!-- Generator: Adobe Illustrator 21.1.0, SVG Export Plug-In . SVG Version: 6.00 Build 0)  -->
<svg version="1.1" id="Capa_1" xmlns="http://www.w3.org/2000/svg" xmlns:xlink="http://www.w3.org/1999/xlink" x="0px" y="0px"
	 viewBox="0 0 512 512" style="enable-background:new 0 0 512 512;" xml:space="preserve">
<style type="text/css">
	.st0{fill:#282828;stroke:#FFFFFF;stroke-miterlimit:10;}
	.st1{fill:#0038BA;}
	.st2{fill:#282828;}
</style>
<g>
	<g>
		<path class="st0" d="M457.3,408c5.5-7.6,8.7-16.9,8.7-26.9V321c0-5.5-4.5-10-10-10h-44.7c-20.7,0-37.5,16.8-37.5,37.5v32.6
			c0,10,3.2,19.3,8.7,26.9c-6.8,1.1-13.4,3.3-19.5,6.5c-13.9-20.7-36.7-35-62.8-37.4c-0.1,0-0.2,0-0.3-0.1
			c9.4-10.5,15.1-24.2,15.1-39.3V256c0-5.5-4.5-10-10-10h-60.7c-26.1,0-47.3,21.2-47.3,47.3v44.3c0,15.1,5.7,28.9,15.1,39.3
			c-0.1,0-0.2,0-0.3,0.1c-26.2,2.4-48.9,16.7-62.8,37.4c-6.1-3.2-12.7-5.4-19.5-6.5c5.5-7.6,8.7-16.9,8.7-26.9v-60
			c0-5.5-4.5-10-10-10H83.4c-20.7,0-37.5,16.8-37.5,37.5v32.6c0,10.1,3.2,19.4,8.7,26.9C23.7,413.1,0,440,0,472.4V502
			c0,5.5,4.5,10,10,10h492c5.5,0,10-4.5,10-10v-29.6C512,440,488.3,413.1,457.3,408z M65.9,348.5c0-9.6,7.8-17.5,17.5-17.5h34.7
			v12.2c0,6-4.9,10.8-10.8,10.8H65.9V348.5z M65.9,374h41.3c3.8,0,7.5-0.7,10.8-2v9.1c0,14.4-11.7,26.1-26.1,26.1
			s-26.1-11.7-26.1-26.1L65.9,374L65.9,374z M98.4,427.2l-6.4,6.4l-6.4-6.4H98.4z M134.6,461.7V492H20v-19.6
			c0-22.4,16.4-41.1,37.9-44.6L85,454.9c1.9,1.9,4.4,2.9,7.1,2.9s5.2-1.1,7.1-2.9l27.1-27.1c4.8,0.8,9.4,2.3,13.7,4.6
			C136.4,441.5,134.6,451.4,134.6,461.7z M256,376.7c-21.5,0-39-17.5-39-39v-13.2h59.8c6.6,0,12.9-1.7,18.3-4.7v17.9
			C295,359.2,277.5,376.7,256,376.7z M273.4,396.7L256,414.1l-17.4-17.4H273.4z M217,293.3L217,293.3c0-15.1,12.3-27.3,27.3-27.3
			H295v20.1c0,10.1-8.2,18.3-18.3,18.3H217V293.3L217,293.3z M357.4,492H338H174h-19.4v-20h65.1c5.5,0,10-4.5,10-10s-4.5-10-10-10
			h-64.4c4.3-28.4,27-50.9,55.6-54.7l38,38c2,2,4.5,2.9,7.1,2.9s5.1-1,7.1-2.9l38-38c31.8,4.3,56.3,31.5,56.3,64.4L357.4,492
			L357.4,492z M393.9,348.5c0-9.6,7.8-17.5,17.5-17.5h34.7v12.2c0,6-4.9,10.8-10.8,10.8H394v-5.5H393.9z M393.9,374h41.3
			c3.8,0,7.5-0.7,10.8-2v9.1c0,14.4-11.7,26.1-26.1,26.1s-26.1-11.7-26.1-26.1L393.9,374L393.9,374z M426.4,427.2l-6.4,6.4l-6.4-6.4
			H426.4z M377.4,492v-30.3c0-10.3-1.9-20.2-5.2-29.4c4.3-2.3,8.9-3.8,13.7-4.6l27.1,27.1c1.9,1.9,4.4,2.9,7.1,2.9s5.2-1.1,7.1-2.9
			l27.1-27.1c21.5,3.5,37.9,22.2,37.9,44.6V492H377.4z"/>
	</g>
</g>
<g>
	<g>
		<path class="st1" d="M263.1,454.9c-1.9-1.9-4.4-2.9-7.1-2.9s-5.2,1.1-7.1,2.9s-2.9,4.4-2.9,7.1s1.1,5.2,2.9,7.1
			c1.9,1.9,4.4,2.9,7.1,2.9s5.2-1.1,7.1-2.9c1.9-1.9,2.9-4.4,2.9-7.1S264.9,456.8,263.1,454.9z"/>
	</g>
</g>
<path class="st1" d="M256,2.3c-60.6,0-109.8,49.1-109.8,109.7S195.3,221.8,256,221.8c60.6,0,109.8-49.1,109.8-109.7
	C365.6,51.5,316.5,2.4,256,2.3z M256,201.8c-49.6,0-89.8-40.2-89.8-89.8s40.2-89.8,89.8-89.8s89.8,40.2,89.8,89.8
	C345.7,161.5,305.5,201.8,256,201.8z"/>
<path class="st2" d="M316.1,104.1h-52.2V52c0-4.4-3.6-7.9-7.9-7.9s-7.9,3.6-7.9,7.9v52.1H196c-4.4,0-7.9,3.6-7.9,7.9
	s3.6,7.9,7.9,7.9h52.1V172c0,4.4,3.6,7.9,7.9,7.9s7.9-3.6,7.9-7.9v-52.1H316c4.4,0,7.9-3.6,7.9-7.9S320.5,104.1,316.1,104.1z"/>
</svg>
