<?xml version="1.0" encoding="utf-8"?>
<!-- Generator: Adobe Illustrator 22.0.1, SVG Export Plug-In . SVG Version: 6.00 Build 0)  -->
<svg version="1.1" id="Layer_1" xmlns="http://www.w3.org/2000/svg" xmlns:xlink="http://www.w3.org/1999/xlink" x="0px" y="0px"
	 viewBox="0 0 28 28" style="enable-background:new 0 0 28 28;" xml:space="preserve">
<style type="text/css">
	.st0{fill:#FFFFFF;}
	.st1{fill:#282828;}
	.st2{fill:#0038BA;}
</style>
<rect x="2" y="2" class="st0" width="23.9" height="23.9"/>
<g id="Check_List">
	<path class="st1" d="M16.5,8.3h0.8c0.5,0,0.8,0.4,0.8,0.8v3.7h0.6V9.1c0-0.8-0.6-1.4-1.4-1.4h-0.8c0-0.2-0.1-0.3-0.3-0.3h-3
		c0.3-0.3,0.3-0.9-0.1-1.2C12.8,6,12.3,6,12,6.3c-0.3,0.3-0.3,0.8,0,1.1H9c-0.2,0-0.3,0.1-0.3,0.3H7.8c-0.8,0-1.4,0.6-1.4,1.4v11.4
		c0,0.8,0.6,1.4,1.4,1.4h10.5v-0.6H7.9C7.4,21.4,7,21,7,20.5V9.1c0-0.5,0.4-0.8,0.8-0.8h0.8v0.3c0,0.5,0.4,0.8,0.8,0.8h6.1
		c0.5,0,0.8-0.4,0.8-0.8V8.3z M12.6,6.6c0.2,0,0.3,0.1,0.3,0.3s-0.1,0.3-0.3,0.3c-0.2,0-0.3-0.1-0.3-0.3S12.4,6.6,12.6,6.6z M9.2,8
		h6.7v0.6c0,0.2-0.1,0.3-0.3,0.3H9.5c-0.2,0-0.3-0.1-0.3-0.3V8z"/>
	<path class="st2" d="M21,14.4h-6.7c-0.3,0-0.6,0.3-0.6,0.6v4.9c0,0.3,0.3,0.6,0.6,0.6H21c0.3,0,0.6-0.3,0.6-0.6v-4.9
		C21.6,14.6,21.3,14.4,21,14.4z M21,15.9h-2.3v-1H21V15.9z M18.1,14.9v1.5h-1v-1.5H18.1z M16.6,14.9v1h-2.3v-1H16.6z M14.3,19.8
		v-3.3h2.3v0.3c0,0.2,0.1,0.3,0.3,0.3h1.5c0.2,0,0.3-0.1,0.3-0.3v-0.3H21v3.3H14.3z"/>
	<path class="st2" d="M11.5,12.5h-0.6v0.6H9.2v-1.7h1.4v-0.6H9c-0.2,0-0.3,0.1-0.3,0.3v2.2c0,0.2,0.1,0.3,0.3,0.3h2.2
		c0.2,0,0.3-0.1,0.3-0.3V12.5z"/>
	<path class="st1" d="M11.2,15.5H9c-0.2,0-0.3,0.1-0.3,0.3V18c0,0.2,0.1,0.3,0.3,0.3h2.2c0.2,0,0.3-0.1,0.3-0.3v-2.2
		C11.5,15.6,11.3,15.5,11.2,15.5z M10.9,17.7H9.2V16h1.7V17.7z"/>
	<path class="st2" d="M11.5,10.9l-1.2,1.2l-0.6-0.6l-0.4,0.4l0.8,0.8c0.1,0.1,0.3,0.1,0.4,0l1.4-1.4L11.5,10.9z"/>
	<rect x="12.6" y="12.8" class="st2" width="2.2" height="0.6"/>
	<rect x="12.6" y="11.7" class="st2" width="2.2" height="0.6"/>
</g>
</svg>
