<?xml version="1.0" encoding="utf-8"?>
<!-- Generator: Adobe Illustrator 22.0.1, SVG Export Plug-In . SVG Version: 6.00 Build 0)  -->
<svg version="1.1" id="Layer_1" xmlns="http://www.w3.org/2000/svg" xmlns:xlink="http://www.w3.org/1999/xlink" x="0px" y="0px"
	 viewBox="0 0 24 24" style="enable-background:new 0 0 24 24;" xml:space="preserve">
<style type="text/css">
	.st0{fill:#FFFFFF;}
</style>
<g>
	<path class="st0" d="M12.3,0.3C5.7,0.3,0.4,5.6,0.4,12.1S5.7,24,12.3,24v-1.5c-4.1,0-7.6-2.4-9.3-5.8c0.7,0.1,1.4,0.1,2,0.1
		c1.6,0,2.6-0.3,3.3-0.8c0.9-0.8,1-1.9,1-2.9c0.1-1.2,0.1-2,1.1-2.6c3.3-2,3-6.7,2.7-8.8c1.2,0.1,2.4,0.4,3.5,0.9
		c-0.4,1.6-1.3,6-0.6,7.5c0.5,1,1.4,1.2,2.4,1.6c0.7,0.2,1.5,0.5,2.4,1l0.7-1.3c-1-0.6-1.9-0.8-2.6-1.1c-0.9-0.3-1.3-0.4-1.5-0.8
		c-0.3-0.7,0-3.5,0.6-6.1c2.8,1.9,4.7,5,4.7,8.7h1.5C24.2,5.6,18.8,0.3,12.3,0.3z M9.7,9.3c-1.7,1-1.8,2.6-1.8,3.8
		c0,0.9-0.1,1.4-0.5,1.8c-0.7,0.6-2.4,0.6-5,0.3c-0.3-1-0.5-2-0.5-3c0-5.5,4.3-10,9.8-10.4C11.9,3.4,12.3,7.7,9.7,9.3z"/>
	<path class="st0" d="M19,13.6c-2,0-3.7,1.7-3.7,3.7c0,3.2,3.1,6.3,3.2,6.5c0.1,0.1,0.3,0.2,0.5,0.2s0.4-0.1,0.5-0.2
		c0.1-0.1,3.2-3.2,3.2-6.5C22.7,15.3,21,13.6,19,13.6z M19,22.1c-0.8-1-2.2-2.9-2.2-4.8c0-1.2,1-2.2,2.2-2.2s2.2,1,2.2,2.2
		C21.2,19.2,19.8,21.2,19,22.1z"/>
	<rect x="18.2" y="16.6" class="st0" width="1.5" height="1.5"/>
</g>
</svg>
