<?xml version="1.0" encoding="utf-8"?>
<!-- Generator: Adobe Illustrator 22.0.1, SVG Export Plug-In . SVG Version: 6.00 Build 0)  -->
<svg version="1.1" id="Layer_1" xmlns="http://www.w3.org/2000/svg" xmlns:xlink="http://www.w3.org/1999/xlink" x="0px" y="0px"
	 viewBox="0 0 24 24" style="enable-background:new 0 0 24 24;" xml:space="preserve">
<style type="text/css">
	.st0{fill:#FFFFFF;stroke:#FFFFFF;stroke-width:0.25;stroke-miterlimit:10;}
</style>
<g id="Speed">
	<path class="st0" d="M20,18.7c-0.3-0.2-0.6-0.1-0.8,0.2c-0.2,0.3-0.1,0.6,0.2,0.8l2,1.2l0,0c0.3,0.2,0.6,0.1,0.8-0.2
		c3.3-5.6,1.3-12.9-4.3-16.1S5.1,3.2,1.8,8.9c-2.1,3.7-2.1,8.2,0,11.8C2,21,2.3,21.1,2.6,20.9c0,0,0,0,0,0l2-1.2
		c0.3-0.2,0.4-0.5,0.2-0.8c-0.2-0.3-0.5-0.4-0.8-0.2c0,0,0,0,0,0l-1.5,0.9c-0.7-1.3-1-2.7-1.1-4.2h1.7c0.3,0,0.6-0.3,0.6-0.6
		c0-0.3-0.3-0.6-0.6-0.6H1.4c0.1-1.5,0.5-2.9,1.1-4.2L4,10.9c0.3,0.2,0.6,0.1,0.8-0.2C5,10.4,4.9,10,4.6,9.9c0,0,0,0,0,0L3.1,9
		C3.9,7.8,5,6.7,6.2,5.9l0.9,1.5c0.2,0.3,0.5,0.4,0.8,0.2c0.3-0.2,0.4-0.5,0.2-0.8c0,0,0,0,0,0L7.2,5.3c1.3-0.7,2.7-1,4.2-1.1V6
		c0,0.3,0.3,0.6,0.6,0.6s0.6-0.3,0.6-0.6V4.2c1.5,0.1,2.9,0.5,4.2,1.1l-0.9,1.5c-0.2,0.3-0.1,0.6,0.2,0.8c0.3,0.2,0.6,0.1,0.8-0.2
		c0,0,0,0,0,0l0.9-1.5C19,6.7,20.1,7.8,20.9,9l-1.5,0.9c-0.3,0.2-0.4,0.5-0.2,0.8c0.2,0.3,0.5,0.4,0.8,0.2c0,0,0,0,0,0l1.5-0.9
		c0.7,1.3,1,2.7,1.1,4.2h-1.7c-0.3,0-0.6,0.3-0.6,0.6c0,0.3,0.3,0.6,0.6,0.6h1.7c-0.1,1.5-0.5,2.9-1.1,4.2L20,18.7z"/>
	<path class="st0" d="M14,11.8c0-0.3-0.3-0.5-0.7-0.5c-0.2,0-0.3,0.1-0.4,0.2C12.5,12,9.1,16.7,8.8,18c-0.1,0.5-0.1,1,0,1.5
		C8.9,19.8,9,20,9.1,20.2c0.8,1.4,2.6,1.9,4,1c0.7-0.4,1.2-1.1,1.3-1.8C14.9,18.1,14.1,12.4,14,11.8z M13.2,19.1
		c-0.1,0.6-0.6,1-1.1,1.2c-0.9,0.2-1.7-0.3-2-1.1c-0.1-0.3-0.1-0.6,0-0.8c0,0,0,0,0,0c0.2-0.9,1.1-1.4,2-1.2
		C12.9,17.4,13.4,18.2,13.2,19.1z"/>
</g>
</svg>
