<?xml version="1.0" encoding="utf-8"?>
<!-- Generator: Adobe Illustrator 22.0.1, SVG Export Plug-In . SVG Version: 6.00 Build 0)  -->
<svg version="1.1" id="Layer_1" xmlns="http://www.w3.org/2000/svg" xmlns:xlink="http://www.w3.org/1999/xlink" x="0px" y="0px"
	 viewBox="0 0 24 24" style="enable-background:new 0 0 24 24;" xml:space="preserve">
<style type="text/css">
	.st0{fill:#FFFFFF;}
	.st1{fill:none;stroke:#FFFFFF;stroke-width:2;stroke-linecap:round;stroke-linejoin:round;}
</style>
<g id="XMLID_1_">
	<g id="XMLID_2_">
		<g id="XMLID_3_">
			<path id="XMLID_4_" class="st0" d="M8.4,22.3c-0.8,0-0.7,1.4,0,1.4c1.1,0,14.8,0,14.8,0c1.2,0,1-1.4,0-1.4h-0.5V9.6
				c0-0.5-0.4-1-1-1l0,0c-0.5,0-1,0.4-1,1v12.1c0,0.4-0.3,0.7-0.7,0.7h-2c-0.4,0-0.7-0.3-0.7-0.7V15c0-0.5-0.4-1-1-1l0,0
				c-0.5,0-1,0.4-1,1v6.6c0,0.4-0.3,0.7-0.7,0.7h-2c-0.4,0-0.7-0.3-0.7-0.7V19c0-0.5-0.4-1-1-1l0,0c-0.5,0-1,0.4-1,1v3.2
				C9.9,22.3,8.9,22.3,8.4,22.3z"/>
		</g>
	</g>
</g>
<g>
	<path class="st1" d="M11.1,14.2H5.7c-2.4,0-4.4,2-4.4,4.4v2.2"/>
	<circle class="st1" cx="8.9" cy="6" r="4.4"/>
</g>
</svg>
