<?xml version="1.0" encoding="utf-8"?>
<!-- Generator: Adobe Illustrator 22.0.1, SVG Export Plug-In . SVG Version: 6.00 Build 0)  -->
<svg version="1.1" id="Layer_1" xmlns="http://www.w3.org/2000/svg" xmlns:xlink="http://www.w3.org/1999/xlink" x="0px" y="0px"
	 viewBox="0 0 24 24" style="enable-background:new 0 0 24 24;" xml:space="preserve">
<style type="text/css">
	.st0{fill:#FFFFFF;}
</style>
<g>
	<path class="st0" d="M18.7,10.8c0.7-1.5,1.1-3,1.1-3.9c0-3.7-3.1-6.9-6.9-6.9C9.2,0,6,3.1,6,6.9c0,1.5,1.1,4.2,2.4,6.5L0,12v11.1
		l8.8,0.6l9.6-1.9l5.5,1.5V12.2L18.7,10.8z M10.1,16.2c1,1.7,1.9,3.1,2.1,3.4l0.7,1.1l0.7-1.1c0.3-0.5,2.2-3.3,3.7-6.3v7l-7.8,1.4
		L10.1,16.2z M12.9,1.7c2.8,0,5.2,2.3,5.2,5.2c0,2.2-3.2,7.7-5.2,10.8C11,14.6,7.8,9,7.8,6.8C7.8,4,10.1,1.7,12.9,1.7z M1.8,13.9
		L8.4,15l-0.6,6.7l-6-0.2V13.9z M22.1,21.3l-3-1.1v-7.6l3,1.1V21.3z"/>
	<path class="st0" d="M16.2,6.8c0-1.8-1.4-3.3-3.3-3.3c-1.8,0-3.3,1.4-3.3,3.3s1.4,3.3,3.3,3.3C14.8,10,16.2,8.6,16.2,6.8z
		 M11.4,6.8c0-0.8,0.7-1.6,1.6-1.6c0.9,0,1.6,0.7,1.6,1.6c0,0.8-0.7,1.6-1.6,1.6C12.1,8.4,11.4,7.6,11.4,6.8z"/>
</g>
</svg>
