<?xml version="1.0" encoding="utf-8"?>
<!-- Generator: Adobe Illustrator 22.0.1, SVG Export Plug-In . SVG Version: 6.00 Build 0)  -->
<svg version="1.1" id="Layer_1" xmlns="http://www.w3.org/2000/svg" xmlns:xlink="http://www.w3.org/1999/xlink" x="0px" y="0px"
	 viewBox="0 0 113.5 56.7" style="enable-background:new 0 0 113.5 56.7;" xml:space="preserve">
<style type="text/css">
	.st0{fill:#FFFFFF;}
	.st1{fill:#282828;}
	.st2{fill:none;stroke:#FFFFFF;stroke-width:1.5;stroke-miterlimit:10;}
</style>
<g id="Group_117" transform="translate(28.003 -161.625)">
	<g id="Group_116" transform="translate(-28.003 162.375)">
		<path id="Path_142" class="st0" d="M39.2,28.2c2.5,2.8,3.9,6.5,3.8,10.2c0,3.1-0.8,6.1-2.5,8.7c-1.8,2.8-4.4,5-7.5,6.4
			c-3.9,1.7-8.1,2.5-12.4,2.4c-3.8,0-7.6-0.5-11.2-1.5C6,53.6,2.8,52.1,0,50.2l4.9-9.6c2.2,1.6,4.6,2.8,7.1,3.6
			c2.7,0.8,5.5,1.3,8.3,1.3c2.6,0.1,5.2-0.5,7.4-1.8c1.7-1.1,2.8-3.1,2.7-5.1c0-4.4-3.4-6.7-10.1-6.7h-5.7v-8.3L25.7,11h-23V0.9
			h37.8V9L28.3,22.9C33.1,23.7,36.7,25.5,39.2,28.2z"/>
		<rect id="Rectangle_23" x="2.3" y="14" class="st0" width="110.5" height="23.6"/>
		<path id="Path_143" class="st1" d="M12.3,34.4c-1.1-0.3-2.2-0.8-3.1-1.5l1.4-3.1c0.8,0.6,1.7,1,2.7,1.3c1,0.3,2.1,0.5,3.1,0.5
			c0.9,0.1,1.8-0.1,2.6-0.5c0.5-0.3,0.8-0.8,0.8-1.4c0-0.4-0.2-0.8-0.5-1.1c-0.4-0.3-0.8-0.5-1.3-0.7c-0.5-0.2-1.2-0.4-2.1-0.6
			c-1.1-0.3-2.2-0.6-3.3-1c-0.9-0.3-1.6-0.8-2.2-1.5c-0.6-0.8-1-1.8-0.9-2.8c0-1,0.3-2,0.8-2.8c0.6-0.9,1.5-1.6,2.5-2
			c1.3-0.5,2.7-0.8,4.1-0.7c1.1,0,2.2,0.1,3.3,0.4c1,0.2,2,0.6,2.8,1.2l-1.3,3.1c-1.5-0.9-3.2-1.4-4.9-1.4c-0.9-0.1-1.8,0.1-2.5,0.6
			c-0.5,0.3-0.8,0.9-0.8,1.5c0,0.6,0.4,1.1,0.9,1.4c0.9,0.4,1.9,0.7,2.9,0.9c1.1,0.3,2.2,0.6,3.3,1c0.8,0.3,1.6,0.8,2.2,1.5
			c0.6,0.8,1,1.8,0.9,2.8c0,1-0.3,2-0.8,2.8c-0.6,0.9-1.5,1.6-2.5,2c-1.3,0.5-2.7,0.8-4.1,0.7C15,35,13.7,34.8,12.3,34.4L12.3,34.4z
			"/>
		<path id="Path_144" class="st1" d="M51.7,31.4v3.3H38V16.9h13.4v3.3h-9.3v3.8h8.2v3.2h-8.2v4.1L51.7,31.4z"/>
		<path id="Path_145" class="st1" d="M66.3,16.9h4.1v14.4h8.9v3.3h-13V16.9z"/>
		<path id="Path_146" class="st1" d="M92.9,16.9H97v14.4h8.9v3.3H92.9V16.9z"/>
		<path id="Path_147" class="st0" d="M47.5,50.9c-0.6-0.2-1.2-0.5-1.7-0.9l0.5-1.2c0.4,0.4,1,0.7,1.5,0.9c0.6,0.2,1.2,0.3,1.9,0.3
			c0.7,0,1.3-0.1,1.9-0.4c0.4-0.3,0.6-0.7,0.6-1.2c0-0.3-0.1-0.6-0.3-0.9c-0.2-0.2-0.5-0.4-0.9-0.5c-0.3-0.1-0.8-0.3-1.4-0.4
			c-0.6-0.1-1.3-0.3-1.9-0.6c-0.5-0.2-0.9-0.5-1.2-0.9c-0.4-0.5-0.5-1-0.5-1.6c0-0.5,0.1-1.1,0.4-1.5c0.3-0.5,0.8-0.9,1.3-1.1
			c0.7-0.3,1.4-0.4,2.2-0.4c0.6,0,1.2,0.1,1.8,0.2c0.5,0.1,1.1,0.4,1.5,0.7l-0.5,1.2c-0.4-0.3-0.9-0.5-1.4-0.6
			c-0.5-0.1-1-0.2-1.4-0.2c-0.7,0-1.3,0.1-1.9,0.5c-0.4,0.3-0.6,0.7-0.6,1.2c0,0.3,0.1,0.6,0.4,0.9c0.3,0.2,0.5,0.4,0.9,0.5
			c0.5,0.2,0.9,0.3,1.4,0.4c0.6,0.1,1.3,0.3,1.9,0.6c0.5,0.2,0.9,0.5,1.2,0.9c0.4,0.4,0.5,1,0.5,1.6c0,0.5-0.1,1.1-0.4,1.5
			c-0.3,0.5-0.8,0.9-1.3,1.1c-0.7,0.3-1.5,0.4-2.2,0.4C48.9,51.3,48.2,51.2,47.5,50.9L47.5,50.9z"/>
		<path id="Path_148" class="st0" d="M62.5,40.7h1.5v10.4h-1.5V40.7z"/>
		<path id="Path_149" class="st0" d="M80.1,51.2L77,46.9l-3,4.3h-1.7l3.9-5.4l-3.6-5.1h1.7l2.9,4l2.9-4h1.6l-3.6,5l3.9,5.4
			L80.1,51.2L80.1,51.2z"/>
		<path id="Path_150" class="st0" d="M91.7,42h-3.5v-1.3h8.5V42h-3.5v9.1h-1.5L91.7,42L91.7,42z"/>
		<path id="Path_151" class="st0" d="M108.8,47.6v3.6h-1.5v-3.6l-4.1-6.8h1.6l3.3,5.5l3.3-5.5h1.5L108.8,47.6z"/>
		<circle id="Ellipse_232" class="st2" cx="107.1" cy="5.6" r="5.6"/>
	</g>
</g>
</svg>
