<svg xmlns="http://www.w3.org/2000/svg" width="35.338" height="32.171" viewBox="0 0 35.338 32.171"><defs><style>.a{fill:#efefef;}.b{fill:#a4afc1;}.c{fill:#f3f3f1;}.d{fill:#d5dbe1;}.e{fill:#0038ba;}.f{fill:#282828;}</style></defs><g transform="translate(-0.584 -2)"><path class="a" d="M4.219,27.991c0-7.018-3.635-11.837-3.635-15.218S2.528,2.29,18.084,2.29s17.839,9.554,17.839,13.273C35.923,32.98,4.219,40.419,4.219,27.991Z" transform="translate(0 0.004)"/><path class="b" d="M29.875,2H30.89V4.029H29.875Z" transform="translate(0.426)"/><path class="b" d="M32.125,5h2.029V6.015H32.125Z" transform="translate(0.458 0.044)"/><path class="c" d="M27.548,29.461H8.779A2.029,2.029,0,0,1,6.75,27.432V14.75H29.577V27.432A2.029,2.029,0,0,1,27.548,29.461Z" transform="translate(0.09 0.185)"/><path class="d" d="M11.062,8.75H8.779A2.029,2.029,0,0,0,6.75,10.779v4.058H9.033V10.779A2.029,2.029,0,0,1,11.062,8.75Z" transform="translate(0.09 0.098)"/><path class="d" d="M12.033,24.33V19.765a1.015,1.015,0,0,1,1.015-1.015H10.765A1.015,1.015,0,0,0,9.75,19.765V24.33a1.015,1.015,0,0,0,1.015,1.015h2.283A1.015,1.015,0,0,1,12.033,24.33Z" transform="translate(0.133 0.243)"/><path class="d" d="M9.033,27.432V14.75H6.75V27.432a2.029,2.029,0,0,0,2.029,2.029h2.283A2.029,2.029,0,0,1,9.033,27.432Z" transform="translate(0.09 0.185)"/><path class="e" d="M15.341,26.116H10.775A1.777,1.777,0,0,1,9,24.341V19.775A1.777,1.777,0,0,1,10.775,18h4.565a1.777,1.777,0,0,1,1.775,1.775v4.565A1.777,1.777,0,0,1,15.341,26.116Zm-4.565-6.594a.254.254,0,0,0-.254.254v4.565a.254.254,0,0,0,.254.254h4.565a.254.254,0,0,0,.254-.254V19.775a.254.254,0,0,0-.254-.254Z" transform="translate(0.122 0.233)"/><path class="e" d="M22.787,25.083a.76.76,0,0,1-.569-.256l-2.029-2.283,1.137-1.01,1.421,1.6,2.989-3.843,1.2.934L23.387,24.79a.76.76,0,0,1-.575.293h-.024Z" transform="translate(0.285 0.251)"/><path class="f" d="M27.559,30.32H8.79A2.792,2.792,0,0,1,6,27.53V10.79A2.792,2.792,0,0,1,8.79,8H27.559a2.792,2.792,0,0,1,2.79,2.79V27.53A2.792,2.792,0,0,1,27.559,30.32ZM8.79,9.522A1.27,1.27,0,0,0,7.522,10.79V27.53A1.27,1.27,0,0,0,8.79,28.8H27.559a1.27,1.27,0,0,0,1.268-1.268V10.79a1.27,1.27,0,0,0-1.268-1.268Z" transform="translate(0.079 0.087)"/><path class="f" d="M6.75,14H29.577v1.522H6.75Z" transform="translate(0.09 0.174)"/><path class="f" d="M11,6h1.522v6.087H11Z" transform="translate(0.151 0.058)"/><path class="f" d="M23.5,6h1.522v6.087H23.5Z" transform="translate(0.333 0.058)"/></g></svg>