<?xml version="1.0" encoding="utf-8"?>
<!-- Generator: Adobe Illustrator 22.0.1, SVG Export Plug-In . SVG Version: 6.00 Build 0)  -->
<svg version="1.1" id="Layer_1" xmlns="http://www.w3.org/2000/svg" xmlns:xlink="http://www.w3.org/1999/xlink" x="0px" y="0px"
	 viewBox="0 0 24 24" style="enable-background:new 0 0 24 24;" xml:space="preserve">
<style type="text/css">
	.st0{fill:#FFFFFF;}
	.st1{fill:#FFFFFF;stroke:#FFFFFF;stroke-width:2;stroke-linecap:round;stroke-linejoin:round;}
</style>
<g>
	<g>
		<g>
			<path class="st0" d="M24,10.1c0-0.3-0.2-0.6-0.5-0.6l-1.6-0.3l-0.8-2L22,5.8c0.2-0.2,0.2-0.6,0-0.8l-2.8-2.8
				C19,2,18.6,2,18.4,2.2L17.1,3l-2-0.8l-0.3-1.6c0-0.3-0.3-0.5-0.6-0.5h-2c-0.4,0-0.6,0.3-0.6,0.6s0.3,0.6,0.6,0.6h1.5l0.1,1.5
				c0,0.2,0.2,0.4,0.4,0.5l2.6,1.1c0.2,0.1,0.4,0.1,0.6-0.1l1.1-0.8l2.1,2.1l-0.8,1.1c-0.1,0.2-0.2,0.4-0.1,0.6l1.1,2.6
				c0.1,0.2,0.3,0.4,0.5,0.4l1.4,0.2v2.9l-1.4,0.2c-0.2,0-0.4,0.2-0.5,0.4l-1.1,2.6c-0.1,0.2-0.1,0.4,0.1,0.6l0.8,1.1l-2.1,2.1
				l-1.1-0.8c-0.2-0.1-0.4-0.2-0.6-0.1l-2.6,1.1c-0.2,0.1-0.4,0.3-0.4,0.5l-0.2,1.4h-1.4c-0.4,0-0.6,0.3-0.6,0.6s0.2,0.7,0.6,0.7h2
				c0.3,0,0.6-0.2,0.6-0.5l0.3-1.6l2-0.8l1.3,0.9c0.3,0.2,0.6,0.2,0.8-0.1L22,19c0.2-0.2,0.2-0.6,0.1-0.8l-1-1.3l0.8-2l1.6-0.3
				c0.3,0,0.5-0.3,0.5-0.6V10.1z"/>
		</g>
	</g>
	<g>
		<g>
			<path class="st0" d="M12.2,16.1c-0.3,0-0.6,0.3-0.6,0.6c0,0.4,0.3,0.6,0.6,0.6l0,0c0.4,0,0.6-0.3,0.6-0.7
				C12.8,16.5,12.5,16.1,12.2,16.1z"/>
		</g>
	</g>
	<g>
		<g>
			<path class="st0" d="M12.2,6.5c-0.4,0-0.6,0.3-0.6,0.6c-0.1,0.4,0.2,0.7,0.6,0.7c2.3,0,4.2,1.9,4.2,4.2c0,1.6-0.9,3-2.2,3.7
				c-0.3,0.2-0.4,0.5-0.3,0.9c0.1,0.2,0.3,0.3,0.6,0.3c0.1,0,0.2,0,0.3-0.1c1.8-0.9,2.9-2.8,2.9-4.8C17.6,9.1,15.2,6.5,12.2,6.5z"/>
		</g>
	</g>
</g>
<g>
	<g>
		<path class="st1" d="M0,15h10"/>
	</g>
	<path class="st1" d="M0,21h10"/>
	<g>
		<path class="st1" d="M0,3h10"/>
	</g>
	<path class="st1" d="M0,9h10"/>
</g>
</svg>
