<?xml version="1.0" encoding="utf-8"?>
<!-- Generator: Adobe Illustrator 22.0.1, SVG Export Plug-In . SVG Version: 6.00 Build 0)  -->
<svg version="1.1" id="Capa_1" xmlns="http://www.w3.org/2000/svg" xmlns:xlink="http://www.w3.org/1999/xlink" x="0px" y="0px"
	 viewBox="0 0 512 512" style="enable-background:new 0 0 512 512;" xml:space="preserve">
<style type="text/css">
	.st0{fill:#282828;}
	.st1{fill:#0038BA;}
</style>
<g>
	<g>
		<path class="st0" d="M293,135H189c-5.5,0-10,4.5-10,10s4.5,10,10,10h104c5.5,0,10-4.5,10-10S298.5,135,293,135z"/>
	</g>
</g>
<g>
	<g>
		<path class="st0" d="M273,183h-84c-5.5,0-10,4.5-10,10s4.5,10,10,10h84c5.5,0,10-4.5,10-10S278.5,183,273,183z"/>
	</g>
</g>
<g>
	<g>
		<path class="st0" d="M263.1,45.9c-1.9-1.9-4.4-2.9-7.1-2.9s-5.2,1.1-7.1,2.9S246,50.4,246,53s1.1,5.2,2.9,7.1
			c1.9,1.9,4.4,2.9,7.1,2.9s5.2-1.1,7.1-2.9c1.9-1.9,2.9-4.4,2.9-7.1S264.9,47.8,263.1,45.9z"/>
	</g>
</g>
<g>
	<g>
		<path class="st0" d="M439.2,39h-96.4c-11-10.5-26-17-42.4-17h-8.8C285,8.7,271.3,0,256,0s-29,8.7-35.7,22h-8.8
			c-16.4,0-31.3,6.5-42.4,17H72.8C45.9,39,24,60.9,24,87.8v375.5c0,26.9,21.9,48.8,48.8,48.8h366.5c26.9,0,48.8-21.9,48.8-48.8V87.8
			C488,60.9,466.1,39,439.2,39z M211.5,42h15.6c4.5,0,8.4-3,9.6-7.3C239.1,26,247,20,256,20s16.9,6,19.3,14.7
			c1.2,4.3,5.1,7.3,9.6,7.3h15.6c21.7,0,39.6,16.8,41.4,38H170.1C171.9,58.8,189.8,42,211.5,42z M468,463.2
			c0,15.9-12.9,28.8-28.8,28.8H72.8C56.9,492,44,479.1,44,463.2V87.8C44,71.9,56.9,59,72.8,59h82.3c-3.3,7.5-5.1,15.8-5.1,24.5V90
			c0,5.5,4.5,10,10,10h192c5.5,0,10-4.5,10-10v-6.5c0-8.7-1.8-17-5.1-24.5h82.4c15.9,0,28.8,12.9,28.8,28.8L468,463.2L468,463.2z"/>
	</g>
</g>
<g>
	<g>
		<path class="st0" d="M434.1,138c-3.9-3.9-10.2-3.9-14.1,0l-42.8,42.8L364,167.6c-3.9-3.9-10.2-3.9-14.1,0s-3.9,10.2,0,14.1
			l20.2,20.2c2,2,4.5,2.9,7.1,2.9s5.1-1,7.1-2.9l49.8-49.8C438,148.2,438,141.9,434.1,138z"/>
	</g>
</g>
<g>
	<g>
		<path class="st0" d="M141,135H93c-5.5,0-10,4.5-10,10v48c0,5.5,4.5,10,10,10h48c5.5,0,10-4.5,10-10v-48
			C151,139.5,146.5,135,141,135z M131,183h-28v-28h28V183z"/>
	</g>
</g>
<path class="st1" d="M307.8,354.7h-43.2v-43.2c0-4.8-3.9-8.6-8.6-8.6s-8.6,3.9-8.6,8.6v43.2h-43.2c-4.8,0-8.6,3.9-8.6,8.6
	s3.9,8.6,8.6,8.6h43.2v43.2c0,4.8,3.9,8.6,8.6,8.6s8.6-3.9,8.6-8.6V372h43.2c4.8,0,8.6-3.9,8.6-8.6S312.6,354.7,307.8,354.7z"/>
<g>
	<path class="st1" d="M138.3,354.3c-0.2,3-0.5,6-0.5,9.1c0,3.7,0.2,7.3,0.6,11c0.1,1.4,0.4,2.9,0.5,4.3c0.3,2.1,0.6,4.2,1,6.3
		c0.3,1.8,0.7,3.5,1.1,5.3c0.4,1.6,0.8,3.2,1.2,4.8c0.5,1.9,1.1,3.9,1.7,5.8c0.4,1.3,0.9,2.5,1.4,3.8c0.8,2.1,1.6,4.2,2.4,6.2
		c0.3,0.6,0.6,1.2,0.9,1.8c2.4,5.3,5.2,10.4,8.3,15.2c0.1,0.1,0.2,0.3,0.2,0.4c1.3,2,2.8,3.9,4.2,5.9c0.5,0.7,1,1.4,1.5,2.1
		l17.6,18.2c20.5,17,46.8,27.3,75.4,27.3c65.1,0,118.1-53,118.1-118.1c0-28.6-10.3-54.9-27.3-75.4l-18.2-17.6
		c-0.7-0.5-1.4-1-2.1-1.5c-1.9-1.4-3.8-2.9-5.8-4.2c-0.2-0.1-0.4-0.3-0.6-0.4c-4.7-3-9.6-5.7-14.7-8.1c-0.7-0.3-1.4-0.7-2.1-1
		c-2-0.9-4-1.6-6.1-2.4c-1.3-0.5-2.6-1-3.9-1.4c-1.9-0.6-3.8-1.2-5.7-1.7c-1.6-0.5-3.3-0.9-4.9-1.3c-1.7-0.4-3.5-0.8-5.2-1.1
		c-2.1-0.4-4.2-0.7-6.3-1c-1.4-0.2-2.8-0.4-4.3-0.5c-3.6-0.4-7.3-0.6-11-0.6c-55.7,0-102.5,38.9-114.9,90.9L138.3,354.3z M256,463.3
		c-25.6,0-49-9.8-66.7-25.7c-2.2-2-4.3-4-6.3-6.2c-0.4-0.5-0.9-1-1.3-1.4c-1.9-2.1-3.7-4.3-5.4-6.6c-0.4-0.5-0.8-1-1.2-1.6
		c-1.7-2.3-3.3-4.7-4.7-7.2c-0.3-0.5-0.6-1-0.9-1.5c-1.5-2.6-2.8-5.2-4.1-7.9c-0.2-0.4-0.4-0.8-0.6-1.3c-1.3-2.8-2.4-5.7-3.4-8.6
		c-0.1-0.4-0.3-0.7-0.4-1.1c-1-3-1.8-6-2.5-9c-0.1-0.4-0.2-0.7-0.3-1.1c-0.7-3-1.1-6.1-1.5-9.1c-0.1-0.4-0.1-0.8-0.2-1.3
		c-0.4-3.5-0.6-7-0.6-10.5c0-55.1,44.9-100,100-100c3.5,0,7.1,0.2,10.6,0.6c0.4,0,0.8,0.1,1.2,0.2c3.1,0.4,6.2,0.8,9.2,1.5
		c0.3,0.1,0.7,0.2,1,0.3c3.1,0.7,6.1,1.5,9.1,2.5c0.3,0.1,0.7,0.2,1,0.4c2.9,1,5.8,2.1,8.7,3.4c0.4,0.2,0.8,0.4,1.2,0.6
		c2.7,1.3,5.4,2.6,8,4.1c0.5,0.3,0.9,0.6,1.4,0.9c2.5,1.5,4.9,3.1,7.3,4.8c0.5,0.4,1,0.7,1.5,1.1c2.3,1.7,4.5,3.6,6.7,5.5
		c0.5,0.4,0.9,0.8,1.3,1.2c2.2,2,4.3,4.2,6.3,6.4c15.9,17.7,25.7,41,25.7,66.6C356,418.5,311.1,463.3,256,463.3z"/>
</g>
</svg>
