<?xml version="1.0" encoding="utf-8"?>
<!-- Generator: Adobe Illustrator 24.1.0, SVG Export Plug-In . SVG Version: 6.00 Build 0)  -->
<svg version="1.1" id="Layer_1" xmlns="http://www.w3.org/2000/svg" xmlns:xlink="http://www.w3.org/1999/xlink" x="0px" y="0px"
	 viewBox="0 0 14.1 15.2" style="enable-background:new 0 0 14.1 15.2;" xml:space="preserve">
<style type="text/css">
	.st0{fill:#282828;}
</style>
<g>
	<polygon class="st0" points="13.1,12.9 12.6,13.7 12.6,14.6 12,14.6 11.9,14.6 11.5,15.2 13.6,15.2 13.6,14.7 13.1,14.7 	"/>
	<path class="st0" d="M9.8,14.6H2v-2.2h1.1v-0.5H1.5v2.7H0.9v-3.3h6.5c-0.1-0.2-0.2-0.3-0.2-0.5H2.5V6.2c0.1,0,0.2-0.1,0.2-0.2
		C3,6.3,3.4,6.5,3.8,6.5c0.4,0,0.7-0.2,0.9-0.5C5.2,6.5,6,6.6,6.5,6.2C6.6,6.1,6.8,6,6.8,6c0.4,0.5,1.1,0.6,1.7,0.3
		c0.2-0.2,0.5-0.4,0.8-0.5C9.1,5.7,9,5.5,9,5.4c0,0,0,0,0-0.1V4.5h0.1h1.5v0.7c0,0,0,0.1,0,0.1c0.1,0,0.2,0,0.3,0c0.1,0,0.2,0,0.2,0
		c0,0,0-0.1,0-0.1c0,0,0,0,0-0.1V4.5h1.6v0.7c0,0.2-0.1,0.3-0.2,0.4c0.1,0.1,0.3,0.1,0.4,0.2c0.1-0.2,0.2-0.5,0.2-0.7V4.2l-1.6-3.2
		h-0.4V0H2.5v1.1H2.1L0.5,4.2v1.1c0,0.4,0.2,0.7,0.5,1.1v4.5H0.4v3.8H0v0.5h10.2L9.8,14.6z M2,10.9H1.5V6.5H2V10.9z M4.5,5.3
		C4.5,5.7,4.2,6,3.8,6c0,0,0,0-0.1,0C3.4,6.1,3.1,5.7,3,5.3V4.5h1.6V5.3z M4.5,4H3.1l0.8-2.5L5,1.6L4.5,4z M6.5,5.3
		C6.5,5.7,6.2,6,5.8,6c0,0,0,0-0.1,0C5.4,6.1,5,5.7,5,5.3V4.5h1.6V5.3z M6.5,4H5.1l0.4-2.5h1.1V4z M8.7,5.3c0,0.4-0.3,0.7-0.7,0.8
		c-0.5,0-0.8-0.3-0.8-0.7c0,0,0,0,0-0.1V4.5h1.6V5.3z M7.1,4.1V1.6H8l0.4,2.5H7.1z M9,4.1L8.5,1.6h1.1l0.8,2.5H9z M11.2,1.6L12.5,4
		h-1.4l-0.9-2.4H11.2z M3,0.5h7.6v0.5H3V0.5z M2.3,1.6h1.1L2.5,4H1.2L2.3,1.6z M0.9,5.3V4.5h1.6v0.7C2.5,5.7,2.2,6,1.8,6
		c0,0,0,0-0.1,0C1.3,6.1,0.9,5.7,0.9,5.3z"/>
</g>
<path class="st0" d="M13.2,6.9C12.6,6.3,11.7,6,10.9,6C10,6,9.2,6.4,8.6,7c-1.2,1.2-1.3,3.1-0.3,4.5l2.6,3.6l2.6-3.7
	C14.5,10,14.3,8.1,13.2,6.9z M10.7,10.4C10,10.3,9.5,9.8,9.5,9.1c0-0.7,0.5-1.4,1.3-1.4c0.7,0,1.3,0.6,1.3,1.4
	C12,9.9,11.5,10.4,10.7,10.4z"/>
</svg>
