<?xml version="1.0" encoding="utf-8"?>
<!-- Generator: Adobe Illustrator 22.0.1, SVG Export Plug-In . SVG Version: 6.00 Build 0)  -->
<svg version="1.1" id="Layer_1" xmlns="http://www.w3.org/2000/svg" xmlns:xlink="http://www.w3.org/1999/xlink" x="0px" y="0px"
	 viewBox="0 0 24 24" style="enable-background:new 0 0 24 24;" xml:space="preserve">
<style type="text/css">
	.st0{fill:#FFFFFF;}
</style>
<g>
	<g>
		<path class="st0" d="M19.4,19.4c-4,4-10.3,4.1-14.4,0.4h3.3v-1.4H3.5l0,0H2.6v1l0,0v4.8H4v-3.4c2.3,2.1,5.1,3.1,8,3.1
			c3.1,0,6.1-1.2,8.4-3.5l0.5-0.5l-1-1L19.4,19.4z"/>
		<path class="st0" d="M20-0.2v3.4c-2.3-2.1-5.1-3.1-8-3.1c-3,0-6.1,1.2-8.4,3.5L3.1,4.1l1,1l0.5-0.5c4-4,10.3-4.1,14.4-0.4h-3.3
			v1.4h4.8l0,0h0.9v-1l0,0v-4.8C21.4-0.2,20-0.2,20-0.2z"/>
	</g>
</g>
<g>
	<path class="st0" d="M17.7,7.4l-5.5-1.9c-0.1,0-0.2,0-0.3,0L6.3,7.4C5.8,7.6,5.9,7.9,5.9,7.9v7.8c0,0.2,0.1,0.4,0.3,0.5l5.6,2.2
		c0.1,0,0.3,0,0.4,0l5.6-2.2c0.2-0.1,0.3-0.3,0.3-0.5V7.9C18.2,7.8,18.1,7.6,17.7,7.4z M12,6.8l3.8,1.3L12,9.4L8.2,8.1L12,6.8z
		 M7.1,15.2V9l4.3,1.6v6.2L7.1,15.2z M17,15.2l-4.3,1.6v-6.2L17,9.1C17,9.1,17,15.2,17,15.2z"/>
</g>
</svg>
