<?xml version="1.0" encoding="utf-8"?>
<!-- Generator: Adobe Illustrator 22.0.1, SVG Export Plug-In . SVG Version: 6.00 Build 0)  -->
<svg version="1.1" id="Layer_1" xmlns="http://www.w3.org/2000/svg" xmlns:xlink="http://www.w3.org/1999/xlink" x="0px" y="0px"
	 viewBox="0 0 35 35" style="enable-background:new 0 0 35 35;" xml:space="preserve">
<style type="text/css">
	.st0{fill:#0038BA;}
	.st1{fill:#FFFFFF;}
</style>
<path class="st0" d="M34.8,17.5C34.8,8,27,0.2,17.5,0.2C8,0.2,0.2,8,0.2,17.5C0.2,27,8,34.8,17.5,34.8C27,34.8,34.8,27,34.8,17.5"/>
<g>
	<g>
		<g>
			<path class="st1" d="M17.4,12.8V16h-2.8v-3.3h-1.5v4c0,0.4,0.3,0.8,0.8,0.8h4.3c0.4,0,0.8-0.3,0.8-0.8v-4H17.4z"/>
		</g>
	</g>
	<g>
		<g>
			<path class="st1" d="M27.1,8H11c-0.2,0-0.4,0.1-0.5,0.2l-3,4c-0.1,0.1-0.2,0.3-0.2,0.5v13.5c0,0.4,0.3,0.8,0.8,0.8H24
				c0.2,0,0.4-0.1,0.5-0.2l3-3c0.1-0.1,0.2-0.3,0.2-0.5V8.8C27.8,8.3,27.5,8,27.1,8z M26.3,22.9l-2.6,2.6h-15V13.1l2.6-3.6h15
				L26.3,22.9L26.3,22.9z"/>
		</g>
	</g>
	<g>
		<g>
			<path class="st1" d="M26.5,8.2L23.7,12H7.9v1.5H24c0.2,0,0.4-0.1,0.5-0.2l3-4L26.5,8.2z"/>
		</g>
	</g>
	<g>
		<g>
			<rect x="23.3" y="12.8" class="st1" width="1.5" height="13.5"/>
		</g>
	</g>
</g>
</svg>
