<?xml version="1.0" encoding="utf-8"?>
<!-- Generator: Adobe Illustrator 22.0.1, SVG Export Plug-In . SVG Version: 6.00 Build 0)  -->
<svg version="1.1" id="Layer_1" xmlns="http://www.w3.org/2000/svg" xmlns:xlink="http://www.w3.org/1999/xlink" x="0px" y="0px"
	 viewBox="0 0 28 28" style="enable-background:new 0 0 28 28;" xml:space="preserve">
<style type="text/css">
	.st0{fill:#0038BA;}
	.st1{fill:#A4FCC4;}
</style>
<g id="Group_1348" transform="translate(-246.335 -1037.88)">
	<g id="box_3_" transform="translate(253.191 1046.435)">
		<g id="Group_1310">
			<g id="Group_1307">
				<path id="Path_3114" class="st0" d="M3.8,9c0-0.3-0.2-0.5-0.5-0.5l0,0h-4C-1,8.5-1.2,8.8-1.2,9c0,0.3,0.2,0.5,0.5,0.5h4
					C3.5,9.5,3.8,9.3,3.8,9z"/>
				<path id="Path_3115" class="st0" d="M-0.8,11.3c-0.3,0-0.5,0.2-0.5,0.5s0.2,0.5,0.5,0.5H2c0.3,0,0.5-0.2,0.5-0.5
					S2.3,11.3,2,11.3H-0.8z"/>
				<path id="Path_3116" class="st0" d="M15,13c-0.2,0-0.3,0-0.5,0v2c0,0.3-0.3,0.6-0.6,0.6H-3.7c-0.3,0-0.6-0.3-0.6-0.6V0.8h6.2
					v3.1c0,0.3,0.2,0.5,0.5,0.5c0.1,0,0.1,0,0.2,0l2.5-0.9l2.5,0.9c0.3,0.1,0.6,0,0.7-0.3c0-0.1,0-0.1,0-0.2V0.8h6.2V3
					c0.2,0,0.3,0,0.5,0s0.3,0,0.5,0V0.8h0.2c0.3,0,0.5-0.2,0.5-0.5l0,0v-4.6c0-0.3-0.2-0.5-0.5-0.5l0,0H-5.5C-5.8-4.9-6-4.6-6-4.4
					l0,0v4.6c0,0.3,0.2,0.5,0.5,0.5l0,0h0.2v14.1c0,0.9,0.7,1.7,1.7,1.7l0,0H14c0.9,0,1.7-0.7,1.7-1.7l0,0v-2C15.4,13,15.2,13,15,13
					z M8.3-3.8h6.9v3.6H8.3V-3.8z M3-3.8h4.3v7l-2-0.7c-0.1,0-0.2,0-0.4,0L3,3.1V-3.8z M-5-0.2v-3.6h6.9v3.6C1.9-0.2-5-0.2-5-0.2z"
					/>
			</g>
			<g id="Group_1309" transform="translate(8.492 3.978)">
				<g id="Group_1308">
					<ellipse id="Ellipse_162" class="st1" cx="6.5" cy="4" rx="5.5" ry="5.5"/>
					<path id="Path_3117" class="st0" d="M5.9,6.2c-0.2,0-0.4,0-0.6-0.2L3.9,4.6c-0.3-0.3-0.3-0.8,0-1.2C4.1,3.1,4.7,3,5,3.4l0,0
						l0.8,0.8l2.3-2.7c0.3-0.3,0.8-0.4,1.2-0.1c0.3,0.3,0.4,0.8,0.1,1.1L6.5,5.9C6.4,6.1,6.2,6.2,5.9,6.2L5.9,6.2z"/>
				</g>
			</g>
		</g>
	</g>
</g>
</svg>
