<?xml version="1.0" encoding="utf-8"?>
<!-- Generator: Adobe Illustrator 22.0.1, SVG Export Plug-In . SVG Version: 6.00 Build 0)  -->
<svg version="1.1" id="Layer_1" xmlns="http://www.w3.org/2000/svg" xmlns:xlink="http://www.w3.org/1999/xlink" x="0px" y="0px"
	 viewBox="0 0 35 35" style="enable-background:new 0 0 35 35;" xml:space="preserve">
<style type="text/css">
	.st0{fill:#0038BA;}
	.st1{fill:#FFFFFF;}
</style>
<path class="st0" d="M34.8,17.5C34.8,8,27,0.2,17.5,0.2S0.2,8,0.2,17.5S8,34.8,17.5,34.8S34.8,27,34.8,17.5"/>
<g>
	<g>
		<path class="st1" d="M17.5,16.3c-1.9,0-3.5-1.1-3.5-2.3s1.6-2.3,3.5-2.3c1.1,0,2,0.3,2.7,0.9c0.5,0.4,1.2,0.4,1.6-0.1
			s0.4-1.2-0.1-1.6c-0.8-0.7-1.9-1.2-3.1-1.4V8.3c0-0.6-0.5-1.2-1.2-1.2s-1.2,0.5-1.2,1.2v1.2c-2.6,0.4-4.6,2.3-4.6,4.5
			c0,2.5,2.6,4.6,5.8,4.6c1.9,0,3.5,1.1,3.5,2.3c0,1.2-1.6,2.3-3.5,2.3c-1.1,0-2-0.3-2.7-0.9c-0.5-0.4-1.2-0.4-1.6,0.1
			c-0.4,0.5-0.4,1.2,0.1,1.6c0.8,0.7,1.9,1.2,3.1,1.4v1.2c0,0.6,0.5,1.2,1.2,1.2s1.2-0.5,1.2-1.2v-1.2c2.6-0.4,4.6-2.3,4.6-4.5
			C23.3,18.4,20.7,16.3,17.5,16.3z"/>
	</g>
</g>
</svg>
