<?xml version="1.0" encoding="utf-8"?>
<!-- Generator: Adobe Illustrator 22.0.1, SVG Export Plug-In . SVG Version: 6.00 Build 0)  -->
<svg version="1.1" id="Layer_1" xmlns="http://www.w3.org/2000/svg" xmlns:xlink="http://www.w3.org/1999/xlink" x="0px" y="0px"
	 viewBox="0 0 24 24" style="enable-background:new 0 0 24 24;" xml:space="preserve">
<style type="text/css">
	.st0{fill:#FFFFFF;}
</style>
<g>
	<g>
		<path class="st0" d="M12.7,23.8c0.2,0.2,0.3,0.2,0.6,0.2s0.4-0.1,0.6-0.2c0.5-0.5,2.2-2.1,3.6-4.2c1-1.4,2.3-3.5,2.3-5.5
			c0-3.5-2.9-6.4-6.5-6.4s-6.6,3-6.6,6.5c0,2,1.4,4.1,2.3,5.5C10.6,21.7,12.3,23.4,12.7,23.8z M13.3,8.9c2.9,0,5.3,2.3,5.3,5.2
			c0,1.7-1.2,3.5-2.1,4.8c-1.2,1.7-2.5,3.1-3.2,3.7c-0.6-0.6-2-2-3.2-3.7C9.2,17.7,8,15.9,8,14.2C8,11.3,10.3,8.9,13.3,8.9z"/>
		<path class="st0" d="M13.3,17c1.6,0,2.9-1.3,2.9-2.8s-1.3-2.8-2.9-2.8c-1.6,0-2.9,1.2-2.9,2.8C10.4,15.7,11.7,17,13.3,17z
			 M13.3,12.3c1,0,1.9,0.8,1.9,1.8s-0.8,1.8-1.9,1.8c-1,0-1.9-0.8-1.9-1.8S12.3,12.3,13.3,12.3z"/>
	</g>
	<path class="st0" d="M20.7,0c-1.8,0-3.4,1.6-3.4,3.4c0,2.9,2.8,5.8,2.9,5.9c0.1,0.1,0.3,0.2,0.5,0.2c0.2,0,0.4-0.1,0.5-0.2
		c0.1-0.1,2.9-2.9,2.9-5.9C24.1,1.6,22.5,0,20.7,0z M20.7,7.8c-0.7-0.9-2-2.6-2-4.4c0-1.1,0.9-2,2-2s2,0.9,2,2
		C22.7,5.1,21.4,6.9,20.7,7.8z"/>
	<rect x="20" y="2.7" class="st0" width="1.4" height="1.4"/>
	<path class="st0" d="M3.3,0C1.5,0-0.1,1.6-0.1,3.4c0,2.9,2.8,5.8,2.9,5.9C3,9.4,3.1,9.5,3.3,9.5c0.2,0,0.4-0.1,0.5-0.2
		s2.9-2.9,2.9-5.9C6.7,1.6,5.1,0,3.3,0z M3.3,7.8c-0.7-0.9-2-2.6-2-4.4c0-1.1,0.9-2,2-2s2,0.9,2,2C5.3,5.1,4,6.9,3.3,7.8z"/>
	<rect x="2.6" y="2.7" class="st0" width="1.4" height="1.4"/>
</g>
<rect x="17.3" y="22.4" class="st0" width="6.8" height="1.6"/>
<rect y="19.1" class="st0" width="6.8" height="1.6"/>
</svg>
