<?xml version="1.0" encoding="utf-8"?>
<!-- Generator: Adobe Illustrator 24.1.0, SVG Export Plug-In . SVG Version: 6.00 Build 0)  -->
<svg version="1.1" id="Layer_1" xmlns="http://www.w3.org/2000/svg" xmlns:xlink="http://www.w3.org/1999/xlink" x="0px" y="0px"
	 viewBox="0 0 15.8 15.1" style="enable-background:new 0 0 15.8 15.1;" xml:space="preserve">
<style type="text/css">
	.st0{fill:#282828;}
</style>
<path class="st0" d="M5.2,10.9l1.8-1.7l2.2,2.4l5-5.1l1.5,1.8l-6.4,6.5L5.2,10.9z"/>
<g>
	<polygon class="st0" points="8.8,10.8 9.1,11.1 9.3,10.8 	"/>
	<path class="st0" d="M8,14.6H2v-2.3h1v-0.5H1.6v2.8H1v-3.2h3.7l-0.4-0.4l-0.1-0.1H2.5V6.4C2.6,6.2,2.7,6.1,2.8,6
		C3.1,6.6,4,6.8,4.5,6.4C4.6,6.2,4.7,6.1,4.8,6c0.4,0.5,1.1,0.7,1.7,0.3C6.6,6.2,6.7,6.1,6.8,6c0.4,0.5,1.1,0.7,1.7,0.3
		C8.5,6.2,8.6,6.1,8.7,6c0.4,0.5,1.1,0.7,1.7,0.3c0.1-0.1,0.2-0.2,0.3-0.3c0.1,0.1,0.1,0.2,0.3,0.3v2.7l0.6-0.6V6.6h0.5v1.4l0.4-0.4
		V6.4c0.3-0.2,0.5-0.6,0.5-1v-1L11.6,1h-0.4V0H2.5v1H2.1L0.5,4.3v1c0,0.4,0.2,0.7,0.5,1v4.5H0.5v3.7H0v0.5h8.5L8,14.6z M2.1,10.8
		H1.6V6.6h0.5V10.8z M4.6,5.2c0,0.4-0.3,0.7-0.7,0.7C3.4,6,3.1,5.7,3,5.3V4.5h1.6V5.2z M4.6,4.1H3.1L4,1.6h1L4.6,4.1z M6.7,5.2
		c0,0.4-0.4,0.7-0.8,0.7c-0.4,0-0.6-0.3-0.7-0.6V4.5h1.6V5.2z M5.1,4.1l0.4-2.5h1v2.5H5.1z M8.6,5.2c0,0.4-0.3,0.7-0.7,0.7
		c-0.5,0-0.8-0.3-0.8-0.7V4.5h1.6V5.2z M7.1,4.1V1.6h1l0.4,2.5H7.1z M8.6,1.6h1l0.8,2.5H9.1L8.6,1.6z M10.6,5.2
		c0,0.4-0.3,0.7-0.7,0.7S9.2,5.6,9.2,5.2L9.1,4.5h1.6V5.2z M12.6,5.2C12.7,5.6,12.3,6,11.9,6c-0.4,0-0.7-0.3-0.7-0.7V4.5h1.5V5.2z
		 M11.2,1.6l1.2,2.5H11l-0.8-2.5H11.2z M3,0.5h7.6V1H3V0.5z M2.5,1.6h1L2.6,4.1H1.1L2.5,1.6z M1,4.5h1.6v0.7c0,0.4-0.3,0.7-0.7,0.7
		C1.4,6,1,5.7,1,5.3V4.5z"/>
	<polygon class="st0" points="13.1,11.5 12.7,12 12.7,14.6 12.2,14.6 12.2,12.5 11.8,12.9 11.8,14.6 10.1,14.6 9.6,15.1 13.6,15.1 
		13.6,14.6 13.1,14.6 	"/>
</g>
</svg>
