<?xml version="1.0" encoding="utf-8"?>
<!-- Generator: Adobe Illustrator 24.2.3, SVG Export Plug-In . SVG Version: 6.00 Build 0)  -->
<svg version="1.1" id="_x31_" xmlns="http://www.w3.org/2000/svg" xmlns:xlink="http://www.w3.org/1999/xlink" x="0px" y="0px"
	 viewBox="0 0 80 80" style="enable-background:new 0 0 80 80;" xml:space="preserve">
<style type="text/css">
	.st0{fill:#06205E;}
</style>
<path class="st0" d="M58.3,71.7c-0.9,0-1.7-0.7-1.7-1.7v-3.3c0-0.9,0.7-1.7,1.7-1.7c0.9,0,1.7,0.7,1.7,1.7V70
	C60,70.9,59.3,71.7,58.3,71.7z"/>
<path class="st0" d="M59.2,68.3h-5.8c-0.9,0-1.7-0.7-1.7-1.7c0-0.9,0.7-1.7,1.7-1.7h5.8c1.4,0,2.5-1.1,2.5-2.5S60.5,60,59.2,60h-1.7
	c-3.2,0-5.8-2.6-5.8-5.8s2.6-5.8,5.8-5.8h5.8c0.9,0,1.7,0.7,1.7,1.7s-0.7,1.7-1.7,1.7h-5.8c-1.4,0-2.5,1.1-2.5,2.5s1.1,2.5,2.5,2.5
	h1.7c3.2,0,5.8,2.6,5.8,5.8S62.4,68.3,59.2,68.3z"/>
<path class="st0" d="M58.3,51.7c-0.9,0-1.7-0.7-1.7-1.7v-3.3c0-0.9,0.7-1.7,1.7-1.7c0.9,0,1.7,0.7,1.7,1.7V50
	C60,50.9,59.3,51.7,58.3,51.7z"/>
<path class="st0" d="M58.3,80c-11.9,0-21.7-9.7-21.7-21.7s9.7-21.7,21.7-21.7S80,46.4,80,58.3S70.3,80,58.3,80z M58.3,40
	C48.2,40,40,48.2,40,58.3s8.2,18.3,18.3,18.3s18.3-8.2,18.3-18.3S68.4,40,58.3,40z"/>
<path class="st0" d="M31.7,66.7H8.3c-2.8,0-5-2.2-5-5V25c0-0.9,0.7-1.7,1.7-1.7h56.7c0.9,0,1.7,0.7,1.7,1.7v6.9
	c0,0.9-0.7,1.7-1.7,1.7c-0.9,0-1.7-0.7-1.7-1.7v-5.2H6.7v35c0,0.9,0.8,1.7,1.7,1.7h23.3c0.9,0,1.7,0.7,1.7,1.7S32.6,66.7,31.7,66.7z
	"/>
<path class="st0" d="M41.7,36.7H25c-0.9,0-1.7-0.7-1.7-1.7c0-0.9,0.7-1.7,1.7-1.7h16.7c0.9,0,1.7,0.7,1.7,1.7
	C43.3,35.9,42.6,36.7,41.7,36.7z"/>
<path class="st0" d="M65,26.7H1.7C0.7,26.7,0,25.9,0,25V11.7C0,10.7,0.7,10,1.7,10H65c0.9,0,1.7,0.7,1.7,1.7V25
	C66.7,25.9,65.9,26.7,65,26.7z M3.3,23.3h60v-10h-60V23.3z"/>
<path class="st0" d="M65,13.3c-0.4,0-0.9-0.2-1.2-0.5l-9.5-9.5h-42l-9.5,9.5c-0.6,0.7-1.7,0.7-2.4,0s-0.6-1.7,0-2.4l10-10
	C10.8,0.2,11.2,0,11.7,0H55c0.4,0,0.9,0.2,1.2,0.5l10,10c0.7,0.6,0.7,1.7,0,2.4C65.9,13.2,65.4,13.3,65,13.3L65,13.3z"/>
</svg>
