<?xml version="1.0" encoding="utf-8"?>
<!-- Generator: Adobe Illustrator 24.2.3, SVG Export Plug-In . SVG Version: 6.00 Build 0)  -->
<svg version="1.1" id="_x31_" xmlns="http://www.w3.org/2000/svg" xmlns:xlink="http://www.w3.org/1999/xlink" x="0px" y="0px"
	 viewBox="0 0 80 80" style="enable-background:new 0 0 80 80;" xml:space="preserve">
<style type="text/css">
	.st0{fill:#06205E;}
</style>
<path class="st0" d="M56.7,65.8C56.6,65.8,56.6,65.8,56.7,65.8c-0.6,0-1-0.3-1.3-0.6l-6.7-8.3c-0.6-0.7-0.5-1.8,0.3-2.3
	c0.7-0.6,1.8-0.5,2.3,0.3l5.5,6.9l10.3-10.3c0.7-0.6,1.7-0.6,2.4,0c0.7,0.7,0.6,1.7,0,2.4L57.8,65.4C57.5,65.7,57.1,65.8,56.7,65.8
	L56.7,65.8z"/>
<path class="st0" d="M31.7,70H8.3C3.7,70,0,66.3,0,61.7V18.3C0,13.7,3.7,10,8.3,10H15c0.9,0,1.7,0.7,1.7,1.7s-0.7,1.7-1.7,1.7H8.3
	c-2.8,0-5,2.2-5,5v43.3c0,2.8,2.2,5,5,5h23.3c0.9,0,1.7,0.7,1.7,1.7C33.3,69.3,32.6,70,31.7,70z"/>
<path class="st0" d="M55,28.3c-0.9,0-1.7-0.7-1.7-1.7v-8.3c0-2.8-2.2-5-5-5h-6.7c-0.9,0-1.7-0.7-1.7-1.7s0.7-1.7,1.7-1.7h6.7
	c4.6,0,8.3,3.7,8.3,8.3v8.3C56.7,27.6,55.9,28.3,55,28.3z"/>
<path class="st0" d="M38.3,20h-20c-2.8,0-5-2.2-5-5V8.3c0-0.9,0.7-1.7,1.7-1.7h5.2C20.9,2.9,24.3,0,28.3,0s7.4,2.9,8.2,6.7h5.2
	c0.9,0,1.7,0.7,1.7,1.7V15C43.3,17.8,41.1,20,38.3,20z M16.7,10v5c0,0.9,0.8,1.7,1.7,1.7h20c0.9,0,1.7-0.7,1.7-1.7v-5h-5
	c-0.9,0-1.7-0.7-1.7-1.7c0-2.8-2.2-5-5-5s-5,2.2-5,5c0,0.9-0.7,1.7-1.7,1.7H16.7z"/>
<path class="st0" d="M45,30H11.7c-0.9,0-1.7-0.7-1.7-1.7s0.7-1.7,1.7-1.7H45c0.9,0,1.7,0.7,1.7,1.7S45.9,30,45,30z"/>
<path class="st0" d="M31.7,40h-20c-0.9,0-1.7-0.7-1.7-1.7c0-0.9,0.7-1.7,1.7-1.7h20c0.9,0,1.7,0.7,1.7,1.7
	C33.3,39.3,32.6,40,31.7,40z"/>
<path class="st0" d="M31.7,50h-20c-0.9,0-1.7-0.7-1.7-1.7c0-0.9,0.7-1.7,1.7-1.7h20c0.9,0,1.7,0.7,1.7,1.7
	C33.3,49.3,32.6,50,31.7,50z"/>
<g>
	<path class="st0" d="M58.3,80c-12,0-21.7-9.7-21.7-21.7s9.7-21.7,21.7-21.7S80,46.4,80,58.3S70.3,80,58.3,80z M58.3,40
		C48.4,40,40,48.4,40,58.3s8.3,18.3,18.3,18.3s18.3-8.3,18.3-18.3S68.3,40,58.3,40z"/>
</g>
</svg>
