<?xml version="1.0" encoding="utf-8"?>
<!-- Generator: Adobe Illustrator 22.0.1, SVG Export Plug-In . SVG Version: 6.00 Build 0)  -->
<svg version="1.1" id="Layer_1" xmlns="http://www.w3.org/2000/svg" xmlns:xlink="http://www.w3.org/1999/xlink" x="0px" y="0px"
	 viewBox="0 0 100 100" style="enable-background:new 0 0 100 100;" xml:space="preserve">
<style type="text/css">
	.st0{fill:none;stroke:#858585;stroke-width:4.1739;stroke-miterlimit:10;}
	.st1{fill:#0038BA;}
	.st2{fill:none;stroke:#0038BA;stroke-width:2.9657;stroke-miterlimit:10;}
</style>
<circle class="st0" cx="50" cy="50" r="48"/>
<g>
	<path class="st1" d="M44.7,17.3L44,12.9c-4.6,0.7-8.9,2.3-12.9,4.6l2.2,3.8C36.9,19.3,40.7,17.9,44.7,17.3z"/>
	<path class="st1" d="M58.5,17.9l1.1-4.3c-4.4-1.2-9.1-1.5-13.6-1l0.5,4.4C50.5,16.6,54.6,16.9,58.5,17.9z"/>
	<path class="st1" d="M31.9,22.2l-2.4-3.7c-3.9,2.5-7.2,5.7-9.9,9.4l3.6,2.6C25.5,27.3,28.5,24.5,31.9,22.2z"/>
	<path class="st1" d="M77.2,31.1c0.8,1.2,1.6,2.4,2.3,3.7l3.9-2c-0.8-1.6-1.7-3-2.7-4.4C79.8,29.5,78.6,30.5,77.2,31.1z"/>
	<path class="st1" d="M83.1,48.1l4.4-0.2c-0.3-4.6-1.3-9.1-3.2-13.3l-4,1.8C81.9,40.1,82.9,44.1,83.1,48.1z"/>
	<path class="st1" d="M67,16.5c-1.8-0.9-3.6-1.7-5.5-2.3l-1.4,4.2c1.6,0.5,3.2,1.2,4.7,2C65.3,18.9,66,17.6,67,16.5z"/>
	<path class="st1" d="M22.2,32l-3.7-2.4c-2.5,3.9-4.3,8.1-5.2,12.7l4.3,0.9C18.4,39.2,19.9,35.4,22.2,32z"/>
	<path class="st1" d="M50,83.1c-0.6,0-1.2,0-1.7,0l-0.2,4.4c0.6,0,1.3,0,1.9,0c4,0,7.9-0.6,11.6-1.8l-1.4-4.2
		C57,82.6,53.5,83.1,50,83.1z"/>
	<path class="st1" d="M73.4,73.4l3.1,3.1c3.3-3.3,5.9-7.1,7.8-11.3l-4-1.8C78.6,67.2,76.3,70.5,73.4,73.4z"/>
	<path class="st1" d="M83.1,50c0,4.1-0.7,8.1-2.2,11.9l4.1,1.6c1.6-4.3,2.5-8.8,2.5-13.5v-0.1L83.1,50z"/>
	<path class="st1" d="M61.9,80.9l1.6,4.1c4.3-1.7,8.2-4.1,11.7-7.2l-3-3.3C69.2,77.4,65.7,79.5,61.9,80.9z"/>
	<path class="st1" d="M24.3,70.9l-3.4,2.8c2.9,3.6,6.4,6.6,10.4,8.9l2.2-3.8C29.9,76.7,26.8,74.1,24.3,70.9z"/>
	<path class="st1" d="M18,58.6l-4.3,1.2c1.2,4.4,3.2,8.6,5.9,12.3l3.6-2.6C20.8,66.2,19,62.6,18,58.6z"/>
	<path class="st1" d="M33,83.5c4.1,2.1,8.5,3.4,13.1,3.9l0.5-4.4c-4.1-0.4-8-1.6-11.6-3.4L33,83.5z"/>
	<path class="st1" d="M16.9,50c0-1.7,0.1-3.4,0.4-5.1l-4.4-0.7c-0.3,1.9-0.4,3.9-0.4,5.8c0,2.7,0.3,5.3,0.8,7.9l4.3-0.9
		C17.1,54.7,16.9,52.3,16.9,50z"/>
</g>
<circle class="st2" cx="73.1" cy="23.2" r="6.3"/>
<path class="st1" d="M57.4,30.7c-1,0-1.8,0.7-1.9,1.7c0,1,0.7,1.8,1.7,1.9c0.1,0,0.2,0,0.3,0l4.6-0.1l-11.4,12
	c-3.1-1.6-6.9-0.4-8.4,2.7c-1.6,3.1-0.4,6.9,2.7,8.4c3.1,1.6,6.9,0.4,8.4-2.7c1-1.9,0.9-4.1-0.1-6l11.4-12l0.1,4.6
	c0,1,0.8,1.8,1.8,1.8l0,0c1-0.1,1.7-0.9,1.8-1.8l-0.2-8.9c0-1-0.8-1.8-1.8-1.8l0,0L57.4,30.7z M49.8,53.5c-1,1.1-2.7,1.1-3.8,0.1
	s-1.1-2.7-0.1-3.8s2.7-1.1,3.8-0.1C50.8,50.8,50.9,52.4,49.8,53.5z"/>
</svg>
