<?xml version="1.0" encoding="utf-8"?>
<!-- Generator: Adobe Illustrator 22.0.1, SVG Export Plug-In . SVG Version: 6.00 Build 0)  -->
<svg version="1.1" id="Layer_1" xmlns="http://www.w3.org/2000/svg" xmlns:xlink="http://www.w3.org/1999/xlink" x="0px" y="0px"
	 viewBox="0 0 24 24" style="enable-background:new 0 0 24 24;" xml:space="preserve">
<style type="text/css">
	.st0{fill:#FFFFFF;}
	.st1{fill:#FFFFFF;stroke:#FFFFFF;stroke-width:0.5;stroke-miterlimit:10;}
</style>
<g>
	<path class="st0" d="M5.6,17.9c-0.2,0-0.3,0.1-0.3,0.3s0,0.5,0.1,0.5h13c0.3,0,0.2-0.4,0.2-0.5s-0.1-0.3-0.3-0.3l0,0V9.1
		c0-0.2-0.1-0.3-0.3-0.3h-1.9c-0.2,0-0.3,0.1-0.3,0.3v8.8h-2.7v-6.1c0-0.2-0.1-0.3-0.3-0.3H11c-0.2,0-0.3,0.1-0.3,0.3v6.1H8.2v-2.8
		c0-0.2-0.1-0.3-0.3-0.3H6.1c-0.2,0-0.3,0.1-0.3,0.3v2.8H5.6z"/>
</g>
<g>
	<path class="st1" d="M21.6,2.7h-1.3V0.5c0-0.2-0.2-0.4-0.4-0.4c-0.2,0-0.4,0.2-0.4,0.4v2.2h-3.2V0.5c0-0.2-0.2-0.4-0.4-0.4
		c-0.2,0-0.4,0.2-0.4,0.4v2.2h-3.2V0.5c0-0.2-0.2-0.4-0.4-0.4s-0.4,0.2-0.4,0.4v2.2H8.4V0.5c0-0.2-0.2-0.4-0.4-0.4
		c-0.2,0-0.4,0.2-0.4,0.4v2.2H4.5V0.5c0-0.2-0.2-0.4-0.4-0.4S3.7,0.3,3.7,0.5v2.2H2.4c-1.1,0-2,0.9-2,2V21c0,1.1,0.9,2,2,2h19.2
		c1.1,0,2-0.9,2-2V4.6C23.6,3.6,22.7,2.7,21.6,2.7z M22.8,21c0,0.7-0.5,1.2-1.2,1.2H2.4c-0.7,0-1.2-0.5-1.2-1.2V4.6
		c0-0.7,0.5-1.2,1.2-1.2h1.3v1.2C3.7,4.8,3.9,5,4.1,5s0.4-0.2,0.4-0.4V3.4h3.2v1.2C7.7,4.8,7.8,5,8,5c0.2,0,0.4-0.2,0.4-0.4V3.4h3.2
		v1.2C11.6,4.8,11.8,5,12,5s0.4-0.2,0.4-0.4V3.4h3.2v1.2C15.6,4.8,15.7,5,16,5c0.2,0,0.4-0.2,0.4-0.4V3.4h3.2v1.2
		c0,0.2,0.2,0.4,0.4,0.4c0.2,0,0.4-0.2,0.4-0.4V3.4h1.3c0.7,0,1.2,0.5,1.2,1.2V21z"/>
</g>
</svg>
