<?xml version="1.0" encoding="utf-8"?>
<!-- Generator: Adobe Illustrator 22.0.1, SVG Export Plug-In . SVG Version: 6.00 Build 0)  -->
<svg version="1.1" id="Layer_1" xmlns="http://www.w3.org/2000/svg" xmlns:xlink="http://www.w3.org/1999/xlink" x="0px" y="0px"
	 viewBox="0 0 24 24" style="enable-background:new 0 0 24 24;" xml:space="preserve">
<style type="text/css">
	.st0{fill:#FFFFFF;stroke:#FFFFFF;stroke-width:0.7;stroke-miterlimit:10;}
	.st1{fill:#FFFFFF;}
</style>
<path class="st0" d="M21.9,4.4c0,0.2,0.2,0.4,0.4,0.4c0.1,0,0.1,0,0.3-0.1c0.1-0.1,0.1-0.1,0.1-0.2s-1-1.6-2.3-3.5
	c-0.1-0.1-0.2-0.2-0.3-0.2H4C3.9,0.8,3.7,0.9,3.7,1L1.4,4.3l0,0v2.1c0,1.4,0.9,2.7,2.3,3C5,9.7,6.3,9.1,6.9,8.1c0,0,0,0,0.1,0
	c1.1,1.9,3.9,1.9,5.1,0c0,0,0,0,0.1,0c1.1,1.9,3.9,1.9,5.1,0c0,0,0,0,0.1,0C17.9,9,18.9,9.5,20,9.5c1.6,0,2.9-1.3,2.9-2.9
	c0-0.2-0.2-0.4-0.4-0.4S22,6.4,22,6.6c0,1.2-1,2.2-2.2,2.2s-2.2-1-2.2-2.2c0-0.2-0.2-0.4-0.4-0.4s-0.4,0.2-0.4,0.4
	c0,1.2-1,2.2-2.2,2.2s-2.2-1-2.2-2.2c0-0.2-0.2-0.4-0.4-0.4s-0.4,0.2-0.4,0.4c0,1.5-1.7,2.8-3.3,1.9c-0.7-0.4-1-1.2-1.1-2
	c0-0.2-0.2-0.3-0.4-0.3c-0.2,0-0.3,0.1-0.3,0.3c0,1.3-1,2.2-2.3,2.2C3,8.8,2,7.6,2,6.3V4.5l0,0l2.2-3.1l0,0h15.5l0,0l2,2.6v0.1
	C21.8,4.3,21.8,4.3,21.9,4.4L21.9,4.4z M7.6,22.4H4.4c-0.6,0-1.1-0.5-1.1-1.1V10.8c0-0.2-0.2-0.4-0.4-0.4c-0.2,0-0.4,0.2-0.4,0.4
	v10.5c0,1,0.8,1.8,1.8,1.8l3.4,0.1C7.6,22.9,7.6,22.4,7.6,22.4z"/>
<g>
	<path class="st1" d="M14.5,11.7L14.5,11.7c1.2,0,2.2,1,2.2,2.2l0,0c0,1.2-1,2.2-2.2,2.2l0,0c-1.2,0-2.2-1-2.2-2.2l0,0
		C12.3,12.7,13.3,11.7,14.5,11.7z"/>
	<path class="st1" d="M19.3,11.7h4.3l0,0V16l0,0h-4.3l0,0V11.7L19.3,11.7z"/>
	<path class="st1" d="M12.3,18.8h4.3l0,0v4.3l0,0h-4.3l0,0V18.8L12.3,18.8z"/>
	<path class="st1" d="M21.5,23.2L21.5,23.2c-1.2,0-2.2-1-2.2-2.2l0,0c0-1.2,1-2.2,2.2-2.2l0,0c1.2,0,2.2,1,2.2,2.2l0,0
		C23.7,22.3,22.7,23.2,21.5,23.2z"/>
</g>
</svg>
