<?xml version="1.0" encoding="utf-8"?>
<!-- Generator: Adobe Illustrator 22.0.1, SVG Export Plug-In . SVG Version: 6.00 Build 0)  -->
<svg version="1.1" id="Layer_1" xmlns="http://www.w3.org/2000/svg" xmlns:xlink="http://www.w3.org/1999/xlink" x="0px" y="0px"
	 viewBox="0 0 24 24" style="enable-background:new 0 0 24 24;" xml:space="preserve">
<style type="text/css">
	.st0{fill:#FFFFFF;stroke:#FFFFFF;stroke-width:0.7;stroke-miterlimit:10;}
</style>
<path class="st0" d="M11.6,22v-5.6c0-0.2,0.2-0.4,0.4-0.4c0.2,0,0.4,0.2,0.4,0.4V22h7.5c0.6,0,1.1-0.5,1.1-1.1v-7.5
	c0-0.2,0.2-0.4,0.4-0.4s0.4,0.2,0.4,0.4v7.5c0,1-0.8,1.8-1.8,1.8H4.2c-1,0-1.8-0.8-1.8-1.8v-7.5c0-0.2,0.2-0.4,0.4-0.4
	s0.4,0.2,0.4,0.4v7.5c0,0.6,0.5,1.1,1.1,1.1H11.6z M21.9,7c0,0.2,0.2,0.4,0.4,0.4c0.1,0,0.1,0,0.3-0.1c0.1-0.1,0.1-0.1,0.1-0.2
	c0-0.1,0.1,0.2-2.3-5.5c-0.1-0.1-0.2-0.2-0.3-0.2H4c-0.1,0-0.3,0.1-0.3,0.2L1.4,6.9c0,0.1,0-0.1,0,2.3c0,1.6,1.3,2.9,2.9,2.9
	c1.1,0,2.1-0.6,2.6-1.5c1.1,2,4,2,5.2,0c1.1,2,4,2,5.2,0c0.5,0.9,1.5,1.5,2.6,1.5c1.6,0,2.9-1.3,2.9-2.9c0-0.2-0.2-0.4-0.4-0.4
	S22,9,22,9.2c0,1.2-1,2.2-2.2,2.2s-2.2-1-2.2-2.2c0-0.2-0.2-0.4-0.4-0.4S16.8,9,16.8,9.2c0,1.2-1,2.2-2.2,2.2s-2.2-1-2.2-2.2
	c0-0.2-0.2-0.4-0.4-0.4S11.6,9,11.6,9.2c0,1.2-1,2.2-2.2,2.2c-1.2,0-2.2-1-2.2-2.2C7.2,9,7,8.9,6.8,8.9C6.6,8.9,6.5,9,6.5,9.2
	c0,1.3-1,2.2-2.2,2.2C3,11.4,2,10.5,2,9.2V7.1L4.2,2h15.5l2,4.6l0,0.1C21.8,6.9,21.8,6.9,21.9,7L21.9,7z"/>
</svg>
