<?xml version="1.0" encoding="utf-8"?>
<!-- Generator: Adobe Illustrator 22.0.1, SVG Export Plug-In . SVG Version: 6.00 Build 0)  -->
<svg version="1.1" id="Layer_1" xmlns="http://www.w3.org/2000/svg" xmlns:xlink="http://www.w3.org/1999/xlink" x="0px" y="0px"
	 viewBox="0 0 24 24" style="enable-background:new 0 0 24 24;" xml:space="preserve">
<style type="text/css">
	.st0{fill:#FFFFFF;}
</style>
<g>
	<path class="st0" d="M11.3,21.3c0.2,0.2,0.4,0.3,0.7,0.3s0.5-0.1,0.7-0.3c0.6-0.6,2.8-2.7,4.7-5.5c1.3-1.8,3-4.5,3-7.1
		c0-4.6-3.8-8.4-8.5-8.4S3.4,4.2,3.4,8.8c0,2.6,1.8,5.4,3,7.1C8.5,18.6,10.7,20.8,11.3,21.3z M12.1,2C15.8,2,19,5,19,8.8
		c0,2.2-1.6,4.6-2.7,6.3c-1.6,2.2-3.3,4-4.2,4.8c-0.8-0.8-2.6-2.6-4.2-4.8C6.7,13.4,5.1,11,5.1,8.8C5.1,5,8.2,2,12.1,2z"/>
	<path class="st0" d="M16,6.4c-0.5-0.4-1.2-0.3-1.6,0.1l-3,3.5L9.6,8.6C9.1,8.2,8.4,8.3,8,8.8C7.6,9.3,7.7,10,8.2,10.3l2.6,2
		c0.2,0.2,0.4,0.2,0.6,0.2c0.3,0,0.6-0.2,0.9-0.4l3.7-4.3C16.5,7.6,16.4,6.8,16,6.4z"/>
</g>
<rect y="22.1" class="st0" width="24" height="1.6"/>
</svg>
