<?xml version="1.0" encoding="utf-8"?>
<!-- Generator: Adobe Illustrator 22.0.1, SVG Export Plug-In . SVG Version: 6.00 Build 0)  -->
<svg version="1.1" id="Layer_1" xmlns="http://www.w3.org/2000/svg" xmlns:xlink="http://www.w3.org/1999/xlink" x="0px" y="0px"
	 viewBox="0 0 24 24" style="enable-background:new 0 0 24 24;" xml:space="preserve">
<style type="text/css">
	.st0{fill:#FFFFFF;}
</style>
<g>
	<path class="st0" d="M8.9,20.3c0.2,0.2,0.4,0.3,0.7,0.3c0.3,0,0.5-0.1,0.7-0.3c0.6-0.6,2.7-2.6,4.5-5.2c1.2-1.7,2.9-4.3,2.9-6.8
		c0-4.4-3.6-8-8.1-8S1.4,4,1.4,8.4c0,2.5,1.7,5.1,2.9,6.8C6.2,17.7,8.3,19.8,8.9,20.3z M9.6,1.9c3.6,0,6.6,2.9,6.6,6.5
		c0,2.1-1.5,4.4-2.6,6c-1.5,2.1-3.1,3.8-4,4.6c-0.8-0.8-2.5-2.5-4-4.6c-1.1-1.6-2.6-3.9-2.6-6C3,4.8,5.9,1.9,9.6,1.9z"/>
	<path class="st0" d="M9.6,11.9c2,0,3.6-1.6,3.6-3.5c0-1.9-1.6-3.5-3.6-3.5C7.6,4.9,6,6.4,6,8.4C6,10.3,7.6,11.9,9.6,11.9z M9.6,6.1
		c1.2,0,2.3,1,2.3,2.2c0,1.2-1,2.2-2.3,2.2c-1.2,0-2.3-1-2.3-2.2C7.3,7.1,8.3,6.1,9.6,6.1z"/>
</g>
<rect x="15.8" y="15.1" class="st0" width="8.3" height="1.6"/>
<rect y="21.9" class="st0" width="24" height="1.6"/>
</svg>
