<?xml version="1.0" encoding="utf-8"?>
<!-- Generator: Adobe Illustrator 24.0.2, SVG Export Plug-In . SVG Version: 6.00 Build 0)  -->
<svg version="1.1" id="Layer_1" xmlns="http://www.w3.org/2000/svg" xmlns:xlink="http://www.w3.org/1999/xlink" x="0px" y="0px"
	 viewBox="0 0 24 24" style="enable-background:new 0 0 24 24;" xml:space="preserve">
<style type="text/css">
	.st0{fill:#FFFFFF;}
	.st1{fill:#FFFFFF;stroke:#FFFFFF;stroke-width:0.25;stroke-miterlimit:10;}
</style>
<g>
	<path class="st0" d="M17.4,20H7.6c-0.4,0-0.7,0.3-0.7,0.7c0,0.4,0.3,0.7,0.7,0.7h9.8c0.4,0,0.7-0.3,0.7-0.7
		C18.1,20.4,17.8,20,17.4,20z"/>
	<path class="st0" d="M21.2,2.4h-2.5c-0.3-1.3-1.4-2.2-2.7-2.2s-2.5,1-2.7,2.2h-1.5C11.5,1.1,10.4,0.1,9,0.1s-2.5,1-2.7,2.2H2.8
		C2.4,2.4,2.1,2.7,2.1,3v20.1c0,0.4,0.3,0.7,0.7,0.7h18.4c0.4,0,0.7-0.3,0.7-0.7V3C21.9,2.7,21.6,2.4,21.2,2.4z M16,1.5
		c0.6,0,1.1,0.3,1.3,0.8h-2.6C14.9,1.9,15.4,1.5,16,1.5z M9,1.5c0.6,0,1.1,0.3,1.3,0.8H7.7C8,1.9,8.4,1.5,9,1.5z M20.5,22.5h-17V3.7
		h2.8c0.4,1.2,1.5,2,2.7,2c0.4,0,0.7-0.3,0.7-0.7S9.4,4.3,9,4.3c-0.5,0-0.9-0.2-1.1-0.6h5.4c0.4,1.1,1.4,1.9,2.7,1.9
		c0.4,0,0.7-0.3,0.7-0.7S16.4,4.3,16,4.3c-0.5,0-0.9-0.2-1.1-0.6h5.6V22.5z"/>
</g>
<path class="st1" d="M12.1,15.7c-0.8,0-1.5-0.3-2.2-0.8L8.7,16c0.8,0.8,1.7,1.2,2.7,1.2v1.3h1.3v-1.3c1.4-0.1,2.6-1.2,2.6-2.6
	c0-0.6-0.2-1.4-0.6-1.9c-0.4-0.4-1.2-0.6-1.7-0.6l-1-0.1c-0.3,0-0.6-0.2-0.8-0.4c-0.2-0.3-0.4-0.5-0.4-0.8c0-0.6,0.4-1.2,1.4-1.2
	c0.6,0,1.3,0.1,1.8,0.6l1.2-1c-0.6-0.6-1.4-0.9-2.3-1V6.9h-1.3v1.4c-1.3,0.1-2.3,1.3-2.3,2.6c0,0.1,0,0.3,0,0.4c0.2,1.1,1,1.9,2,2.1
	c0.1,0,0.2,0,0.2,0.1l1,0.1c0.3,0,0.5,0.1,0.8,0.3c0.3,0.3,0.3,0.5,0.3,0.8C13.6,15.3,13.1,15.7,12.1,15.7z"/>
</svg>
