<?xml version="1.0" encoding="utf-8"?>
<!-- Generator: Adobe Illustrator 22.0.1, SVG Export Plug-In . SVG Version: 6.00 Build 0)  -->
<svg version="1.1" id="Layer_1" xmlns="http://www.w3.org/2000/svg" xmlns:xlink="http://www.w3.org/1999/xlink" x="0px" y="0px"
	 viewBox="0 0 24 24" style="enable-background:new 0 0 24 24;" xml:space="preserve">
<style type="text/css">
	.st0{fill:#FFFFFF;}
</style>
<g>
	<path class="st0" d="M24,7.7c0-0.6-0.3-1.1-0.8-1.4C22.6,6,22,6,21.5,6.3l-3.8-3.8c0.4-0.5,0.3-1.3,0-1.8c-0.4-0.5-1-0.8-1.7-0.7
		c-0.6,0.1-1.1,0.6-1.3,1.3H9.3C9.1,0.7,8.6,0.2,8,0C7.4-0.1,6.8,0.2,6.4,0.7S6,1.9,6.3,2.5L2.5,6.3C2,6,1.3,6,0.7,6.3
		C0.2,6.7-0.1,7.3,0,8c0.1,0.6,0.6,1.1,1.2,1.3v5.4c-0.8,0.2-1.3,1-1.2,1.8s0.8,1.4,1.6,1.4c0.3,0,0.6-0.1,0.9-0.2l3.9,3.9
		C6,22,6,22.7,6.4,23.3c0.4,0.5,1,0.8,1.7,0.7c0.6-0.1,1.1-0.6,1.3-1.3h5.4c0.1,0.6,0.6,1.1,1.3,1.3c0.6,0.1,1.3-0.2,1.7-0.7
		c0.4-0.5,0.4-1.3,0-1.8l3.8-3.8c0.6,0.3,1.3,0.3,1.8-0.1s0.8-1,0.7-1.6c-0.1-0.6-0.6-1.1-1.2-1.3V9.3C23.5,9.1,24,8.4,24,7.7z
		 M22,14.7c-0.5,0.1-1,0.5-1.2,1c-0.2,0.5-0.1,1.1,0.2,1.5L17.2,21c-0.4-0.3-1-0.3-1.5-0.1c-0.5,0.2-0.8,0.6-1,1.1H9.3
		c-0.1-0.5-0.5-0.9-1-1.1S7.2,20.7,6.8,21L3,17.2c0.3-0.5,0.4-1,0.1-1.5c-0.2-0.5-0.7-0.9-1.2-1V9.3c0.5-0.1,1-0.5,1.2-1
		C3.4,7.8,3.3,7.2,3,6.8L6.8,3c0.4,0.3,1,0.3,1.5,0.1s0.9-0.6,1-1.2h5.4c0.1,0.5,0.5,0.9,1,1.1c0.5,0.2,1.1,0.2,1.5-0.1L21,6.8
		c-0.3,0.4-0.4,1-0.1,1.5c0.2,0.5,0.6,0.9,1.2,1v5.4C22.1,14.7,22,14.7,22,14.7z"/>
</g>
<path class="st0" d="M16.4,8.4c-0.5-0.4-1.2-0.3-1.5,0.1l-4.1,4.9L9,12.1c-0.5-0.4-1.2-0.3-1.5,0.2c-0.4,0.5-0.3,1.2,0.2,1.5
	l2.5,1.9c0.2,0.2,0.4,0.2,0.6,0.2c0.3,0,0.6-0.2,0.8-0.4l4.8-5.7C16.8,9.5,16.7,8.8,16.4,8.4z"/>
</svg>
