<?xml version="1.0" encoding="utf-8"?>
<!-- Generator: Adobe Illustrator 24.2.3, SVG Export Plug-In . SVG Version: 6.00 Build 0)  -->
<svg version="1.1" id="_x31_" xmlns="http://www.w3.org/2000/svg" xmlns:xlink="http://www.w3.org/1999/xlink" x="0px" y="0px"
	 viewBox="0 0 80 80" style="enable-background:new 0 0 80 80;" xml:space="preserve">
<style type="text/css">
	.st0{fill:#06205E;}
</style>
<path class="st0" d="M40,80C17.9,80,0,62.1,0,40S17.9,0,40,0s40,17.9,40,40S62.1,80,40,80z M40,3.3C19.8,3.3,3.3,19.8,3.3,40
	S19.8,76.7,40,76.7S76.7,60.2,76.7,40S60.2,3.3,40,3.3z"/>
<path class="st0" d="M40,63.3c-12.9,0-23.3-10.5-23.3-23.3S27.1,16.7,40,16.7S63.3,27.1,63.3,40S52.9,63.3,40,63.3z M40,20
	c-11,0-20,9-20,20s9,20,20,20s20-9,20-20S51,20,40,20z"/>
<path class="st0" d="M78.3,41.7H61.7c-0.9,0-1.7-0.7-1.7-1.7s0.7-1.7,1.7-1.7h16.7c0.9,0,1.7,0.7,1.7,1.7S79.3,41.7,78.3,41.7z"/>
<path class="st0" d="M40,20c-0.9,0-1.7-0.7-1.7-1.7V1.7C38.3,0.7,39.1,0,40,0s1.7,0.7,1.7,1.7v16.7C41.7,19.3,40.9,20,40,20z"/>
<path class="st0" d="M67.1,68.8c-0.4,0-0.9-0.2-1.2-0.5L54.1,56.5c-0.6-0.6-0.6-1.7,0-2.4s1.7-0.6,2.4,0l11.8,11.8
	c0.7,0.7,0.7,1.7,0,2.4C68,68.6,67.5,68.8,67.1,68.8L67.1,68.8z"/>
</svg>
