<?xml version="1.0" encoding="utf-8"?>
<!-- Generator: Adobe Illustrator 22.0.1, SVG Export Plug-In . SVG Version: 6.00 Build 0)  -->
<svg version="1.1" id="Layer_1" xmlns="http://www.w3.org/2000/svg" xmlns:xlink="http://www.w3.org/1999/xlink" x="0px" y="0px"
	 viewBox="0 0 24 24" style="enable-background:new 0 0 24 24;" xml:space="preserve">
<style type="text/css">
	.st0{fill:#FFFFFF;}
</style>
<g>
	<path class="st0" d="M23.8,10.2l-4-4.6h-5.3V3.3H0.3v4.2h-3.4c-0.4,0-0.8,0.3-0.8,0.8C-3.8,8.7-3.5,9-3.1,9h3.4h1.5h1.1
		c0.4,0,0.8-0.3,0.8-0.8c0-0.4-0.3-0.8-0.8-0.8h-1V4.8H13v0.8V17H8.6c-0.5-1.2-1.7-2-3-2c-1.4,0-2.6,0.9-3.1,2.1H1.9v-3.4H5
		c0.4,0,0.8-0.3,0.8-0.8S5.5,12.1,5,12.1H1.9v-1.5H0.3v1.5H-1c-0.4,0-0.8,0.3-0.8,0.8s0.3,0.8,0.8,0.8h1.3v5h1.9
		c0.1,1.7,1.6,3.1,3.3,3.1c1.8,0,3.2-1.4,3.3-3.1h5.6l0,0h0.1c0.1,1.7,1.6,3.1,3.3,3.1c1.8,0,3.2-1.4,3.3-3.1h2.5v-8.5H23.8z
		 M5.6,20.2c-1,0-1.8-0.8-1.8-1.8s0.8-1.8,1.8-1.8s1.8,0.8,1.8,1.8C7.4,19.3,6.6,20.2,5.6,20.2z M18,20.2c-1,0-1.8-0.8-1.8-1.8
		s0.8-1.8,1.8-1.8s1.8,0.8,1.8,1.8C19.8,19.3,19,20.2,18,20.2z M22.3,17h-1.2c-0.5-1.2-1.7-2-3.1-2s-2.6,0.9-3.1,2.1h-0.4v-10h4.7
		l3.1,3.7C22.3,10.8,22.3,17,22.3,17z"/>
</g>
</svg>
