<?xml version="1.0" encoding="utf-8"?>
<!-- Generator: Adobe Illustrator 22.0.1, SVG Export Plug-In . SVG Version: 6.00 Build 0)  -->
<svg version="1.1" id="Layer_1" xmlns="http://www.w3.org/2000/svg" xmlns:xlink="http://www.w3.org/1999/xlink" x="0px" y="0px"
	 viewBox="0 0 80 80" style="enable-background:new 0 0 80 80;" xml:space="preserve">
<style type="text/css">
	.st0{fill:#777777;}
</style>
<g>
	<path class="st0" d="M40,38.8c4.4,0,8.3-1.5,11.4-4.7c3.1-3.1,4.7-7,4.7-11.4s-1.5-8.3-4.7-11.4c-3.1-3.2-7-4.8-11.4-4.8
		s-8.3,1.5-11.4,4.7s-4.7,7-4.7,11.4s1.5,8.3,4.7,11.4C31.7,37.2,35.6,38.8,40,38.8z M31.4,14c2.4-2.4,5.2-3.5,8.6-3.5
		s6.2,1.2,8.6,3.5c2.4,2.4,3.5,5.2,3.5,8.6s-1.2,6.2-3.5,8.6c-2.4,2.4-5.2,3.5-8.6,3.5s-6.2-1.2-8.6-3.5c-2.4-2.4-3.6-5.2-3.6-8.6
		S29,16.4,31.4,14z"/>
	<path class="st0" d="M67.7,58c-0.1-1.3-0.3-2.8-0.5-4.2c-0.3-1.5-0.6-2.9-1-4.2c-0.4-1.4-1-2.7-1.7-4c-0.8-1.3-1.6-2.5-2.7-3.4
		c-1-1-2.3-1.8-3.8-2.4c-1.5-0.6-3.1-0.9-4.8-0.9c-0.7,0-1.4,0.3-2.6,1.1c-0.8,0.5-1.7,1.1-2.8,1.7c-0.9,0.5-2.1,1.1-3.5,1.5
		C42.8,43.7,41.5,44,40,44c-1.5,0-2.9-0.3-4.3-0.7c-1.5-0.4-2.7-1-3.5-1.5c-1-0.7-1.9-1.2-2.8-1.7c-1.3-0.9-1.9-1.1-2.6-1.1
		c-1.7,0-3.4,0.3-4.8,0.9c-1.5,0.6-2.8,1.4-3.8,2.4c-1,0.9-1.9,2.1-2.7,3.4c-0.7,1.3-1.3,2.6-1.7,4c-0.4,1.3-0.8,2.8-1,4.2
		c-0.3,1.5-0.4,2.9-0.5,4.2c-0.1,1.3-0.2,2.6-0.2,4c0,3.5,1.1,6.3,3.3,8.4c2.2,2.1,5,3.1,8.5,3.1h32.2c3.4,0,6.4-1,8.5-3.1
		s3.3-4.9,3.3-8.4C67.8,60.6,67.8,59.3,67.7,58z M61.8,67.5c-1.5,1.4-3.4,2-5.8,2H23.8c-2.5,0-4.4-0.7-5.8-2
		c-1.4-1.3-2.1-3.2-2.1-5.6c0-1.3,0-2.5,0.1-3.7c0.1-1.2,0.3-2.4,0.5-3.8c0.3-1.4,0.5-2.6,0.9-3.8c0.3-1.1,0.9-2.2,1.5-3.2
		c0.6-1,1.2-1.8,1.9-2.5c0.7-0.6,1.5-1.2,2.5-1.5c0.9-0.3,2-0.6,3.1-0.6c0.2,0.1,0.3,0.2,0.8,0.4c0.8,0.5,1.7,1.1,2.8,1.8
		c1.1,0.8,2.7,1.4,4.4,2c1.8,0.6,3.7,0.9,5.5,0.9s3.7-0.3,5.5-0.9c1.8-0.6,3.3-1.2,4.4-2c1-0.7,2-1.3,2.8-1.8
		c0.4-0.3,0.6-0.4,0.8-0.4c1.1,0,2.2,0.3,3.1,0.6c1,0.4,1.8,0.9,2.5,1.5c0.7,0.7,1.4,1.5,1.9,2.5c0.6,1,1,2.2,1.5,3.2
		c0.3,1.1,0.7,2.4,0.9,3.8c0.3,1.4,0.4,2.7,0.5,3.8l0,0c0.1,1.2,0.1,2.4,0.1,3.7C63.9,64.4,63.2,66.2,61.8,67.5z"/>
</g>
</svg>
