<?xml version="1.0" encoding="utf-8"?>
<!-- Generator: Adobe Illustrator 22.0.1, SVG Export Plug-In . SVG Version: 6.00 Build 0)  -->
<svg version="1.1" id="Layer_1" xmlns="http://www.w3.org/2000/svg" xmlns:xlink="http://www.w3.org/1999/xlink" x="0px" y="0px"
	 viewBox="0 0 80 80" style="enable-background:new 0 0 80 80;" xml:space="preserve">
<style type="text/css">
	.st0{fill:#777777;}
</style>
<path class="st0" d="M41.8,60.9h-3.7C37,60.9,36,61.8,36,63s0.9,2.1,2.1,2.1h3.7c1.2,0,2.1-0.9,2.1-2.1S43,60.9,41.8,60.9z"/>
<path class="st0" d="M54.9,6H25.1c-4.4,0-8,3.6-8,8V66c0,4.4,3.6,8,8,8h29.8c4.4,0,8-3.6,8-8V14C62.9,9.6,59.3,6,54.9,6z M21.4,21.5
	h37.2v31.3H21.4V21.5z M25.1,10.2h29.8c2,0,3.7,1.7,3.7,3.7v3.3H21.4V14C21.4,11.9,23.1,10.2,25.1,10.2z M54.9,69.8H25.1
	c-2,0-3.7-1.7-3.7-3.7v-9h37.2v9C58.6,68.1,56.9,69.8,54.9,69.8z"/>
</svg>
