<?xml version="1.0" encoding="utf-8"?>
<!-- Generator: Adobe Illustrator 22.0.1, SVG Export Plug-In . SVG Version: 6.00 Build 0)  -->
<svg version="1.1" id="Layer_1" xmlns="http://www.w3.org/2000/svg" xmlns:xlink="http://www.w3.org/1999/xlink" x="0px" y="0px"
	 viewBox="0 0 80 80" style="enable-background:new 0 0 80 80;" xml:space="preserve">
<style type="text/css">
	.st0{fill:#777777;stroke:#777777;stroke-miterlimit:10;}
</style>
<g>
	<g>
		<path class="st0" d="M39.5,6c-10.6,0-19.3,8.6-19.3,19.3c0,4.4,1.5,8.7,4.3,12.1c0,0,0,0.1,0.1,0.1l13.8,17.7
			c0.2,0.3,0.6,0.5,1,0.5s0.8-0.2,1-0.5l13.9-17.8l0,0c2.8-3.4,4.3-7.7,4.3-12.1C58.7,14.6,50.1,6,39.5,6z M52.4,35.8
			C52.4,35.8,52.3,35.8,52.4,35.8L39.5,52.3L26.8,36c0-0.1-0.1-0.1-0.1-0.1c-2.5-3-3.8-6.7-3.8-10.6c0-9.2,7.5-16.6,16.6-16.6
			s16.6,7.5,16.6,16.6C56.1,29.1,54.8,32.8,52.4,35.8z"/>
	</g>
</g>
<g>
	<g>
		<path class="st0" d="M49.6,22.6c-0.2-0.6-0.8-1-1.4-0.8c-0.6,0.2-1,0.8-0.8,1.4c0.9,2.9,0.1,6-2.1,8.1c-1.5,1.5-3.6,2.4-5.8,2.4
			c-2.1,0-4.2-0.9-5.8-2.4c-1.5-1.5-2.4-3.6-2.4-5.8s0.9-4.2,2.4-5.8c2.1-2.1,5.3-2.9,8.1-2.1c0.6,0.2,1.2-0.2,1.4-0.8
			c0.2-0.6-0.2-1.2-0.8-1.4c-3.7-1.1-7.7-0.1-10.4,2.7c-2,2-3,4.6-3,7.4s1.1,5.4,3,7.4c2,2,4.6,3,7.4,3s5.4-1.1,7.4-3
			C49.7,30.2,50.6,26.2,49.6,22.6z"/>
	</g>
</g>
<g>
	<g>
		<path class="st0" d="M46.9,18.1L46.9,18.1c-0.4-0.4-1.2-0.4-1.7,0c-0.4,0.4-0.4,1.2,0,1.7l0,0c0.3,0.3,0.5,0.4,0.8,0.4
			c0.3,0,0.6-0.1,0.8-0.4C47.3,19.3,47.3,18.5,46.9,18.1z"/>
	</g>
</g>
<g>
	<g>
		<path class="st0" d="M59.6,46c-0.7-0.2-1.4,0.1-1.7,0.8c-0.2,0.7,0.1,1.4,0.8,1.7c7.3,2.4,11.6,6,11.6,9.6c0,3.1-3.1,6.1-8.6,8.5
			c-5.9,2.5-13.8,3.9-22.2,3.9s-16.3-1.5-22.3-4c-5.5-2.3-8.6-5.4-8.6-8.5c0-2.6,2.2-5.1,6.2-7.3c4.2-2.3,10.2-3.9,16.9-4.6
			c0.7-0.1,1.2-0.7,1.2-1.4c-0.1-0.7-0.7-1.2-1.4-1.2c-7,0.8-13.3,2.5-17.8,4.9c-5,2.7-7.6,6-7.6,9.6c0,4.2,3.6,8.1,10.2,10.9
			c6.2,2.7,14.5,4.1,23.3,4.1s17-1.5,23.3-4.1C69.4,66.1,73,62.2,73,58C73,53.2,68.1,48.8,59.6,46z"/>
	</g>
</g>
<g>
	<g>
		<path class="st0" d="M53.6,44.4L53.6,44.4c-0.8-0.2-1.4,0.3-1.6,1c-0.1,0.7,0.3,1.4,1,1.5l0,0c0.1,0,0.2,0,0.3,0
			c0.6,0,1.2-0.4,1.3-1.1C54.8,45.2,54.3,44.5,53.6,44.4z"/>
	</g>
</g>
<g>
	<g>
		<path class="st0" d="M29.6,50.1c-0.1-0.7-0.8-1.2-1.5-1H28c-0.7,0.2-1.1,0.9-0.9,1.6c0.2,0.6,0.7,1,1.3,1c0.1,0,0.2,0,0.3,0
			C29.3,51.5,29.7,50.8,29.6,50.1z"/>
	</g>
</g>
<g>
	<g>
		<path class="st0" d="M43.9,48c-0.7-0.1-1.4,0.5-1.4,1.2s0.5,1.4,1.2,1.4c8.5,0.7,13.1,3.2,13.1,4.7c0,0.7-1.2,2-4.5,3.1
			c-3.4,1.1-7.9,1.7-12.7,1.7s-9.3-0.6-12.7-1.7c-3.4-1.1-4.5-2.4-4.5-3.1c0-0.7,0.9-1.5,2.5-2.3c0.6-0.3,0.9-1.1,0.6-1.8
			c-0.3-0.6-1.1-0.9-1.8-0.6c-3.3,1.6-3.9,3.4-3.9,4.7c0,4.9,10,7.5,19.9,7.5s19.9-2.6,19.9-7.5C59.4,50.8,51,48.5,43.9,48z"/>
	</g>
</g>
</svg>
