<?xml version="1.0" encoding="utf-8"?>
<!-- Generator: Adobe Illustrator 22.0.1, SVG Export Plug-In . SVG Version: 6.00 Build 0)  -->
<svg version="1.1" id="Layer_1" xmlns="http://www.w3.org/2000/svg" xmlns:xlink="http://www.w3.org/1999/xlink" x="0px" y="0px"
	 viewBox="0 0 24 24" style="enable-background:new 0 0 24 24;" xml:space="preserve">
<style type="text/css">
	.st0{fill:#FFFFFF;stroke:#FFFFFF;stroke-width:0.7;stroke-miterlimit:10;}
	.st1{fill:#FFFFFF;}
</style>
<path class="st0" d="M20.9,4.4c0,0.2,0.2,0.4,0.4,0.4c0.1,0,0.1,0,0.3-0.1c0.1-0.1,0.1-0.1,0.1-0.2s-1-1.6-2.3-3.5
	c-0.1-0.1-0.2-0.2-0.3-0.2H3C2.9,0.8,2.7,0.9,2.7,1L0.4,4.3c0,0,0,0,0,0l0,2.1c0,1.4,0.9,2.7,2.3,3C4,9.7,5.3,9.1,5.9,8.1
	c0,0,0,0,0.1,0c1.1,1.9,3.9,1.9,5.1,0c0,0,0,0,0.1,0c1.1,1.9,3.9,1.9,5.1,0c0,0,0,0,0.1,0c0.5,0.9,1.5,1.4,2.6,1.4
	c1.6,0,2.9-1.3,2.9-2.9c0-0.2-0.2-0.4-0.4-0.4S21,6.4,21,6.6c0,1.2-1,2.2-2.2,2.2s-2.2-1-2.2-2.2c0-0.2-0.2-0.4-0.4-0.4
	s-0.4,0.2-0.4,0.4c0,1.2-1,2.2-2.2,2.2s-2.2-1-2.2-2.2c0-0.2-0.2-0.4-0.4-0.4s-0.4,0.2-0.4,0.4c0,1.5-1.7,2.8-3.3,1.9
	c-0.7-0.4-1-1.2-1.1-2c0-0.2-0.2-0.3-0.4-0.3c-0.2,0-0.3,0.1-0.3,0.3c0,1.3-1,2.2-2.3,2.2C2,8.8,1,7.6,1,6.3l0-1.8c0,0,0,0,0,0
	l2.2-3.1c0,0,0,0,0,0h15.5c0,0,0,0,0,0l2,2.6v0.1C20.8,4.3,20.8,4.3,20.9,4.4L20.9,4.4z M6.6,22.4H3.4c-0.6,0-1.1-0.5-1.1-1.1V10.8
	c0-0.2-0.2-0.4-0.4-0.4s-0.4,0.2-0.4,0.4v10.5c0,1,0.8,1.8,1.8,1.8l3.4,0.1C6.6,22.9,6.6,22.4,6.6,22.4z"/>
<g>
	<path class="st1" d="M13.5,11.7L13.5,11.7c1.2,0,2.2,1,2.2,2.2v0c0,1.2-1,2.2-2.2,2.2h0c-1.2,0-2.2-1-2.2-2.2v0
		C11.3,12.7,12.3,11.7,13.5,11.7z"/>
	<path class="st1" d="M18.3,11.7h4.3c0,0,0,0,0,0v4.3c0,0,0,0,0,0h-4.3c0,0,0,0,0,0L18.3,11.7C18.3,11.7,18.3,11.7,18.3,11.7z"/>
	<path class="st1" d="M11.3,18.8h4.3c0,0,0,0,0,0v4.3c0,0,0,0,0,0h-4.3c0,0,0,0,0,0L11.3,18.8C11.3,18.8,11.3,18.8,11.3,18.8z"/>
	<path class="st1" d="M20.5,23.2L20.5,23.2c-1.2,0-2.2-1-2.2-2.2l0,0c0-1.2,1-2.2,2.2-2.2l0,0c1.2,0,2.2,1,2.2,2.2l0,0
		C22.7,22.3,21.7,23.2,20.5,23.2z"/>
</g>
</svg>
