<?xml version="1.0" encoding="utf-8"?>
<!-- Generator: Adobe Illustrator 21.1.0, SVG Export Plug-In . SVG Version: 6.00 Build 0)  -->
<svg version="1.1" id="Layer_1" xmlns="http://www.w3.org/2000/svg" xmlns:xlink="http://www.w3.org/1999/xlink" x="0px" y="0px"
	 viewBox="0 0 50 50" style="enable-background:new 0 0 50 50;" xml:space="preserve">
<style type="text/css">
	.st0{fill:#282828;}
	.st1{fill:#0038BA;}
</style>
<g>
	<g>
		<g>
			<path class="st0" d="M36.3,22.1c-0.2-0.6-0.9-0.9-1.5-0.6c-0.6,0.2-0.9,0.9-0.6,1.5c0.6,1.5,0.9,3,0.9,4.6
				c0,7-5.7,12.6-12.6,12.6c-7,0-12.6-5.7-12.6-12.6s5.7-12.6,12.6-12.6c1.6,0,3.2,0.3,4.7,0.9c0.6,0.2,1.3-0.1,1.5-0.6
				c0.2-0.6-0.1-1.3-0.6-1.5c-1.7-0.7-3.6-1-5.5-1c-8.2,0-14.9,6.7-14.9,14.9s6.7,14.9,14.9,14.9c8.2,0,14.9-6.7,14.9-14.9
				C37.4,25.7,37,23.8,36.3,22.1z"/>
		</g>
	</g>
	<g>
		<g>
			<path class="st0" d="M43.4,21.5c-0.2-0.6-0.8-1-1.4-0.8c-0.6,0.2-1,0.8-0.8,1.4c0.5,1.7,0.8,3.6,0.8,5.4
				c0,10.8-8.8,19.5-19.5,19.5c-10.8,0-19.5-8.8-19.5-19.5S11.7,8,22.4,8c1.8,0,3.6,0.3,5.4,0.8C28.4,9,29.1,8.6,29.3,8
				c0.2-0.6-0.2-1.2-0.8-1.4c-2-0.6-4-0.8-6-0.8c-12,0-21.8,9.8-21.8,21.8s9.8,21.8,21.8,21.8c12,0,21.8-9.8,21.8-21.8
				C44.3,25.5,44,23.5,43.4,21.5z"/>
		</g>
	</g>
	<g>
		<g>
			<path class="st0" d="M30.5,26.8c-0.1-0.6-0.6-1.1-1.2-1c-0.6,0.1-1.1,0.6-1,1.2c0,0.2,0,0.3,0,0.5c0,3.2-2.6,5.7-5.7,5.7
				c-3.2,0-5.7-2.6-5.7-5.7c0-3.2,2.6-5.7,5.7-5.7c0.2,0,0.3,0,0.5,0c0.6,0.1,1.2-0.4,1.3-1c0.1-0.6-0.4-1.2-1-1.3
				c-0.2,0-0.5,0-0.7,0c-4.4,0-8,3.6-8,8c0,4.4,3.6,8,8,8c4.4,0,8-3.6,8-8C30.5,27.3,30.5,27.1,30.5,26.8z"/>
		</g>
	</g>
	<g>
		<g>
			<path class="st1" d="M49.2,8.4c-0.4-0.9-1.2-1.4-2.1-1.4h-4v-4c0-0.9-0.6-1.8-1.4-2.1c-0.9-0.4-1.8-0.2-2.5,0.5L32.4,8
				c-0.7,0.7-1,1.5-1,2.4V17l-9.3,9.3c-0.4,0.4-0.4,1.2,0,1.6c0.2,0.2,0.5,0.3,0.8,0.3s0.6-0.1,0.8-0.3l9.3-9.3h6.5
				c0.9,0,1.8-0.4,2.4-1l6.7-6.7C49.4,10.2,49.6,9.2,49.2,8.4z M33.7,10.4c0-0.3,0.1-0.6,0.3-0.8l6.7-6.7v4.7l-7,7L33.7,10.4
				L33.7,10.4z M40.4,15.9c-0.2,0.2-0.5,0.3-0.8,0.3h-4.2l7-7l4.7,0L40.4,15.9z"/>
		</g>
	</g>
</g>
</svg>
