<?xml version="1.0" encoding="utf-8"?>
<!-- Generator: Adobe Illustrator 22.0.1, SVG Export Plug-In . SVG Version: 6.00 Build 0)  -->
<svg version="1.1" id="outline" xmlns="http://www.w3.org/2000/svg" xmlns:xlink="http://www.w3.org/1999/xlink" x="0px" y="0px"
	 viewBox="0 0 167 167" style="enable-background:new 0 0 167 167;" xml:space="preserve">
<style type="text/css">
	.st0{fill:#0038BA;}
	.st1{fill:#282828;}
</style>
<path class="st0" d="M97.4,3.6c-1.5,0-2.7,1.2-2.7,2.7v26.8c0,1.5,1.2,2.7,2.7,2.7c19.2,0,34.8,15.6,34.8,34.8
	c0,1.5,1.2,2.7,2.7,2.7h26.8c1.5,0,2.7-1.2,2.7-2.7C164.4,33.7,134.3,3.6,97.4,3.6z M137.5,67.9c-1.4-20.1-17.4-36.1-37.4-37.4V9
	c31.9,1.4,57.5,27,58.9,58.9H137.5z"/>
<path class="st0" d="M3.6,11.7H9V17H3.6V11.7z"/>
<path class="st0" d="M14.3,11.7h13.4V17H14.3V11.7z"/>
<path class="st1" d="M120.5,140.2c19-12.3,30.5-33.5,30.5-56.2c0-1.5-1.2-2.7-2.7-2.7h-26.8c-1.5,0-2.7,1.2-2.7,2.7
	c0,19.2-15.6,34.8-34.8,34.8S49.2,103.2,49.2,84S64.8,49.2,84,49.2c1.5,0,2.7-1.2,2.7-2.7V19.7c0-1.5-1.2-2.7-2.7-2.7
	c-15.6,0-30.8,5.5-42.8,15.5L32,25.6c-0.5-0.3-1-0.5-1.6-0.5H3.6v5.4h25.9l7.7,5.7c-26.4,25.8-26.9,68.2-1.1,94.6
	c3.1,3.2,6.6,6.1,10.3,8.6l-6.3,6.3H3.6v5.4h37.5c0.7,0,1.4-0.3,1.9-0.8l7.9-7.9c19.9,11.3,44.3,11.6,64.5,0.9l9.8,7.3
	c0.5,0.3,1,0.5,1.6,0.5h34.8v-5.4h-33.9L120.5,140.2z M124.1,86.7h21.5c-1.4,31.9-27,57.5-58.9,58.9v-21.5
	C106.8,122.7,122.7,106.8,124.1,86.7z M81.3,22.4v21.5c-20.1,1.4-36.1,17.4-37.4,37.4H22.4C23.8,49.5,49.5,23.8,81.3,22.4z
	 M22.4,86.7h21.5c1.4,20.1,17.3,36.1,37.4,37.4v21.5C49.5,144.2,23.8,118.5,22.4,86.7z"/>
<path class="st0" d="M156.3,159h5.4v5.4h-5.4V159z"/>
<path class="st0" d="M129.6,159H151v5.4h-21.4V159z"/>
<path class="st0" d="M3.6,159H9v5.4H3.6V159z"/>
<path class="st0" d="M14.3,159h21.4v5.4H14.3V159z"/>
<path class="st0" d="M108.1,101.4V51.8c0-1.5-1.2-2.7-2.7-2.7H94.7c-1.5,0-2.7,1.2-2.7,2.7v5.4h-8c-1.5,0-2.7,1.2-2.7,2.7v8h-8
	c-1.5,0-2.7,1.2-2.7,2.7V76h-8c-1.5,0-2.7,1.2-2.7,2.7v22.8c0,1.5,1.2,2.7,2.7,2.7h42.9C106.9,104.1,108.1,102.9,108.1,101.4z
	 M65.2,81.3h5.4v17.4h-5.4V81.3z M76,73.3h5.4v25.5H76V73.3z M86.7,62.6H92v36.2h-5.4V62.6z M102.8,98.7h-5.4V54.5h5.4V98.7z"/>
</svg>
