<svg xmlns="http://www.w3.org/2000/svg" width="28" height="28" viewBox="0 0 28 28">
  <g id="visit" transform="translate(-155.335 -3555.88)">
    <circle id="Ellipse_2445" data-name="Ellipse 2445" cx="14" cy="14" r="14" transform="translate(155.335 3555.88)" fill="#169dfb" opacity="0.1"/>
    <g id="navigation_1_" data-name="navigation (1)" transform="translate(160.619 3561.328)">
      <path id="Path_8485" data-name="Path 8485" d="M17.553,9.237a.352.352,0,0,1-.229-.084C17.188,9.039,14,6.319,14,3.553a3.553,3.553,0,1,1,7.105,0c0,2.767-3.188,5.487-3.324,5.6A.352.352,0,0,1,17.553,9.237Zm0-8.526a2.845,2.845,0,0,0-2.842,2.842c0,2.038,2.129,4.189,2.842,4.852.713-.663,2.842-2.814,2.842-4.852A2.845,2.845,0,0,0,17.553.711Z" transform="translate(-4.053 0)" fill="#0038ba"/>
      <path id="Path_8486" data-name="Path 8486" d="M18.421,5.842a1.421,1.421,0,1,1,1.421-1.421A1.422,1.422,0,0,1,18.421,5.842Z" transform="translate(-4.921 -0.868)" fill="#0038ba"/>
      <path id="Path_8487" data-name="Path 8487" d="M3.908,7.816H.355a.355.355,0,1,1,0-.711h3.2V.355a.355.355,0,1,1,.711,0V7.461A.355.355,0,0,1,3.908,7.816Z" fill="#282828"/>
      <path id="Path_8488" data-name="Path 8488" d="M19.013,10.658H8.355A.355.355,0,0,1,8,10.3V.355a.355.355,0,0,1,.711,0V9.947h10.3a.355.355,0,0,1,0,.711Z" transform="translate(-2.316)"/>
      <path id="Path_8489" data-name="Path 8489" d="M3.908,20.816a.355.355,0,0,1-.355-.355v-6.75H.355a.355.355,0,0,1,0-.711H3.908a.355.355,0,0,1,.355.355v7.105A.355.355,0,0,1,3.908,20.816Z" transform="translate(0 -3.763)" fill="#282828"/>
      <path id="Path_8490" data-name="Path 8490" d="M8.355,21.974A.355.355,0,0,1,8,21.618V17.355A.355.355,0,0,1,8.355,17H19.013a.355.355,0,1,1,0,.711H8.711v3.908A.355.355,0,0,1,8.355,21.974Z" transform="translate(-2.316 -4.921)" fill="#282828"/>
      <path id="Path_8491" data-name="Path 8491" d="M4.487,4.711H2.355a.355.355,0,1,1,0-.711H4.487a.355.355,0,0,1,0,.711Z" transform="translate(-0.579 -1.158)" fill="#282828"/>
      <path id="Path_8492" data-name="Path 8492" d="M15.487,20.553H13.355A.355.355,0,0,1,13,20.2V17.355a.355.355,0,0,1,.711,0v2.487h1.776a.355.355,0,1,1,0,.711Z" transform="translate(-3.763 -4.921)" fill="#282828"/>
      <path id="Path_8493" data-name="Path 8493" d="M11.908,9.711H8.355a.355.355,0,1,1,0-.711h3.553a.355.355,0,1,1,0,.711Z" transform="translate(-2.316 -2.605)" fill="#282828"/>
      <path id="Path_8494" data-name="Path 8494" d="M2.355,15.842A.355.355,0,0,1,2,15.487V13.355a.355.355,0,1,1,.711,0v2.132A.355.355,0,0,1,2.355,15.842Z" transform="translate(-0.579 -3.763)" fill="#282828"/>
    </g>
  </g>
</svg>
