<?xml version="1.0" encoding="utf-8"?>
<!-- Generator: Adobe Illustrator 22.0.1, SVG Export Plug-In . SVG Version: 6.00 Build 0)  -->
<svg version="1.1" id="Layer_1" xmlns="http://www.w3.org/2000/svg" xmlns:xlink="http://www.w3.org/1999/xlink" x="0px" y="0px"
	 viewBox="0 0 50 50" style="enable-background:new 0 0 50 50;" xml:space="preserve">
<style type="text/css">
	.st0{fill:#282828;}
	.st1{fill:#0038BA;}
</style>
<g>
	<g>
		<g>
			<path class="st0" d="M7.4,39.6H5.2c-0.4,0-0.8,0.4-0.8,0.8v2.1c0,1.7,1.4,3.1,3.1,3.1h35c1.7,0,3.1-1.4,3.1-3.1V12
				c0-2.2-1.8-4-4.1-4h-3.8V6.8c0-1.3-1.1-2.4-2.4-2.4s-2.4,1.1-2.4,2.4V8H19.4V6.8c0-1.3-1.1-2.4-2.4-2.4s-2.4,1.1-2.4,2.4V8
				c-0.1,0-0.1,0-0.2,0h-3.2c-2.2,0-4,1.8-4,4v5.7c0,0.4,0.4,0.8,0.8,0.8c0.4,0,0.8-0.4,0.8-0.8v-1.4h29c0.4,0,0.8-0.4,0.8-0.8
				s-0.4-0.8-0.8-0.8h-29V12c0-1.3,1.1-2.4,2.4-2.4h3.2c0.1,0,0.1,0,0.2,0v1c0,1.3,1.1,2.4,2.4,2.4s2.4-1.1,2.4-2.4v-1h13.5v1
				c0,1.3,1.1,2.4,2.4,2.4s2.4-1.1,2.4-2.4v-1h3.8c1.3,0,2.4,1.1,2.4,2.4v30.5c0,0.8-0.7,1.4-1.4,1.4s-1.4-0.7-1.4-1.4v-2.1
				c0-0.4-0.4-0.8-0.8-0.8H31c-0.4,0-0.8,0.4-0.8,0.8s0.4,0.8,0.8,0.8h8.5v1.3c0,0.5,0.1,1,0.4,1.4H7.5C6.7,44,6,43.3,6,42.5v-1.3
				h18c0.4,0,0.8-0.4,0.8-0.8s-0.4-0.8-0.8-0.8h-8C16,39.6,7.4,39.6,7.4,39.6z M17.8,10.6c0,0.4-0.4,0.8-0.8,0.8s-0.8-0.4-0.8-0.8
				V6.8C16.2,6.4,16.6,6,17,6s0.8,0.4,0.8,0.8V10.6z M36.1,10.6c0,0.4-0.4,0.8-0.8,0.8s-0.8-0.4-0.8-0.8V6.8c0-0.4,0.4-0.8,0.8-0.8
				s0.8,0.4,0.8,0.8V10.6z"/>
		</g>
	</g>
	<g>
		<g>
			<path class="st0" d="M42.1,14.9c-0.2-0.2-0.4-0.2-0.6-0.2c-0.2,0-0.4,0.1-0.6,0.2c-0.2,0.2-0.2,0.4-0.2,0.6s0.1,0.4,0.2,0.6
				c0.1,0.2,0.4,0.2,0.6,0.2c0.2,0,0.4-0.1,0.6-0.2c0.2-0.2,0.2-0.4,0.2-0.6S42.2,15,42.1,14.9z"/>
		</g>
	</g>
	<g>
		<g>
			<path class="st0" d="M28.4,39.9c-0.2-0.2-0.4-0.2-0.6-0.2s-0.4,0.1-0.6,0.2C27.1,40,27,40.2,27,40.4s0.1,0.4,0.2,0.6
				c0.2,0.2,0.4,0.2,0.6,0.2s0.4-0.1,0.6-0.2c0.2-0.2,0.2-0.4,0.2-0.6C28.7,40.2,28.6,40,28.4,39.9z"/>
		</g>
	</g>
	<g>
		<g>
			<path class="st0" d="M30.1,28.9c-1.7,0-3.1,1.4-3.1,3.1s1.4,3.1,3.1,3.1s3.1-1.4,3.1-3.1S31.8,28.9,30.1,28.9z M30.1,33.4
				c-0.8,0-1.4-0.7-1.4-1.4c0-0.8,0.7-1.4,1.4-1.4c0.8,0,1.4,0.7,1.4,1.4C31.6,32.7,30.9,33.4,30.1,33.4z"/>
		</g>
	</g>
	<g>
		<g>
			<path class="st0" d="M37.6,28.9c-1.7,0-3.1,1.4-3.1,3.1s1.4,3.1,3.1,3.1s3.1-1.4,3.1-3.1S39.3,28.9,37.6,28.9z M37.6,33.4
				c-0.8,0-1.4-0.7-1.4-1.4c0-0.8,0.7-1.4,1.4-1.4c0.8,0,1.4,0.7,1.4,1.4C39,32.7,38.4,33.4,37.6,33.4z"/>
		</g>
	</g>
	<g>
		<g>
			<path class="st0" d="M30.1,20.5c-1.7,0-3.1,1.4-3.1,3.1s1.4,3.1,3.1,3.1s3.1-1.4,3.1-3.1S31.8,20.5,30.1,20.5z M30.1,25
				c-0.8,0-1.4-0.7-1.4-1.4s0.7-1.4,1.4-1.4c0.8,0,1.4,0.7,1.4,1.4S30.9,25,30.1,25z"/>
		</g>
	</g>
	<g>
		<g>
			<path class="st1" d="M37.6,20.5c-1.7,0-3.1,1.4-3.1,3.1s1.4,3.1,3.1,3.1s3.1-1.4,3.1-3.1S39.3,20.5,37.6,20.5z M37.6,25
				c-0.8,0-1.4-0.7-1.4-1.4s0.7-1.4,1.4-1.4c0.8,0,1.4,0.7,1.4,1.4S38.4,25,37.6,25z"/>
		</g>
	</g>
	<g>
		<g>
			<path class="st1" d="M13.8,24.4c-1.7,0-3.1,1.4-3.1,3.1s1.4,3.1,3.1,3.1s3.1-1.4,3.1-3.1S15.5,24.4,13.8,24.4z M13.8,28.9
				c-0.8,0-1.4-0.7-1.4-1.4s0.7-1.4,1.4-1.4c0.8,0,1.4,0.7,1.4,1.4S14.6,28.9,13.8,28.9z"/>
		</g>
	</g>
	<path id="Path_8485" class="st1" d="M13.9,39c-0.2,0-0.3-0.1-0.5-0.2c-0.3-0.2-6.7-5.7-6.7-11.3c-0.1-4,3.1-7.2,7.1-7.3
		c4-0.1,7.2,3.1,7.3,7.1c0,0.1,0,0.2,0,0.2c0,5.6-6.5,11.1-6.7,11.3C14.2,38.9,14,39,13.9,39z M13.9,21.8c-3.2,0-5.7,2.6-5.8,5.8
		c0,4.1,4.3,8.5,5.8,9.8c1.4-1.3,5.8-5.7,5.8-9.8C19.6,24.3,17,21.8,13.9,21.8z"/>
</g>
</svg>
