<?xml version="1.0" encoding="utf-8"?>
<!-- Generator: Adobe Illustrator 22.0.1, SVG Export Plug-In . SVG Version: 6.00 Build 0)  -->
<svg version="1.1" id="Capa_1" xmlns="http://www.w3.org/2000/svg" xmlns:xlink="http://www.w3.org/1999/xlink" x="0px" y="0px"
	 viewBox="0 0 154 154" style="enable-background:new 0 0 154 154;" xml:space="preserve">
<style type="text/css">
	.st0{fill:#0038BA;}
	.st1{fill:#282828;}
</style>
<g>
	<g>
		<g>
			<path class="st0" d="M141.9,51.6c4.9-9.7,9.9-21.7,9.9-27.7c0-12.5-10.1-22.7-22.6-22.7s-22.6,10.2-22.6,22.7
				c0,6,5,17.9,9.9,27.7c-4.5,1.7-8,5.4-9.5,10h-0.3c-1.4,0-2.5,1.1-2.5,2.5s1.1,2.5,2.5,2.5h0.3c1.7,7.2,10.9,12.6,22.3,12.6
				c12.7,0,22.6-6.6,22.6-15.1C151.8,59,148.1,54.4,141.9,51.6z M111.6,24c0-9.7,7.9-17.6,17.6-17.7c9.7,0,17.6,7.9,17.6,17.7
				c0,7-9.4,26.9-15.5,36.5c-0.5,0.7-1.3,1.1-2.1,1.1s-1.6-0.4-2.1-1.1C121,50.9,111.6,30.9,111.6,24z M129.2,74.2
				c-9.5,0-17.6-4.6-17.6-10.1c0-3.1,2.8-6.1,7.2-8c1.5,2.8,2.9,5.2,4.1,7.1c1.4,2.2,3.8,3.5,6.4,3.5c2.6,0,5-1.3,6.4-3.5
				c1.2-1.8,2.6-4.3,4.1-7.1c4.4,1.9,7.2,4.9,7.2,8C146.8,69.6,138.7,74.2,129.2,74.2z"/>
			<path class="st0" d="M141.8,23.9c0-6.9-5.6-12.6-12.6-12.6c-6.9,0-12.6,5.6-12.6,12.6s5.6,12.6,12.6,12.6
				C136.1,36.5,141.7,30.9,141.8,23.9z M121.6,23.9c0-4.2,3.4-7.5,7.5-7.5c4.2,0,7.5,3.4,7.5,7.5s-3.4,7.5-7.5,7.5
				C125,31.5,121.6,28.1,121.6,23.9z"/>
			<path class="st1" d="M53.8,74.2c0-11.1-9-20.1-20.1-20.1s-20.1,9-20.1,20.1s9,20.1,20.1,20.1C44.8,94.3,53.8,85.3,53.8,74.2z
				 M18.6,74.2c0-8.3,6.8-15.1,15.1-15.1s15.1,6.8,15.1,15.1S42,89.3,33.7,89.3C25.3,89.3,18.6,82.5,18.6,74.2z"/>
			<path class="st1" d="M66.3,134.5H66c-1.4-5.4-8-9.8-18.2-12c8.3-15.3,18.5-37.8,18.5-48.2c0-11.7-6.2-22.5-16.3-28.4
				s-22.6-5.9-32.7,0S1,62.6,1,74.3c0,10.4,10.2,33,18.5,48.2C8,125,1,130.3,1,136.6c0,8.9,14,15.5,32.7,15.5
				c16.5,0,29.3-5.2,32.1-12.6h0.6c1.4,0,2.5-1.1,2.5-2.5S67.7,134.5,66.3,134.5z M6,74.3C6,59,18.4,46.6,33.7,46.5
				C49,46.6,61.3,59,61.3,74.3c0,10.6-14.2,40.9-23.4,55.4c-0.9,1.5-2.5,2.3-4.2,2.3s-3.3-0.9-4.2-2.3C20.2,115.2,6,84.9,6,74.3z
				 M33.7,147.1c-15.8,0-27.6-5.6-27.6-10.5c0-3.3,5.5-7.5,16-9.4c1.1,2,2.2,3.7,3.2,5.2c1.8,2.9,5,4.7,8.5,4.7
				c3.4,0,6.6-1.8,8.5-4.7c1-1.5,2-3.3,3.2-5.2c10.5,2,16,6.2,16,9.4C61.3,141.5,49.5,147.1,33.7,147.1z"/>
			<path class="st1" d="M90.3,86.8c0-1.4-1.1-2.5-2.5-2.5h-2.6c-0.6,0-1.2-0.1-1.8-0.2c-0.7-0.1-1.3,0-1.9,0.3
				c-0.6,0.4-1,0.9-1.1,1.6c-0.3,1.4,0.6,2.7,1.9,3c0.9,0.2,1.9,0.3,2.9,0.3h2.6C89.2,89.3,90.3,88.1,90.3,86.8z"/>
			<path class="st1" d="M134.5,88.9c0.4-1.3-0.3-2.7-1.6-3.2l0,0c-1.7-0.6-3.5-1-5.3-1.2c-0.9-0.1-1.8,0.3-2.3,1s-0.7,1.7-0.3,2.5
				c0.3,0.8,1.1,1.4,2,1.5c1.5,0.2,2.9,0.5,4.3,1C132.6,90.9,134.1,90.2,134.5,88.9z"/>
			<path class="st1" d="M144.4,99.1c0.9-0.1,1.7-0.7,2-1.5s0.2-1.8-0.3-2.5c-1.1-1.4-2.4-2.8-3.7-4c-1-0.9-2.6-0.8-3.5,0.2
				s-0.8,2.6,0.2,3.5c1.1,1,2.1,2.1,3.1,3.2C142.6,98.8,143.5,99.2,144.4,99.1z"/>
			<path class="st1" d="M105.1,86.8c0-1.4-1.1-2.5-2.5-2.5h-4.9c-1.4,0-2.5,1.1-2.5,2.5s1.1,2.5,2.5,2.5h4.9
				C104,89.3,105.1,88.1,105.1,86.8z"/>
			<path class="st1" d="M150.9,104.7c-0.2-0.9-0.9-1.5-1.8-1.8c-0.9-0.2-1.8,0-2.4,0.7c-0.6,0.6-0.9,1.6-0.6,2.4
				c0.4,1.4,0.6,2.9,0.7,4.4c0.1,1.3,1.2,2.3,2.5,2.3c0.1,0,0.1,0,0.2,0c1.4-0.1,2.4-1.3,2.3-2.7
				C151.6,108.3,151.3,106.5,150.9,104.7z"/>
			<path class="st1" d="M148.8,117.6c-1.3-0.5-2.7,0.2-3.2,1.6s-1.1,2.8-1.9,4c-0.7,1.2-0.3,2.7,0.9,3.4c1.2,0.7,2.7,0.3,3.4-0.9
				c0.9-1.6,1.7-3.2,2.3-4.9C150.8,119.5,150.1,118,148.8,117.6z"/>
			<path class="st1" d="M81.2,134.5h-4.9c-1.4,0-2.5,1.1-2.5,2.5s1.1,2.5,2.5,2.5h4.9c1.4,0,2.5-1.1,2.5-2.5S82.6,134.5,81.2,134.5z
				"/>
			<path class="st1" d="M125.6,134.5c-0.5,0-0.9,0-1.4,0h-3.4c-1.4,0-2.5,1.1-2.5,2.5s1.1,2.5,2.5,2.5h3.4c0.6,0,1.1,0,1.7-0.1
				c0.9-0.1,1.7-0.6,2.1-1.4c0.4-0.8,0.3-1.8-0.2-2.5S126.5,134.4,125.6,134.5z"/>
			<path class="st1" d="M120,86.8c0-1.4-1.1-2.5-2.5-2.5h-4.9c-1.4,0-2.5,1.1-2.5,2.5s1.1,2.5,2.5,2.5h4.9
				C118.8,89.3,120,88.1,120,86.8z"/>
			<path class="st1" d="M137.9,129.8c-1.2,0.9-2.4,1.7-3.8,2.3c-1.2,0.6-1.8,2.1-1.1,3.4c0.6,1.2,2.1,1.8,3.4,1.1
				c1.6-0.8,3.2-1.8,4.6-2.9c1.1-0.8,1.3-2.4,0.5-3.5C140.6,129.2,139,129,137.9,129.8z"/>
			<path class="st1" d="M96,134.5h-4.9c-1.4,0-2.5,1.1-2.5,2.5s1.1,2.5,2.5,2.5H96c1.4,0,2.5-1.1,2.5-2.5S97.4,134.5,96,134.5z"/>
			<path class="st1" d="M110.9,134.5H106c-0.7,0-1.3,0.3-1.8,0.7c-0.5,0.5-0.7,1.1-0.7,1.8s0.3,1.3,0.7,1.8c0.5,0.5,1.1,0.7,1.8,0.7
				h4.9c1.4,0,2.5-1.1,2.5-2.5S112.3,134.5,110.9,134.5z"/>
			<path class="st1" d="M77.5,69.6c0.6,0,1.2-0.2,1.7-0.7c0.9-0.9,2.1-1.5,3.3-1.9c0.9-0.3,1.5-1,1.7-1.9s-0.1-1.8-0.8-2.4
				c-0.7-0.6-1.6-0.8-2.5-0.5c-1.9,0.6-3.7,1.6-5.2,3c-0.8,0.7-1,1.8-0.6,2.8C75.6,69,76.5,69.6,77.5,69.6z"/>
			<path class="st1" d="M91.6,66.6h4.9c1.4,0,2.5-1.1,2.5-2.5s-1.1-2.5-2.5-2.5h-4.9c-1.4,0-2.5,1.1-2.5,2.5S90.2,66.6,91.6,66.6z"
				/>
			<path class="st1" d="M77.4,82c0.5-0.8,0.5-1.7,0.1-2.5c-0.6-1.1-0.9-2.4-1-3.7c-0.1-1.4-1.3-2.4-2.6-2.4
				c-1.4,0.1-2.5,1.2-2.4,2.6c0.1,2,0.6,4,1.6,5.8c0.4,0.8,1.3,1.3,2.2,1.3C76.1,83.2,76.9,82.8,77.4,82z"/>
		</g>
	</g>
</g>
</svg>
