<?xml version="1.0" encoding="utf-8"?>
<!-- Generator: Adobe Illustrator 22.0.1, SVG Export Plug-In . SVG Version: 6.00 Build 0)  -->
<svg version="1.1" id="Layer_1" xmlns="http://www.w3.org/2000/svg" xmlns:xlink="http://www.w3.org/1999/xlink" x="0px" y="0px"
	 viewBox="0 0 35 35" style="enable-background:new 0 0 35 35;" xml:space="preserve">
<style type="text/css">
	.st0{fill:#282828;}
	.st1{fill:#FFFFFF;}
</style>
<path class="st0" d="M34.8,17.5C34.8,8,27,0.2,17.5,0.2S0.2,8,0.2,17.5S8,34.8,17.5,34.8S34.8,27,34.8,17.5"/>
<g>
	<path class="st1" d="M17.5,6c-4.9,0-8.9,4-8.9,8.9c0,3.5,1.5,7,4.2,10.2c2.1,2.4,4.1,3.7,4.2,3.8c0.1,0.1,0.3,0.1,0.4,0.1
		c0.2,0,0.3,0,0.4-0.1s2.1-1.4,4.2-3.8c2.8-3.2,4.2-6.7,4.2-10.2C26.4,10,22.4,6,17.5,6z M17.5,27.2c-1.6-1.2-7.3-5.9-7.3-12.4
		c0-4,3.3-7.3,7.3-7.3s7.3,3.3,7.3,7.3C24.8,21.3,19.1,26,17.5,27.2z"/>
	<path class="st1" d="M17.5,11.3c-1.9,0-3.5,1.6-3.5,3.5s1.6,3.5,3.5,3.5s3.5-1.6,3.5-3.5S19.4,11.3,17.5,11.3z M17.5,16.8
		c-1.1,0-1.9-0.9-1.9-1.9c0-1.1,0.9-1.9,1.9-1.9c1.1,0,1.9,0.9,1.9,1.9S18.6,16.8,17.5,16.8z"/>
</g>
</svg>
