<?xml version="1.0" encoding="utf-8"?>
<!-- Generator: Adobe Illustrator 22.0.1, SVG Export Plug-In . SVG Version: 6.00 Build 0)  -->
<svg version="1.1" id="Layer_1" xmlns="http://www.w3.org/2000/svg" xmlns:xlink="http://www.w3.org/1999/xlink" x="0px" y="0px"
	 viewBox="0 0 100 100" style="enable-background:new 0 0 100 100;" xml:space="preserve">
<style type="text/css">
	.st0{fill:#EAEAEA;}
	.st1{fill:#E3E4E2;}
	.st2{fill:#FFFFFF;}
	.st3{fill:#AAAAAA;}
	.st4{fill:#282828;}
	.st5{fill:#0038BA;}
</style>
<g id="Filledoutline">
	<path class="st0" d="M85.4,18.2v63.5H20.6V18.2L53,10.7L85.4,18.2z"/>
	<path class="st1" d="M30.6,31.9h44.9v49.8H30.6V31.9z"/>
	<rect x="6.3" y="52.3" class="st2" width="22.5" height="39"/>
	<rect x="25.4" y="71.4" class="st2" width="25.8" height="19.1"/>
	<path class="st3" d="M85.4,18.2v5.9L53,16.3l-32.4,7.4v-5.4L53,10.7L85.4,18.2z"/>
	<path class="st3" d="M55.5,25.7h-5c-1.4,0-2.5-1.1-2.5-2.5l0,0c0-1.4,1.1-2.5,2.5-2.5h5c1.4,0,2.5,1.1,2.5,2.5l0,0
		C58,24.6,56.9,25.7,55.5,25.7z"/>
	<path class="st1" d="M89.1,17L53,8.2L16.9,17v5L53,13.2L89.1,22V17z"/>
	<path class="st4" d="M23.1,86.5h2.5V89h-2.5V86.5z"/>
	<path class="st5" d="M51.7,71.6H30.5V52.9c0-0.7-0.6-1.2-1.2-1.2H6.9c-0.7,0-1.2,0.6-1.2,1.2v39.9c0,0.7,0.6,1.2,1.2,1.2h44.9
		c0.7,0,1.2-0.6,1.2-1.2v-20C53,72.1,52.4,71.6,51.7,71.6z M38,79v-5h5v5 M15.6,54.1h5v5h-5V54.1z M8.1,54.1h5v6.2
		c0,0.7,0.6,1.2,1.2,1.2h7.5c0.7,0,1.2-0.6,1.2-1.2v-6.2h5v17.4H8.1V54.1z M15.6,79v-5h5v5 M8.1,74.1h5v6.2c0,0.7,0.6,1.2,1.2,1.2
		h7.5c0.7,0,1.2-0.6,1.2-1.2v-6.2h5v17.4H8.1V74.1z M50.5,91.5h-20V74.1h5v6.2c0,0.7,0.6,1.2,1.2,1.2h7.5c0.7,0,1.2-0.6,1.2-1.2
		v-6.2h5L50.5,91.5L50.5,91.5z"/>
	<path class="st4" d="M45.5,86.5H48V89h-2.5V86.5z"/>
	<path class="st4" d="M23.1,66.6h2.5v2.5h-2.5V66.6z"/>
	<path class="st4" d="M88.8,23.2c0.1,0,0.2,0,0.3,0c0.4,0,0.9-0.2,1.1-0.6c0.1-0.2,0.2-0.4,0.2-0.7v-5c0-0.6-0.4-1.1-1-1.2L53.3,7
		c-0.2,0-0.4,0-0.6,0l-36.1,8.7c-0.6,0.1-1,0.6-1,1.2v4.9c0,0.3,0.1,0.5,0.2,0.7c0.3,0.4,0.8,0.6,1.3,0.5l2.2-0.5V38h2.5V22L53,14.5
		L84.1,22v58.5h-7.5V31.9c0-0.7-0.6-1.2-1.2-1.2H30.6c-0.7,0-1.2,0.6-1.2,1.2v5c0,0.7,0.6,1.2,1.2,1.2h43.6v2.5H43v2.5h31.1v2.5H43
		v2.5h31.1v2.5H43v2.5h31.1v27.4h-8.7V83h24.9v-2.5h-3.7V22.6L88.8,23.2z M31.8,35.7v-2.5h42.4v2.5H31.8z M53,12c-0.1,0-0.2,0-0.3,0
		l-34.6,8.3v-2.4L53,9.5l34.9,8.4v2.4L53.3,12C53.2,12,53.1,12,53,12z"/>
</g>
</svg>
